<?xml version="1.0" encoding="UTF-8" standalone="no"?>
<!-- Created with Inkscape (http://www.inkscape.org/) -->

<svg
   xmlns:dc="http://purl.org/dc/elements/1.1/"
   xmlns:cc="http://creativecommons.org/ns#"
   xmlns:rdf="http://www.w3.org/1999/02/22-rdf-syntax-ns#"
   xmlns:svg="http://www.w3.org/2000/svg"
   xmlns="http://www.w3.org/2000/svg"
   xmlns:sodipodi="http://sodipodi.sourceforge.net/DTD/sodipodi-0.dtd"
   xmlns:inkscape="http://www.inkscape.org/namespaces/inkscape"
   width="175.5"
   height="175.5"
   id="svg2"
   version="1.1"
   inkscape:version="0.48.4 r9939"
   sodipodi:docname="christmas tree.svg"
   inkscape:export-filename="C:\Projects\xmas2013\tree\artwork\christmas tree.png"
   inkscape:export-xdpi="600"
   inkscape:export-ydpi="600">
  <defs
     id="defs4" />
  <sodipodi:namedview
     id="base"
     pagecolor="#ffffff"
     bordercolor="#666666"
     borderopacity="1.0"
     inkscape:pageopacity="0.0"
     inkscape:pageshadow="2"
     inkscape:zoom="5.2877493"
     inkscape:cx="58.441075"
     inkscape:cy="83.022091"
     inkscape:document-units="in"
     inkscape:current-layer="layer1"
     showgrid="false"
     units="in"
     inkscape:window-width="1920"
     inkscape:window-height="1107"
     inkscape:window-x="-8"
     inkscape:window-y="-8"
     inkscape:window-maximized="1" />
  <metadata
     id="metadata7">
    <rdf:RDF>
      <cc:Work
         rdf:about="">
        <dc:format>image/svg+xml</dc:format>
        <dc:type
           rdf:resource="http://purl.org/dc/dcmitype/StillImage" />
        <dc:title></dc:title>
      </cc:Work>
    </rdf:RDF>
  </metadata>
  <g
     inkscape:label="Layer 1"
     inkscape:groupmode="layer"
     id="layer1"
     transform="translate(0,-876.85975)">
    <rect
       style="fill:#000000;fill-rule:evenodd;stroke:#000000;stroke-width:0.99418604px;stroke-linecap:butt;stroke-linejoin:miter;stroke-opacity:1"
       id="rect2985"
       width="170.00581"
       height="170.00581"
       x="2.7470932"
       y="879.60681"
       ry="8.5102367" />
    <path
       sodipodi:type="arc"
       style="fill:#ffffff"
       id="path2989"
       sodipodi:cx="-34.797413"
       sodipodi:cy="48.224678"
       sodipodi:rx="6.051724"
       sodipodi:ry="4.917026"
       d="m -28.745689,48.224678 c 0,2.715599 -2.709449,4.917026 -6.051724,4.917026 -3.342275,0 -6.051724,-2.201427 -6.051724,-4.917026 0,-2.715598 2.709449,-4.917026 6.051724,-4.917026 3.342275,0 6.051724,2.201428 6.051724,4.917026 z"
       transform="matrix(0.92948721,0,0,1.1439842,50.34375,839.69148)" />
    <path
       sodipodi:type="arc"
       style="fill:#ffffff"
       id="path2989-1"
       sodipodi:cx="-34.797413"
       sodipodi:cy="48.224678"
       sodipodi:rx="6.051724"
       sodipodi:ry="4.917026"
       d="m -28.745689,48.224678 c 0,2.715599 -2.709449,4.917026 -6.051724,4.917026 -3.342275,0 -6.051724,-2.201427 -6.051724,-4.917026 0,-2.715598 2.709449,-4.917026 6.051724,-4.917026 3.342275,0 6.051724,2.201428 6.051724,4.917026 z"
       transform="matrix(0.92948721,0,0,1.1439842,189.84375,839.69148)" />
    <path
       inkscape:connector-curvature="0"
       style="fill:#ffffff;fill-opacity:1;fill-rule:evenodd;stroke:none"
       d="m 44.077682,946.56995 c 5.007651,2.96466 14.474124,-3.50492 9.315877,5.78139 -5.158247,9.28629 -34.434637,26.44488 -21.863277,30.2198 5.789838,1.73863 15.853657,-4.0425 9.644078,7.39718 -4.424328,8.15072 -17.122066,16.22818 -21.863277,23.78198 -3.31381,21.5018 43.158126,-3.0236 49.179752,10.9317 0.351966,8.6125 -0.791407,13.8286 4.190882,18.3287 8.438711,0.711 21.931945,0.3044 30.371273,0 4.98228,-4.5001 3.81368,-9.7162 4.16564,-18.3287 6.02163,-13.9553 52.49355,10.5701 49.17975,-10.9317 -4.74121,-7.5538 -17.43896,-15.63126 -21.86328,-23.78198 -6.20958,-11.43968 3.85423,-5.65855 9.64408,-7.39718 12.57137,-3.77492 -16.67979,-20.93351 -21.83803,-30.2198 -5.15826,-9.28631 4.30823,-2.81673 9.31588,-5.78139 -0.32819,-14.58121 -37.303431,-51.66427 -43.694951,-51.66427 -5.936934,0 -45.637266,39.0662 -43.884397,51.66427 z"
       id="path2161"
       sodipodi:nodetypes="csssccccccsssczc" />
    <path
       sodipodi:type="arc"
       style="fill:#ffffff;stroke:none"
       id="path3613"
       sodipodi:cx="59.571659"
       sodipodi:cy="163.58566"
       sodipodi:rx="3.025862"
       sodipodi:ry="2.8367457"
       d="m 62.597521,163.58566 a 3.025862,2.8367457 0 1 1 -6.051724,0 3.025862,2.8367457 0 1 1 6.051724,0 z"
       transform="matrix(1.1153846,0,0,-1.1897436,5.5996887,1237.9397)" />
    <path
       transform="matrix(1.1153846,0,0,-1.1897436,41.599689,1237.9397)"
       d="m 62.597521,163.58566 a 3.025862,2.8367457 0 1 1 -6.051724,0 3.025862,2.8367457 0 1 1 6.051724,0 z"
       sodipodi:ry="2.8367457"
       sodipodi:rx="3.025862"
       sodipodi:cy="163.58566"
       sodipodi:cx="59.571659"
       id="path4405"
       style="fill:#ffffff;stroke:none"
       sodipodi:type="arc" />
    <path
       sodipodi:type="arc"
       style="fill:#ffffff;stroke:none"
       id="path4407"
       sodipodi:cx="59.571659"
       sodipodi:cy="163.58566"
       sodipodi:rx="3.025862"
       sodipodi:ry="2.8367457"
       d="m 62.597521,163.58566 a 3.025862,2.8367457 0 1 1 -6.051724,0 3.025862,2.8367457 0 1 1 6.051724,0 z"
       transform="matrix(1.1153846,0,0,-1.1897436,77.599689,1237.9847)" />
    <path
       transform="matrix(1.1153846,0,0,-1.1897436,95.599689,1237.9397)"
       d="m 62.597521,163.58566 a 3.025862,2.8367457 0 1 1 -6.051724,0 3.025862,2.8367457 0 1 1 6.051724,0 z"
       sodipodi:ry="2.8367457"
       sodipodi:rx="3.025862"
       sodipodi:cy="163.58566"
       sodipodi:cx="59.571659"
       id="path4409"
       style="fill:#ffffff;stroke:none"
       sodipodi:type="arc" />
    <path
       transform="matrix(1.1153846,0,0,-1.1897436,32.599689,1080.4397)"
       d="m 62.597521,163.58566 a 3.025862,2.8367457 0 1 1 -6.051724,0 3.025862,2.8367457 0 1 1 6.051724,0 z"
       sodipodi:ry="2.8367457"
       sodipodi:rx="3.025862"
       sodipodi:cy="163.58566"
       sodipodi:cx="59.571659"
       id="path3434"
       style="fill:#ffffff;stroke:none"
       sodipodi:type="arc" />
    <path
       sodipodi:type="arc"
       style="fill:#ffffff;stroke:none"
       id="path3436"
       sodipodi:cx="59.571659"
       sodipodi:cy="163.58566"
       sodipodi:rx="3.025862"
       sodipodi:ry="2.8367457"
       d="m 62.597521,163.58566 a 3.025862,2.8367457 0 1 1 -6.051724,0 3.025862,2.8367457 0 1 1 6.051724,0 z"
       transform="matrix(1.1153846,0,0,-1.1897436,10.099689,1080.4397)" />
    <path
       transform="matrix(1.1153846,0,0,-1.1897436,-7.9003113,1080.4397)"
       d="m 62.597521,163.58566 a 3.025862,2.8367457 0 1 1 -6.051724,0 3.025862,2.8367457 0 1 1 6.051724,0 z"
       sodipodi:ry="2.8367457"
       sodipodi:rx="3.025862"
       sodipodi:cy="163.58566"
       sodipodi:cx="59.571659"
       id="path3438"
       style="fill:#ffffff;stroke:none"
       sodipodi:type="arc" />
    <path
       sodipodi:type="arc"
       style="fill:#ffffff;stroke:none"
       id="path3440"
       sodipodi:cx="59.571659"
       sodipodi:cy="163.58566"
       sodipodi:rx="3.025862"
       sodipodi:ry="2.8367457"
       d="m 62.597521,163.58566 a 3.025862,2.8367457 0 1 1 -6.051724,0 3.025862,2.8367457 0 1 1 6.051724,0 z"
       transform="matrix(1.1153846,0,0,-1.1897436,50.599689,1080.4397)" />
    <path
       transform="matrix(1.1153846,0,0,-1.1897436,16.804689,1089.4397)"
       d="m 62.597521,163.58566 a 3.025862,2.8367457 0 1 1 -6.051724,0 3.025862,2.8367457 0 1 1 6.051724,0 z"
       sodipodi:ry="2.8367457"
       sodipodi:rx="3.025862"
       sodipodi:cy="163.58566"
       sodipodi:cx="59.571659"
       id="path3442"
       style="fill:#ffffff;stroke:none"
       sodipodi:type="arc" />
    <path
       sodipodi:type="arc"
       style="fill:#ffffff;stroke:none"
       id="path3444"
       sodipodi:cx="59.571659"
       sodipodi:cy="163.58566"
       sodipodi:rx="3.025862"
       sodipodi:ry="2.8367457"
       d="m 62.597521,163.58566 a 3.025862,2.8367457 0 1 1 -6.051724,0 3.025862,2.8367457 0 1 1 6.051724,0 z"
       transform="matrix(1.1153846,0,0,-1.1897436,25.849689,1089.4397)" />
    <rect
       style="fill:#ffffff;fill-rule:evenodd;stroke:none"
       id="rect3446"
       width="11.25"
       height="6.75"
       x="133.875"
       y="1021.9398"
       ry="3.375" />
    <rect
       ry="3.375"
       y="1030.9397"
       x="133.875"
       height="6.75"
       width="11.25"
       id="rect4216"
       style="fill:#ffffff;fill-rule:evenodd;stroke:none" />
    <rect
       style="fill:#ffffff;fill-rule:evenodd;stroke:none"
       id="rect4218"
       width="11.25"
       height="6.75"
       x="160.92"
       y="1030.9397"
       ry="3.375" />
    <rect
       ry="3.375"
       y="1021.9398"
       x="160.92"
       height="6.75"
       width="11.25"
       id="rect4220"
       style="fill:#ffffff;fill-rule:evenodd;stroke:none" />
    <rect
       style="fill:#ffffff;fill-rule:evenodd;stroke:none"
       id="rect4222"
       width="11.25"
       height="6.75"
       x="160.92"
       y="1012.9398"
       ry="3.375" />
    <rect
       ry="3.375"
       y="1003.9398"
       x="160.92"
       height="6.75"
       width="11.25"
       id="rect4224"
       style="fill:#ffffff;fill-rule:evenodd;stroke:none" />
    <rect
       ry="3.375"
       y="1041.3347"
       x="5.1750002"
       height="6.75"
       width="11.25"
       id="rect4226"
       style="fill:#ffffff;fill-rule:evenodd;stroke:none" />
    <rect
       style="fill:#ffffff;fill-rule:evenodd;stroke:none"
       id="rect4228"
       width="11.25"
       height="6.75"
       x="28.575001"
       y="1041.3347"
       ry="3.375" />
    <rect
       ry="3.375"
       y="1025.1348"
       x="28.575001"
       height="6.75"
       width="11.25"
       id="rect4230"
       style="fill:#ffffff;fill-rule:evenodd;stroke:none" />
    <rect
       style="fill:#ffffff;fill-rule:evenodd;stroke:none"
       id="rect4232"
       width="11.25"
       height="6.75"
       x="5.1750002"
       y="1025.1348"
       ry="3.375" />
  </g>
</svg>
