G75*
G70*
%OFA0B0*%
%FSLAX24Y24*%
%IPPOS*%
%LPD*%
%AMOC8*
5,1,8,0,0,1.08239X$1,22.5*
%
%ADD10C,0.0000*%
%ADD11C,0.0060*%
%ADD12C,0.0100*%
%ADD13C,0.0020*%
%ADD14R,1.7233X0.0017*%
%ADD15R,1.7433X0.0017*%
%ADD16R,1.7567X0.0017*%
%ADD17R,1.7667X0.0017*%
%ADD18R,1.7767X0.0017*%
%ADD19R,1.7833X0.0017*%
%ADD20R,1.7900X0.0017*%
%ADD21R,1.7967X0.0017*%
%ADD22R,1.8033X0.0017*%
%ADD23R,1.8067X0.0017*%
%ADD24R,1.8133X0.0017*%
%ADD25R,1.8167X0.0017*%
%ADD26R,1.8200X0.0017*%
%ADD27R,1.8267X0.0017*%
%ADD28R,0.0250X0.0017*%
%ADD29R,0.1900X0.0017*%
%ADD30R,1.4750X0.0017*%
%ADD31R,0.0217X0.0017*%
%ADD32R,0.1800X0.0017*%
%ADD33R,1.4716X0.0017*%
%ADD34R,0.0200X0.0017*%
%ADD35R,0.1733X0.0017*%
%ADD36R,1.4700X0.0017*%
%ADD37R,0.0183X0.0017*%
%ADD38R,0.1667X0.0017*%
%ADD39R,1.4684X0.0017*%
%ADD40R,0.0183X0.0017*%
%ADD41R,0.1633X0.0017*%
%ADD42R,1.4683X0.0017*%
%ADD43R,0.0184X0.0017*%
%ADD44R,0.1600X0.0017*%
%ADD45R,1.4683X0.0017*%
%ADD46R,0.1567X0.0017*%
%ADD47R,0.1533X0.0017*%
%ADD48R,0.1500X0.0017*%
%ADD49R,0.1467X0.0017*%
%ADD50R,1.1534X0.0017*%
%ADD51R,0.1816X0.0017*%
%ADD52R,0.0967X0.0017*%
%ADD53R,0.1467X0.0017*%
%ADD54R,1.1484X0.0017*%
%ADD55R,0.1716X0.0017*%
%ADD56R,0.0900X0.0017*%
%ADD57R,0.1433X0.0017*%
%ADD58R,1.1433X0.0017*%
%ADD59R,0.1650X0.0017*%
%ADD60R,0.0883X0.0017*%
%ADD61R,1.1417X0.0017*%
%ADD62R,0.1584X0.0017*%
%ADD63R,0.0184X0.0017*%
%ADD64R,0.1400X0.0017*%
%ADD65R,1.1366X0.0017*%
%ADD66R,0.1550X0.0017*%
%ADD67R,0.0850X0.0017*%
%ADD68R,0.1400X0.0017*%
%ADD69R,1.1350X0.0017*%
%ADD70R,0.1516X0.0017*%
%ADD71R,0.0850X0.0017*%
%ADD72R,0.0217X0.0017*%
%ADD73R,1.1333X0.0017*%
%ADD74R,0.0200X0.0017*%
%ADD75R,0.1367X0.0017*%
%ADD76R,1.1300X0.0017*%
%ADD77R,0.1450X0.0017*%
%ADD78R,0.0833X0.0017*%
%ADD79R,0.1367X0.0017*%
%ADD80R,1.1284X0.0017*%
%ADD81R,0.1416X0.0017*%
%ADD82R,0.0833X0.0017*%
%ADD83R,0.1384X0.0017*%
%ADD84R,0.0817X0.0017*%
%ADD85R,0.0233X0.0017*%
%ADD86R,1.1267X0.0017*%
%ADD87R,0.0834X0.0017*%
%ADD88R,0.0233X0.0017*%
%ADD89R,1.1267X0.0017*%
%ADD90R,0.1350X0.0017*%
%ADD91R,1.1250X0.0017*%
%ADD92R,0.1316X0.0017*%
%ADD93R,0.0250X0.0017*%
%ADD94R,1.1250X0.0017*%
%ADD95R,0.1316X0.0017*%
%ADD96R,0.0816X0.0017*%
%ADD97R,0.0267X0.0017*%
%ADD98R,1.1234X0.0017*%
%ADD99R,0.1300X0.0017*%
%ADD100R,0.1284X0.0017*%
%ADD101R,0.0267X0.0017*%
%ADD102R,1.1234X0.0017*%
%ADD103R,0.1284X0.0017*%
%ADD104R,0.0817X0.0017*%
%ADD105R,0.0283X0.0017*%
%ADD106R,1.1217X0.0017*%
%ADD107R,0.1267X0.0017*%
%ADD108R,0.0834X0.0017*%
%ADD109R,0.0300X0.0017*%
%ADD110R,1.1233X0.0017*%
%ADD111R,0.1250X0.0017*%
%ADD112R,0.0317X0.0017*%
%ADD113R,1.1233X0.0017*%
%ADD114R,0.1250X0.0017*%
%ADD115R,0.0333X0.0017*%
%ADD116R,0.1433X0.0017*%
%ADD117R,0.4317X0.0017*%
%ADD118R,0.5333X0.0017*%
%ADD119R,0.0333X0.0017*%
%ADD120R,0.3933X0.0017*%
%ADD121R,0.4667X0.0017*%
%ADD122R,0.0367X0.0017*%
%ADD123R,0.3717X0.0017*%
%ADD124R,0.4183X0.0017*%
%ADD125R,0.0367X0.0017*%
%ADD126R,0.3684X0.0017*%
%ADD127R,0.4167X0.0017*%
%ADD128R,0.1267X0.0017*%
%ADD129R,0.0867X0.0017*%
%ADD130R,0.0384X0.0017*%
%ADD131R,0.3683X0.0017*%
%ADD132R,0.4150X0.0017*%
%ADD133R,0.0867X0.0017*%
%ADD134R,0.0400X0.0017*%
%ADD135R,0.1533X0.0017*%
%ADD136R,0.0417X0.0017*%
%ADD137R,0.1567X0.0017*%
%ADD138R,0.4134X0.0017*%
%ADD139R,0.0434X0.0017*%
%ADD140R,0.4117X0.0017*%
%ADD141R,0.0466X0.0017*%
%ADD142R,0.1633X0.0017*%
%ADD143R,0.4100X0.0017*%
%ADD144R,0.0900X0.0017*%
%ADD145R,0.0483X0.0017*%
%ADD146R,0.1667X0.0017*%
%ADD147R,0.3700X0.0017*%
%ADD148R,0.4100X0.0017*%
%ADD149R,0.0516X0.0017*%
%ADD150R,0.4083X0.0017*%
%ADD151R,0.1333X0.0017*%
%ADD152R,0.0917X0.0017*%
%ADD153R,0.0550X0.0017*%
%ADD154R,0.1800X0.0017*%
%ADD155R,0.3733X0.0017*%
%ADD156R,0.0583X0.0017*%
%ADD157R,0.1867X0.0017*%
%ADD158R,0.3750X0.0017*%
%ADD159R,0.0934X0.0017*%
%ADD160R,0.0683X0.0017*%
%ADD161R,0.2067X0.0017*%
%ADD162R,0.3834X0.0017*%
%ADD163R,0.4084X0.0017*%
%ADD164R,0.0934X0.0017*%
%ADD165R,0.7650X0.0017*%
%ADD166R,0.0950X0.0017*%
%ADD167R,0.7633X0.0017*%
%ADD168R,0.4083X0.0017*%
%ADD169R,0.0967X0.0017*%
%ADD170R,0.7616X0.0017*%
%ADD171R,0.1484X0.0017*%
%ADD172R,0.0984X0.0017*%
%ADD173R,0.7600X0.0017*%
%ADD174R,0.1000X0.0017*%
%ADD175R,0.7600X0.0017*%
%ADD176R,0.1017X0.0017*%
%ADD177R,0.7583X0.0017*%
%ADD178R,0.4133X0.0017*%
%ADD179R,0.1616X0.0017*%
%ADD180R,0.1050X0.0017*%
%ADD181R,0.1084X0.0017*%
%ADD182R,0.7566X0.0017*%
%ADD183R,0.4184X0.0017*%
%ADD184R,0.1767X0.0017*%
%ADD185R,0.1117X0.0017*%
%ADD186R,0.7550X0.0017*%
%ADD187R,0.4267X0.0017*%
%ADD188R,0.1917X0.0017*%
%ADD189R,0.1184X0.0017*%
%ADD190R,0.7517X0.0017*%
%ADD191R,0.7533X0.0017*%
%ADD192R,0.7517X0.0017*%
%ADD193R,0.7533X0.0017*%
%ADD194R,0.7500X0.0017*%
%ADD195R,0.7516X0.0017*%
%ADD196R,0.7516X0.0017*%
%ADD197R,0.7484X0.0017*%
%ADD198R,0.7484X0.0017*%
%ADD199R,0.7500X0.0017*%
%ADD200R,0.7467X0.0017*%
%ADD201R,0.7483X0.0017*%
%ADD202R,0.7467X0.0017*%
%ADD203R,0.7450X0.0017*%
%ADD204R,0.7466X0.0017*%
%ADD205R,0.7450X0.0017*%
%ADD206R,0.7466X0.0017*%
%ADD207R,0.7434X0.0017*%
%ADD208R,0.7434X0.0017*%
%ADD209R,0.3333X0.0017*%
%ADD210R,0.2333X0.0017*%
%ADD211R,0.0417X0.0017*%
%ADD212R,0.3283X0.0017*%
%ADD213R,0.2233X0.0017*%
%ADD214R,0.0350X0.0017*%
%ADD215R,0.7433X0.0017*%
%ADD216R,0.3250X0.0017*%
%ADD217R,0.2167X0.0017*%
%ADD218R,0.3217X0.0017*%
%ADD219R,0.2100X0.0017*%
%ADD220R,0.0300X0.0017*%
%ADD221R,0.7433X0.0017*%
%ADD222R,0.3166X0.0017*%
%ADD223R,0.2050X0.0017*%
%ADD224R,0.3150X0.0017*%
%ADD225R,0.2016X0.0017*%
%ADD226R,0.3133X0.0017*%
%ADD227R,0.1967X0.0017*%
%ADD228R,0.0234X0.0017*%
%ADD229R,0.7416X0.0017*%
%ADD230R,0.3116X0.0017*%
%ADD231R,0.1950X0.0017*%
%ADD232R,0.7416X0.0017*%
%ADD233R,0.3100X0.0017*%
%ADD234R,0.1916X0.0017*%
%ADD235R,0.3084X0.0017*%
%ADD236R,0.3067X0.0017*%
%ADD237R,0.3050X0.0017*%
%ADD238R,0.1850X0.0017*%
%ADD239R,0.0167X0.0017*%
%ADD240R,0.7400X0.0017*%
%ADD241R,0.1833X0.0017*%
%ADD242R,0.7400X0.0017*%
%ADD243R,0.3034X0.0017*%
%ADD244R,0.1816X0.0017*%
%ADD245R,0.0150X0.0017*%
%ADD246R,0.3034X0.0017*%
%ADD247R,0.0150X0.0017*%
%ADD248R,0.0134X0.0017*%
%ADD249R,0.3000X0.0017*%
%ADD250R,0.1784X0.0017*%
%ADD251R,0.0134X0.0017*%
%ADD252R,0.3000X0.0017*%
%ADD253R,0.1767X0.0017*%
%ADD254R,0.0117X0.0017*%
%ADD255R,0.0117X0.0017*%
%ADD256R,0.7383X0.0017*%
%ADD257R,0.7383X0.0017*%
%ADD258R,0.2983X0.0017*%
%ADD259R,0.3016X0.0017*%
%ADD260R,0.3033X0.0017*%
%ADD261R,0.1867X0.0017*%
%ADD262R,0.3033X0.0017*%
%ADD263R,0.3066X0.0017*%
%ADD264R,0.1933X0.0017*%
%ADD265R,0.3066X0.0017*%
%ADD266R,0.3083X0.0017*%
%ADD267R,0.1984X0.0017*%
%ADD268R,0.0600X0.0017*%
%ADD269R,0.3466X0.0017*%
%ADD270R,0.3116X0.0017*%
%ADD271R,0.2033X0.0017*%
%ADD272R,0.0550X0.0017*%
%ADD273R,0.3416X0.0017*%
%ADD274R,0.3133X0.0017*%
%ADD275R,0.2067X0.0017*%
%ADD276R,0.3383X0.0017*%
%ADD277R,0.2116X0.0017*%
%ADD278R,0.0483X0.0017*%
%ADD279R,0.3350X0.0017*%
%ADD280R,0.3183X0.0017*%
%ADD281R,0.0334X0.0017*%
%ADD282R,0.0466X0.0017*%
%ADD283R,0.3333X0.0017*%
%ADD284R,0.3216X0.0017*%
%ADD285R,0.2250X0.0017*%
%ADD286R,0.0450X0.0017*%
%ADD287R,0.3316X0.0017*%
%ADD288R,0.3283X0.0017*%
%ADD289R,0.2367X0.0017*%
%ADD290R,0.0433X0.0017*%
%ADD291R,0.3300X0.0017*%
%ADD292R,0.7350X0.0017*%
%ADD293R,0.0416X0.0017*%
%ADD294R,0.7350X0.0017*%
%ADD295R,0.3266X0.0017*%
%ADD296R,0.0383X0.0017*%
%ADD297R,0.0383X0.0017*%
%ADD298R,0.3250X0.0017*%
%ADD299R,0.0366X0.0017*%
%ADD300R,0.3233X0.0017*%
%ADD301R,0.0350X0.0017*%
%ADD302R,0.3216X0.0017*%
%ADD303R,0.3200X0.0017*%
%ADD304R,0.3200X0.0017*%
%ADD305R,0.0366X0.0017*%
%ADD306R,0.3233X0.0017*%
%ADD307R,0.0416X0.0017*%
%ADD308R,0.2984X0.0017*%
%ADD309R,0.0433X0.0017*%
%ADD310R,0.3300X0.0017*%
%ADD311R,0.2967X0.0017*%
%ADD312R,0.2967X0.0017*%
%ADD313R,0.3350X0.0017*%
%ADD314R,0.3416X0.0017*%
%ADD315R,0.3450X0.0017*%
%ADD316R,0.3550X0.0017*%
%ADD317R,0.7366X0.0017*%
%ADD318R,0.7366X0.0017*%
%ADD319R,0.2950X0.0017*%
%ADD320R,0.7333X0.0017*%
%ADD321R,0.0650X0.0017*%
%ADD322R,0.6483X0.0017*%
%ADD323R,0.2950X0.0017*%
%ADD324R,0.0600X0.0017*%
%ADD325R,0.6416X0.0017*%
%ADD326R,0.0566X0.0017*%
%ADD327R,0.6367X0.0017*%
%ADD328R,0.0533X0.0017*%
%ADD329R,0.6334X0.0017*%
%ADD330R,0.0516X0.0017*%
%ADD331R,0.6300X0.0017*%
%ADD332R,0.0500X0.0017*%
%ADD333R,0.6266X0.0017*%
%ADD334R,0.6234X0.0017*%
%ADD335R,0.6200X0.0017*%
%ADD336R,0.2933X0.0017*%
%ADD337R,0.1683X0.0017*%
%ADD338R,0.3850X0.0017*%
%ADD339R,0.2933X0.0017*%
%ADD340R,0.1550X0.0017*%
%ADD341R,0.3633X0.0017*%
%ADD342R,0.3434X0.0017*%
%ADD343R,0.1283X0.0017*%
%ADD344R,0.1317X0.0017*%
%ADD345R,0.3134X0.0017*%
%ADD346R,0.1217X0.0017*%
%ADD347R,0.0400X0.0017*%
%ADD348R,0.1217X0.0017*%
%ADD349R,0.1216X0.0017*%
%ADD350R,0.2817X0.0017*%
%ADD351R,0.2834X0.0017*%
%ADD352R,0.1183X0.0017*%
%ADD353R,0.2683X0.0017*%
%ADD354R,0.2700X0.0017*%
%ADD355R,0.2250X0.0017*%
%ADD356R,0.2550X0.0017*%
%ADD357R,0.2217X0.0017*%
%ADD358R,0.2417X0.0017*%
%ADD359R,0.2400X0.0017*%
%ADD360R,0.2184X0.0017*%
%ADD361R,0.1067X0.0017*%
%ADD362R,0.1050X0.0017*%
%ADD363R,0.2100X0.0017*%
%ADD364R,0.2134X0.0017*%
%ADD365R,0.1017X0.0017*%
%ADD366R,0.1950X0.0017*%
%ADD367R,0.2117X0.0017*%
%ADD368R,0.1783X0.0017*%
%ADD369R,0.0984X0.0017*%
%ADD370R,0.1616X0.0017*%
%ADD371R,0.1600X0.0017*%
%ADD372R,0.2050X0.0017*%
%ADD373R,0.1166X0.0017*%
%ADD374R,0.2034X0.0017*%
%ADD375R,0.0917X0.0017*%
%ADD376R,0.0933X0.0017*%
%ADD377R,0.2034X0.0017*%
%ADD378R,0.2017X0.0017*%
%ADD379R,0.2000X0.0017*%
%ADD380R,0.1984X0.0017*%
%ADD381R,0.0883X0.0017*%
%ADD382R,0.0767X0.0017*%
%ADD383R,0.0884X0.0017*%
%ADD384R,0.0734X0.0017*%
%ADD385R,0.0884X0.0017*%
%ADD386R,0.0700X0.0017*%
%ADD387R,0.0633X0.0017*%
%ADD388R,0.0916X0.0017*%
%ADD389R,0.0616X0.0017*%
%ADD390R,0.0933X0.0017*%
%ADD391R,0.0533X0.0017*%
%ADD392R,0.0950X0.0017*%
%ADD393R,0.0567X0.0017*%
%ADD394R,0.0567X0.0017*%
%ADD395R,0.1034X0.0017*%
%ADD396R,0.0733X0.0017*%
%ADD397R,0.1134X0.0017*%
%ADD398R,0.0517X0.0017*%
%ADD399R,0.1883X0.0017*%
%ADD400R,0.1883X0.0017*%
%ADD401R,0.0517X0.0017*%
%ADD402R,0.0500X0.0017*%
%ADD403R,0.0583X0.0017*%
%ADD404R,0.1900X0.0017*%
%ADD405R,0.0617X0.0017*%
%ADD406R,0.0633X0.0017*%
%ADD407R,0.0667X0.0017*%
%ADD408R,0.0716X0.0017*%
%ADD409R,0.1933X0.0017*%
%ADD410R,0.0800X0.0017*%
%ADD411R,0.1966X0.0017*%
%ADD412R,0.1934X0.0017*%
%ADD413R,0.1983X0.0017*%
%ADD414R,0.1983X0.0017*%
%ADD415R,0.2016X0.0017*%
%ADD416R,0.2066X0.0017*%
%ADD417R,0.2083X0.0017*%
%ADD418R,0.2083X0.0017*%
%ADD419R,0.2084X0.0017*%
%ADD420R,0.2133X0.0017*%
%ADD421R,0.2150X0.0017*%
%ADD422R,0.2166X0.0017*%
%ADD423R,0.2166X0.0017*%
%ADD424R,0.1016X0.0017*%
%ADD425R,0.2183X0.0017*%
%ADD426R,0.2200X0.0017*%
%ADD427R,0.2216X0.0017*%
%ADD428R,0.0983X0.0017*%
%ADD429R,0.2233X0.0017*%
%ADD430R,0.0983X0.0017*%
%ADD431R,0.2266X0.0017*%
%ADD432R,0.2283X0.0017*%
%ADD433R,0.0966X0.0017*%
%ADD434R,0.2300X0.0017*%
%ADD435R,0.2316X0.0017*%
%ADD436R,0.2350X0.0017*%
%ADD437R,0.2350X0.0017*%
%ADD438R,0.1000X0.0017*%
%ADD439R,0.2366X0.0017*%
%ADD440R,0.2383X0.0017*%
%ADD441R,0.2400X0.0017*%
%ADD442R,0.2416X0.0017*%
%ADD443R,0.1033X0.0017*%
%ADD444R,0.2433X0.0017*%
%ADD445R,0.2450X0.0017*%
%ADD446R,0.1067X0.0017*%
%ADD447R,0.2466X0.0017*%
%ADD448R,0.1083X0.0017*%
%ADD449R,0.2483X0.0017*%
%ADD450R,0.1100X0.0017*%
%ADD451R,0.2500X0.0017*%
%ADD452R,0.2533X0.0017*%
%ADD453R,0.1133X0.0017*%
%ADD454R,0.2550X0.0017*%
%ADD455R,0.1150X0.0017*%
%ADD456R,0.2566X0.0017*%
%ADD457R,0.1167X0.0017*%
%ADD458R,0.2583X0.0017*%
%ADD459R,0.2600X0.0017*%
%ADD460R,0.1200X0.0017*%
%ADD461R,0.2616X0.0017*%
%ADD462R,0.1234X0.0017*%
%ADD463R,0.2633X0.0017*%
%ADD464R,0.2650X0.0017*%
%ADD465R,0.2666X0.0017*%
%ADD466R,0.1300X0.0017*%
%ADD467R,0.2716X0.0017*%
%ADD468R,0.2733X0.0017*%
%ADD469R,0.1417X0.0017*%
%ADD470R,0.2750X0.0017*%
%ADD471R,0.1450X0.0017*%
%ADD472R,0.2766X0.0017*%
%ADD473R,0.1483X0.0017*%
%ADD474R,0.2783X0.0017*%
%ADD475R,0.1517X0.0017*%
%ADD476R,0.2800X0.0017*%
%ADD477R,0.2816X0.0017*%
%ADD478R,0.1583X0.0017*%
%ADD479R,0.2833X0.0017*%
%ADD480R,0.2850X0.0017*%
%ADD481R,0.2866X0.0017*%
%ADD482R,0.1733X0.0017*%
%ADD483R,0.2900X0.0017*%
%ADD484R,0.2916X0.0017*%
%ADD485R,0.2884X0.0017*%
%ADD486R,0.2900X0.0017*%
%ADD487R,0.2917X0.0017*%
%ADD488R,0.2966X0.0017*%
%ADD489R,0.2934X0.0017*%
%ADD490R,0.3017X0.0017*%
%ADD491R,0.3083X0.0017*%
%ADD492R,0.3150X0.0017*%
%ADD493R,0.3117X0.0017*%
%ADD494R,0.3166X0.0017*%
%ADD495R,0.3184X0.0017*%
%ADD496R,0.3234X0.0017*%
%ADD497R,0.3267X0.0017*%
%ADD498R,0.3284X0.0017*%
%ADD499R,0.3317X0.0017*%
%ADD500R,0.3366X0.0017*%
%ADD501R,0.3334X0.0017*%
%ADD502R,0.3400X0.0017*%
%ADD503R,0.3367X0.0017*%
%ADD504R,0.3384X0.0017*%
%ADD505R,0.3433X0.0017*%
%ADD506R,0.3450X0.0017*%
%ADD507R,0.3417X0.0017*%
%ADD508R,0.3466X0.0017*%
%ADD509R,0.3483X0.0017*%
%ADD510R,0.3467X0.0017*%
%ADD511R,0.3500X0.0017*%
%ADD512R,0.3484X0.0017*%
%ADD513R,0.3516X0.0017*%
%ADD514R,0.3500X0.0017*%
%ADD515R,0.3533X0.0017*%
%ADD516R,0.3517X0.0017*%
%ADD517R,0.3534X0.0017*%
%ADD518R,0.3566X0.0017*%
%ADD519R,0.3550X0.0017*%
%ADD520R,0.3583X0.0017*%
%ADD521R,0.3567X0.0017*%
%ADD522R,0.3600X0.0017*%
%ADD523R,0.3616X0.0017*%
%ADD524R,0.3584X0.0017*%
%ADD525R,0.3650X0.0017*%
%ADD526R,0.3617X0.0017*%
%ADD527R,0.3666X0.0017*%
%ADD528R,0.3634X0.0017*%
%ADD529R,0.3700X0.0017*%
%ADD530R,0.3667X0.0017*%
%ADD531R,0.3716X0.0017*%
%ADD532R,0.3750X0.0017*%
%ADD533R,0.3766X0.0017*%
%ADD534R,0.3734X0.0017*%
%ADD535R,0.3783X0.0017*%
%ADD536R,0.3800X0.0017*%
%ADD537R,0.3767X0.0017*%
%ADD538R,0.3816X0.0017*%
%ADD539R,0.3784X0.0017*%
%ADD540R,0.3833X0.0017*%
%ADD541R,0.3817X0.0017*%
%ADD542R,0.3850X0.0017*%
%ADD543R,0.3834X0.0017*%
%ADD544R,0.3866X0.0017*%
%ADD545R,0.3883X0.0017*%
%ADD546R,0.3867X0.0017*%
%ADD547R,0.3900X0.0017*%
%ADD548R,0.3884X0.0017*%
%ADD549R,0.3916X0.0017*%
%ADD550R,0.3900X0.0017*%
%ADD551R,0.3917X0.0017*%
%ADD552R,0.3950X0.0017*%
%ADD553R,0.3917X0.0017*%
%ADD554R,0.3966X0.0017*%
%ADD555R,0.3934X0.0017*%
%ADD556R,0.3983X0.0017*%
%ADD557R,0.3950X0.0017*%
%ADD558R,0.3983X0.0017*%
%ADD559R,0.3967X0.0017*%
%ADD560R,0.4000X0.0017*%
%ADD561R,0.3984X0.0017*%
%ADD562R,0.4016X0.0017*%
%ADD563R,0.4033X0.0017*%
%ADD564R,0.4000X0.0017*%
%ADD565R,0.4050X0.0017*%
%ADD566R,0.4017X0.0017*%
%ADD567R,0.4034X0.0017*%
%ADD568R,0.4066X0.0017*%
%ADD569R,0.4050X0.0017*%
%ADD570R,0.4067X0.0017*%
%ADD571R,0.4116X0.0017*%
%ADD572R,0.4084X0.0017*%
%ADD573R,0.4116X0.0017*%
%ADD574R,0.4150X0.0017*%
%ADD575R,0.4117X0.0017*%
%ADD576R,0.4166X0.0017*%
%ADD577R,0.4134X0.0017*%
%ADD578R,0.4183X0.0017*%
%ADD579R,0.4200X0.0017*%
%ADD580R,0.4167X0.0017*%
%ADD581R,0.4184X0.0017*%
%ADD582R,0.4216X0.0017*%
%ADD583R,0.4200X0.0017*%
%ADD584R,0.4233X0.0017*%
%ADD585R,0.4217X0.0017*%
%ADD586R,0.4250X0.0017*%
%ADD587R,0.4234X0.0017*%
%ADD588R,0.4266X0.0017*%
%ADD589R,0.4234X0.0017*%
%ADD590R,0.4250X0.0017*%
%ADD591R,0.4283X0.0017*%
%ADD592R,0.4283X0.0017*%
%ADD593R,0.4300X0.0017*%
%ADD594R,0.4284X0.0017*%
%ADD595R,0.4316X0.0017*%
%ADD596R,0.4284X0.0017*%
%ADD597R,0.4316X0.0017*%
%ADD598R,0.4333X0.0017*%
%ADD599R,0.4333X0.0017*%
%ADD600R,0.4350X0.0017*%
%ADD601R,0.4317X0.0017*%
%ADD602R,0.4334X0.0017*%
%ADD603R,0.4366X0.0017*%
%ADD604R,0.4334X0.0017*%
%ADD605R,0.4366X0.0017*%
%ADD606R,0.4383X0.0017*%
%ADD607R,0.4383X0.0017*%
%ADD608R,0.4367X0.0017*%
%ADD609R,0.4400X0.0017*%
%ADD610R,0.4367X0.0017*%
%ADD611R,0.4384X0.0017*%
%ADD612R,0.4416X0.0017*%
%ADD613R,0.4384X0.0017*%
%ADD614R,0.4416X0.0017*%
%ADD615R,0.3533X0.0017*%
%ADD616R,0.4417X0.0017*%
%ADD617R,0.4417X0.0017*%
%ADD618R,0.4434X0.0017*%
%ADD619R,0.3467X0.0017*%
%ADD620R,0.4434X0.0017*%
%ADD621R,0.4450X0.0017*%
%ADD622R,0.4450X0.0017*%
%ADD623R,0.4467X0.0017*%
%ADD624R,0.4467X0.0017*%
%ADD625R,0.4484X0.0017*%
%ADD626R,0.4484X0.0017*%
%ADD627R,0.4500X0.0017*%
%ADD628R,0.3400X0.0017*%
%ADD629R,0.4500X0.0017*%
%ADD630R,0.4517X0.0017*%
%ADD631R,0.4517X0.0017*%
%ADD632R,0.3417X0.0017*%
%ADD633R,0.0450X0.0017*%
%ADD634R,0.3217X0.0017*%
%ADD635R,0.3184X0.0017*%
%ADD636R,0.2150X0.0017*%
%ADD637R,0.3100X0.0017*%
%ADD638R,0.2133X0.0017*%
%ADD639R,0.3067X0.0017*%
%ADD640R,0.0650X0.0017*%
%ADD641R,0.2167X0.0017*%
%ADD642R,0.2917X0.0017*%
%ADD643R,0.2916X0.0017*%
%ADD644R,0.2884X0.0017*%
%ADD645R,0.2966X0.0017*%
%ADD646R,0.2934X0.0017*%
%ADD647R,0.2983X0.0017*%
%ADD648R,0.3016X0.0017*%
%ADD649R,0.2984X0.0017*%
%ADD650R,0.3017X0.0017*%
%ADD651R,0.3050X0.0017*%
%ADD652R,0.3117X0.0017*%
%ADD653R,0.3134X0.0017*%
%ADD654R,0.3167X0.0017*%
%ADD655R,0.3167X0.0017*%
%ADD656R,0.3234X0.0017*%
%ADD657R,0.3267X0.0017*%
%ADD658R,0.3284X0.0017*%
%ADD659R,0.3366X0.0017*%
%ADD660R,0.3334X0.0017*%
%ADD661R,0.3383X0.0017*%
%ADD662R,0.3384X0.0017*%
%ADD663R,0.3434X0.0017*%
%ADD664R,0.3566X0.0017*%
%ADD665R,0.3583X0.0017*%
%ADD666R,0.3616X0.0017*%
%ADD667R,0.3584X0.0017*%
%ADD668R,0.3633X0.0017*%
%ADD669R,0.3600X0.0017*%
%ADD670R,0.3666X0.0017*%
%ADD671R,0.3634X0.0017*%
%ADD672R,0.3683X0.0017*%
%ADD673R,0.3650X0.0017*%
%ADD674R,0.3716X0.0017*%
%ADD675R,0.3684X0.0017*%
%ADD676R,0.3733X0.0017*%
%ADD677R,0.3734X0.0017*%
%ADD678R,0.3766X0.0017*%
%ADD679R,0.3783X0.0017*%
%ADD680R,0.3767X0.0017*%
%ADD681R,0.3784X0.0017*%
%ADD682R,0.3817X0.0017*%
%ADD683R,0.3934X0.0017*%
%ADD684R,0.3967X0.0017*%
%ADD685R,0.4016X0.0017*%
%ADD686R,0.3984X0.0017*%
%ADD687R,0.4033X0.0017*%
%ADD688R,0.4133X0.0017*%
%ADD689R,0.4216X0.0017*%
%ADD690R,0.4233X0.0017*%
%ADD691R,0.4217X0.0017*%
%ADD692R,0.4300X0.0017*%
%ADD693R,0.4267X0.0017*%
%ADD694R,0.4350X0.0017*%
%ADD695R,0.4400X0.0017*%
%ADD696R,0.4433X0.0017*%
%ADD697R,0.4466X0.0017*%
%ADD698R,0.4483X0.0017*%
%ADD699R,0.4516X0.0017*%
%ADD700R,0.4533X0.0017*%
%ADD701R,0.4550X0.0017*%
%ADD702R,0.4534X0.0017*%
%ADD703R,0.4583X0.0017*%
%ADD704R,0.4550X0.0017*%
%ADD705R,0.4600X0.0017*%
%ADD706R,0.4567X0.0017*%
%ADD707R,0.4616X0.0017*%
%ADD708R,0.4584X0.0017*%
%ADD709R,0.4633X0.0017*%
%ADD710R,0.4600X0.0017*%
%ADD711R,0.4650X0.0017*%
%ADD712R,0.4634X0.0017*%
%ADD713R,0.4666X0.0017*%
%ADD714R,0.4683X0.0017*%
%ADD715R,0.4667X0.0017*%
%ADD716R,0.4716X0.0017*%
%ADD717R,0.4684X0.0017*%
%ADD718R,0.4733X0.0017*%
%ADD719R,0.4700X0.0017*%
%ADD720R,0.4750X0.0017*%
%ADD721R,0.4717X0.0017*%
%ADD722R,0.4766X0.0017*%
%ADD723R,0.4734X0.0017*%
%ADD724R,0.4783X0.0017*%
%ADD725R,0.4767X0.0017*%
%ADD726R,0.4800X0.0017*%
%ADD727R,0.4784X0.0017*%
%ADD728R,0.4816X0.0017*%
%ADD729R,0.4800X0.0017*%
%ADD730R,0.4833X0.0017*%
%ADD731R,0.4817X0.0017*%
%ADD732R,0.4866X0.0017*%
%ADD733R,0.4834X0.0017*%
%ADD734R,0.4883X0.0017*%
%ADD735R,0.4850X0.0017*%
%ADD736R,0.4900X0.0017*%
%ADD737R,0.4867X0.0017*%
%ADD738R,0.4916X0.0017*%
%ADD739R,0.4884X0.0017*%
%ADD740R,0.4933X0.0017*%
%ADD741R,0.4950X0.0017*%
%ADD742R,0.4917X0.0017*%
%ADD743R,0.4966X0.0017*%
%ADD744R,0.4934X0.0017*%
%ADD745R,0.4983X0.0017*%
%ADD746R,0.4967X0.0017*%
%ADD747R,0.5000X0.0017*%
%ADD748R,0.4984X0.0017*%
%ADD749R,0.5016X0.0017*%
%ADD750R,0.5000X0.0017*%
%ADD751R,0.5033X0.0017*%
%ADD752R,0.5017X0.0017*%
%ADD753R,0.5050X0.0017*%
%ADD754R,0.5034X0.0017*%
%ADD755R,0.5066X0.0017*%
%ADD756R,0.5050X0.0017*%
%ADD757R,0.5100X0.0017*%
%ADD758R,0.5067X0.0017*%
%ADD759R,0.5116X0.0017*%
%ADD760R,0.5084X0.0017*%
%ADD761R,0.5133X0.0017*%
%ADD762R,0.5100X0.0017*%
%ADD763R,0.5150X0.0017*%
%ADD764R,0.5117X0.0017*%
%ADD765R,0.5166X0.0017*%
%ADD766R,0.5134X0.0017*%
%ADD767R,0.5183X0.0017*%
%ADD768R,0.5150X0.0017*%
%ADD769R,0.5200X0.0017*%
%ADD770R,0.5167X0.0017*%
%ADD771R,0.5216X0.0017*%
%ADD772R,0.5184X0.0017*%
%ADD773R,0.5233X0.0017*%
%ADD774R,0.5200X0.0017*%
%ADD775R,0.5250X0.0017*%
%ADD776R,0.5217X0.0017*%
%ADD777R,0.5266X0.0017*%
%ADD778R,0.5234X0.0017*%
%ADD779R,0.5283X0.0017*%
%ADD780R,0.5250X0.0017*%
%ADD781R,0.5283X0.0017*%
%ADD782R,0.5267X0.0017*%
%ADD783R,0.5300X0.0017*%
%ADD784R,0.5284X0.0017*%
%ADD785R,0.5316X0.0017*%
%ADD786R,0.5300X0.0017*%
%ADD787R,0.5333X0.0017*%
%ADD788R,0.5317X0.0017*%
%ADD789R,0.5350X0.0017*%
%ADD790R,0.5334X0.0017*%
%ADD791R,0.5366X0.0017*%
%ADD792R,0.5350X0.0017*%
%ADD793R,0.5383X0.0017*%
%ADD794R,0.5367X0.0017*%
%ADD795R,0.5400X0.0017*%
%ADD796R,0.5416X0.0017*%
%ADD797R,0.5384X0.0017*%
%ADD798R,0.5433X0.0017*%
%ADD799R,0.5450X0.0017*%
%ADD800R,0.5417X0.0017*%
%ADD801R,0.5450X0.0017*%
%ADD802R,0.5434X0.0017*%
%ADD803R,0.5466X0.0017*%
%ADD804R,0.5483X0.0017*%
%ADD805R,0.5467X0.0017*%
%ADD806R,0.5500X0.0017*%
%ADD807R,0.5467X0.0017*%
%ADD808R,0.5516X0.0017*%
%ADD809R,0.5484X0.0017*%
%ADD810R,0.5533X0.0017*%
%ADD811R,0.5500X0.0017*%
%ADD812R,0.5550X0.0017*%
%ADD813R,0.5517X0.0017*%
%ADD814R,0.5550X0.0017*%
%ADD815R,0.5534X0.0017*%
%ADD816R,0.5566X0.0017*%
%ADD817R,0.5583X0.0017*%
%ADD818R,0.5600X0.0017*%
%ADD819R,0.5567X0.0017*%
%ADD820R,0.5584X0.0017*%
%ADD821R,0.5616X0.0017*%
%ADD822R,0.5584X0.0017*%
%ADD823R,0.5633X0.0017*%
%ADD824R,0.5617X0.0017*%
%ADD825R,0.5650X0.0017*%
%ADD826R,0.5617X0.0017*%
%ADD827R,0.5666X0.0017*%
%ADD828R,0.5634X0.0017*%
%ADD829R,0.5650X0.0017*%
%ADD830R,0.5683X0.0017*%
%ADD831R,0.5683X0.0017*%
%ADD832R,0.5667X0.0017*%
%ADD833R,0.5700X0.0017*%
%ADD834R,0.5700X0.0017*%
%ADD835R,0.5684X0.0017*%
%ADD836R,0.5716X0.0017*%
%ADD837R,0.5684X0.0017*%
%ADD838R,0.5733X0.0017*%
%ADD839R,0.5733X0.0017*%
%ADD840R,0.5717X0.0017*%
%ADD841R,0.5750X0.0017*%
%ADD842R,0.5750X0.0017*%
%ADD843R,0.5734X0.0017*%
%ADD844R,0.5766X0.0017*%
%ADD845R,0.5734X0.0017*%
%ADD846R,0.5783X0.0017*%
%ADD847R,0.5783X0.0017*%
%ADD848R,0.5767X0.0017*%
%ADD849R,0.5800X0.0017*%
%ADD850R,0.5800X0.0017*%
%ADD851R,0.5767X0.0017*%
%ADD852R,0.5784X0.0017*%
%ADD853R,0.5816X0.0017*%
%ADD854R,0.5816X0.0017*%
%ADD855R,0.5833X0.0017*%
%ADD856R,0.5833X0.0017*%
%ADD857R,0.5817X0.0017*%
%ADD858R,0.5850X0.0017*%
%ADD859R,0.5817X0.0017*%
%ADD860R,0.5850X0.0017*%
%ADD861R,0.4784X0.0017*%
%ADD862R,0.4734X0.0017*%
%ADD863R,0.4683X0.0017*%
%ADD864R,0.4650X0.0017*%
%ADD865R,0.4617X0.0017*%
%ADD866R,0.4617X0.0017*%
%ADD867R,0.4634X0.0017*%
%ADD868R,0.4666X0.0017*%
%ADD869R,0.4684X0.0017*%
%ADD870R,0.4700X0.0017*%
%ADD871R,0.4717X0.0017*%
%ADD872R,0.4716X0.0017*%
%ADD873R,0.4733X0.0017*%
%ADD874R,0.4750X0.0017*%
%ADD875R,0.4767X0.0017*%
%ADD876R,0.4783X0.0017*%
%ADD877R,0.4816X0.0017*%
%ADD878R,0.4834X0.0017*%
%ADD879R,0.4850X0.0017*%
%ADD880R,0.4866X0.0017*%
%ADD881R,0.4884X0.0017*%
%ADD882R,0.4900X0.0017*%
%ADD883R,0.4916X0.0017*%
%ADD884R,0.4934X0.0017*%
%ADD885R,0.4950X0.0017*%
%ADD886R,0.4966X0.0017*%
%ADD887R,0.4984X0.0017*%
%ADD888R,0.5016X0.0017*%
%ADD889R,0.5033X0.0017*%
%ADD890R,0.5034X0.0017*%
%ADD891R,0.5067X0.0017*%
%ADD892R,0.5066X0.0017*%
%ADD893R,0.5083X0.0017*%
%ADD894R,0.5083X0.0017*%
%ADD895R,0.5116X0.0017*%
%ADD896R,0.5117X0.0017*%
%ADD897R,0.5133X0.0017*%
%ADD898R,0.5184X0.0017*%
%ADD899R,0.5183X0.0017*%
%ADD900R,0.5216X0.0017*%
%ADD901R,0.5217X0.0017*%
%ADD902R,0.5233X0.0017*%
%ADD903R,0.5284X0.0017*%
%ADD904R,0.5317X0.0017*%
%ADD905R,0.5366X0.0017*%
%ADD906R,0.5383X0.0017*%
%ADD907R,0.5384X0.0017*%
%ADD908R,0.5417X0.0017*%
%ADD909R,0.5434X0.0017*%
%ADD910R,0.5483X0.0017*%
%ADD911R,0.5484X0.0017*%
%ADD912R,0.5516X0.0017*%
%ADD913R,0.5566X0.0017*%
%ADD914R,0.5583X0.0017*%
%ADD915R,0.5600X0.0017*%
%ADD916R,0.5616X0.0017*%
%ADD917R,0.5633X0.0017*%
%ADD918R,0.5667X0.0017*%
%ADD919R,0.5716X0.0017*%
%ADD920R,0.5784X0.0017*%
%ADD921R,0.5834X0.0017*%
%ADD922R,0.5866X0.0017*%
%ADD923R,0.5883X0.0017*%
%ADD924R,0.5867X0.0017*%
%ADD925R,0.5900X0.0017*%
%ADD926R,0.5884X0.0017*%
%ADD927R,0.5900X0.0017*%
%ADD928R,0.5884X0.0017*%
%ADD929R,0.5916X0.0017*%
%ADD930R,0.5933X0.0017*%
%ADD931R,0.5917X0.0017*%
%ADD932R,0.5950X0.0017*%
%ADD933R,0.5934X0.0017*%
%ADD934R,0.5966X0.0017*%
%ADD935R,0.5934X0.0017*%
%ADD936R,0.5983X0.0017*%
%ADD937R,0.5950X0.0017*%
%ADD938R,0.5983X0.0017*%
%ADD939R,0.5967X0.0017*%
%ADD940R,0.6000X0.0017*%
%ADD941R,0.5984X0.0017*%
%ADD942R,0.6016X0.0017*%
%ADD943R,0.6033X0.0017*%
%ADD944R,0.6000X0.0017*%
%ADD945R,0.6050X0.0017*%
%ADD946R,0.6017X0.0017*%
%ADD947R,0.6066X0.0017*%
%ADD948R,0.6034X0.0017*%
%ADD949R,0.6066X0.0017*%
%ADD950R,0.6050X0.0017*%
%ADD951R,0.6083X0.0017*%
%ADD952R,0.6067X0.0017*%
%ADD953R,0.6100X0.0017*%
%ADD954R,0.6116X0.0017*%
%ADD955R,0.6084X0.0017*%
%ADD956R,0.6133X0.0017*%
%ADD957R,0.6150X0.0017*%
%ADD958R,0.6117X0.0017*%
%ADD959R,0.6150X0.0017*%
%ADD960R,0.6134X0.0017*%
%ADD961R,0.6166X0.0017*%
%ADD962R,0.6183X0.0017*%
%ADD963R,0.6167X0.0017*%
%ADD964R,0.6216X0.0017*%
%ADD965R,0.6184X0.0017*%
%ADD966R,0.6233X0.0017*%
%ADD967R,0.6200X0.0017*%
%ADD968R,0.6233X0.0017*%
%ADD969R,0.6217X0.0017*%
%ADD970R,0.6250X0.0017*%
%ADD971R,0.6283X0.0017*%
%ADD972R,0.6250X0.0017*%
%ADD973R,0.6300X0.0017*%
%ADD974R,0.6267X0.0017*%
%ADD975R,0.6316X0.0017*%
%ADD976R,0.6284X0.0017*%
%ADD977R,0.6333X0.0017*%
%ADD978R,0.6333X0.0017*%
%ADD979R,0.6317X0.0017*%
%ADD980R,0.6350X0.0017*%
%ADD981R,0.6366X0.0017*%
%ADD982R,0.6334X0.0017*%
%ADD983R,0.6383X0.0017*%
%ADD984R,0.6400X0.0017*%
%ADD985R,0.6384X0.0017*%
%ADD986R,0.6433X0.0017*%
%ADD987R,0.6450X0.0017*%
%ADD988R,0.6466X0.0017*%
%ADD989R,0.6417X0.0017*%
%ADD990R,0.6466X0.0017*%
%ADD991R,0.6434X0.0017*%
%ADD992R,0.6500X0.0017*%
%ADD993R,0.6467X0.0017*%
%ADD994R,0.6516X0.0017*%
%ADD995R,0.6484X0.0017*%
%ADD996R,0.6533X0.0017*%
%ADD997R,0.6500X0.0017*%
%ADD998R,0.6550X0.0017*%
%ADD999R,0.6517X0.0017*%
%ADD1000R,0.6566X0.0017*%
%ADD1001R,0.6517X0.0017*%
%ADD1002R,0.6583X0.0017*%
%ADD1003R,0.6534X0.0017*%
%ADD1004R,0.6600X0.0017*%
%ADD1005R,0.6600X0.0017*%
%ADD1006R,0.6567X0.0017*%
%ADD1007R,0.6616X0.0017*%
%ADD1008R,0.6584X0.0017*%
%ADD1009R,0.6633X0.0017*%
%ADD1010R,0.6650X0.0017*%
%ADD1011R,0.6617X0.0017*%
%ADD1012R,0.6666X0.0017*%
%ADD1013R,0.6634X0.0017*%
%ADD1014R,0.6683X0.0017*%
%ADD1015R,0.6634X0.0017*%
%ADD1016R,0.6700X0.0017*%
%ADD1017R,0.6716X0.0017*%
%ADD1018R,0.6667X0.0017*%
%ADD1019R,0.6733X0.0017*%
%ADD1020R,0.6684X0.0017*%
%ADD1021R,0.6750X0.0017*%
%ADD1022R,0.6717X0.0017*%
%ADD1023R,0.6766X0.0017*%
%ADD1024R,0.6734X0.0017*%
%ADD1025R,0.6783X0.0017*%
%ADD1026R,0.6800X0.0017*%
%ADD1027R,0.6767X0.0017*%
%ADD1028R,0.6816X0.0017*%
%ADD1029R,0.6767X0.0017*%
%ADD1030R,0.6833X0.0017*%
%ADD1031R,0.6784X0.0017*%
%ADD1032R,0.6850X0.0017*%
%ADD1033R,0.6866X0.0017*%
%ADD1034R,0.6817X0.0017*%
%ADD1035R,0.6883X0.0017*%
%ADD1036R,0.6834X0.0017*%
%ADD1037R,0.6900X0.0017*%
%ADD1038R,0.6916X0.0017*%
%ADD1039R,0.6867X0.0017*%
%ADD1040R,0.6933X0.0017*%
%ADD1041R,0.6884X0.0017*%
%ADD1042R,0.6950X0.0017*%
%ADD1043R,0.6966X0.0017*%
%ADD1044R,0.6917X0.0017*%
%ADD1045R,0.6983X0.0017*%
%ADD1046R,0.6934X0.0017*%
%ADD1047R,0.7000X0.0017*%
%ADD1048R,0.7016X0.0017*%
%ADD1049R,0.6967X0.0017*%
%ADD1050R,0.7016X0.0017*%
%ADD1051R,0.6984X0.0017*%
%ADD1052R,0.7033X0.0017*%
%ADD1053R,0.7050X0.0017*%
%ADD1054R,0.7000X0.0017*%
%ADD1055R,0.7066X0.0017*%
%ADD1056R,0.7017X0.0017*%
%ADD1057R,0.7083X0.0017*%
%ADD1058R,0.7034X0.0017*%
%ADD1059R,0.7100X0.0017*%
%ADD1060R,0.7116X0.0017*%
%ADD1061R,0.7067X0.0017*%
%ADD1062R,0.7133X0.0017*%
%ADD1063R,0.7084X0.0017*%
%ADD1064R,0.7150X0.0017*%
%ADD1065R,0.7166X0.0017*%
%ADD1066R,0.7117X0.0017*%
%ADD1067R,0.7183X0.0017*%
%ADD1068R,0.7134X0.0017*%
%ADD1069R,0.7200X0.0017*%
%ADD1070R,0.7216X0.0017*%
%ADD1071R,0.7167X0.0017*%
%ADD1072R,0.7233X0.0017*%
%ADD1073R,0.7184X0.0017*%
%ADD1074R,0.7250X0.0017*%
%ADD1075R,0.7266X0.0017*%
%ADD1076R,0.7217X0.0017*%
%ADD1077R,0.7283X0.0017*%
%ADD1078R,0.7234X0.0017*%
%ADD1079R,0.7300X0.0017*%
%ADD1080R,0.7316X0.0017*%
%ADD1081R,0.7267X0.0017*%
%ADD1082R,0.7284X0.0017*%
%ADD1083R,0.7284X0.0017*%
%ADD1084R,0.7300X0.0017*%
%ADD1085R,0.7317X0.0017*%
%ADD1086R,0.7334X0.0017*%
%ADD1087R,0.7367X0.0017*%
%ADD1088R,0.7384X0.0017*%
%ADD1089R,0.7417X0.0017*%
%ADD1090R,0.7550X0.0017*%
%ADD1091R,0.7566X0.0017*%
%ADD1092R,0.7534X0.0017*%
%ADD1093R,0.7633X0.0017*%
%ADD1094R,0.7567X0.0017*%
%ADD1095R,0.7650X0.0017*%
%ADD1096R,0.7584X0.0017*%
%ADD1097R,0.7666X0.0017*%
%ADD1098R,0.7683X0.0017*%
%ADD1099R,0.7617X0.0017*%
%ADD1100R,0.7700X0.0017*%
%ADD1101R,0.7634X0.0017*%
%ADD1102R,0.7716X0.0017*%
%ADD1103R,0.7733X0.0017*%
%ADD1104R,0.7667X0.0017*%
%ADD1105R,0.7750X0.0017*%
%ADD1106R,0.7766X0.0017*%
%ADD1107R,0.7717X0.0017*%
%ADD1108R,0.7783X0.0017*%
%ADD1109R,0.7734X0.0017*%
%ADD1110R,0.7800X0.0017*%
%ADD1111R,0.7833X0.0017*%
%ADD1112R,0.7767X0.0017*%
%ADD1113R,0.7850X0.0017*%
%ADD1114R,0.7784X0.0017*%
%ADD1115R,0.7866X0.0017*%
%ADD1116R,0.7883X0.0017*%
%ADD1117R,0.7817X0.0017*%
%ADD1118R,0.7900X0.0017*%
%ADD1119R,0.7834X0.0017*%
%ADD1120R,0.7916X0.0017*%
%ADD1121R,0.7850X0.0017*%
%ADD1122R,0.7933X0.0017*%
%ADD1123R,0.7867X0.0017*%
%ADD1124R,0.7950X0.0017*%
%ADD1125R,0.7884X0.0017*%
%ADD1126R,0.7966X0.0017*%
%ADD1127R,0.7900X0.0017*%
%ADD1128R,0.7983X0.0017*%
%ADD1129R,0.7917X0.0017*%
%ADD1130R,0.8000X0.0017*%
%ADD1131R,0.7934X0.0017*%
%ADD1132R,0.8016X0.0017*%
%ADD1133R,0.7950X0.0017*%
%ADD1134R,0.8033X0.0017*%
%ADD1135R,0.7967X0.0017*%
%ADD1136R,0.8050X0.0017*%
%ADD1137R,0.7984X0.0017*%
%ADD1138R,0.8066X0.0017*%
%ADD1139R,0.8000X0.0017*%
%ADD1140R,0.8100X0.0017*%
%ADD1141R,0.8034X0.0017*%
%ADD1142R,0.8116X0.0017*%
%ADD1143R,0.8133X0.0017*%
%ADD1144R,0.8067X0.0017*%
%ADD1145R,0.8150X0.0017*%
%ADD1146R,0.8084X0.0017*%
%ADD1147R,0.8166X0.0017*%
%ADD1148R,0.8183X0.0017*%
%ADD1149R,0.8117X0.0017*%
%ADD1150R,0.8200X0.0017*%
%ADD1151R,0.8134X0.0017*%
%ADD1152R,0.8216X0.0017*%
%ADD1153R,0.8250X0.0017*%
%ADD1154R,0.8184X0.0017*%
%ADD1155R,0.8266X0.0017*%
%ADD1156R,0.8283X0.0017*%
%ADD1157R,0.8217X0.0017*%
%ADD1158R,0.8300X0.0017*%
%ADD1159R,0.8234X0.0017*%
%ADD1160R,0.8316X0.0017*%
%ADD1161R,0.8250X0.0017*%
%ADD1162R,0.8333X0.0017*%
%ADD1163R,0.8267X0.0017*%
%ADD1164R,0.8350X0.0017*%
%ADD1165R,0.8284X0.0017*%
%ADD1166R,0.8383X0.0017*%
%ADD1167R,0.8300X0.0017*%
%ADD1168R,0.8400X0.0017*%
%ADD1169R,0.8334X0.0017*%
%ADD1170R,0.8416X0.0017*%
%ADD1171R,0.8433X0.0017*%
%ADD1172R,0.8367X0.0017*%
%ADD1173R,0.8450X0.0017*%
%ADD1174R,0.8384X0.0017*%
%ADD1175R,0.8466X0.0017*%
%ADD1176R,0.8400X0.0017*%
%ADD1177R,0.8483X0.0017*%
%ADD1178R,0.8417X0.0017*%
%ADD1179R,0.8516X0.0017*%
%ADD1180R,0.8434X0.0017*%
%ADD1181R,0.8533X0.0017*%
%ADD1182R,0.8467X0.0017*%
%ADD1183R,0.8550X0.0017*%
%ADD1184R,0.8484X0.0017*%
%ADD1185R,0.6683X0.0017*%
%ADD1186R,0.1617X0.0017*%
%ADD1187R,0.1566X0.0017*%
%ADD1188R,0.6667X0.0017*%
%ADD1189R,0.6583X0.0017*%
%ADD1190R,0.6633X0.0017*%
%ADD1191R,0.1483X0.0017*%
%ADD1192R,0.6550X0.0017*%
%ADD1193R,0.6534X0.0017*%
%ADD1194R,0.1383X0.0017*%
%ADD1195R,0.1366X0.0017*%
%ADD1196R,0.6516X0.0017*%
%ADD1197R,0.1334X0.0017*%
%ADD1198R,0.6533X0.0017*%
%ADD1199R,0.1317X0.0017*%
%ADD1200R,0.1283X0.0017*%
%ADD1201R,0.1266X0.0017*%
%ADD1202R,0.1233X0.0017*%
%ADD1203R,0.1234X0.0017*%
%ADD1204R,0.1233X0.0017*%
%ADD1205R,0.6567X0.0017*%
%ADD1206R,0.1200X0.0017*%
%ADD1207R,0.6483X0.0017*%
%ADD1208R,0.6417X0.0017*%
%ADD1209R,0.1166X0.0017*%
%ADD1210R,0.6383X0.0017*%
%ADD1211R,0.6366X0.0017*%
%ADD1212R,0.1167X0.0017*%
%ADD1213R,0.6350X0.0017*%
%ADD1214R,0.1150X0.0017*%
%ADD1215R,0.6283X0.0017*%
%ADD1216R,0.1133X0.0017*%
%ADD1217R,0.6267X0.0017*%
%ADD1218R,0.1134X0.0017*%
%ADD1219R,0.0017X0.0017*%
%ADD1220R,0.0067X0.0017*%
%ADD1221R,0.0083X0.0017*%
%ADD1222R,0.0284X0.0017*%
%ADD1223R,0.0316X0.0017*%
%ADD1224R,0.1183X0.0017*%
%ADD1225R,0.6400X0.0017*%
%ADD1226R,0.1184X0.0017*%
%ADD1227R,0.0484X0.0017*%
%ADD1228R,0.1216X0.0017*%
%ADD1229R,0.0667X0.0017*%
%ADD1230R,0.0750X0.0017*%
%ADD1231R,0.6684X0.0017*%
%ADD1232R,0.1266X0.0017*%
%ADD1233R,1.4533X0.0017*%
%ADD1234R,1.4567X0.0017*%
%ADD1235R,1.4600X0.0017*%
%ADD1236R,0.1333X0.0017*%
%ADD1237R,1.4667X0.0017*%
%ADD1238R,0.1334X0.0017*%
%ADD1239R,0.1366X0.0017*%
%ADD1240R,1.4733X0.0017*%
%ADD1241R,0.1383X0.0017*%
%ADD1242R,1.4767X0.0017*%
%ADD1243R,0.1384X0.0017*%
%ADD1244R,1.4833X0.0017*%
%ADD1245R,1.4867X0.0017*%
%ADD1246R,0.1434X0.0017*%
%ADD1247R,0.1466X0.0017*%
%ADD1248R,1.4933X0.0017*%
%ADD1249R,1.5000X0.0017*%
%ADD1250R,1.5100X0.0017*%
%ADD1251R,1.5200X0.0017*%
%ADD1252R,1.5467X0.0017*%
%ADD1253R,0.1734X0.0017*%
%ADD1254R,0.6167X0.0017*%
%ADD1255R,0.6100X0.0017*%
%ADD1256R,0.6017X0.0017*%
%ADD1257R,0.1884X0.0017*%
%ADD1258R,0.5933X0.0017*%
%ADD1259R,0.5916X0.0017*%
%ADD1260R,0.1784X0.0017*%
%ADD1261R,0.5867X0.0017*%
%ADD1262R,0.1750X0.0017*%
%ADD1263R,0.1750X0.0017*%
%ADD1264R,0.5834X0.0017*%
%ADD1265R,0.5866X0.0017*%
%ADD1266R,0.5917X0.0017*%
%ADD1267R,0.5967X0.0017*%
%ADD1268R,1.8533X0.0017*%
%ADD1269R,1.8500X0.0017*%
%ADD1270R,1.8467X0.0017*%
%ADD1271R,1.8433X0.0017*%
%ADD1272R,1.8400X0.0017*%
%ADD1273R,1.8367X0.0017*%
%ADD1274R,1.8333X0.0017*%
%ADD1275R,1.8300X0.0017*%
%ADD1276R,1.8233X0.0017*%
%ADD1277R,1.8167X0.0017*%
%ADD1278R,1.8100X0.0017*%
%ADD1279R,1.8033X0.0017*%
%ADD1280R,1.7900X0.0017*%
%ADD1281R,1.7833X0.0017*%
%ADD1282R,1.7667X0.0017*%
%ADD1283R,1.7600X0.0017*%
%ADD1284R,1.7467X0.0017*%
%ADD1285R,1.7267X0.0017*%
D10*
X000655Y001655D02*
X000655Y019155D01*
X000657Y019215D01*
X000662Y019276D01*
X000671Y019335D01*
X000684Y019394D01*
X000700Y019453D01*
X000720Y019510D01*
X000743Y019565D01*
X000770Y019620D01*
X000799Y019672D01*
X000832Y019723D01*
X000868Y019772D01*
X000906Y019818D01*
X000948Y019862D01*
X000992Y019904D01*
X001038Y019942D01*
X001087Y019978D01*
X001138Y020011D01*
X001190Y020040D01*
X001245Y020067D01*
X001300Y020090D01*
X001357Y020110D01*
X001416Y020126D01*
X001475Y020139D01*
X001534Y020148D01*
X001595Y020153D01*
X001655Y020155D01*
X019155Y020155D01*
X019215Y020153D01*
X019276Y020148D01*
X019335Y020139D01*
X019394Y020126D01*
X019453Y020110D01*
X019510Y020090D01*
X019565Y020067D01*
X019620Y020040D01*
X019672Y020011D01*
X019723Y019978D01*
X019772Y019942D01*
X019818Y019904D01*
X019862Y019862D01*
X019904Y019818D01*
X019942Y019772D01*
X019978Y019723D01*
X020011Y019672D01*
X020040Y019620D01*
X020067Y019565D01*
X020090Y019510D01*
X020110Y019453D01*
X020126Y019394D01*
X020139Y019335D01*
X020148Y019276D01*
X020153Y019215D01*
X020155Y019155D01*
X020155Y001655D01*
X020153Y001595D01*
X020148Y001534D01*
X020139Y001475D01*
X020126Y001416D01*
X020110Y001357D01*
X020090Y001300D01*
X020067Y001245D01*
X020040Y001190D01*
X020011Y001138D01*
X019978Y001087D01*
X019942Y001038D01*
X019904Y000992D01*
X019862Y000948D01*
X019818Y000906D01*
X019772Y000868D01*
X019723Y000832D01*
X019672Y000799D01*
X019620Y000770D01*
X019565Y000743D01*
X019510Y000720D01*
X019453Y000700D01*
X019394Y000684D01*
X019335Y000671D01*
X019276Y000662D01*
X019215Y000657D01*
X019155Y000655D01*
X001655Y000655D01*
X001595Y000657D01*
X001534Y000662D01*
X001475Y000671D01*
X001416Y000684D01*
X001357Y000700D01*
X001300Y000720D01*
X001245Y000743D01*
X001190Y000770D01*
X001138Y000799D01*
X001087Y000832D01*
X001038Y000868D01*
X000992Y000906D01*
X000948Y000948D01*
X000906Y000992D01*
X000868Y001038D01*
X000832Y001087D01*
X000799Y001138D01*
X000770Y001190D01*
X000743Y001245D01*
X000720Y001300D01*
X000700Y001357D01*
X000684Y001416D01*
X000671Y001475D01*
X000662Y001534D01*
X000657Y001595D01*
X000655Y001655D01*
X002183Y018155D02*
X002185Y018198D01*
X002191Y018240D01*
X002201Y018282D01*
X002214Y018323D01*
X002231Y018363D01*
X002252Y018400D01*
X002276Y018436D01*
X002303Y018469D01*
X002333Y018500D01*
X002366Y018528D01*
X002401Y018553D01*
X002438Y018574D01*
X002477Y018592D01*
X002517Y018606D01*
X002559Y018617D01*
X002601Y018624D01*
X002644Y018627D01*
X002687Y018626D01*
X002730Y018621D01*
X002772Y018612D01*
X002813Y018600D01*
X002853Y018584D01*
X002891Y018564D01*
X002927Y018541D01*
X002961Y018514D01*
X002993Y018485D01*
X003021Y018453D01*
X003047Y018418D01*
X003069Y018382D01*
X003088Y018343D01*
X003103Y018303D01*
X003115Y018262D01*
X003123Y018219D01*
X003127Y018176D01*
X003127Y018134D01*
X003123Y018091D01*
X003115Y018048D01*
X003103Y018007D01*
X003088Y017967D01*
X003069Y017928D01*
X003047Y017892D01*
X003021Y017857D01*
X002993Y017825D01*
X002961Y017796D01*
X002927Y017769D01*
X002891Y017746D01*
X002853Y017726D01*
X002813Y017710D01*
X002772Y017698D01*
X002730Y017689D01*
X002687Y017684D01*
X002644Y017683D01*
X002601Y017686D01*
X002559Y017693D01*
X002517Y017704D01*
X002477Y017718D01*
X002438Y017736D01*
X002401Y017757D01*
X002366Y017782D01*
X002333Y017810D01*
X002303Y017841D01*
X002276Y017874D01*
X002252Y017910D01*
X002231Y017947D01*
X002214Y017987D01*
X002201Y018028D01*
X002191Y018070D01*
X002185Y018112D01*
X002183Y018155D01*
X008840Y019155D02*
X008842Y019190D01*
X008848Y019225D01*
X008858Y019259D01*
X008871Y019292D01*
X008888Y019323D01*
X008909Y019351D01*
X008932Y019378D01*
X008959Y019401D01*
X008987Y019422D01*
X009018Y019439D01*
X009051Y019452D01*
X009085Y019462D01*
X009120Y019468D01*
X009155Y019470D01*
X009190Y019468D01*
X009225Y019462D01*
X009259Y019452D01*
X009292Y019439D01*
X009323Y019422D01*
X009351Y019401D01*
X009378Y019378D01*
X009401Y019351D01*
X009422Y019323D01*
X009439Y019292D01*
X009452Y019259D01*
X009462Y019225D01*
X009468Y019190D01*
X009470Y019155D01*
X009468Y019120D01*
X009462Y019085D01*
X009452Y019051D01*
X009439Y019018D01*
X009422Y018987D01*
X009401Y018959D01*
X009378Y018932D01*
X009351Y018909D01*
X009323Y018888D01*
X009292Y018871D01*
X009259Y018858D01*
X009225Y018848D01*
X009190Y018842D01*
X009155Y018840D01*
X009120Y018842D01*
X009085Y018848D01*
X009051Y018858D01*
X009018Y018871D01*
X008987Y018888D01*
X008959Y018909D01*
X008932Y018932D01*
X008909Y018959D01*
X008888Y018987D01*
X008871Y019018D01*
X008858Y019051D01*
X008848Y019085D01*
X008842Y019120D01*
X008840Y019155D01*
X011340Y019155D02*
X011342Y019190D01*
X011348Y019225D01*
X011358Y019259D01*
X011371Y019292D01*
X011388Y019323D01*
X011409Y019351D01*
X011432Y019378D01*
X011459Y019401D01*
X011487Y019422D01*
X011518Y019439D01*
X011551Y019452D01*
X011585Y019462D01*
X011620Y019468D01*
X011655Y019470D01*
X011690Y019468D01*
X011725Y019462D01*
X011759Y019452D01*
X011792Y019439D01*
X011823Y019422D01*
X011851Y019401D01*
X011878Y019378D01*
X011901Y019351D01*
X011922Y019323D01*
X011939Y019292D01*
X011952Y019259D01*
X011962Y019225D01*
X011968Y019190D01*
X011970Y019155D01*
X011968Y019120D01*
X011962Y019085D01*
X011952Y019051D01*
X011939Y019018D01*
X011922Y018987D01*
X011901Y018959D01*
X011878Y018932D01*
X011851Y018909D01*
X011823Y018888D01*
X011792Y018871D01*
X011759Y018858D01*
X011725Y018848D01*
X011690Y018842D01*
X011655Y018840D01*
X011620Y018842D01*
X011585Y018848D01*
X011551Y018858D01*
X011518Y018871D01*
X011487Y018888D01*
X011459Y018909D01*
X011432Y018932D01*
X011409Y018959D01*
X011388Y018987D01*
X011371Y019018D01*
X011358Y019051D01*
X011348Y019085D01*
X011342Y019120D01*
X011340Y019155D01*
X017683Y018155D02*
X017685Y018198D01*
X017691Y018240D01*
X017701Y018282D01*
X017714Y018323D01*
X017731Y018363D01*
X017752Y018400D01*
X017776Y018436D01*
X017803Y018469D01*
X017833Y018500D01*
X017866Y018528D01*
X017901Y018553D01*
X017938Y018574D01*
X017977Y018592D01*
X018017Y018606D01*
X018059Y018617D01*
X018101Y018624D01*
X018144Y018627D01*
X018187Y018626D01*
X018230Y018621D01*
X018272Y018612D01*
X018313Y018600D01*
X018353Y018584D01*
X018391Y018564D01*
X018427Y018541D01*
X018461Y018514D01*
X018493Y018485D01*
X018521Y018453D01*
X018547Y018418D01*
X018569Y018382D01*
X018588Y018343D01*
X018603Y018303D01*
X018615Y018262D01*
X018623Y018219D01*
X018627Y018176D01*
X018627Y018134D01*
X018623Y018091D01*
X018615Y018048D01*
X018603Y018007D01*
X018588Y017967D01*
X018569Y017928D01*
X018547Y017892D01*
X018521Y017857D01*
X018493Y017825D01*
X018461Y017796D01*
X018427Y017769D01*
X018391Y017746D01*
X018353Y017726D01*
X018313Y017710D01*
X018272Y017698D01*
X018230Y017689D01*
X018187Y017684D01*
X018144Y017683D01*
X018101Y017686D01*
X018059Y017693D01*
X018017Y017704D01*
X017977Y017718D01*
X017938Y017736D01*
X017901Y017757D01*
X017866Y017782D01*
X017833Y017810D01*
X017803Y017841D01*
X017776Y017874D01*
X017752Y017910D01*
X017731Y017947D01*
X017714Y017987D01*
X017701Y018028D01*
X017691Y018070D01*
X017685Y018112D01*
X017683Y018155D01*
D11*
X013267Y014119D02*
X013210Y014175D01*
X013097Y014175D01*
X013040Y014119D01*
X012899Y014119D02*
X012899Y013892D01*
X012842Y013835D01*
X012672Y013835D01*
X012672Y014175D01*
X012842Y014175D01*
X012899Y014119D01*
X013040Y013835D02*
X013267Y014062D01*
X013267Y014119D01*
X013267Y013835D02*
X013040Y013835D01*
X012530Y013835D02*
X012303Y013835D01*
X012303Y014175D01*
X012530Y014175D01*
X012417Y014005D02*
X012303Y014005D01*
X012162Y013835D02*
X011935Y013835D01*
X011935Y014175D01*
X011460Y013675D02*
X011347Y013675D01*
X011290Y013619D01*
X011149Y013619D02*
X011149Y013392D01*
X011092Y013335D01*
X010922Y013335D01*
X010922Y013675D01*
X011092Y013675D01*
X011149Y013619D01*
X011290Y013392D02*
X011347Y013335D01*
X011460Y013335D01*
X011517Y013392D01*
X011517Y013449D01*
X011460Y013505D01*
X011403Y013505D01*
X011460Y013505D02*
X011517Y013562D01*
X011517Y013619D01*
X011460Y013675D01*
X010780Y013675D02*
X010553Y013675D01*
X010553Y013335D01*
X010780Y013335D01*
X010667Y013505D02*
X010553Y013505D01*
X010412Y013335D02*
X010185Y013335D01*
X010185Y013675D01*
X009460Y013175D02*
X009290Y013005D01*
X009517Y013005D01*
X009460Y012835D02*
X009460Y013175D01*
X009149Y013119D02*
X009149Y012892D01*
X009092Y012835D01*
X008922Y012835D01*
X008922Y013175D01*
X009092Y013175D01*
X009149Y013119D01*
X008780Y013175D02*
X008553Y013175D01*
X008553Y012835D01*
X008780Y012835D01*
X008667Y013005D02*
X008553Y013005D01*
X008412Y012835D02*
X008185Y012835D01*
X008185Y013175D01*
X007767Y012675D02*
X007540Y012675D01*
X007540Y012505D01*
X007653Y012562D01*
X007710Y012562D01*
X007767Y012505D01*
X007767Y012392D01*
X007710Y012335D01*
X007597Y012335D01*
X007540Y012392D01*
X007399Y012392D02*
X007399Y012619D01*
X007342Y012675D01*
X007172Y012675D01*
X007172Y012335D01*
X007342Y012335D01*
X007399Y012392D01*
X007030Y012335D02*
X006803Y012335D01*
X006803Y012675D01*
X007030Y012675D01*
X006917Y012505D02*
X006803Y012505D01*
X006662Y012335D02*
X006435Y012335D01*
X006435Y012675D01*
X006681Y013287D02*
X006711Y013252D01*
X006742Y013219D01*
X006777Y013189D01*
X006813Y013162D01*
X006851Y013138D01*
X006891Y013116D01*
X006933Y013098D01*
X006976Y013082D01*
X007020Y013070D01*
X007064Y013062D01*
X007110Y013057D01*
X007155Y013055D01*
X007200Y013057D01*
X007246Y013062D01*
X007290Y013070D01*
X007334Y013082D01*
X007377Y013098D01*
X007419Y013116D01*
X007459Y013138D01*
X007497Y013162D01*
X007533Y013189D01*
X007568Y013219D01*
X007599Y013252D01*
X007629Y013287D01*
X007155Y014255D02*
X007109Y014253D01*
X007063Y014248D01*
X007017Y014239D01*
X006972Y014227D01*
X006929Y014211D01*
X006887Y014192D01*
X006846Y014169D01*
X006807Y014144D01*
X006771Y014116D01*
X006736Y014085D01*
X006704Y014051D01*
X006675Y014015D01*
X007155Y014255D02*
X007202Y014253D01*
X007250Y014247D01*
X007296Y014238D01*
X007342Y014225D01*
X007386Y014209D01*
X007430Y014189D01*
X007471Y014165D01*
X007510Y014139D01*
X007547Y014109D01*
X007582Y014076D01*
X007614Y014041D01*
X007643Y014004D01*
X008431Y013787D02*
X008461Y013752D01*
X008492Y013719D01*
X008527Y013689D01*
X008563Y013662D01*
X008601Y013638D01*
X008641Y013616D01*
X008683Y013598D01*
X008726Y013582D01*
X008770Y013570D01*
X008814Y013562D01*
X008860Y013557D01*
X008905Y013555D01*
X008950Y013557D01*
X008996Y013562D01*
X009040Y013570D01*
X009084Y013582D01*
X009127Y013598D01*
X009169Y013616D01*
X009209Y013638D01*
X009247Y013662D01*
X009283Y013689D01*
X009318Y013719D01*
X009349Y013752D01*
X009379Y013787D01*
X008905Y014755D02*
X008859Y014753D01*
X008813Y014748D01*
X008767Y014739D01*
X008722Y014727D01*
X008679Y014711D01*
X008637Y014692D01*
X008596Y014669D01*
X008557Y014644D01*
X008521Y014616D01*
X008486Y014585D01*
X008454Y014551D01*
X008425Y014515D01*
X008905Y014755D02*
X008952Y014753D01*
X009000Y014747D01*
X009046Y014738D01*
X009092Y014725D01*
X009136Y014709D01*
X009180Y014689D01*
X009221Y014665D01*
X009260Y014639D01*
X009297Y014609D01*
X009332Y014576D01*
X009364Y014541D01*
X009393Y014504D01*
X010431Y014287D02*
X010461Y014252D01*
X010492Y014219D01*
X010527Y014189D01*
X010563Y014162D01*
X010601Y014138D01*
X010641Y014116D01*
X010683Y014098D01*
X010726Y014082D01*
X010770Y014070D01*
X010814Y014062D01*
X010860Y014057D01*
X010905Y014055D01*
X010950Y014057D01*
X010996Y014062D01*
X011040Y014070D01*
X011084Y014082D01*
X011127Y014098D01*
X011169Y014116D01*
X011209Y014138D01*
X011247Y014162D01*
X011283Y014189D01*
X011318Y014219D01*
X011349Y014252D01*
X011379Y014287D01*
X010905Y015255D02*
X010859Y015253D01*
X010813Y015248D01*
X010767Y015239D01*
X010722Y015227D01*
X010679Y015211D01*
X010637Y015192D01*
X010596Y015169D01*
X010557Y015144D01*
X010521Y015116D01*
X010486Y015085D01*
X010454Y015051D01*
X010425Y015015D01*
X010905Y015255D02*
X010952Y015253D01*
X011000Y015247D01*
X011046Y015238D01*
X011092Y015225D01*
X011136Y015209D01*
X011180Y015189D01*
X011221Y015165D01*
X011260Y015139D01*
X011297Y015109D01*
X011332Y015076D01*
X011364Y015041D01*
X011393Y015004D01*
X012181Y014787D02*
X012211Y014752D01*
X012242Y014719D01*
X012277Y014689D01*
X012313Y014662D01*
X012351Y014638D01*
X012391Y014616D01*
X012433Y014598D01*
X012476Y014582D01*
X012520Y014570D01*
X012564Y014562D01*
X012610Y014557D01*
X012655Y014555D01*
X012700Y014557D01*
X012746Y014562D01*
X012790Y014570D01*
X012834Y014582D01*
X012877Y014598D01*
X012919Y014616D01*
X012959Y014638D01*
X012997Y014662D01*
X013033Y014689D01*
X013068Y014719D01*
X013099Y014752D01*
X013129Y014787D01*
X012655Y015755D02*
X012609Y015753D01*
X012563Y015748D01*
X012517Y015739D01*
X012472Y015727D01*
X012429Y015711D01*
X012387Y015692D01*
X012346Y015669D01*
X012307Y015644D01*
X012271Y015616D01*
X012236Y015585D01*
X012204Y015551D01*
X012175Y015515D01*
X012655Y015755D02*
X012702Y015753D01*
X012750Y015747D01*
X012796Y015738D01*
X012842Y015725D01*
X012886Y015709D01*
X012930Y015689D01*
X012971Y015665D01*
X013010Y015639D01*
X013047Y015609D01*
X013082Y015576D01*
X013114Y015541D01*
X013143Y015504D01*
X011017Y016835D02*
X010790Y016835D01*
X010903Y016835D02*
X010903Y017175D01*
X010790Y017062D01*
X010649Y017119D02*
X010649Y016892D01*
X010592Y016835D01*
X010422Y016835D01*
X010422Y017175D01*
X010592Y017175D01*
X010649Y017119D01*
X010280Y017175D02*
X010053Y017175D01*
X010053Y016835D01*
X010280Y016835D01*
X010167Y017005D02*
X010053Y017005D01*
X009912Y016835D02*
X009685Y016835D01*
X009685Y017175D01*
X009931Y017787D02*
X009961Y017752D01*
X009992Y017719D01*
X010027Y017689D01*
X010063Y017662D01*
X010101Y017638D01*
X010141Y017616D01*
X010183Y017598D01*
X010226Y017582D01*
X010270Y017570D01*
X010314Y017562D01*
X010360Y017557D01*
X010405Y017555D01*
X010450Y017557D01*
X010496Y017562D01*
X010540Y017570D01*
X010584Y017582D01*
X010627Y017598D01*
X010669Y017616D01*
X010709Y017638D01*
X010747Y017662D01*
X010783Y017689D01*
X010818Y017719D01*
X010849Y017752D01*
X010879Y017787D01*
X010405Y018755D02*
X010359Y018753D01*
X010313Y018748D01*
X010267Y018739D01*
X010222Y018727D01*
X010179Y018711D01*
X010137Y018692D01*
X010096Y018669D01*
X010057Y018644D01*
X010021Y018616D01*
X009986Y018585D01*
X009954Y018551D01*
X009925Y018515D01*
X010405Y018755D02*
X010452Y018753D01*
X010500Y018747D01*
X010546Y018738D01*
X010592Y018725D01*
X010636Y018709D01*
X010680Y018689D01*
X010721Y018665D01*
X010760Y018639D01*
X010797Y018609D01*
X010832Y018576D01*
X010864Y018541D01*
X010893Y018504D01*
X012931Y011287D02*
X012961Y011252D01*
X012992Y011219D01*
X013027Y011189D01*
X013063Y011162D01*
X013101Y011138D01*
X013141Y011116D01*
X013183Y011098D01*
X013226Y011082D01*
X013270Y011070D01*
X013314Y011062D01*
X013360Y011057D01*
X013405Y011055D01*
X013422Y010675D02*
X013592Y010675D01*
X013649Y010619D01*
X013649Y010392D01*
X013592Y010335D01*
X013422Y010335D01*
X013422Y010675D01*
X013280Y010675D02*
X013053Y010675D01*
X013053Y010335D01*
X013280Y010335D01*
X013167Y010505D02*
X013053Y010505D01*
X012912Y010335D02*
X012685Y010335D01*
X012685Y010675D01*
X012017Y010175D02*
X012017Y010119D01*
X011790Y009892D01*
X011790Y009835D01*
X011649Y009892D02*
X011649Y010119D01*
X011592Y010175D01*
X011422Y010175D01*
X011422Y009835D01*
X011592Y009835D01*
X011649Y009892D01*
X011790Y010175D02*
X012017Y010175D01*
X011280Y010175D02*
X011053Y010175D01*
X011053Y009835D01*
X011280Y009835D01*
X011167Y010005D02*
X011053Y010005D01*
X010912Y009835D02*
X010685Y009835D01*
X010685Y010175D01*
X010210Y009675D02*
X010267Y009619D01*
X010267Y009562D01*
X010210Y009505D01*
X010097Y009505D01*
X010040Y009562D01*
X010040Y009619D01*
X010097Y009675D01*
X010210Y009675D01*
X010210Y009505D02*
X010267Y009449D01*
X010267Y009392D01*
X010210Y009335D01*
X010097Y009335D01*
X010040Y009392D01*
X010040Y009449D01*
X010097Y009505D01*
X009899Y009392D02*
X009842Y009335D01*
X009672Y009335D01*
X009672Y009675D01*
X009842Y009675D01*
X009899Y009619D01*
X009899Y009392D01*
X009530Y009335D02*
X009303Y009335D01*
X009303Y009675D01*
X009530Y009675D01*
X009417Y009505D02*
X009303Y009505D01*
X009162Y009335D02*
X008935Y009335D01*
X008935Y009675D01*
X008267Y009119D02*
X008210Y009175D01*
X008097Y009175D01*
X008040Y009119D01*
X008040Y009062D01*
X008097Y009005D01*
X008267Y009005D01*
X008267Y008892D02*
X008267Y009119D01*
X008267Y008892D02*
X008210Y008835D01*
X008097Y008835D01*
X008040Y008892D01*
X007899Y008892D02*
X007899Y009119D01*
X007842Y009175D01*
X007672Y009175D01*
X007672Y008835D01*
X007842Y008835D01*
X007899Y008892D01*
X007530Y008835D02*
X007303Y008835D01*
X007303Y009175D01*
X007530Y009175D01*
X007417Y009005D02*
X007303Y009005D01*
X007162Y008835D02*
X006935Y008835D01*
X006935Y009175D01*
X006578Y008675D02*
X006635Y008619D01*
X006408Y008392D01*
X006465Y008335D01*
X006578Y008335D01*
X006635Y008392D01*
X006635Y008619D01*
X006578Y008675D02*
X006465Y008675D01*
X006408Y008619D01*
X006408Y008392D01*
X006267Y008335D02*
X006040Y008335D01*
X006153Y008335D02*
X006153Y008675D01*
X006040Y008562D01*
X005899Y008619D02*
X005899Y008392D01*
X005842Y008335D01*
X005672Y008335D01*
X005672Y008675D01*
X005842Y008675D01*
X005899Y008619D01*
X005530Y008675D02*
X005303Y008675D01*
X005303Y008335D01*
X005530Y008335D01*
X005417Y008505D02*
X005303Y008505D01*
X005162Y008335D02*
X004935Y008335D01*
X004935Y008675D01*
X005181Y009287D02*
X005211Y009252D01*
X005242Y009219D01*
X005277Y009189D01*
X005313Y009162D01*
X005351Y009138D01*
X005391Y009116D01*
X005433Y009098D01*
X005476Y009082D01*
X005520Y009070D01*
X005564Y009062D01*
X005610Y009057D01*
X005655Y009055D01*
X005700Y009057D01*
X005746Y009062D01*
X005790Y009070D01*
X005834Y009082D01*
X005877Y009098D01*
X005919Y009116D01*
X005959Y009138D01*
X005997Y009162D01*
X006033Y009189D01*
X006068Y009219D01*
X006099Y009252D01*
X006129Y009287D01*
X005655Y010255D02*
X005609Y010253D01*
X005563Y010248D01*
X005517Y010239D01*
X005472Y010227D01*
X005429Y010211D01*
X005387Y010192D01*
X005346Y010169D01*
X005307Y010144D01*
X005271Y010116D01*
X005236Y010085D01*
X005204Y010051D01*
X005175Y010015D01*
X005655Y010255D02*
X005702Y010253D01*
X005750Y010247D01*
X005796Y010238D01*
X005842Y010225D01*
X005886Y010209D01*
X005930Y010189D01*
X005971Y010165D01*
X006010Y010139D01*
X006047Y010109D01*
X006082Y010076D01*
X006114Y010041D01*
X006143Y010004D01*
X007181Y009787D02*
X007211Y009752D01*
X007242Y009719D01*
X007277Y009689D01*
X007313Y009662D01*
X007351Y009638D01*
X007391Y009616D01*
X007433Y009598D01*
X007476Y009582D01*
X007520Y009570D01*
X007564Y009562D01*
X007610Y009557D01*
X007655Y009555D01*
X007700Y009557D01*
X007746Y009562D01*
X007790Y009570D01*
X007834Y009582D01*
X007877Y009598D01*
X007919Y009616D01*
X007959Y009638D01*
X007997Y009662D01*
X008033Y009689D01*
X008068Y009719D01*
X008099Y009752D01*
X008129Y009787D01*
X007655Y010755D02*
X007609Y010753D01*
X007563Y010748D01*
X007517Y010739D01*
X007472Y010727D01*
X007429Y010711D01*
X007387Y010692D01*
X007346Y010669D01*
X007307Y010644D01*
X007271Y010616D01*
X007236Y010585D01*
X007204Y010551D01*
X007175Y010515D01*
X007655Y010755D02*
X007702Y010753D01*
X007750Y010747D01*
X007796Y010738D01*
X007842Y010725D01*
X007886Y010709D01*
X007930Y010689D01*
X007971Y010665D01*
X008010Y010639D01*
X008047Y010609D01*
X008082Y010576D01*
X008114Y010541D01*
X008143Y010504D01*
X009181Y010287D02*
X009211Y010252D01*
X009242Y010219D01*
X009277Y010189D01*
X009313Y010162D01*
X009351Y010138D01*
X009391Y010116D01*
X009433Y010098D01*
X009476Y010082D01*
X009520Y010070D01*
X009564Y010062D01*
X009610Y010057D01*
X009655Y010055D01*
X009700Y010057D01*
X009746Y010062D01*
X009790Y010070D01*
X009834Y010082D01*
X009877Y010098D01*
X009919Y010116D01*
X009959Y010138D01*
X009997Y010162D01*
X010033Y010189D01*
X010068Y010219D01*
X010099Y010252D01*
X010129Y010287D01*
X009655Y011255D02*
X009609Y011253D01*
X009563Y011248D01*
X009517Y011239D01*
X009472Y011227D01*
X009429Y011211D01*
X009387Y011192D01*
X009346Y011169D01*
X009307Y011144D01*
X009271Y011116D01*
X009236Y011085D01*
X009204Y011051D01*
X009175Y011015D01*
X009655Y011255D02*
X009702Y011253D01*
X009750Y011247D01*
X009796Y011238D01*
X009842Y011225D01*
X009886Y011209D01*
X009930Y011189D01*
X009971Y011165D01*
X010010Y011139D01*
X010047Y011109D01*
X010082Y011076D01*
X010114Y011041D01*
X010143Y011004D01*
X010931Y010787D02*
X010961Y010752D01*
X010992Y010719D01*
X011027Y010689D01*
X011063Y010662D01*
X011101Y010638D01*
X011141Y010616D01*
X011183Y010598D01*
X011226Y010582D01*
X011270Y010570D01*
X011314Y010562D01*
X011360Y010557D01*
X011405Y010555D01*
X011450Y010557D01*
X011496Y010562D01*
X011540Y010570D01*
X011584Y010582D01*
X011627Y010598D01*
X011669Y010616D01*
X011709Y010638D01*
X011747Y010662D01*
X011783Y010689D01*
X011818Y010719D01*
X011849Y010752D01*
X011879Y010787D01*
X011405Y011755D02*
X011359Y011753D01*
X011313Y011748D01*
X011267Y011739D01*
X011222Y011727D01*
X011179Y011711D01*
X011137Y011692D01*
X011096Y011669D01*
X011057Y011644D01*
X011021Y011616D01*
X010986Y011585D01*
X010954Y011551D01*
X010925Y011515D01*
X011405Y011755D02*
X011452Y011753D01*
X011500Y011747D01*
X011546Y011738D01*
X011592Y011725D01*
X011636Y011709D01*
X011680Y011689D01*
X011721Y011665D01*
X011760Y011639D01*
X011797Y011609D01*
X011832Y011576D01*
X011864Y011541D01*
X011893Y011504D01*
X013405Y011055D02*
X013450Y011057D01*
X013496Y011062D01*
X013540Y011070D01*
X013584Y011082D01*
X013627Y011098D01*
X013669Y011116D01*
X013709Y011138D01*
X013747Y011162D01*
X013783Y011189D01*
X013818Y011219D01*
X013849Y011252D01*
X013879Y011287D01*
X013405Y012255D02*
X013359Y012253D01*
X013313Y012248D01*
X013267Y012239D01*
X013222Y012227D01*
X013179Y012211D01*
X013137Y012192D01*
X013096Y012169D01*
X013057Y012144D01*
X013021Y012116D01*
X012986Y012085D01*
X012954Y012051D01*
X012925Y012015D01*
X013405Y012255D02*
X013452Y012253D01*
X013500Y012247D01*
X013546Y012238D01*
X013592Y012225D01*
X013636Y012209D01*
X013680Y012189D01*
X013721Y012165D01*
X013760Y012139D01*
X013797Y012109D01*
X013832Y012076D01*
X013864Y012041D01*
X013893Y012004D01*
X014017Y010675D02*
X013903Y010619D01*
X013790Y010505D01*
X013960Y010505D01*
X014017Y010449D01*
X014017Y010392D01*
X013960Y010335D01*
X013847Y010335D01*
X013790Y010392D01*
X013790Y010505D01*
X013931Y007287D02*
X013961Y007252D01*
X013992Y007219D01*
X014027Y007189D01*
X014063Y007162D01*
X014101Y007138D01*
X014141Y007116D01*
X014183Y007098D01*
X014226Y007082D01*
X014270Y007070D01*
X014314Y007062D01*
X014360Y007057D01*
X014405Y007055D01*
X014422Y006675D02*
X014592Y006675D01*
X014649Y006619D01*
X014649Y006392D01*
X014592Y006335D01*
X014422Y006335D01*
X014422Y006675D01*
X014280Y006675D02*
X014053Y006675D01*
X014053Y006335D01*
X014280Y006335D01*
X014167Y006505D02*
X014053Y006505D01*
X013912Y006335D02*
X013685Y006335D01*
X013685Y006675D01*
X013328Y006175D02*
X013215Y006175D01*
X013158Y006119D01*
X013328Y006175D02*
X013385Y006119D01*
X013385Y006062D01*
X013158Y005835D01*
X013385Y005835D01*
X013017Y005835D02*
X012790Y005835D01*
X012903Y005835D02*
X012903Y006175D01*
X012790Y006062D01*
X012649Y006119D02*
X012649Y005892D01*
X012592Y005835D01*
X012422Y005835D01*
X012422Y006175D01*
X012592Y006175D01*
X012649Y006119D01*
X012280Y006175D02*
X012053Y006175D01*
X012053Y005835D01*
X012280Y005835D01*
X012167Y006005D02*
X012053Y006005D01*
X011912Y005835D02*
X011685Y005835D01*
X011685Y006175D01*
X011328Y005675D02*
X011385Y005619D01*
X011385Y005562D01*
X011328Y005505D01*
X011385Y005449D01*
X011385Y005392D01*
X011328Y005335D01*
X011215Y005335D01*
X011158Y005392D01*
X011017Y005335D02*
X010790Y005335D01*
X010903Y005335D02*
X010903Y005675D01*
X010790Y005562D01*
X010649Y005619D02*
X010592Y005675D01*
X010422Y005675D01*
X010422Y005335D01*
X010592Y005335D01*
X010649Y005392D01*
X010649Y005619D01*
X010280Y005675D02*
X010053Y005675D01*
X010053Y005335D01*
X010280Y005335D01*
X010167Y005505D02*
X010053Y005505D01*
X009912Y005335D02*
X009685Y005335D01*
X009685Y005675D01*
X009328Y005175D02*
X009158Y005005D01*
X009385Y005005D01*
X009328Y004835D02*
X009328Y005175D01*
X009017Y004835D02*
X008790Y004835D01*
X008903Y004835D02*
X008903Y005175D01*
X008790Y005062D01*
X008649Y005119D02*
X008649Y004892D01*
X008592Y004835D01*
X008422Y004835D01*
X008422Y005175D01*
X008592Y005175D01*
X008649Y005119D01*
X008280Y005175D02*
X008053Y005175D01*
X008053Y004835D01*
X008280Y004835D01*
X008167Y005005D02*
X008053Y005005D01*
X007912Y004835D02*
X007685Y004835D01*
X007685Y005175D01*
X007385Y004675D02*
X007158Y004675D01*
X007158Y004505D01*
X007272Y004562D01*
X007328Y004562D01*
X007385Y004505D01*
X007385Y004392D01*
X007328Y004335D01*
X007215Y004335D01*
X007158Y004392D01*
X007017Y004335D02*
X006790Y004335D01*
X006903Y004335D02*
X006903Y004675D01*
X006790Y004562D01*
X006649Y004619D02*
X006592Y004675D01*
X006422Y004675D01*
X006422Y004335D01*
X006592Y004335D01*
X006649Y004392D01*
X006649Y004619D01*
X006280Y004675D02*
X006053Y004675D01*
X006053Y004335D01*
X006280Y004335D01*
X006167Y004505D02*
X006053Y004505D01*
X005912Y004335D02*
X005685Y004335D01*
X005685Y004675D01*
X005135Y004425D02*
X005022Y004369D01*
X004908Y004255D01*
X005078Y004255D01*
X005135Y004199D01*
X005135Y004142D01*
X005078Y004085D01*
X004965Y004085D01*
X004908Y004142D01*
X004908Y004255D01*
X004767Y004085D02*
X004540Y004085D01*
X004653Y004085D02*
X004653Y004425D01*
X004540Y004312D01*
X004399Y004369D02*
X004342Y004425D01*
X004172Y004425D01*
X004172Y004085D01*
X004342Y004085D01*
X004399Y004142D01*
X004399Y004369D01*
X004030Y004425D02*
X003803Y004425D01*
X003803Y004085D01*
X004030Y004085D01*
X003917Y004255D02*
X003803Y004255D01*
X003662Y004085D02*
X003435Y004085D01*
X003435Y004425D01*
X002744Y003835D02*
X002517Y003835D01*
X002630Y003835D02*
X002630Y004175D01*
X002517Y004062D01*
X002375Y004119D02*
X002319Y004175D01*
X002205Y004175D01*
X002149Y004119D01*
X002149Y004062D01*
X002205Y004005D01*
X002319Y004005D01*
X002375Y003949D01*
X002375Y003892D01*
X002319Y003835D01*
X002205Y003835D01*
X002149Y003892D01*
X002305Y003605D02*
X002705Y003605D01*
X003655Y003605D01*
X004005Y003605D01*
X004355Y002805D02*
X004355Y002705D01*
X004455Y002705D01*
X004455Y002105D01*
X004355Y002105D01*
X004355Y002005D01*
X004005Y001205D02*
X003655Y001205D01*
X002655Y001205D01*
X002305Y001205D01*
X001955Y002005D02*
X001955Y002105D01*
X001855Y002105D01*
X001855Y002705D01*
X001955Y002705D01*
X001955Y002805D01*
X003055Y002405D02*
X003057Y002425D01*
X003063Y002443D01*
X003072Y002461D01*
X003084Y002476D01*
X003099Y002488D01*
X003117Y002497D01*
X003135Y002503D01*
X003155Y002505D01*
X003175Y002503D01*
X003193Y002497D01*
X003211Y002488D01*
X003226Y002476D01*
X003238Y002461D01*
X003247Y002443D01*
X003253Y002425D01*
X003255Y002405D01*
X003253Y002385D01*
X003247Y002367D01*
X003238Y002349D01*
X003226Y002334D01*
X003211Y002322D01*
X003193Y002313D01*
X003175Y002307D01*
X003155Y002305D01*
X003135Y002307D01*
X003117Y002313D01*
X003099Y002322D01*
X003084Y002334D01*
X003072Y002349D01*
X003063Y002367D01*
X003057Y002385D01*
X003055Y002405D01*
X002455Y002405D02*
X002457Y002457D01*
X002463Y002509D01*
X002473Y002561D01*
X002486Y002611D01*
X002503Y002661D01*
X002524Y002709D01*
X002549Y002755D01*
X002577Y002799D01*
X002608Y002841D01*
X002642Y002881D01*
X002679Y002918D01*
X002719Y002952D01*
X002761Y002983D01*
X002805Y003011D01*
X002851Y003036D01*
X002899Y003057D01*
X002949Y003074D01*
X002999Y003087D01*
X003051Y003097D01*
X003103Y003103D01*
X003155Y003105D01*
X003207Y003103D01*
X003259Y003097D01*
X003311Y003087D01*
X003361Y003074D01*
X003411Y003057D01*
X003459Y003036D01*
X003505Y003011D01*
X003549Y002983D01*
X003591Y002952D01*
X003631Y002918D01*
X003668Y002881D01*
X003702Y002841D01*
X003733Y002799D01*
X003761Y002755D01*
X003786Y002709D01*
X003807Y002661D01*
X003824Y002611D01*
X003837Y002561D01*
X003847Y002509D01*
X003853Y002457D01*
X003855Y002405D01*
X003853Y002353D01*
X003847Y002301D01*
X003837Y002249D01*
X003824Y002199D01*
X003807Y002149D01*
X003786Y002101D01*
X003761Y002055D01*
X003733Y002011D01*
X003702Y001969D01*
X003668Y001929D01*
X003631Y001892D01*
X003591Y001858D01*
X003549Y001827D01*
X003505Y001799D01*
X003459Y001774D01*
X003411Y001753D01*
X003361Y001736D01*
X003311Y001723D01*
X003259Y001713D01*
X003207Y001707D01*
X003155Y001705D01*
X003103Y001707D01*
X003051Y001713D01*
X002999Y001723D01*
X002949Y001736D01*
X002899Y001753D01*
X002851Y001774D01*
X002805Y001799D01*
X002761Y001827D01*
X002719Y001858D01*
X002679Y001892D01*
X002642Y001929D01*
X002608Y001969D01*
X002577Y002011D01*
X002549Y002055D01*
X002524Y002101D01*
X002503Y002149D01*
X002486Y002199D01*
X002473Y002249D01*
X002463Y002301D01*
X002457Y002353D01*
X002455Y002405D01*
X003931Y004787D02*
X003961Y004752D01*
X003992Y004719D01*
X004027Y004689D01*
X004063Y004662D01*
X004101Y004638D01*
X004141Y004616D01*
X004183Y004598D01*
X004226Y004582D01*
X004270Y004570D01*
X004314Y004562D01*
X004360Y004557D01*
X004405Y004555D01*
X004450Y004557D01*
X004496Y004562D01*
X004540Y004570D01*
X004584Y004582D01*
X004627Y004598D01*
X004669Y004616D01*
X004709Y004638D01*
X004747Y004662D01*
X004783Y004689D01*
X004818Y004719D01*
X004849Y004752D01*
X004879Y004787D01*
X004405Y005755D02*
X004359Y005753D01*
X004313Y005748D01*
X004267Y005739D01*
X004222Y005727D01*
X004179Y005711D01*
X004137Y005692D01*
X004096Y005669D01*
X004057Y005644D01*
X004021Y005616D01*
X003986Y005585D01*
X003954Y005551D01*
X003925Y005515D01*
X004405Y005755D02*
X004452Y005753D01*
X004500Y005747D01*
X004546Y005738D01*
X004592Y005725D01*
X004636Y005709D01*
X004680Y005689D01*
X004721Y005665D01*
X004760Y005639D01*
X004797Y005609D01*
X004832Y005576D01*
X004864Y005541D01*
X004893Y005504D01*
X005931Y005287D02*
X005961Y005252D01*
X005992Y005219D01*
X006027Y005189D01*
X006063Y005162D01*
X006101Y005138D01*
X006141Y005116D01*
X006183Y005098D01*
X006226Y005082D01*
X006270Y005070D01*
X006314Y005062D01*
X006360Y005057D01*
X006405Y005055D01*
X006450Y005057D01*
X006496Y005062D01*
X006540Y005070D01*
X006584Y005082D01*
X006627Y005098D01*
X006669Y005116D01*
X006709Y005138D01*
X006747Y005162D01*
X006783Y005189D01*
X006818Y005219D01*
X006849Y005252D01*
X006879Y005287D01*
X006405Y006255D02*
X006359Y006253D01*
X006313Y006248D01*
X006267Y006239D01*
X006222Y006227D01*
X006179Y006211D01*
X006137Y006192D01*
X006096Y006169D01*
X006057Y006144D01*
X006021Y006116D01*
X005986Y006085D01*
X005954Y006051D01*
X005925Y006015D01*
X006405Y006255D02*
X006452Y006253D01*
X006500Y006247D01*
X006546Y006238D01*
X006592Y006225D01*
X006636Y006209D01*
X006680Y006189D01*
X006721Y006165D01*
X006760Y006139D01*
X006797Y006109D01*
X006832Y006076D01*
X006864Y006041D01*
X006893Y006004D01*
X007931Y005787D02*
X007961Y005752D01*
X007992Y005719D01*
X008027Y005689D01*
X008063Y005662D01*
X008101Y005638D01*
X008141Y005616D01*
X008183Y005598D01*
X008226Y005582D01*
X008270Y005570D01*
X008314Y005562D01*
X008360Y005557D01*
X008405Y005555D01*
X008450Y005557D01*
X008496Y005562D01*
X008540Y005570D01*
X008584Y005582D01*
X008627Y005598D01*
X008669Y005616D01*
X008709Y005638D01*
X008747Y005662D01*
X008783Y005689D01*
X008818Y005719D01*
X008849Y005752D01*
X008879Y005787D01*
X008405Y006755D02*
X008359Y006753D01*
X008313Y006748D01*
X008267Y006739D01*
X008222Y006727D01*
X008179Y006711D01*
X008137Y006692D01*
X008096Y006669D01*
X008057Y006644D01*
X008021Y006616D01*
X007986Y006585D01*
X007954Y006551D01*
X007925Y006515D01*
X008405Y006755D02*
X008452Y006753D01*
X008500Y006747D01*
X008546Y006738D01*
X008592Y006725D01*
X008636Y006709D01*
X008680Y006689D01*
X008721Y006665D01*
X008760Y006639D01*
X008797Y006609D01*
X008832Y006576D01*
X008864Y006541D01*
X008893Y006504D01*
X009931Y006287D02*
X009961Y006252D01*
X009992Y006219D01*
X010027Y006189D01*
X010063Y006162D01*
X010101Y006138D01*
X010141Y006116D01*
X010183Y006098D01*
X010226Y006082D01*
X010270Y006070D01*
X010314Y006062D01*
X010360Y006057D01*
X010405Y006055D01*
X010450Y006057D01*
X010496Y006062D01*
X010540Y006070D01*
X010584Y006082D01*
X010627Y006098D01*
X010669Y006116D01*
X010709Y006138D01*
X010747Y006162D01*
X010783Y006189D01*
X010818Y006219D01*
X010849Y006252D01*
X010879Y006287D01*
X010405Y007255D02*
X010359Y007253D01*
X010313Y007248D01*
X010267Y007239D01*
X010222Y007227D01*
X010179Y007211D01*
X010137Y007192D01*
X010096Y007169D01*
X010057Y007144D01*
X010021Y007116D01*
X009986Y007085D01*
X009954Y007051D01*
X009925Y007015D01*
X010405Y007255D02*
X010452Y007253D01*
X010500Y007247D01*
X010546Y007238D01*
X010592Y007225D01*
X010636Y007209D01*
X010680Y007189D01*
X010721Y007165D01*
X010760Y007139D01*
X010797Y007109D01*
X010832Y007076D01*
X010864Y007041D01*
X010893Y007004D01*
X011215Y005675D02*
X011328Y005675D01*
X011215Y005675D02*
X011158Y005619D01*
X011272Y005505D02*
X011328Y005505D01*
X011931Y006787D02*
X011961Y006752D01*
X011992Y006719D01*
X012027Y006689D01*
X012063Y006662D01*
X012101Y006638D01*
X012141Y006616D01*
X012183Y006598D01*
X012226Y006582D01*
X012270Y006570D01*
X012314Y006562D01*
X012360Y006557D01*
X012405Y006555D01*
X012450Y006557D01*
X012496Y006562D01*
X012540Y006570D01*
X012584Y006582D01*
X012627Y006598D01*
X012669Y006616D01*
X012709Y006638D01*
X012747Y006662D01*
X012783Y006689D01*
X012818Y006719D01*
X012849Y006752D01*
X012879Y006787D01*
X012405Y007755D02*
X012359Y007753D01*
X012313Y007748D01*
X012267Y007739D01*
X012222Y007727D01*
X012179Y007711D01*
X012137Y007692D01*
X012096Y007669D01*
X012057Y007644D01*
X012021Y007616D01*
X011986Y007585D01*
X011954Y007551D01*
X011925Y007515D01*
X012405Y007755D02*
X012452Y007753D01*
X012500Y007747D01*
X012546Y007738D01*
X012592Y007725D01*
X012636Y007709D01*
X012680Y007689D01*
X012721Y007665D01*
X012760Y007639D01*
X012797Y007609D01*
X012832Y007576D01*
X012864Y007541D01*
X012893Y007504D01*
X014405Y007055D02*
X014450Y007057D01*
X014496Y007062D01*
X014540Y007070D01*
X014584Y007082D01*
X014627Y007098D01*
X014669Y007116D01*
X014709Y007138D01*
X014747Y007162D01*
X014783Y007189D01*
X014818Y007219D01*
X014849Y007252D01*
X014879Y007287D01*
X014405Y008255D02*
X014359Y008253D01*
X014313Y008248D01*
X014267Y008239D01*
X014222Y008227D01*
X014179Y008211D01*
X014137Y008192D01*
X014096Y008169D01*
X014057Y008144D01*
X014021Y008116D01*
X013986Y008085D01*
X013954Y008051D01*
X013925Y008015D01*
X014405Y008255D02*
X014452Y008253D01*
X014500Y008247D01*
X014546Y008238D01*
X014592Y008225D01*
X014636Y008209D01*
X014680Y008189D01*
X014721Y008165D01*
X014760Y008139D01*
X014797Y008109D01*
X014832Y008076D01*
X014864Y008041D01*
X014893Y008004D01*
X014903Y006675D02*
X014903Y006335D01*
X014790Y006335D02*
X015017Y006335D01*
X015158Y006335D02*
X015385Y006335D01*
X015272Y006335D02*
X015272Y006675D01*
X015158Y006562D01*
X014903Y006675D02*
X014790Y006562D01*
D12*
X014405Y006855D02*
X014458Y006857D01*
X014512Y006862D01*
X014564Y006871D01*
X014616Y006883D01*
X014667Y006899D01*
X014717Y006918D01*
X014766Y006941D01*
X014813Y006967D01*
X014858Y006995D01*
X014901Y007027D01*
X014941Y007061D01*
X014980Y007099D01*
X015016Y007138D01*
X014405Y008455D02*
X014351Y008453D01*
X014297Y008448D01*
X014244Y008439D01*
X014191Y008426D01*
X014140Y008410D01*
X014090Y008390D01*
X014041Y008367D01*
X013993Y008341D01*
X013948Y008312D01*
X013905Y008279D01*
X013864Y008244D01*
X013825Y008206D01*
X013789Y008166D01*
X013756Y008123D01*
X013726Y008078D01*
X013699Y008031D01*
X013710Y007258D02*
X013740Y007210D01*
X013773Y007165D01*
X013809Y007122D01*
X013847Y007081D01*
X013889Y007044D01*
X013933Y007009D01*
X013979Y006978D01*
X014028Y006949D01*
X014078Y006925D01*
X014130Y006904D01*
X014184Y006886D01*
X014238Y006873D01*
X014293Y006863D01*
X014349Y006857D01*
X014405Y006855D01*
X015020Y008167D02*
X014984Y008207D01*
X014945Y008245D01*
X014904Y008280D01*
X014861Y008312D01*
X014816Y008342D01*
X014769Y008368D01*
X014720Y008390D01*
X014669Y008410D01*
X014618Y008426D01*
X014566Y008439D01*
X014512Y008448D01*
X014459Y008453D01*
X014405Y008455D01*
X012405Y007955D02*
X012351Y007953D01*
X012297Y007948D01*
X012244Y007939D01*
X012191Y007926D01*
X012140Y007910D01*
X012090Y007890D01*
X012041Y007867D01*
X011993Y007841D01*
X011948Y007812D01*
X011905Y007779D01*
X011864Y007744D01*
X011825Y007706D01*
X011789Y007666D01*
X011756Y007623D01*
X011726Y007578D01*
X011699Y007531D01*
X011710Y006758D02*
X011740Y006710D01*
X011773Y006665D01*
X011809Y006622D01*
X011847Y006581D01*
X011889Y006544D01*
X011933Y006509D01*
X011979Y006478D01*
X012028Y006449D01*
X012078Y006425D01*
X012130Y006404D01*
X012184Y006386D01*
X012238Y006373D01*
X012293Y006363D01*
X012349Y006357D01*
X012405Y006355D01*
X012458Y006357D01*
X012512Y006362D01*
X012564Y006371D01*
X012616Y006383D01*
X012667Y006399D01*
X012717Y006418D01*
X012766Y006441D01*
X012813Y006467D01*
X012858Y006495D01*
X012901Y006527D01*
X012941Y006561D01*
X012980Y006599D01*
X013016Y006638D01*
X013020Y007667D02*
X012984Y007707D01*
X012945Y007745D01*
X012904Y007780D01*
X012861Y007812D01*
X012816Y007842D01*
X012769Y007868D01*
X012720Y007890D01*
X012669Y007910D01*
X012618Y007926D01*
X012566Y007939D01*
X012512Y007948D01*
X012459Y007953D01*
X012405Y007955D01*
X010405Y007455D02*
X010351Y007453D01*
X010297Y007448D01*
X010244Y007439D01*
X010191Y007426D01*
X010140Y007410D01*
X010090Y007390D01*
X010041Y007367D01*
X009993Y007341D01*
X009948Y007312D01*
X009905Y007279D01*
X009864Y007244D01*
X009825Y007206D01*
X009789Y007166D01*
X009756Y007123D01*
X009726Y007078D01*
X009699Y007031D01*
X009710Y006258D02*
X009740Y006210D01*
X009773Y006165D01*
X009809Y006122D01*
X009847Y006081D01*
X009889Y006044D01*
X009933Y006009D01*
X009979Y005978D01*
X010028Y005949D01*
X010078Y005925D01*
X010130Y005904D01*
X010184Y005886D01*
X010238Y005873D01*
X010293Y005863D01*
X010349Y005857D01*
X010405Y005855D01*
X010458Y005857D01*
X010512Y005862D01*
X010564Y005871D01*
X010616Y005883D01*
X010667Y005899D01*
X010717Y005918D01*
X010766Y005941D01*
X010813Y005967D01*
X010858Y005995D01*
X010901Y006027D01*
X010941Y006061D01*
X010980Y006099D01*
X011016Y006138D01*
X011020Y007167D02*
X010984Y007207D01*
X010945Y007245D01*
X010904Y007280D01*
X010861Y007312D01*
X010816Y007342D01*
X010769Y007368D01*
X010720Y007390D01*
X010669Y007410D01*
X010618Y007426D01*
X010566Y007439D01*
X010512Y007448D01*
X010459Y007453D01*
X010405Y007455D01*
X008405Y006955D02*
X008351Y006953D01*
X008297Y006948D01*
X008244Y006939D01*
X008191Y006926D01*
X008140Y006910D01*
X008090Y006890D01*
X008041Y006867D01*
X007993Y006841D01*
X007948Y006812D01*
X007905Y006779D01*
X007864Y006744D01*
X007825Y006706D01*
X007789Y006666D01*
X007756Y006623D01*
X007726Y006578D01*
X007699Y006531D01*
X007710Y005758D02*
X007740Y005710D01*
X007773Y005665D01*
X007809Y005622D01*
X007847Y005581D01*
X007889Y005544D01*
X007933Y005509D01*
X007979Y005478D01*
X008028Y005449D01*
X008078Y005425D01*
X008130Y005404D01*
X008184Y005386D01*
X008238Y005373D01*
X008293Y005363D01*
X008349Y005357D01*
X008405Y005355D01*
X008458Y005357D01*
X008512Y005362D01*
X008564Y005371D01*
X008616Y005383D01*
X008667Y005399D01*
X008717Y005418D01*
X008766Y005441D01*
X008813Y005467D01*
X008858Y005495D01*
X008901Y005527D01*
X008941Y005561D01*
X008980Y005599D01*
X009016Y005638D01*
X009020Y006667D02*
X008984Y006707D01*
X008945Y006745D01*
X008904Y006780D01*
X008861Y006812D01*
X008816Y006842D01*
X008769Y006868D01*
X008720Y006890D01*
X008669Y006910D01*
X008618Y006926D01*
X008566Y006939D01*
X008512Y006948D01*
X008459Y006953D01*
X008405Y006955D01*
X006405Y006455D02*
X006351Y006453D01*
X006297Y006448D01*
X006244Y006439D01*
X006191Y006426D01*
X006140Y006410D01*
X006090Y006390D01*
X006041Y006367D01*
X005993Y006341D01*
X005948Y006312D01*
X005905Y006279D01*
X005864Y006244D01*
X005825Y006206D01*
X005789Y006166D01*
X005756Y006123D01*
X005726Y006078D01*
X005699Y006031D01*
X005710Y005258D02*
X005740Y005210D01*
X005773Y005165D01*
X005809Y005122D01*
X005847Y005081D01*
X005889Y005044D01*
X005933Y005009D01*
X005979Y004978D01*
X006028Y004949D01*
X006078Y004925D01*
X006130Y004904D01*
X006184Y004886D01*
X006238Y004873D01*
X006293Y004863D01*
X006349Y004857D01*
X006405Y004855D01*
X006458Y004857D01*
X006512Y004862D01*
X006564Y004871D01*
X006616Y004883D01*
X006667Y004899D01*
X006717Y004918D01*
X006766Y004941D01*
X006813Y004967D01*
X006858Y004995D01*
X006901Y005027D01*
X006941Y005061D01*
X006980Y005099D01*
X007016Y005138D01*
X007020Y006167D02*
X006984Y006207D01*
X006945Y006245D01*
X006904Y006280D01*
X006861Y006312D01*
X006816Y006342D01*
X006769Y006368D01*
X006720Y006390D01*
X006669Y006410D01*
X006618Y006426D01*
X006566Y006439D01*
X006512Y006448D01*
X006459Y006453D01*
X006405Y006455D01*
X004405Y005955D02*
X004351Y005953D01*
X004297Y005948D01*
X004244Y005939D01*
X004191Y005926D01*
X004140Y005910D01*
X004090Y005890D01*
X004041Y005867D01*
X003993Y005841D01*
X003948Y005812D01*
X003905Y005779D01*
X003864Y005744D01*
X003825Y005706D01*
X003789Y005666D01*
X003756Y005623D01*
X003726Y005578D01*
X003699Y005531D01*
X003710Y004758D02*
X003740Y004710D01*
X003773Y004665D01*
X003809Y004622D01*
X003847Y004581D01*
X003889Y004544D01*
X003933Y004509D01*
X003979Y004478D01*
X004028Y004449D01*
X004078Y004425D01*
X004130Y004404D01*
X004184Y004386D01*
X004238Y004373D01*
X004293Y004363D01*
X004349Y004357D01*
X004405Y004355D01*
X004458Y004357D01*
X004512Y004362D01*
X004564Y004371D01*
X004616Y004383D01*
X004667Y004399D01*
X004717Y004418D01*
X004766Y004441D01*
X004813Y004467D01*
X004858Y004495D01*
X004901Y004527D01*
X004941Y004561D01*
X004980Y004599D01*
X005016Y004638D01*
X005020Y005667D02*
X004984Y005707D01*
X004945Y005745D01*
X004904Y005780D01*
X004861Y005812D01*
X004816Y005842D01*
X004769Y005868D01*
X004720Y005890D01*
X004669Y005910D01*
X004618Y005926D01*
X004566Y005939D01*
X004512Y005948D01*
X004459Y005953D01*
X004405Y005955D01*
X005655Y008855D02*
X005599Y008857D01*
X005543Y008863D01*
X005488Y008873D01*
X005434Y008886D01*
X005380Y008904D01*
X005328Y008925D01*
X005278Y008949D01*
X005229Y008978D01*
X005183Y009009D01*
X005139Y009044D01*
X005097Y009081D01*
X005059Y009122D01*
X005023Y009165D01*
X004990Y009210D01*
X004960Y009258D01*
X005655Y008855D02*
X005708Y008857D01*
X005762Y008862D01*
X005814Y008871D01*
X005866Y008883D01*
X005917Y008899D01*
X005967Y008918D01*
X006016Y008941D01*
X006063Y008967D01*
X006108Y008995D01*
X006151Y009027D01*
X006191Y009061D01*
X006230Y009099D01*
X006266Y009138D01*
X005655Y010455D02*
X005601Y010453D01*
X005547Y010448D01*
X005494Y010439D01*
X005441Y010426D01*
X005390Y010410D01*
X005340Y010390D01*
X005291Y010367D01*
X005243Y010341D01*
X005198Y010312D01*
X005155Y010279D01*
X005114Y010244D01*
X005075Y010206D01*
X005039Y010166D01*
X005006Y010123D01*
X004976Y010078D01*
X004949Y010031D01*
X005655Y010455D02*
X005709Y010453D01*
X005762Y010448D01*
X005816Y010439D01*
X005868Y010426D01*
X005919Y010410D01*
X005970Y010390D01*
X006019Y010368D01*
X006066Y010342D01*
X006111Y010312D01*
X006154Y010280D01*
X006195Y010245D01*
X006234Y010207D01*
X006270Y010167D01*
X006960Y009758D02*
X006990Y009710D01*
X007023Y009665D01*
X007059Y009622D01*
X007097Y009581D01*
X007139Y009544D01*
X007183Y009509D01*
X007229Y009478D01*
X007278Y009449D01*
X007328Y009425D01*
X007380Y009404D01*
X007434Y009386D01*
X007488Y009373D01*
X007543Y009363D01*
X007599Y009357D01*
X007655Y009355D01*
X007708Y009357D01*
X007762Y009362D01*
X007814Y009371D01*
X007866Y009383D01*
X007917Y009399D01*
X007967Y009418D01*
X008016Y009441D01*
X008063Y009467D01*
X008108Y009495D01*
X008151Y009527D01*
X008191Y009561D01*
X008230Y009599D01*
X008266Y009638D01*
X007655Y010955D02*
X007601Y010953D01*
X007547Y010948D01*
X007494Y010939D01*
X007441Y010926D01*
X007390Y010910D01*
X007340Y010890D01*
X007291Y010867D01*
X007243Y010841D01*
X007198Y010812D01*
X007155Y010779D01*
X007114Y010744D01*
X007075Y010706D01*
X007039Y010666D01*
X007006Y010623D01*
X006976Y010578D01*
X006949Y010531D01*
X007655Y010955D02*
X007709Y010953D01*
X007762Y010948D01*
X007816Y010939D01*
X007868Y010926D01*
X007919Y010910D01*
X007970Y010890D01*
X008019Y010868D01*
X008066Y010842D01*
X008111Y010812D01*
X008154Y010780D01*
X008195Y010745D01*
X008234Y010707D01*
X008270Y010667D01*
X008960Y010258D02*
X008990Y010210D01*
X009023Y010165D01*
X009059Y010122D01*
X009097Y010081D01*
X009139Y010044D01*
X009183Y010009D01*
X009229Y009978D01*
X009278Y009949D01*
X009328Y009925D01*
X009380Y009904D01*
X009434Y009886D01*
X009488Y009873D01*
X009543Y009863D01*
X009599Y009857D01*
X009655Y009855D01*
X009708Y009857D01*
X009762Y009862D01*
X009814Y009871D01*
X009866Y009883D01*
X009917Y009899D01*
X009967Y009918D01*
X010016Y009941D01*
X010063Y009967D01*
X010108Y009995D01*
X010151Y010027D01*
X010191Y010061D01*
X010230Y010099D01*
X010266Y010138D01*
X009655Y011455D02*
X009601Y011453D01*
X009547Y011448D01*
X009494Y011439D01*
X009441Y011426D01*
X009390Y011410D01*
X009340Y011390D01*
X009291Y011367D01*
X009243Y011341D01*
X009198Y011312D01*
X009155Y011279D01*
X009114Y011244D01*
X009075Y011206D01*
X009039Y011166D01*
X009006Y011123D01*
X008976Y011078D01*
X008949Y011031D01*
X009655Y011455D02*
X009709Y011453D01*
X009762Y011448D01*
X009816Y011439D01*
X009868Y011426D01*
X009919Y011410D01*
X009970Y011390D01*
X010019Y011368D01*
X010066Y011342D01*
X010111Y011312D01*
X010154Y011280D01*
X010195Y011245D01*
X010234Y011207D01*
X010270Y011167D01*
X010710Y010758D02*
X010740Y010710D01*
X010773Y010665D01*
X010809Y010622D01*
X010847Y010581D01*
X010889Y010544D01*
X010933Y010509D01*
X010979Y010478D01*
X011028Y010449D01*
X011078Y010425D01*
X011130Y010404D01*
X011184Y010386D01*
X011238Y010373D01*
X011293Y010363D01*
X011349Y010357D01*
X011405Y010355D01*
X011458Y010357D01*
X011512Y010362D01*
X011564Y010371D01*
X011616Y010383D01*
X011667Y010399D01*
X011717Y010418D01*
X011766Y010441D01*
X011813Y010467D01*
X011858Y010495D01*
X011901Y010527D01*
X011941Y010561D01*
X011980Y010599D01*
X012016Y010638D01*
X011405Y011955D02*
X011351Y011953D01*
X011297Y011948D01*
X011244Y011939D01*
X011191Y011926D01*
X011140Y011910D01*
X011090Y011890D01*
X011041Y011867D01*
X010993Y011841D01*
X010948Y011812D01*
X010905Y011779D01*
X010864Y011744D01*
X010825Y011706D01*
X010789Y011666D01*
X010756Y011623D01*
X010726Y011578D01*
X010699Y011531D01*
X011405Y011955D02*
X011459Y011953D01*
X011512Y011948D01*
X011566Y011939D01*
X011618Y011926D01*
X011669Y011910D01*
X011720Y011890D01*
X011769Y011868D01*
X011816Y011842D01*
X011861Y011812D01*
X011904Y011780D01*
X011945Y011745D01*
X011984Y011707D01*
X012020Y011667D01*
X012710Y011258D02*
X012740Y011210D01*
X012773Y011165D01*
X012809Y011122D01*
X012847Y011081D01*
X012889Y011044D01*
X012933Y011009D01*
X012979Y010978D01*
X013028Y010949D01*
X013078Y010925D01*
X013130Y010904D01*
X013184Y010886D01*
X013238Y010873D01*
X013293Y010863D01*
X013349Y010857D01*
X013405Y010855D01*
X013458Y010857D01*
X013512Y010862D01*
X013564Y010871D01*
X013616Y010883D01*
X013667Y010899D01*
X013717Y010918D01*
X013766Y010941D01*
X013813Y010967D01*
X013858Y010995D01*
X013901Y011027D01*
X013941Y011061D01*
X013980Y011099D01*
X014016Y011138D01*
X013405Y012455D02*
X013351Y012453D01*
X013297Y012448D01*
X013244Y012439D01*
X013191Y012426D01*
X013140Y012410D01*
X013090Y012390D01*
X013041Y012367D01*
X012993Y012341D01*
X012948Y012312D01*
X012905Y012279D01*
X012864Y012244D01*
X012825Y012206D01*
X012789Y012166D01*
X012756Y012123D01*
X012726Y012078D01*
X012699Y012031D01*
X013405Y012455D02*
X013459Y012453D01*
X013512Y012448D01*
X013566Y012439D01*
X013618Y012426D01*
X013669Y012410D01*
X013720Y012390D01*
X013769Y012368D01*
X013816Y012342D01*
X013861Y012312D01*
X013904Y012280D01*
X013945Y012245D01*
X013984Y012207D01*
X014020Y012167D01*
X012655Y014355D02*
X012708Y014357D01*
X012762Y014362D01*
X012814Y014371D01*
X012866Y014383D01*
X012917Y014399D01*
X012967Y014418D01*
X013016Y014441D01*
X013063Y014467D01*
X013108Y014495D01*
X013151Y014527D01*
X013191Y014561D01*
X013230Y014599D01*
X013266Y014638D01*
X012655Y015955D02*
X012601Y015953D01*
X012547Y015948D01*
X012494Y015939D01*
X012441Y015926D01*
X012390Y015910D01*
X012340Y015890D01*
X012291Y015867D01*
X012243Y015841D01*
X012198Y015812D01*
X012155Y015779D01*
X012114Y015744D01*
X012075Y015706D01*
X012039Y015666D01*
X012006Y015623D01*
X011976Y015578D01*
X011949Y015531D01*
X011960Y014758D02*
X011990Y014710D01*
X012023Y014665D01*
X012059Y014622D01*
X012097Y014581D01*
X012139Y014544D01*
X012183Y014509D01*
X012229Y014478D01*
X012278Y014449D01*
X012328Y014425D01*
X012380Y014404D01*
X012434Y014386D01*
X012488Y014373D01*
X012543Y014363D01*
X012599Y014357D01*
X012655Y014355D01*
X013270Y015667D02*
X013234Y015707D01*
X013195Y015745D01*
X013154Y015780D01*
X013111Y015812D01*
X013066Y015842D01*
X013019Y015868D01*
X012970Y015890D01*
X012919Y015910D01*
X012868Y015926D01*
X012816Y015939D01*
X012762Y015948D01*
X012709Y015953D01*
X012655Y015955D01*
X010905Y015455D02*
X010851Y015453D01*
X010797Y015448D01*
X010744Y015439D01*
X010691Y015426D01*
X010640Y015410D01*
X010590Y015390D01*
X010541Y015367D01*
X010493Y015341D01*
X010448Y015312D01*
X010405Y015279D01*
X010364Y015244D01*
X010325Y015206D01*
X010289Y015166D01*
X010256Y015123D01*
X010226Y015078D01*
X010199Y015031D01*
X010210Y014258D02*
X010240Y014210D01*
X010273Y014165D01*
X010309Y014122D01*
X010347Y014081D01*
X010389Y014044D01*
X010433Y014009D01*
X010479Y013978D01*
X010528Y013949D01*
X010578Y013925D01*
X010630Y013904D01*
X010684Y013886D01*
X010738Y013873D01*
X010793Y013863D01*
X010849Y013857D01*
X010905Y013855D01*
X010958Y013857D01*
X011012Y013862D01*
X011064Y013871D01*
X011116Y013883D01*
X011167Y013899D01*
X011217Y013918D01*
X011266Y013941D01*
X011313Y013967D01*
X011358Y013995D01*
X011401Y014027D01*
X011441Y014061D01*
X011480Y014099D01*
X011516Y014138D01*
X011520Y015167D02*
X011484Y015207D01*
X011445Y015245D01*
X011404Y015280D01*
X011361Y015312D01*
X011316Y015342D01*
X011269Y015368D01*
X011220Y015390D01*
X011169Y015410D01*
X011118Y015426D01*
X011066Y015439D01*
X011012Y015448D01*
X010959Y015453D01*
X010905Y015455D01*
X008905Y014955D02*
X008851Y014953D01*
X008797Y014948D01*
X008744Y014939D01*
X008691Y014926D01*
X008640Y014910D01*
X008590Y014890D01*
X008541Y014867D01*
X008493Y014841D01*
X008448Y014812D01*
X008405Y014779D01*
X008364Y014744D01*
X008325Y014706D01*
X008289Y014666D01*
X008256Y014623D01*
X008226Y014578D01*
X008199Y014531D01*
X008210Y013758D02*
X008240Y013710D01*
X008273Y013665D01*
X008309Y013622D01*
X008347Y013581D01*
X008389Y013544D01*
X008433Y013509D01*
X008479Y013478D01*
X008528Y013449D01*
X008578Y013425D01*
X008630Y013404D01*
X008684Y013386D01*
X008738Y013373D01*
X008793Y013363D01*
X008849Y013357D01*
X008905Y013355D01*
X008958Y013357D01*
X009012Y013362D01*
X009064Y013371D01*
X009116Y013383D01*
X009167Y013399D01*
X009217Y013418D01*
X009266Y013441D01*
X009313Y013467D01*
X009358Y013495D01*
X009401Y013527D01*
X009441Y013561D01*
X009480Y013599D01*
X009516Y013638D01*
X009520Y014667D02*
X009484Y014707D01*
X009445Y014745D01*
X009404Y014780D01*
X009361Y014812D01*
X009316Y014842D01*
X009269Y014868D01*
X009220Y014890D01*
X009169Y014910D01*
X009118Y014926D01*
X009066Y014939D01*
X009012Y014948D01*
X008959Y014953D01*
X008905Y014955D01*
X007155Y014455D02*
X007101Y014453D01*
X007047Y014448D01*
X006994Y014439D01*
X006941Y014426D01*
X006890Y014410D01*
X006840Y014390D01*
X006791Y014367D01*
X006743Y014341D01*
X006698Y014312D01*
X006655Y014279D01*
X006614Y014244D01*
X006575Y014206D01*
X006539Y014166D01*
X006506Y014123D01*
X006476Y014078D01*
X006449Y014031D01*
X006460Y013258D02*
X006490Y013210D01*
X006523Y013165D01*
X006559Y013122D01*
X006597Y013081D01*
X006639Y013044D01*
X006683Y013009D01*
X006729Y012978D01*
X006778Y012949D01*
X006828Y012925D01*
X006880Y012904D01*
X006934Y012886D01*
X006988Y012873D01*
X007043Y012863D01*
X007099Y012857D01*
X007155Y012855D01*
X007208Y012857D01*
X007262Y012862D01*
X007314Y012871D01*
X007366Y012883D01*
X007417Y012899D01*
X007467Y012918D01*
X007516Y012941D01*
X007563Y012967D01*
X007608Y012995D01*
X007651Y013027D01*
X007691Y013061D01*
X007730Y013099D01*
X007766Y013138D01*
X007770Y014167D02*
X007734Y014207D01*
X007695Y014245D01*
X007654Y014280D01*
X007611Y014312D01*
X007566Y014342D01*
X007519Y014368D01*
X007470Y014390D01*
X007419Y014410D01*
X007368Y014426D01*
X007316Y014439D01*
X007262Y014448D01*
X007209Y014453D01*
X007155Y014455D01*
X009710Y017758D02*
X009740Y017710D01*
X009773Y017665D01*
X009809Y017622D01*
X009847Y017581D01*
X009889Y017544D01*
X009933Y017509D01*
X009979Y017478D01*
X010028Y017449D01*
X010078Y017425D01*
X010130Y017404D01*
X010184Y017386D01*
X010238Y017373D01*
X010293Y017363D01*
X010349Y017357D01*
X010405Y017355D01*
X010458Y017357D01*
X010512Y017362D01*
X010564Y017371D01*
X010616Y017383D01*
X010667Y017399D01*
X010717Y017418D01*
X010766Y017441D01*
X010813Y017467D01*
X010858Y017495D01*
X010901Y017527D01*
X010941Y017561D01*
X010980Y017599D01*
X011016Y017638D01*
X010405Y018955D02*
X010351Y018953D01*
X010297Y018948D01*
X010244Y018939D01*
X010191Y018926D01*
X010140Y018910D01*
X010090Y018890D01*
X010041Y018867D01*
X009993Y018841D01*
X009948Y018812D01*
X009905Y018779D01*
X009864Y018744D01*
X009825Y018706D01*
X009789Y018666D01*
X009756Y018623D01*
X009726Y018578D01*
X009699Y018531D01*
X010405Y018955D02*
X010459Y018953D01*
X010512Y018948D01*
X010566Y018939D01*
X010618Y018926D01*
X010669Y018910D01*
X010720Y018890D01*
X010769Y018868D01*
X010816Y018842D01*
X010861Y018812D01*
X010904Y018780D01*
X010945Y018745D01*
X010984Y018707D01*
X011020Y018667D01*
D13*
X003655Y003605D02*
X003655Y003505D01*
X002705Y003505D01*
X002705Y003605D01*
X002655Y001305D02*
X002655Y001205D01*
X002655Y001305D02*
X003655Y001305D01*
X003655Y001205D01*
D14*
X010397Y000905D03*
D15*
X010397Y000922D03*
D16*
X010397Y000938D03*
D17*
X010397Y000955D03*
D18*
X010397Y000972D03*
X010397Y019822D03*
D19*
X010397Y000988D03*
D20*
X010397Y001005D03*
D21*
X010397Y001022D03*
X010397Y019772D03*
D22*
X010397Y001038D03*
D23*
X010397Y001055D03*
D24*
X010397Y001072D03*
X010397Y019722D03*
D25*
X010397Y001088D03*
D26*
X010397Y001105D03*
D27*
X010397Y001122D03*
X010397Y019672D03*
D28*
X019772Y005938D03*
X019772Y005372D03*
X019772Y004938D03*
X019772Y004372D03*
X019772Y003938D03*
X019772Y003372D03*
X019772Y002938D03*
X019772Y002372D03*
X001372Y001138D03*
X001105Y001488D03*
D29*
X003147Y001138D03*
X003147Y002938D03*
X001847Y004922D03*
X001847Y004938D03*
X017647Y003872D03*
X017647Y003438D03*
X017647Y002872D03*
X017647Y002438D03*
D30*
X012172Y001138D03*
D31*
X019789Y002405D03*
X019789Y002905D03*
X019789Y003405D03*
X019789Y003905D03*
X019789Y004405D03*
X019789Y004905D03*
X019789Y005405D03*
X019789Y005905D03*
X001339Y001155D03*
D32*
X003147Y001155D03*
X003147Y002955D03*
D33*
X012205Y001155D03*
D34*
X019797Y002422D03*
X019797Y002888D03*
X019797Y003422D03*
X019797Y003888D03*
X019797Y004422D03*
X019797Y004888D03*
X019797Y005422D03*
X019797Y005888D03*
X014313Y012338D03*
X006497Y012338D03*
X001147Y001372D03*
X001163Y001338D03*
X001313Y001172D03*
D35*
X003147Y001172D03*
X003147Y001822D03*
X003147Y002972D03*
X003147Y003622D03*
X001764Y018772D03*
D36*
X010397Y018622D03*
X012230Y001172D03*
D37*
X001239Y001238D03*
X001289Y001188D03*
X001189Y001288D03*
X001172Y001322D03*
D38*
X003147Y001188D03*
X003147Y002988D03*
X017647Y001988D03*
X017897Y005988D03*
X012647Y019488D03*
X008147Y019488D03*
D39*
X012305Y001238D03*
X012255Y001188D03*
D40*
X001272Y001205D03*
X001222Y001255D03*
X001189Y001305D03*
D41*
X003147Y001205D03*
X003147Y003005D03*
D42*
X012272Y001205D03*
X012322Y001255D03*
D43*
X019805Y002438D03*
X019805Y002872D03*
X019805Y003438D03*
X019805Y003872D03*
X019805Y004438D03*
X019805Y004872D03*
X019805Y005438D03*
X019805Y005872D03*
X001255Y001222D03*
X001205Y001272D03*
D44*
X003147Y001222D03*
X003147Y001772D03*
X003147Y003022D03*
X003147Y003572D03*
X008147Y018838D03*
X012647Y018838D03*
D45*
X012339Y001272D03*
X012289Y001222D03*
D46*
X003147Y001238D03*
X003147Y003038D03*
D47*
X003147Y003055D03*
X003147Y001255D03*
D48*
X003147Y001272D03*
X003147Y001722D03*
X003147Y003072D03*
X003147Y003522D03*
X001647Y018722D03*
X019147Y018722D03*
D49*
X012647Y018888D03*
X008147Y018888D03*
X017914Y003922D03*
X017647Y001388D03*
X003147Y001288D03*
X003147Y001688D03*
X003147Y003088D03*
X003147Y003488D03*
D50*
X010780Y001288D03*
D51*
X017655Y001288D03*
D52*
X019214Y001288D03*
X018147Y005388D03*
X018114Y005438D03*
X002497Y004172D03*
X002314Y004472D03*
D53*
X003147Y003505D03*
X003147Y003105D03*
X003147Y001705D03*
X003147Y001305D03*
X019164Y018705D03*
D54*
X010755Y001305D03*
D55*
X017655Y001305D03*
X012655Y018805D03*
X008155Y018805D03*
D56*
X002447Y004255D03*
X019247Y001305D03*
X019447Y001805D03*
D57*
X017647Y001888D03*
X003147Y001672D03*
X003147Y001338D03*
X003147Y001322D03*
X003147Y003122D03*
X003147Y003138D03*
X003147Y003472D03*
X001614Y018688D03*
D58*
X010747Y001322D03*
D59*
X017655Y001322D03*
X012655Y018822D03*
X008155Y018822D03*
D60*
X002389Y004372D03*
X002422Y004322D03*
X002439Y004288D03*
X018372Y004288D03*
X019289Y001338D03*
X019272Y001322D03*
D61*
X010739Y001338D03*
D62*
X017655Y001338D03*
D63*
X019805Y002455D03*
X019805Y002855D03*
X019805Y003455D03*
X019805Y003855D03*
X019805Y004455D03*
X019805Y004855D03*
X019805Y005455D03*
X019805Y005855D03*
X001155Y001355D03*
D64*
X003147Y001355D03*
X003147Y001605D03*
X003147Y003155D03*
X003147Y003405D03*
D65*
X010730Y001355D03*
D66*
X017655Y001355D03*
X012655Y018855D03*
X012655Y019455D03*
X008155Y019455D03*
X008155Y018855D03*
D67*
X019305Y001355D03*
D68*
X017647Y001872D03*
X013863Y004172D03*
X003147Y003438D03*
X003147Y003422D03*
X003147Y003188D03*
X003147Y003172D03*
X003147Y001638D03*
X003147Y001622D03*
X003147Y001388D03*
X003147Y001372D03*
D69*
X010722Y001372D03*
D70*
X017655Y001372D03*
X001655Y017572D03*
X008155Y018872D03*
X008155Y019438D03*
X012655Y019438D03*
X012655Y018872D03*
D71*
X019455Y001688D03*
X019338Y001388D03*
X019322Y001372D03*
D72*
X001139Y001388D03*
X001122Y001422D03*
X001122Y001438D03*
D73*
X010714Y001388D03*
D74*
X001130Y001405D03*
D75*
X003147Y001405D03*
X003147Y001455D03*
X003147Y001505D03*
X003147Y001555D03*
X003147Y003205D03*
X003147Y003255D03*
X003147Y003305D03*
X003147Y003355D03*
X017647Y001855D03*
X017647Y001455D03*
X017897Y005855D03*
X019214Y017655D03*
X012647Y018955D03*
X012647Y019355D03*
X008147Y019355D03*
X008147Y018955D03*
D76*
X010713Y001405D03*
D77*
X017655Y001405D03*
X017655Y001905D03*
X002688Y003955D03*
X001622Y017605D03*
X008155Y018905D03*
X008155Y019405D03*
X012655Y019405D03*
X012655Y018905D03*
X019172Y017605D03*
D78*
X019447Y001655D03*
X019347Y001405D03*
D79*
X003147Y001438D03*
X003147Y001422D03*
X003147Y001472D03*
X003147Y001488D03*
X003147Y001522D03*
X003147Y001538D03*
X003147Y001572D03*
X003147Y001588D03*
X003147Y003222D03*
X003147Y003238D03*
X003147Y003272D03*
X003147Y003288D03*
X003147Y003322D03*
X003147Y003338D03*
X003147Y003372D03*
X003147Y003388D03*
X002664Y003972D03*
X019214Y018638D03*
D80*
X010705Y001438D03*
X010705Y001422D03*
D81*
X006955Y004172D03*
X017655Y001422D03*
X001605Y017622D03*
X001605Y018672D03*
X008155Y018922D03*
X008155Y019388D03*
X012655Y019388D03*
X012655Y018922D03*
D82*
X019447Y001672D03*
X019447Y001638D03*
X019447Y001622D03*
X019414Y001522D03*
X019397Y001488D03*
X019364Y001422D03*
D83*
X017655Y001438D03*
X019205Y017638D03*
X012655Y018938D03*
X012655Y019372D03*
X008155Y019372D03*
X008155Y018938D03*
D84*
X019422Y001538D03*
X019389Y001472D03*
X019372Y001438D03*
D85*
X001114Y001455D03*
D86*
X010697Y001455D03*
D87*
X019380Y001455D03*
D88*
X001114Y001472D03*
D89*
X010697Y001472D03*
D90*
X017655Y001472D03*
X017655Y001838D03*
X017988Y003938D03*
X017905Y005838D03*
X019222Y017672D03*
X019222Y018622D03*
X012655Y018972D03*
X012655Y019338D03*
X008155Y019338D03*
X008155Y018972D03*
X001572Y018622D03*
X001572Y017672D03*
D91*
X010688Y001488D03*
D92*
X017655Y001488D03*
X017905Y005822D03*
D93*
X001105Y001505D03*
D94*
X010688Y001505D03*
D95*
X017655Y001505D03*
X017655Y001805D03*
X001555Y017705D03*
X008155Y019005D03*
X008155Y019305D03*
X012655Y019305D03*
X012655Y019005D03*
D96*
X018355Y004305D03*
X019405Y001505D03*
D97*
X010397Y018172D03*
X010397Y018188D03*
X010397Y018222D03*
X010397Y018238D03*
X001097Y001538D03*
X001097Y001522D03*
D98*
X010680Y001538D03*
X010680Y001522D03*
D99*
X017647Y001522D03*
X017647Y001772D03*
X017647Y001788D03*
X019247Y017722D03*
X019247Y018572D03*
X019247Y018588D03*
X012647Y019022D03*
X012647Y019288D03*
X008147Y019288D03*
X008147Y019022D03*
X001547Y018588D03*
X001547Y018572D03*
X001547Y017722D03*
D100*
X008155Y019038D03*
X008155Y019272D03*
X012655Y019272D03*
X012655Y019038D03*
X019255Y017738D03*
X017655Y001538D03*
D101*
X019764Y002355D03*
X019764Y002955D03*
X019764Y003355D03*
X019764Y003955D03*
X019764Y004355D03*
X019764Y004955D03*
X019764Y005355D03*
X019764Y005955D03*
X010397Y018155D03*
X010397Y018205D03*
X001097Y001555D03*
D102*
X010680Y001555D03*
D103*
X017655Y001555D03*
X017655Y001755D03*
X019255Y018555D03*
X012655Y019055D03*
X012655Y019255D03*
X008155Y019255D03*
X008155Y019055D03*
D104*
X019439Y001605D03*
X019422Y001555D03*
D105*
X001089Y001588D03*
X001089Y001572D03*
D106*
X010672Y001588D03*
X010672Y001572D03*
D107*
X017647Y001588D03*
X017647Y001572D03*
X017647Y001722D03*
X017647Y001738D03*
X017914Y005788D03*
X019264Y018538D03*
X012647Y019072D03*
X012647Y019088D03*
X012647Y019222D03*
X012647Y019238D03*
X008147Y019238D03*
X008147Y019222D03*
X008147Y019088D03*
X008147Y019072D03*
D108*
X019430Y001588D03*
X019430Y001572D03*
D109*
X001097Y001605D03*
D110*
X010664Y001605D03*
D111*
X017655Y001605D03*
X017655Y001655D03*
X002622Y004005D03*
X008155Y019105D03*
X008155Y019155D03*
X012655Y019155D03*
X012655Y019105D03*
D112*
X019739Y005322D03*
X019739Y004322D03*
X019739Y003322D03*
X019739Y002322D03*
X001089Y001638D03*
X001089Y001622D03*
D113*
X010664Y001638D03*
X010664Y001622D03*
D114*
X017655Y001638D03*
X017655Y001622D03*
X017655Y001672D03*
X017655Y001688D03*
X018088Y003972D03*
X017922Y005772D03*
X019272Y017772D03*
X019272Y018522D03*
X012655Y019122D03*
X012655Y019138D03*
X012655Y019172D03*
X012655Y019188D03*
X008155Y019188D03*
X008155Y019172D03*
X008155Y019138D03*
X008155Y019122D03*
X001522Y018522D03*
X001522Y017772D03*
D115*
X001064Y003355D03*
X001064Y003305D03*
X001064Y003255D03*
X001064Y003205D03*
X001097Y001655D03*
D116*
X003147Y001655D03*
X003147Y003455D03*
D117*
X007189Y001655D03*
X017739Y007605D03*
D118*
X013614Y001655D03*
D119*
X015747Y008388D03*
X010397Y018322D03*
X005064Y008388D03*
X001064Y003388D03*
X001064Y003372D03*
X001064Y003338D03*
X001064Y003322D03*
X001064Y003288D03*
X001064Y003272D03*
X001064Y003238D03*
X001064Y003222D03*
X001097Y001672D03*
D120*
X002864Y007038D03*
X002864Y010038D03*
X006997Y001672D03*
D121*
X013947Y001672D03*
X017564Y012672D03*
X017564Y012688D03*
X017564Y012722D03*
D122*
X010397Y018338D03*
X001097Y001688D03*
D123*
X006739Y001822D03*
X006872Y001688D03*
X018039Y006838D03*
D124*
X014189Y001688D03*
D125*
X019714Y003005D03*
X019714Y004005D03*
X019714Y005005D03*
X019714Y006005D03*
X010397Y018355D03*
X001097Y001705D03*
D126*
X006805Y001755D03*
X006855Y001705D03*
X018055Y006805D03*
D127*
X017814Y007355D03*
X014197Y001705D03*
D128*
X017647Y001705D03*
X019264Y017755D03*
X012647Y019205D03*
X008147Y019205D03*
D129*
X019447Y001755D03*
X019447Y001705D03*
D130*
X001105Y001722D03*
D131*
X002739Y006772D03*
X006772Y001788D03*
X006789Y001772D03*
X006822Y001738D03*
X006839Y001722D03*
D132*
X014205Y001722D03*
X014222Y001738D03*
X014422Y001988D03*
X017822Y007338D03*
X002972Y010222D03*
D133*
X010397Y018522D03*
X018397Y005022D03*
X019447Y001772D03*
X019447Y001738D03*
X019447Y001722D03*
D134*
X010397Y018372D03*
X001097Y008288D03*
X001097Y008272D03*
X001097Y008238D03*
X001097Y008038D03*
X001097Y008022D03*
X001097Y004288D03*
X001097Y004272D03*
X001097Y004038D03*
X001097Y004022D03*
X001097Y003522D03*
X001097Y003072D03*
X001113Y001738D03*
D135*
X003147Y001738D03*
X003147Y003538D03*
X017647Y001938D03*
D136*
X001122Y001755D03*
D137*
X003147Y001755D03*
X003147Y003555D03*
X017647Y001955D03*
X019114Y017555D03*
D138*
X014230Y001755D03*
D139*
X019680Y003022D03*
X019680Y004022D03*
X019680Y005022D03*
X019680Y006022D03*
X001130Y001772D03*
D140*
X014239Y001772D03*
X017839Y007288D03*
X017839Y010222D03*
D141*
X006430Y012322D03*
X001130Y008388D03*
X001130Y004388D03*
X001130Y003588D03*
X001130Y001788D03*
D142*
X003147Y001788D03*
X003147Y003588D03*
X017897Y005972D03*
D143*
X017847Y007272D03*
X014363Y001938D03*
X014347Y001922D03*
X014247Y001788D03*
X002947Y007238D03*
X002947Y010188D03*
D144*
X002380Y004388D03*
X002447Y004272D03*
X002463Y004238D03*
X019447Y001788D03*
D145*
X018289Y004705D03*
X001139Y004405D03*
X001139Y003605D03*
X001139Y001805D03*
X001139Y008405D03*
D146*
X003147Y003605D03*
X003147Y001805D03*
D147*
X006763Y001805D03*
X018047Y009855D03*
D148*
X017847Y010205D03*
X014380Y001955D03*
X014297Y001855D03*
X014263Y001805D03*
D149*
X001155Y001822D03*
X001155Y002972D03*
X001155Y003622D03*
X001155Y004438D03*
X001155Y008438D03*
D150*
X002939Y007222D03*
X002939Y010172D03*
X014272Y001822D03*
X014289Y001838D03*
X014322Y001888D03*
D151*
X017647Y001822D03*
X001564Y017688D03*
X008147Y018988D03*
X008147Y019322D03*
X012647Y019322D03*
X012647Y018988D03*
D152*
X002472Y004222D03*
X019439Y001838D03*
X019439Y001822D03*
D153*
X018288Y004488D03*
X018305Y004838D03*
X013772Y004222D03*
X001172Y003638D03*
X001172Y001838D03*
X001172Y007838D03*
D154*
X003147Y003638D03*
X003147Y001838D03*
X017647Y002522D03*
X017647Y002538D03*
X017647Y002772D03*
X017647Y002788D03*
X017647Y003522D03*
X017647Y003538D03*
X017647Y003772D03*
X017647Y003788D03*
X017930Y006022D03*
X010397Y019022D03*
X010397Y019288D03*
D155*
X002764Y006822D03*
X006714Y001838D03*
D156*
X001189Y001855D03*
X001189Y003655D03*
D157*
X003147Y003655D03*
X003147Y001855D03*
X017647Y002455D03*
X017647Y002855D03*
X017647Y003455D03*
X017647Y003855D03*
X010397Y018955D03*
X010397Y019355D03*
D158*
X006688Y001855D03*
D159*
X002480Y004205D03*
X019430Y001855D03*
D160*
X018322Y004372D03*
X001239Y003672D03*
X001239Y001872D03*
D161*
X003147Y001872D03*
X003147Y003672D03*
D162*
X006630Y001872D03*
X017980Y009972D03*
D163*
X017855Y010188D03*
X014305Y001872D03*
D164*
X019430Y001872D03*
D165*
X004722Y001888D03*
X016072Y016772D03*
D166*
X002488Y004188D03*
X019422Y001888D03*
D167*
X004714Y001905D03*
D168*
X014339Y001905D03*
D169*
X018097Y005455D03*
X018147Y005405D03*
X019414Y001905D03*
D170*
X004705Y001922D03*
X004705Y016672D03*
D171*
X008155Y019422D03*
X012655Y019422D03*
X019155Y017588D03*
X017655Y001922D03*
D172*
X019405Y001922D03*
X018205Y005338D03*
D173*
X016097Y016722D03*
X004697Y001938D03*
D174*
X002513Y004138D03*
X002297Y004488D03*
X018047Y005522D03*
X018230Y005322D03*
X019397Y001938D03*
D175*
X004697Y001955D03*
X004697Y016655D03*
D176*
X019389Y001955D03*
D177*
X004689Y001988D03*
X004689Y001972D03*
X004689Y016638D03*
D178*
X002964Y007288D03*
X014397Y001972D03*
D179*
X017655Y001972D03*
X001705Y017538D03*
X008155Y019472D03*
X012655Y019472D03*
D180*
X018005Y005588D03*
X018288Y005288D03*
X019372Y001972D03*
D181*
X019355Y001988D03*
X002555Y004072D03*
D182*
X004680Y002005D03*
D183*
X014455Y002005D03*
D184*
X017647Y002005D03*
X017647Y002605D03*
X017647Y002655D03*
X017647Y002705D03*
X017647Y003605D03*
X017647Y003655D03*
X017647Y003705D03*
X010397Y019205D03*
D185*
X017972Y005655D03*
X019339Y002005D03*
X002572Y004055D03*
D186*
X004672Y002038D03*
X004672Y002022D03*
X016122Y016672D03*
D187*
X017764Y007522D03*
X014497Y002022D03*
D188*
X017622Y002022D03*
D189*
X019305Y002022D03*
X019305Y017888D03*
X019305Y018422D03*
D190*
X016139Y016638D03*
X016139Y002038D03*
D191*
X004664Y002055D03*
D192*
X016139Y002055D03*
D193*
X004664Y002072D03*
X004664Y016588D03*
D194*
X016147Y016622D03*
X016147Y002088D03*
X016147Y002072D03*
X004647Y002122D03*
X004647Y002138D03*
D195*
X004655Y002088D03*
X004655Y016572D03*
D196*
X004655Y002105D03*
D197*
X016155Y002105D03*
X016155Y016605D03*
D198*
X016155Y002138D03*
X016155Y002122D03*
D199*
X004647Y002155D03*
X004647Y016555D03*
D200*
X016164Y002155D03*
D201*
X004639Y002172D03*
X004639Y002188D03*
X004639Y016538D03*
D202*
X016164Y016588D03*
X016164Y002172D03*
D203*
X016172Y002188D03*
X016172Y002222D03*
X004622Y002272D03*
X004622Y002288D03*
X016172Y016572D03*
D204*
X004630Y002255D03*
X004630Y002205D03*
D205*
X004622Y002305D03*
X016172Y002205D03*
X004622Y016505D03*
D206*
X004630Y016522D03*
X004630Y002238D03*
X004630Y002222D03*
D207*
X016180Y002238D03*
X016180Y002272D03*
D208*
X016180Y002255D03*
X016180Y016555D03*
D209*
X006597Y003588D03*
X002564Y006438D03*
X014147Y002288D03*
D210*
X017647Y002288D03*
X017647Y003288D03*
X002064Y005472D03*
X010397Y018788D03*
D211*
X019689Y005288D03*
X019689Y004288D03*
X019689Y003288D03*
X019689Y002288D03*
D212*
X014122Y002305D03*
X006622Y003055D03*
X002539Y009405D03*
D213*
X017647Y003305D03*
X017647Y002305D03*
D214*
X019722Y002305D03*
X019722Y003305D03*
X019722Y004305D03*
X019722Y005305D03*
X001072Y003405D03*
X001072Y003155D03*
D215*
X004614Y002388D03*
X004614Y002372D03*
X004614Y002338D03*
X004614Y002322D03*
X004614Y016488D03*
D216*
X002522Y009372D03*
X006638Y003488D03*
X006638Y003088D03*
X014105Y002322D03*
X018272Y006372D03*
X018272Y009388D03*
D217*
X018814Y004088D03*
X017647Y003322D03*
X017647Y002988D03*
X017647Y002322D03*
X002964Y008438D03*
X010397Y019488D03*
D218*
X018289Y006338D03*
X014089Y002338D03*
D219*
X017647Y002338D03*
X017647Y003338D03*
X018847Y004138D03*
X018847Y005238D03*
X010397Y018838D03*
X001947Y005222D03*
D220*
X010397Y018272D03*
X010397Y018288D03*
X019747Y005972D03*
X019747Y005338D03*
X019747Y004972D03*
X019747Y004338D03*
X019747Y003972D03*
X019747Y003338D03*
X019747Y002972D03*
X019747Y002338D03*
D221*
X004614Y002355D03*
D222*
X002480Y009255D03*
X014080Y002355D03*
D223*
X017655Y002355D03*
X017655Y003355D03*
X010405Y018855D03*
X010405Y019455D03*
X001922Y005155D03*
D224*
X002472Y009238D03*
X014122Y003338D03*
X014122Y002972D03*
X014072Y002372D03*
X018322Y006288D03*
X018322Y009272D03*
D225*
X017655Y003372D03*
X017655Y002372D03*
X001905Y005122D03*
X010405Y018872D03*
X010405Y019438D03*
D226*
X002464Y009222D03*
X002464Y006238D03*
X014064Y002388D03*
D227*
X017647Y002388D03*
X017647Y003388D03*
X018914Y004272D03*
X018914Y005072D03*
X010397Y018888D03*
D228*
X019780Y005922D03*
X019780Y005388D03*
X019780Y004922D03*
X019780Y004388D03*
X019780Y003922D03*
X019780Y003388D03*
X019780Y002922D03*
X019780Y002388D03*
D229*
X004605Y002405D03*
X004605Y002455D03*
D230*
X002455Y009205D03*
X014105Y003355D03*
X014055Y002405D03*
D231*
X017655Y002405D03*
X017655Y002905D03*
X017655Y003405D03*
X017655Y003905D03*
X018922Y005055D03*
X010405Y018905D03*
X010405Y019405D03*
D232*
X004605Y016472D03*
X004605Y002472D03*
X004605Y002438D03*
X004605Y002422D03*
D233*
X002447Y009172D03*
X002447Y009188D03*
X014097Y003372D03*
X014047Y002422D03*
X018347Y006238D03*
X018347Y009222D03*
D234*
X017655Y003422D03*
X017655Y002422D03*
X001855Y004972D03*
X010405Y018922D03*
X010405Y019388D03*
D235*
X018355Y009188D03*
X018355Y006222D03*
X014055Y002438D03*
D236*
X014047Y002455D03*
X018364Y006205D03*
D237*
X018372Y006188D03*
X018372Y009138D03*
X014072Y003438D03*
X014072Y003422D03*
X014072Y002872D03*
X014038Y002488D03*
X014038Y002472D03*
X002422Y006172D03*
X002422Y009122D03*
D238*
X010405Y018972D03*
X010405Y019338D03*
X017655Y003472D03*
X017655Y002472D03*
D239*
X019814Y002472D03*
X019814Y002488D03*
X019814Y002822D03*
X019814Y002838D03*
X019814Y003472D03*
X019814Y003488D03*
X019814Y003822D03*
X019814Y003838D03*
X019814Y004472D03*
X019814Y004488D03*
X019814Y004822D03*
X019814Y004838D03*
X019814Y005472D03*
X019814Y005488D03*
X019814Y005822D03*
X019814Y005838D03*
D240*
X016197Y016522D03*
X004597Y002622D03*
X004597Y002588D03*
X004597Y002572D03*
X004597Y002538D03*
X004597Y002522D03*
X004597Y002488D03*
D241*
X017647Y002488D03*
X017647Y002822D03*
X017647Y003488D03*
X017647Y003822D03*
X012647Y018788D03*
X010397Y018988D03*
X010397Y019322D03*
X008147Y018788D03*
D242*
X004597Y016455D03*
X004597Y002605D03*
X004597Y002555D03*
X004597Y002505D03*
D243*
X014030Y002505D03*
D244*
X017655Y002505D03*
X017655Y002805D03*
X017655Y003505D03*
X017655Y003805D03*
X010405Y019005D03*
X010405Y019305D03*
D245*
X019822Y005805D03*
X019822Y005505D03*
X019822Y004805D03*
X019822Y004505D03*
X019822Y003805D03*
X019822Y003505D03*
X019822Y002805D03*
X019822Y002505D03*
D246*
X018380Y006172D03*
X018380Y008488D03*
X018380Y009122D03*
X014030Y002538D03*
X014030Y002522D03*
D247*
X019822Y002522D03*
X019822Y002788D03*
X019822Y003522D03*
X019822Y003788D03*
X019822Y004522D03*
X019822Y004788D03*
X019822Y005522D03*
X019822Y005788D03*
D248*
X019830Y005772D03*
X019830Y005738D03*
X019830Y005722D03*
X019830Y005588D03*
X019830Y005572D03*
X019830Y005538D03*
X019830Y004772D03*
X019830Y004738D03*
X019830Y004722D03*
X019830Y004588D03*
X019830Y004572D03*
X019830Y004538D03*
X019830Y003772D03*
X019830Y003738D03*
X019830Y003722D03*
X019830Y003588D03*
X019830Y003572D03*
X019830Y003538D03*
X019830Y002772D03*
X019830Y002738D03*
X019830Y002722D03*
X019830Y002588D03*
X019830Y002572D03*
X019830Y002538D03*
X010330Y018138D03*
D249*
X014047Y003505D03*
X014047Y002805D03*
X014030Y002705D03*
X014030Y002655D03*
X014030Y002605D03*
X014030Y002555D03*
D250*
X017655Y002555D03*
X017655Y002755D03*
X017655Y003555D03*
X017655Y003755D03*
X010405Y019055D03*
X010405Y019255D03*
D251*
X019830Y005755D03*
X019830Y005705D03*
X019830Y005555D03*
X019830Y004755D03*
X019830Y004705D03*
X019830Y004555D03*
X019830Y003755D03*
X019830Y003705D03*
X019830Y003555D03*
X019830Y002755D03*
X019830Y002705D03*
X019830Y002555D03*
D252*
X018397Y006138D03*
X018397Y008522D03*
X018397Y009072D03*
X014047Y003522D03*
X014047Y002788D03*
X014047Y002772D03*
X014030Y002738D03*
X014030Y002722D03*
X014030Y002688D03*
X014030Y002672D03*
X014030Y002638D03*
X014030Y002622D03*
X014030Y002588D03*
X014030Y002572D03*
X002397Y006122D03*
X002397Y008538D03*
X002397Y009022D03*
X002397Y009038D03*
D253*
X010397Y019072D03*
X010397Y019088D03*
X010397Y019222D03*
X010397Y019238D03*
X017647Y003738D03*
X017647Y003722D03*
X017647Y003688D03*
X017647Y003672D03*
X017647Y003638D03*
X017647Y003622D03*
X017647Y003588D03*
X017647Y003572D03*
X017647Y002738D03*
X017647Y002722D03*
X017647Y002688D03*
X017647Y002672D03*
X017647Y002638D03*
X017647Y002622D03*
X017647Y002588D03*
X017647Y002572D03*
D254*
X019839Y002605D03*
X019839Y002655D03*
X019839Y003605D03*
X019839Y003655D03*
X019839Y004605D03*
X019839Y004655D03*
X019839Y005605D03*
X019839Y005655D03*
D255*
X019839Y005638D03*
X019839Y005622D03*
X019839Y005672D03*
X019839Y005688D03*
X019839Y004688D03*
X019839Y004672D03*
X019839Y004638D03*
X019839Y004622D03*
X019839Y003688D03*
X019839Y003672D03*
X019839Y003638D03*
X019839Y003622D03*
X019839Y002688D03*
X019839Y002672D03*
X019839Y002638D03*
X019839Y002622D03*
D256*
X004589Y002638D03*
X004589Y002672D03*
X004589Y002688D03*
X004589Y002722D03*
X004589Y002738D03*
X004589Y002772D03*
X004589Y002788D03*
X004589Y002822D03*
X004589Y002838D03*
X004589Y002872D03*
X004589Y002888D03*
X004589Y002922D03*
X004589Y016438D03*
D257*
X004589Y002905D03*
X004589Y002855D03*
X004589Y002805D03*
X004589Y002755D03*
X004589Y002705D03*
X004589Y002655D03*
D258*
X006539Y004005D03*
X002389Y006105D03*
X002389Y008555D03*
X002389Y009005D03*
X014039Y002755D03*
D259*
X014055Y002822D03*
X014055Y003472D03*
X014055Y003488D03*
X002405Y006138D03*
X002405Y009072D03*
D260*
X002414Y009088D03*
X014064Y002838D03*
D261*
X017647Y002838D03*
X017647Y003838D03*
X012647Y019522D03*
X008147Y019522D03*
D262*
X002414Y006155D03*
X014064Y003455D03*
X014064Y002855D03*
D263*
X014080Y002888D03*
X002430Y006188D03*
X002430Y009138D03*
D264*
X001864Y004988D03*
X017647Y003888D03*
X017647Y002888D03*
D265*
X014080Y002905D03*
X014080Y003405D03*
D266*
X014089Y003388D03*
X014089Y002922D03*
D267*
X017655Y002922D03*
X018905Y005088D03*
X010405Y019422D03*
D268*
X001197Y008488D03*
X001197Y004488D03*
X001197Y002938D03*
X018297Y004438D03*
D269*
X006530Y002938D03*
X003630Y007872D03*
D270*
X002455Y006222D03*
X014105Y002938D03*
D271*
X017647Y002938D03*
X001914Y005138D03*
D272*
X001172Y002955D03*
X018305Y004855D03*
D273*
X006555Y002955D03*
X002605Y006505D03*
X003705Y008005D03*
X002605Y009555D03*
D274*
X014114Y002955D03*
D275*
X017647Y002955D03*
X018864Y004155D03*
X018864Y005205D03*
D276*
X006572Y003622D03*
X006572Y002972D03*
X002589Y006472D03*
X003672Y008338D03*
D277*
X001955Y005238D03*
X010405Y019472D03*
X017655Y002972D03*
D278*
X018289Y004672D03*
X018289Y004688D03*
X018289Y004722D03*
X018289Y004738D03*
X014389Y012322D03*
X001139Y007888D03*
X001139Y003888D03*
X001139Y002988D03*
D279*
X006588Y002988D03*
X002572Y009472D03*
X018222Y006472D03*
D280*
X014139Y003322D03*
X014139Y002988D03*
X002489Y006288D03*
X002489Y009288D03*
D281*
X019730Y005988D03*
X019730Y004988D03*
X019730Y003988D03*
X019730Y002988D03*
D282*
X001130Y003005D03*
X001130Y003905D03*
X001130Y007905D03*
D283*
X002564Y009455D03*
X006597Y003005D03*
D284*
X006655Y003155D03*
X006655Y003405D03*
X014155Y003305D03*
X014155Y003005D03*
D285*
X017655Y003005D03*
X010405Y019505D03*
D286*
X001122Y008372D03*
X001122Y007938D03*
X001122Y007922D03*
X001122Y004372D03*
X001122Y003922D03*
X001122Y003572D03*
X001122Y003022D03*
D287*
X002555Y006422D03*
X002555Y009438D03*
X006605Y003572D03*
X006605Y003022D03*
D288*
X006622Y003538D03*
X006439Y003972D03*
X002539Y006388D03*
X014189Y003022D03*
D289*
X017647Y003022D03*
X010397Y019522D03*
D290*
X010397Y018388D03*
X001114Y008338D03*
X001114Y007972D03*
X001114Y004338D03*
X001114Y003938D03*
X001114Y003038D03*
D291*
X006613Y003038D03*
X002547Y009422D03*
X018247Y008388D03*
X018247Y006422D03*
D292*
X016222Y003272D03*
X016222Y003238D03*
X016222Y003222D03*
X016222Y003188D03*
X016222Y003172D03*
X016222Y003138D03*
X016222Y003122D03*
X016222Y003088D03*
X016222Y003072D03*
X016222Y003038D03*
X004572Y003738D03*
X016222Y016472D03*
D293*
X001105Y008305D03*
X001105Y008005D03*
X001105Y004305D03*
X001105Y003055D03*
D294*
X004572Y003755D03*
X016222Y003255D03*
X016222Y003205D03*
X016222Y003155D03*
X016222Y003105D03*
X016222Y003055D03*
X004572Y016405D03*
D295*
X002530Y009388D03*
X002530Y006372D03*
X006630Y003522D03*
X006630Y003072D03*
X014180Y003288D03*
D296*
X001089Y003088D03*
X001089Y003488D03*
X001089Y004072D03*
X001089Y004088D03*
X001089Y004122D03*
X001089Y004138D03*
X001089Y004172D03*
X001089Y004188D03*
X001089Y004222D03*
X001089Y004238D03*
X001089Y008072D03*
X001089Y008088D03*
X001089Y008122D03*
X001089Y008138D03*
X001089Y008172D03*
X001089Y008188D03*
X001089Y008222D03*
D297*
X001089Y008205D03*
X001089Y008155D03*
X001089Y008105D03*
X001089Y004205D03*
X001089Y004155D03*
X001089Y004105D03*
X001089Y004055D03*
X001089Y003505D03*
X001089Y003105D03*
D298*
X002522Y006355D03*
X006638Y003505D03*
X006638Y003105D03*
D299*
X001080Y003122D03*
X001080Y003138D03*
X001080Y003472D03*
D300*
X002514Y006338D03*
X002514Y009338D03*
X006647Y003472D03*
X006647Y003138D03*
X006647Y003122D03*
D301*
X001072Y003172D03*
X001072Y003188D03*
X001072Y003422D03*
X001072Y003438D03*
D302*
X002505Y006322D03*
X002505Y009322D03*
X006655Y003438D03*
X006655Y003422D03*
X006655Y003188D03*
X006655Y003172D03*
D303*
X006663Y003205D03*
X006663Y003255D03*
X006663Y003305D03*
X006663Y003355D03*
X002497Y006305D03*
X002497Y009305D03*
D304*
X006663Y003388D03*
X006663Y003372D03*
X006663Y003338D03*
X006663Y003322D03*
X006663Y003288D03*
X006663Y003272D03*
X006663Y003238D03*
X006663Y003222D03*
X018297Y006322D03*
X018297Y009338D03*
D305*
X001080Y003455D03*
D306*
X006647Y003455D03*
X002514Y009355D03*
D307*
X001105Y008322D03*
X001105Y007988D03*
X001105Y004322D03*
X001105Y003988D03*
X001105Y003972D03*
X001105Y003538D03*
D308*
X014055Y003538D03*
X018405Y006122D03*
X018405Y008538D03*
X018405Y009038D03*
D309*
X001114Y007955D03*
X001114Y004355D03*
X001114Y003955D03*
X001114Y003555D03*
D310*
X002547Y006405D03*
X006613Y003555D03*
X018247Y009455D03*
D311*
X018414Y009005D03*
X018414Y006105D03*
X014047Y003705D03*
X014047Y003655D03*
X014047Y003605D03*
X014047Y003555D03*
D312*
X014047Y003572D03*
X014047Y003588D03*
X014047Y003622D03*
X014047Y003638D03*
X014047Y003672D03*
X014047Y003688D03*
X014047Y003722D03*
X014047Y003738D03*
X014064Y003772D03*
X014247Y003988D03*
X018414Y009022D03*
D313*
X018222Y009505D03*
X006588Y003605D03*
D314*
X006555Y003638D03*
X003705Y008022D03*
X003705Y008272D03*
X003705Y008288D03*
X002605Y009538D03*
D315*
X003655Y007905D03*
X006538Y003655D03*
X018172Y006555D03*
X018172Y009605D03*
D316*
X006488Y003672D03*
X002672Y006638D03*
D317*
X004580Y003722D03*
X004580Y003688D03*
X004580Y016422D03*
D318*
X004580Y003705D03*
D319*
X002372Y008605D03*
X002372Y008905D03*
X014072Y003805D03*
X014055Y003755D03*
X014105Y003855D03*
X014205Y003955D03*
X014272Y004005D03*
X018422Y008555D03*
D320*
X004564Y003772D03*
X004564Y016388D03*
D321*
X001222Y007788D03*
X001222Y003788D03*
X018305Y004388D03*
D322*
X004989Y003788D03*
X004139Y015488D03*
D323*
X002372Y008938D03*
X002372Y008922D03*
X002372Y008588D03*
X002372Y006072D03*
X014072Y003788D03*
X014088Y003822D03*
X014105Y003838D03*
X014122Y003872D03*
X014138Y003888D03*
X014188Y003938D03*
X014222Y003972D03*
X018422Y008572D03*
X018422Y008972D03*
X018422Y008988D03*
D324*
X018330Y004905D03*
X001197Y003805D03*
X001197Y007805D03*
D325*
X005005Y003805D03*
X004105Y015405D03*
D326*
X001180Y008472D03*
X001180Y007822D03*
X001180Y004472D03*
X001180Y003822D03*
D327*
X005014Y003822D03*
X016714Y015388D03*
X006414Y017922D03*
X006414Y017938D03*
X006414Y018372D03*
D328*
X010397Y018438D03*
X018297Y004822D03*
X007047Y004222D03*
X001164Y003838D03*
D329*
X005030Y003838D03*
D330*
X001155Y003855D03*
X001155Y007855D03*
D331*
X005030Y003855D03*
X016747Y015305D03*
X014397Y018005D03*
X014397Y018305D03*
X006397Y018305D03*
X006397Y018005D03*
D332*
X001147Y008422D03*
X001147Y007872D03*
X001147Y004422D03*
X001147Y003872D03*
X018280Y004572D03*
X018280Y004588D03*
X018280Y004622D03*
X018280Y004638D03*
X018297Y004772D03*
D333*
X005030Y003872D03*
X004030Y015238D03*
D334*
X005030Y003888D03*
X016780Y015222D03*
X016780Y015238D03*
D335*
X005030Y003905D03*
X003997Y015155D03*
D336*
X002364Y008855D03*
X002364Y006055D03*
X014147Y003905D03*
D337*
X002789Y003922D03*
D338*
X002822Y006938D03*
X006205Y003922D03*
X017972Y006972D03*
X017972Y009988D03*
D339*
X014164Y003922D03*
X002364Y008622D03*
X002364Y008638D03*
X002364Y008872D03*
X002364Y008888D03*
D340*
X002738Y003938D03*
X001672Y018738D03*
X017888Y005938D03*
X019122Y018738D03*
D341*
X006297Y003938D03*
X002714Y006722D03*
D342*
X003680Y007955D03*
X006380Y003955D03*
D343*
X018039Y003955D03*
X001539Y018555D03*
D344*
X002639Y003988D03*
D345*
X006480Y003988D03*
X018330Y006272D03*
X018330Y008438D03*
D346*
X018222Y004022D03*
X018122Y003988D03*
X019289Y017822D03*
X019289Y017838D03*
X019289Y018472D03*
D347*
X001097Y008255D03*
X001097Y008055D03*
X001097Y004255D03*
X001097Y004005D03*
D348*
X018172Y004005D03*
X019289Y018455D03*
D349*
X002605Y004022D03*
X001505Y017822D03*
X001505Y017838D03*
X001505Y018472D03*
D350*
X006589Y004022D03*
D351*
X014230Y004022D03*
D352*
X017939Y005722D03*
X002589Y004038D03*
X001489Y017888D03*
X001489Y018422D03*
D353*
X002239Y005822D03*
X006639Y004038D03*
D354*
X002247Y005838D03*
X014180Y004038D03*
D355*
X014055Y004088D03*
X018772Y004038D03*
X006755Y004088D03*
X002788Y008522D03*
X002022Y005388D03*
D356*
X006688Y004055D03*
X014138Y004055D03*
D357*
X018789Y004055D03*
X003039Y008405D03*
D358*
X006722Y004072D03*
D359*
X014097Y004072D03*
D360*
X018805Y004072D03*
X003005Y008422D03*
D361*
X002547Y004088D03*
D362*
X002538Y004105D03*
D363*
X006797Y004105D03*
X014013Y004105D03*
X018847Y005255D03*
D364*
X018830Y004105D03*
D365*
X018039Y005538D03*
X002522Y004122D03*
D366*
X001872Y005022D03*
X006838Y004122D03*
X013972Y004122D03*
D367*
X018839Y004122D03*
X018839Y005272D03*
D368*
X013939Y004138D03*
X006872Y004138D03*
D369*
X002505Y004155D03*
D370*
X006905Y004155D03*
D371*
X013913Y004155D03*
X019097Y018755D03*
X001697Y018755D03*
D372*
X018872Y005188D03*
X018872Y004172D03*
D373*
X013830Y004188D03*
X006980Y004188D03*
X001480Y017922D03*
X001480Y017938D03*
X001480Y018372D03*
X001480Y018388D03*
D374*
X018880Y005172D03*
X018880Y004188D03*
D375*
X007022Y004205D03*
X002372Y004405D03*
D376*
X013797Y004205D03*
D377*
X018880Y004205D03*
X018880Y005155D03*
D378*
X018889Y005138D03*
X018889Y004222D03*
D379*
X018897Y004238D03*
X018897Y005122D03*
X001897Y005088D03*
D380*
X018905Y005105D03*
X018905Y004255D03*
D381*
X002422Y004305D03*
D382*
X018347Y004322D03*
D383*
X002405Y004338D03*
D384*
X018330Y004338D03*
D385*
X002405Y004355D03*
D386*
X018330Y004355D03*
D387*
X018314Y004405D03*
X001214Y004505D03*
D388*
X002355Y004422D03*
D389*
X010405Y018472D03*
X018305Y004422D03*
D390*
X002347Y004438D03*
D391*
X001164Y004455D03*
X001164Y008455D03*
X018297Y004805D03*
X018297Y004505D03*
D392*
X002338Y004455D03*
D393*
X010397Y018455D03*
X018297Y004455D03*
D394*
X018297Y004472D03*
X018314Y004872D03*
D395*
X018030Y005555D03*
X002280Y004505D03*
D396*
X001264Y004522D03*
X001264Y008522D03*
X018364Y004988D03*
D397*
X019330Y018022D03*
X019330Y018038D03*
X019330Y018072D03*
X019330Y018088D03*
X019330Y018122D03*
X019330Y018138D03*
X019330Y018172D03*
X019330Y018188D03*
X019330Y018222D03*
X019330Y018238D03*
X019330Y018272D03*
X002230Y004522D03*
D398*
X018289Y004538D03*
X018289Y004522D03*
X018289Y004788D03*
D399*
X001839Y004772D03*
X001839Y004788D03*
X001839Y004822D03*
X001839Y004838D03*
X001839Y004872D03*
X001839Y004888D03*
X001839Y004738D03*
X001839Y004722D03*
X001839Y004688D03*
X001839Y004672D03*
X001839Y004638D03*
X001839Y004622D03*
X001839Y004588D03*
X001839Y004572D03*
X001839Y004538D03*
D400*
X001839Y004555D03*
X001839Y004605D03*
X001839Y004655D03*
X001839Y004705D03*
X001839Y004755D03*
X001839Y004805D03*
X001839Y004855D03*
D401*
X018289Y004555D03*
D402*
X018280Y004605D03*
X018280Y004655D03*
X018297Y004755D03*
D403*
X018322Y004888D03*
D404*
X001847Y004905D03*
X001847Y004955D03*
D405*
X004989Y008372D03*
X015822Y008372D03*
X018339Y004922D03*
D406*
X018347Y004938D03*
D407*
X018347Y004955D03*
D408*
X018355Y004972D03*
D409*
X001864Y005005D03*
D410*
X018380Y005005D03*
D411*
X001880Y005038D03*
D412*
X018930Y005038D03*
D413*
X001889Y005055D03*
D414*
X001889Y005072D03*
D415*
X001905Y005105D03*
D416*
X001930Y005172D03*
D417*
X001939Y005188D03*
D418*
X001939Y005205D03*
D419*
X018855Y005222D03*
D420*
X001964Y005255D03*
D421*
X001972Y005272D03*
X002888Y008488D03*
X010405Y018822D03*
D422*
X001980Y005288D03*
D423*
X001980Y005305D03*
D424*
X018255Y005305D03*
D425*
X001989Y005322D03*
D426*
X001997Y005338D03*
D427*
X002005Y005355D03*
X010405Y018805D03*
D428*
X018189Y005355D03*
D429*
X002014Y005372D03*
D430*
X018072Y005488D03*
X018089Y005472D03*
X018172Y005372D03*
D431*
X002030Y005405D03*
D432*
X002039Y005422D03*
X003072Y008388D03*
D433*
X018130Y005422D03*
D434*
X002047Y005438D03*
D435*
X002055Y005455D03*
D436*
X002072Y005488D03*
D437*
X002072Y005505D03*
D438*
X018063Y005505D03*
D439*
X003130Y008372D03*
X002080Y005522D03*
D440*
X002089Y005538D03*
D441*
X002097Y005555D03*
D442*
X002105Y005572D03*
D443*
X018014Y005572D03*
D444*
X002114Y005588D03*
D445*
X002122Y005605D03*
D446*
X017997Y005605D03*
D447*
X002130Y005622D03*
D448*
X017989Y005622D03*
D449*
X002139Y005638D03*
D450*
X017980Y005638D03*
D451*
X002147Y005655D03*
D452*
X002164Y005672D03*
D453*
X001464Y018022D03*
X001464Y018038D03*
X001464Y018072D03*
X001464Y018088D03*
X001464Y018122D03*
X001464Y018138D03*
X001464Y018172D03*
X001464Y018188D03*
X001464Y018222D03*
X001464Y018238D03*
X001464Y018272D03*
X017964Y005672D03*
D454*
X002172Y005688D03*
D455*
X001472Y017972D03*
X001472Y017988D03*
X001472Y018288D03*
X001472Y018322D03*
X001472Y018338D03*
X017955Y005688D03*
X019322Y017972D03*
X019322Y017988D03*
X019322Y018288D03*
X019322Y018322D03*
X019322Y018338D03*
D456*
X002180Y005705D03*
D457*
X017947Y005705D03*
X019314Y017905D03*
X019314Y017955D03*
X019314Y018355D03*
D458*
X002189Y005722D03*
D459*
X002197Y005738D03*
D460*
X001497Y017872D03*
X001497Y018438D03*
X017930Y005738D03*
X019297Y017872D03*
X019297Y018438D03*
D461*
X002205Y005755D03*
D462*
X017930Y005755D03*
X019280Y017805D03*
X019280Y018505D03*
D463*
X002214Y005772D03*
D464*
X002222Y005788D03*
D465*
X002230Y005805D03*
D466*
X017913Y005805D03*
D467*
X002255Y005855D03*
D468*
X002264Y005872D03*
D469*
X017889Y005872D03*
X019189Y017622D03*
X019189Y018672D03*
D470*
X002272Y005888D03*
D471*
X017888Y005888D03*
D472*
X002280Y005905D03*
D473*
X017889Y005905D03*
D474*
X002289Y005922D03*
D475*
X017889Y005922D03*
X019139Y017572D03*
D476*
X002297Y005938D03*
D477*
X002305Y005955D03*
D478*
X017889Y005955D03*
D479*
X002314Y005972D03*
D480*
X002322Y005988D03*
D481*
X002330Y006005D03*
D482*
X017914Y006005D03*
D483*
X018447Y008638D03*
X018447Y008672D03*
X018447Y008822D03*
X018447Y008838D03*
X018447Y008872D03*
X002347Y006022D03*
D484*
X002355Y006038D03*
X002355Y008672D03*
X002355Y008688D03*
X002355Y008722D03*
X002355Y008738D03*
X002355Y008772D03*
X002355Y008788D03*
X002355Y008822D03*
X002355Y008838D03*
D485*
X018455Y008788D03*
X018455Y008772D03*
X018455Y008738D03*
X018455Y008722D03*
X018455Y008688D03*
X018455Y006038D03*
D486*
X018447Y006055D03*
X018447Y008655D03*
X018447Y008855D03*
D487*
X018439Y008888D03*
X018439Y008622D03*
X018439Y006072D03*
D488*
X002380Y006088D03*
X002380Y008572D03*
X002380Y008972D03*
D489*
X018430Y008938D03*
X018430Y008922D03*
X018430Y008588D03*
X018430Y006088D03*
D490*
X018389Y006155D03*
X018389Y008505D03*
X018389Y009105D03*
D491*
X002439Y009155D03*
X002439Y006205D03*
D492*
X002472Y006255D03*
D493*
X018339Y006255D03*
D494*
X002480Y006272D03*
X002480Y009272D03*
D495*
X018305Y006305D03*
D496*
X018280Y006355D03*
D497*
X018264Y006388D03*
X018264Y009422D03*
D498*
X018255Y006405D03*
D499*
X018239Y006438D03*
X018239Y009472D03*
D500*
X002580Y006455D03*
D501*
X018230Y006455D03*
D502*
X018197Y006522D03*
X018197Y008372D03*
X003730Y008188D03*
X003730Y008172D03*
X003730Y008138D03*
X003730Y008122D03*
X003713Y008038D03*
X003697Y007988D03*
X003680Y008322D03*
X002597Y009522D03*
X002597Y006488D03*
D503*
X018214Y006488D03*
X018214Y009522D03*
D504*
X018205Y006505D03*
X003655Y008355D03*
D505*
X003664Y007922D03*
X002614Y006522D03*
X002614Y009572D03*
D506*
X002622Y009588D03*
X003638Y007888D03*
X002622Y006538D03*
D507*
X003672Y007938D03*
X003689Y007972D03*
X003722Y008072D03*
X003722Y008088D03*
X003722Y008222D03*
X003722Y008238D03*
X018189Y009572D03*
X018189Y006538D03*
D508*
X002630Y006555D03*
X002630Y009605D03*
D509*
X002639Y009622D03*
X002639Y006572D03*
D510*
X018164Y006572D03*
X018164Y009622D03*
D511*
X002647Y009638D03*
X002647Y006588D03*
D512*
X003605Y007838D03*
X018155Y006588D03*
X018155Y009638D03*
D513*
X002655Y009655D03*
X002655Y006605D03*
D514*
X018147Y006605D03*
X018147Y009655D03*
D515*
X002664Y009672D03*
X002664Y006622D03*
D516*
X003589Y007822D03*
X018139Y006622D03*
X018139Y009672D03*
D517*
X018130Y009688D03*
X018130Y006638D03*
D518*
X002680Y006655D03*
D519*
X018122Y006655D03*
X018122Y009705D03*
D520*
X003539Y007788D03*
X002689Y006672D03*
D521*
X018114Y006688D03*
X018114Y006672D03*
X018114Y009722D03*
D522*
X018097Y006722D03*
X002697Y006688D03*
X002697Y009722D03*
D523*
X002705Y006705D03*
D524*
X018105Y006705D03*
D525*
X018072Y006772D03*
X002722Y006738D03*
X002722Y009772D03*
D526*
X018089Y009772D03*
X018089Y006738D03*
D527*
X002730Y006755D03*
D528*
X018080Y006755D03*
D529*
X018047Y006822D03*
X002747Y006788D03*
X002747Y009822D03*
D530*
X018064Y009822D03*
X018064Y006788D03*
D531*
X002755Y006805D03*
D532*
X002772Y006838D03*
X002772Y009872D03*
X018022Y009888D03*
X018022Y006872D03*
D533*
X002780Y006855D03*
D534*
X018030Y006855D03*
D535*
X002789Y006872D03*
D536*
X002797Y006888D03*
X002797Y009922D03*
X017997Y009938D03*
X017997Y006922D03*
D537*
X018014Y006888D03*
D538*
X002805Y006905D03*
D539*
X018005Y006905D03*
D540*
X002814Y006922D03*
X002814Y009938D03*
D541*
X017989Y006938D03*
D542*
X002822Y006955D03*
X002822Y009955D03*
D543*
X017980Y006955D03*
D544*
X002830Y006972D03*
X002830Y009972D03*
D545*
X002839Y009988D03*
X002839Y006988D03*
D546*
X017964Y006988D03*
D547*
X002847Y007005D03*
X002847Y010005D03*
D548*
X017955Y010005D03*
X017955Y007005D03*
D549*
X002855Y007022D03*
X002855Y010022D03*
D550*
X017947Y010022D03*
X017947Y007022D03*
D551*
X017939Y007038D03*
X017939Y010038D03*
D552*
X002872Y010055D03*
X002872Y007055D03*
D553*
X017939Y007055D03*
D554*
X002880Y007072D03*
D555*
X017930Y007072D03*
D556*
X002889Y007088D03*
X002889Y010072D03*
D557*
X017922Y010072D03*
X017922Y007088D03*
D558*
X002889Y007105D03*
D559*
X017914Y007105D03*
D560*
X017897Y007138D03*
X017897Y010122D03*
X002897Y010088D03*
X002897Y007122D03*
D561*
X017905Y007122D03*
D562*
X002905Y007138D03*
D563*
X002914Y007155D03*
D564*
X017897Y007155D03*
D565*
X002922Y007188D03*
X002922Y007172D03*
X002922Y010138D03*
D566*
X017889Y007172D03*
D567*
X017880Y007188D03*
X017880Y010138D03*
D568*
X002930Y010155D03*
X002930Y007205D03*
D569*
X017872Y007205D03*
X017872Y010155D03*
D570*
X017864Y010172D03*
X017864Y007238D03*
X017864Y007222D03*
D571*
X002955Y007255D03*
D572*
X017855Y007255D03*
D573*
X002955Y007272D03*
D574*
X002972Y007305D03*
X017822Y010255D03*
D575*
X017839Y007305D03*
D576*
X002980Y007338D03*
X002980Y007322D03*
X002980Y010238D03*
D577*
X017830Y010238D03*
X017830Y007322D03*
D578*
X002989Y007355D03*
X002989Y010255D03*
D579*
X002997Y010272D03*
X002997Y007388D03*
X002997Y007372D03*
X017797Y007422D03*
X017797Y010288D03*
D580*
X017814Y007372D03*
D581*
X017805Y007388D03*
X017805Y010272D03*
D582*
X003005Y007405D03*
D583*
X017797Y007405D03*
D584*
X003014Y007438D03*
X003014Y007422D03*
D585*
X017789Y007438D03*
D586*
X017772Y007505D03*
X003022Y007455D03*
D587*
X017780Y007455D03*
D588*
X003030Y007488D03*
X003030Y007472D03*
D589*
X017780Y007472D03*
X017780Y010322D03*
D590*
X017772Y010338D03*
X017772Y007488D03*
X003022Y010322D03*
D591*
X003039Y007505D03*
D592*
X003039Y007522D03*
X003039Y010338D03*
D593*
X003047Y007538D03*
X017747Y007572D03*
X017747Y007588D03*
X017747Y010388D03*
D594*
X017755Y010372D03*
X017755Y007538D03*
D595*
X003055Y007555D03*
D596*
X017755Y007555D03*
D597*
X003055Y007572D03*
X003055Y010372D03*
D598*
X003064Y010388D03*
X003064Y007588D03*
D599*
X003064Y007605D03*
D600*
X003072Y007622D03*
X003072Y007638D03*
X017722Y007672D03*
X017722Y007688D03*
X017722Y010422D03*
D601*
X017739Y007622D03*
D602*
X017730Y007638D03*
D603*
X003080Y007655D03*
D604*
X017730Y007655D03*
X017730Y010405D03*
D605*
X003080Y010422D03*
X003080Y007672D03*
D606*
X003089Y007688D03*
X003089Y010438D03*
D607*
X003089Y007705D03*
D608*
X017714Y007705D03*
D609*
X017697Y007772D03*
X017697Y007788D03*
X017697Y010472D03*
X003097Y007738D03*
X003097Y007722D03*
D610*
X017714Y007722D03*
X017714Y010438D03*
D611*
X017705Y007738D03*
D612*
X003105Y007755D03*
D613*
X017705Y007755D03*
X017705Y010455D03*
D614*
X003105Y007772D03*
D615*
X003564Y007805D03*
D616*
X017689Y007805D03*
X017689Y008355D03*
D617*
X017689Y007822D03*
X017689Y010488D03*
D618*
X017680Y007872D03*
X017680Y007838D03*
D619*
X003614Y007855D03*
D620*
X017680Y007855D03*
X017680Y010505D03*
D621*
X017672Y010522D03*
X017672Y008338D03*
X017672Y007888D03*
X003122Y010488D03*
D622*
X017672Y007905D03*
D623*
X017664Y007922D03*
X017664Y007938D03*
X017664Y008322D03*
D624*
X017664Y007955D03*
D625*
X017655Y007972D03*
X017655Y007988D03*
X017655Y010538D03*
D626*
X017655Y008305D03*
X017655Y008005D03*
D627*
X017647Y008022D03*
X017647Y008038D03*
X017647Y008072D03*
X017647Y008088D03*
X017647Y008272D03*
X017647Y008288D03*
X003147Y010538D03*
D628*
X003697Y008305D03*
X003730Y008155D03*
X003730Y008105D03*
X003713Y008055D03*
X018197Y009555D03*
D629*
X017647Y010555D03*
X017647Y008255D03*
X017647Y008055D03*
D630*
X017639Y008105D03*
X017639Y008155D03*
X017639Y008205D03*
D631*
X017639Y008188D03*
X017639Y008172D03*
X017639Y008138D03*
X017639Y008122D03*
X017639Y008222D03*
X017639Y008238D03*
X017639Y010572D03*
D632*
X003722Y008255D03*
X003722Y008205D03*
D633*
X001122Y008355D03*
X010405Y018405D03*
D634*
X018289Y009355D03*
X018289Y008405D03*
D635*
X018305Y008422D03*
X018305Y009322D03*
D636*
X002938Y008455D03*
D637*
X018347Y008455D03*
X018347Y009205D03*
D638*
X002914Y008472D03*
D639*
X018364Y008472D03*
X018364Y009172D03*
D640*
X001222Y008505D03*
D641*
X002847Y008505D03*
D642*
X018439Y008605D03*
X018439Y008905D03*
D643*
X002355Y008805D03*
X002355Y008755D03*
X002355Y008705D03*
X002355Y008655D03*
D644*
X018455Y008705D03*
X018455Y008755D03*
X018455Y008805D03*
D645*
X002380Y008955D03*
D646*
X018430Y008955D03*
D647*
X002389Y008988D03*
D648*
X002405Y009055D03*
D649*
X018405Y009055D03*
D650*
X018389Y009088D03*
D651*
X018372Y009155D03*
X002422Y009105D03*
D652*
X018339Y009238D03*
D653*
X018330Y009255D03*
D654*
X018314Y009288D03*
D655*
X018314Y009305D03*
D656*
X018280Y009372D03*
D657*
X018264Y009405D03*
D658*
X018255Y009438D03*
D659*
X002580Y009488D03*
D660*
X018230Y009488D03*
D661*
X002589Y009505D03*
D662*
X018205Y009538D03*
D663*
X018180Y009588D03*
D664*
X002680Y009688D03*
D665*
X002689Y009705D03*
D666*
X002705Y009738D03*
D667*
X018105Y009738D03*
D668*
X002714Y009755D03*
D669*
X018097Y009755D03*
D670*
X002730Y009788D03*
D671*
X018080Y009788D03*
D672*
X002739Y009805D03*
D673*
X018072Y009805D03*
D674*
X002755Y009838D03*
D675*
X018055Y009838D03*
D676*
X002764Y009855D03*
D677*
X018030Y009872D03*
D678*
X002780Y009888D03*
D679*
X002789Y009905D03*
D680*
X018014Y009905D03*
D681*
X018005Y009922D03*
D682*
X017989Y009955D03*
D683*
X017930Y010055D03*
D684*
X017914Y010088D03*
D685*
X002905Y010105D03*
D686*
X017905Y010105D03*
D687*
X002914Y010122D03*
D688*
X002964Y010205D03*
D689*
X003005Y010288D03*
D690*
X003014Y010305D03*
D691*
X017789Y010305D03*
D692*
X003047Y010355D03*
D693*
X017764Y010355D03*
D694*
X003072Y010405D03*
D695*
X003097Y010455D03*
D696*
X003114Y010472D03*
D697*
X003130Y010505D03*
D698*
X003139Y010522D03*
D699*
X003155Y010555D03*
D700*
X003164Y010572D03*
D701*
X003172Y010588D03*
D702*
X017630Y010588D03*
D703*
X003189Y010605D03*
D704*
X017622Y010605D03*
D705*
X003197Y010622D03*
D706*
X017614Y010622D03*
D707*
X003205Y010638D03*
D708*
X017605Y010638D03*
D709*
X003214Y010655D03*
D710*
X017597Y010655D03*
D711*
X017572Y010688D03*
X017572Y012388D03*
X017572Y012588D03*
X017572Y012622D03*
X017572Y012638D03*
X003222Y012638D03*
X003222Y012622D03*
X003222Y012588D03*
X003222Y012572D03*
X003222Y012538D03*
X003222Y012522D03*
X003222Y012488D03*
X003222Y012472D03*
X003222Y012438D03*
X003222Y012422D03*
X003222Y010672D03*
D712*
X017580Y010672D03*
X017580Y012472D03*
X017580Y012488D03*
X017580Y012522D03*
X017580Y012538D03*
X017580Y012572D03*
D713*
X003230Y012672D03*
X003230Y012688D03*
X003230Y012722D03*
X003230Y012738D03*
X003230Y010688D03*
D714*
X003239Y010705D03*
X003239Y012755D03*
X003239Y012805D03*
D715*
X017564Y012705D03*
X017564Y010705D03*
D716*
X003255Y010722D03*
X003255Y012372D03*
X003255Y012872D03*
X003255Y012888D03*
D717*
X017555Y012788D03*
X017555Y012772D03*
X017555Y012738D03*
X017555Y012372D03*
X017555Y010722D03*
D718*
X003264Y010738D03*
X003264Y012922D03*
X003264Y012938D03*
D719*
X003247Y012838D03*
X003247Y012822D03*
X017547Y012838D03*
X017547Y012822D03*
X017547Y010738D03*
D720*
X017522Y012955D03*
X003272Y013005D03*
X003272Y012355D03*
X003272Y010755D03*
D721*
X017539Y010755D03*
X017539Y012855D03*
D722*
X003280Y013022D03*
X003280Y013038D03*
X003280Y010772D03*
D723*
X017530Y010772D03*
X017530Y012922D03*
X017530Y012938D03*
D724*
X003289Y013072D03*
X003289Y013088D03*
X003289Y010788D03*
D725*
X017514Y010788D03*
X017514Y012988D03*
X017514Y013022D03*
D726*
X017497Y013105D03*
X003297Y013105D03*
X003297Y010805D03*
D727*
X017505Y010805D03*
X017505Y013055D03*
D728*
X003305Y013138D03*
X003305Y012338D03*
X003305Y010822D03*
D729*
X003297Y013122D03*
X017497Y013088D03*
X017497Y013072D03*
X017497Y010822D03*
D730*
X003314Y010838D03*
X003314Y013172D03*
X003314Y013188D03*
D731*
X017489Y013138D03*
X017489Y013122D03*
X017489Y010838D03*
D732*
X003330Y010855D03*
X003330Y013255D03*
D733*
X017480Y013155D03*
X017480Y010855D03*
D734*
X003339Y010872D03*
X003339Y012322D03*
X003339Y013288D03*
D735*
X003322Y013238D03*
X003322Y013222D03*
X017472Y013188D03*
X017472Y010872D03*
D736*
X017447Y010922D03*
X017447Y013288D03*
X003347Y013322D03*
X003347Y010888D03*
D737*
X017464Y010888D03*
X017464Y012322D03*
X017464Y013222D03*
X017464Y013238D03*
D738*
X003355Y013355D03*
X003355Y010905D03*
D739*
X017455Y010905D03*
X017455Y013255D03*
D740*
X003364Y013372D03*
X003364Y013388D03*
X003364Y010922D03*
D741*
X003372Y010938D03*
X003372Y013422D03*
X017422Y013388D03*
D742*
X017439Y013338D03*
X017439Y013322D03*
X017439Y010938D03*
D743*
X003380Y010955D03*
X003380Y013455D03*
D744*
X017430Y013355D03*
X017430Y010955D03*
D745*
X003389Y010972D03*
X003389Y013472D03*
X003389Y013488D03*
D746*
X017414Y013438D03*
X017414Y013422D03*
X017414Y010972D03*
D747*
X017397Y013488D03*
X003397Y010988D03*
D748*
X017405Y010988D03*
X017405Y013472D03*
D749*
X003405Y011005D03*
D750*
X003397Y013505D03*
X017397Y013505D03*
X017397Y011005D03*
D751*
X003414Y011022D03*
X003414Y013572D03*
D752*
X017389Y013538D03*
X017389Y013522D03*
X017389Y011022D03*
D753*
X017372Y013572D03*
X017372Y013588D03*
X003422Y013588D03*
X003422Y011038D03*
D754*
X017380Y011038D03*
D755*
X003430Y011055D03*
D756*
X003422Y013605D03*
X017372Y011055D03*
D757*
X017347Y013672D03*
X003447Y013688D03*
X003447Y013672D03*
X003447Y011072D03*
D758*
X017364Y011072D03*
X017364Y013622D03*
D759*
X003455Y011088D03*
D760*
X017355Y011088D03*
X017355Y013638D03*
D761*
X003464Y011105D03*
D762*
X017347Y011105D03*
X017347Y013655D03*
D763*
X003472Y011122D03*
D764*
X017339Y011122D03*
X017339Y013688D03*
D765*
X003480Y013772D03*
X003480Y013788D03*
X003480Y011138D03*
D766*
X017330Y011138D03*
X017330Y013722D03*
X017330Y013738D03*
D767*
X003489Y013805D03*
X003489Y011155D03*
D768*
X003472Y013755D03*
X017322Y013755D03*
X017322Y011155D03*
D769*
X017297Y013822D03*
X017297Y013838D03*
X003497Y013838D03*
X003497Y011172D03*
D770*
X017314Y011172D03*
X017314Y013772D03*
X017314Y013788D03*
D771*
X003505Y013872D03*
X003505Y011188D03*
D772*
X017305Y011188D03*
D773*
X003514Y011205D03*
D774*
X017297Y011205D03*
D775*
X017272Y013922D03*
X003522Y013922D03*
X003522Y011222D03*
D776*
X017289Y011222D03*
X017289Y013872D03*
D777*
X003530Y013938D03*
X003530Y011238D03*
D778*
X017280Y011238D03*
X017280Y013888D03*
D779*
X003539Y013955D03*
X003539Y011255D03*
D780*
X003522Y013905D03*
X017272Y013905D03*
X017272Y011255D03*
D781*
X003539Y011272D03*
X003539Y013972D03*
D782*
X017264Y013938D03*
X017264Y011272D03*
D783*
X017247Y013988D03*
X003547Y013988D03*
X003547Y011288D03*
D784*
X017255Y011288D03*
X017255Y013972D03*
D785*
X003555Y014005D03*
X003555Y011305D03*
D786*
X017247Y011305D03*
D787*
X003564Y011322D03*
X003564Y014022D03*
X003564Y014038D03*
D788*
X017239Y014022D03*
X017239Y011322D03*
D789*
X017222Y014072D03*
X003572Y011338D03*
D790*
X017230Y011338D03*
X017230Y014038D03*
D791*
X003580Y011355D03*
D792*
X003572Y014055D03*
X017222Y014055D03*
X017222Y011355D03*
D793*
X003589Y011372D03*
D794*
X017214Y011388D03*
X017214Y011372D03*
X017214Y014088D03*
D795*
X017197Y014138D03*
X017197Y011422D03*
X003597Y011388D03*
X003597Y014122D03*
X003597Y014138D03*
D796*
X003605Y014155D03*
X003605Y011405D03*
D797*
X017205Y011405D03*
X017205Y014105D03*
D798*
X003614Y014172D03*
X003614Y011422D03*
D799*
X003622Y011438D03*
X003622Y014188D03*
X017172Y011472D03*
D800*
X017189Y011438D03*
D801*
X017172Y014205D03*
X003622Y014205D03*
X003622Y011455D03*
D802*
X017180Y011455D03*
D803*
X003630Y011472D03*
X003630Y014222D03*
D804*
X003639Y014238D03*
X003639Y011488D03*
D805*
X017164Y011488D03*
X017164Y014222D03*
X017164Y014238D03*
D806*
X003647Y011505D03*
D807*
X017164Y011505D03*
D808*
X003655Y011522D03*
X003655Y014288D03*
D809*
X017155Y011522D03*
D810*
X003664Y011538D03*
X003664Y014322D03*
D811*
X003647Y014272D03*
X017147Y014288D03*
X017147Y014272D03*
X017147Y011538D03*
D812*
X017122Y011605D03*
X017122Y014355D03*
X003672Y011555D03*
D813*
X017139Y011555D03*
X017139Y014305D03*
D814*
X017122Y014338D03*
X017122Y011588D03*
X003672Y011572D03*
X003672Y014338D03*
D815*
X017130Y014322D03*
X017130Y011572D03*
D816*
X003680Y011588D03*
X003680Y014372D03*
D817*
X003689Y011605D03*
D818*
X003697Y011622D03*
X003697Y011638D03*
X017097Y011672D03*
X017097Y014422D03*
D819*
X017114Y014372D03*
X017114Y011622D03*
D820*
X017105Y011638D03*
X017105Y014388D03*
D821*
X003705Y011655D03*
D822*
X017105Y011655D03*
X017105Y014405D03*
D823*
X003714Y011688D03*
X003714Y011672D03*
D824*
X017089Y011688D03*
X017089Y014438D03*
D825*
X017072Y011755D03*
X003722Y011705D03*
D826*
X017089Y011705D03*
X017089Y014455D03*
D827*
X003730Y014488D03*
X003730Y011738D03*
X003730Y011722D03*
D828*
X017080Y011722D03*
X017080Y014472D03*
D829*
X017072Y014488D03*
X017072Y011738D03*
X003722Y014472D03*
D830*
X003739Y014505D03*
X003739Y011755D03*
D831*
X003739Y011772D03*
X003739Y014522D03*
D832*
X017064Y014522D03*
X017064Y011788D03*
X017064Y011772D03*
D833*
X017047Y011838D03*
X003747Y011788D03*
X003747Y014538D03*
D834*
X003747Y011805D03*
X017047Y011855D03*
X017047Y014555D03*
D835*
X017055Y011805D03*
D836*
X003755Y011822D03*
X003755Y011838D03*
D837*
X017055Y011822D03*
X017055Y014538D03*
D838*
X003764Y011855D03*
D839*
X003764Y011872D03*
X003764Y014572D03*
X003764Y014588D03*
D840*
X017039Y014588D03*
X017039Y014572D03*
X017039Y011888D03*
X017039Y011872D03*
D841*
X017022Y011938D03*
X017022Y014622D03*
X003772Y011888D03*
D842*
X003772Y011905D03*
X003772Y014605D03*
X017022Y011955D03*
D843*
X017030Y011905D03*
X017030Y014605D03*
D844*
X003780Y014622D03*
X003780Y011938D03*
X003780Y011922D03*
D845*
X017030Y011922D03*
D846*
X003789Y011955D03*
D847*
X003789Y011972D03*
X003789Y014638D03*
D848*
X017014Y014638D03*
X017014Y011988D03*
X017014Y011972D03*
D849*
X016997Y012072D03*
X016997Y012088D03*
X016997Y012272D03*
X016997Y014688D03*
X003797Y014672D03*
X003797Y012022D03*
X003797Y011988D03*
D850*
X003797Y012005D03*
X003797Y012305D03*
X003797Y014655D03*
X016997Y012105D03*
X016997Y012055D03*
D851*
X017014Y012005D03*
X017014Y012305D03*
D852*
X017005Y012288D03*
X017005Y012038D03*
X017005Y012022D03*
X017005Y014672D03*
D853*
X016905Y019288D03*
X016855Y019388D03*
X003905Y019322D03*
X003805Y014688D03*
X003805Y012288D03*
X003805Y012038D03*
D854*
X003805Y012055D03*
X016905Y019305D03*
D855*
X016947Y019172D03*
X016947Y019138D03*
X016947Y019122D03*
X016814Y019438D03*
X003947Y019388D03*
X003914Y019338D03*
X003864Y019222D03*
X003864Y019188D03*
X003814Y012272D03*
X003814Y012138D03*
X003814Y012122D03*
X003814Y012088D03*
X003814Y012072D03*
D856*
X003814Y012105D03*
X003814Y012255D03*
X003814Y014705D03*
X003864Y019205D03*
X003897Y019305D03*
X016847Y019405D03*
X016947Y019155D03*
D857*
X016939Y019188D03*
X016922Y019238D03*
X016922Y019272D03*
X016889Y019322D03*
X016889Y019338D03*
X016872Y019372D03*
X016989Y012238D03*
X016989Y012222D03*
X016989Y012188D03*
X016989Y012172D03*
X016989Y012138D03*
X016989Y012122D03*
X003872Y019238D03*
X003889Y019288D03*
D858*
X003955Y019405D03*
X003855Y019155D03*
X003822Y012205D03*
X003822Y012155D03*
X016805Y019455D03*
X016955Y019105D03*
X016972Y014755D03*
D859*
X016989Y014705D03*
X016989Y012255D03*
X016989Y012205D03*
X016989Y012155D03*
X016922Y019255D03*
X016872Y019355D03*
X003922Y019355D03*
D860*
X003972Y019422D03*
X003988Y019438D03*
X003855Y019172D03*
X003855Y019138D03*
X003855Y019122D03*
X003822Y014738D03*
X003822Y014722D03*
X003822Y012238D03*
X003822Y012222D03*
X003822Y012188D03*
X003822Y012172D03*
D861*
X017505Y012338D03*
X017505Y013038D03*
D862*
X017530Y012905D03*
X017530Y012355D03*
D863*
X003239Y012388D03*
X003239Y012772D03*
X003239Y012788D03*
D864*
X003222Y012655D03*
X003222Y012605D03*
X003222Y012555D03*
X003222Y012505D03*
X003222Y012455D03*
X003222Y012405D03*
X017572Y012605D03*
X017572Y012655D03*
D865*
X017589Y012405D03*
D866*
X017589Y012422D03*
X017589Y012438D03*
D867*
X017580Y012455D03*
X017580Y012505D03*
X017580Y012555D03*
D868*
X003230Y012705D03*
D869*
X017555Y012755D03*
D870*
X017547Y012805D03*
X003247Y012855D03*
D871*
X017539Y012888D03*
X017539Y012872D03*
D872*
X003255Y012905D03*
D873*
X003264Y012955D03*
D874*
X003272Y012972D03*
X003272Y012988D03*
X017522Y012972D03*
D875*
X017514Y013005D03*
D876*
X003289Y013055D03*
D877*
X003305Y013155D03*
D878*
X017480Y013172D03*
D879*
X017472Y013205D03*
X003322Y013205D03*
D880*
X003330Y013272D03*
D881*
X017455Y013272D03*
D882*
X017447Y013305D03*
X003347Y013305D03*
D883*
X003355Y013338D03*
D884*
X017430Y013372D03*
D885*
X017422Y013405D03*
X003372Y013405D03*
D886*
X003380Y013438D03*
D887*
X017405Y013455D03*
D888*
X003405Y013522D03*
X003405Y013538D03*
D889*
X003414Y013555D03*
D890*
X017380Y013555D03*
D891*
X017364Y013605D03*
D892*
X003430Y013622D03*
D893*
X003439Y013638D03*
D894*
X003439Y013655D03*
D895*
X003455Y013705D03*
D896*
X017339Y013705D03*
D897*
X003464Y013722D03*
X003464Y013738D03*
D898*
X017305Y013805D03*
D899*
X003489Y013822D03*
D900*
X003505Y013855D03*
D901*
X017289Y013855D03*
D902*
X003514Y013888D03*
D903*
X017255Y013955D03*
D904*
X017239Y014005D03*
D905*
X003580Y014072D03*
X003580Y014088D03*
D906*
X003589Y014105D03*
D907*
X017205Y014122D03*
D908*
X017189Y014155D03*
D909*
X017180Y014172D03*
X017180Y014188D03*
D910*
X003639Y014255D03*
D911*
X017155Y014255D03*
D912*
X003655Y014305D03*
D913*
X003680Y014355D03*
D914*
X003689Y014388D03*
D915*
X003697Y014405D03*
D916*
X003705Y014422D03*
X003705Y014438D03*
D917*
X003714Y014455D03*
D918*
X017064Y014505D03*
D919*
X003755Y014555D03*
D920*
X017005Y014655D03*
D921*
X016980Y014722D03*
X016980Y014738D03*
X016930Y019222D03*
X016830Y019422D03*
X003930Y019372D03*
X003880Y019272D03*
D922*
X003830Y014755D03*
D923*
X003839Y014772D03*
X004022Y019472D03*
X004039Y019488D03*
X016939Y019022D03*
D924*
X016947Y019038D03*
X016947Y019072D03*
X016947Y019088D03*
X016964Y014772D03*
X003847Y019072D03*
X003847Y019088D03*
D925*
X003847Y014788D03*
X016947Y014822D03*
D926*
X016955Y014788D03*
X016755Y019488D03*
X003855Y019038D03*
X003855Y019022D03*
D927*
X003847Y014805D03*
X016947Y019005D03*
D928*
X016955Y014805D03*
X003855Y019055D03*
D929*
X003855Y018988D03*
X003855Y014822D03*
D930*
X003864Y014838D03*
X003864Y018972D03*
D931*
X016939Y018988D03*
X016939Y018972D03*
X016939Y014838D03*
D932*
X003872Y014855D03*
D933*
X016930Y014855D03*
X016930Y018955D03*
D934*
X003880Y018922D03*
X003880Y014872D03*
D935*
X016930Y014872D03*
X016930Y018938D03*
D936*
X003889Y018888D03*
X003889Y014888D03*
D937*
X003872Y018938D03*
X016922Y018922D03*
X016922Y014888D03*
D938*
X003889Y014905D03*
X003889Y018905D03*
D939*
X016914Y018905D03*
X016914Y014905D03*
D940*
X016897Y014938D03*
X016897Y018872D03*
X003897Y014922D03*
D941*
X016905Y014922D03*
X016905Y018888D03*
D942*
X003905Y018872D03*
X003905Y014938D03*
D943*
X003914Y014955D03*
X003914Y018855D03*
D944*
X016897Y014955D03*
D945*
X016872Y018838D03*
X003922Y018838D03*
X003922Y014972D03*
D946*
X016889Y014972D03*
D947*
X003930Y014988D03*
D948*
X016880Y014988D03*
D949*
X003930Y015005D03*
D950*
X016872Y015005D03*
D951*
X003939Y015022D03*
X003939Y018822D03*
D952*
X016864Y018822D03*
X016864Y015038D03*
X016864Y015022D03*
D953*
X016847Y015072D03*
X003947Y015038D03*
D954*
X003955Y015055D03*
X003955Y018805D03*
D955*
X016855Y015055D03*
D956*
X003964Y015072D03*
D957*
X003972Y015088D03*
X016822Y015122D03*
X016822Y015138D03*
D958*
X016839Y015088D03*
D959*
X003972Y015105D03*
D960*
X016830Y015105D03*
D961*
X003980Y015122D03*
X003980Y018788D03*
D962*
X003989Y015138D03*
D963*
X016814Y015155D03*
D964*
X004005Y015172D03*
D965*
X016805Y015172D03*
D966*
X004014Y015188D03*
D967*
X016797Y015188D03*
D968*
X004014Y015205D03*
D969*
X016789Y015205D03*
D970*
X014405Y018122D03*
X014405Y018138D03*
X014405Y018172D03*
X014405Y018188D03*
X004022Y015222D03*
D971*
X004039Y015255D03*
D972*
X014405Y018105D03*
X014405Y018155D03*
X016772Y015255D03*
D973*
X014397Y018288D03*
X006397Y018288D03*
X004047Y015272D03*
D974*
X006397Y018072D03*
X006397Y018088D03*
X006397Y018122D03*
X006397Y018138D03*
X006397Y018172D03*
X006397Y018188D03*
X006397Y018222D03*
X006397Y018238D03*
X014397Y018238D03*
X014397Y018222D03*
X014397Y018272D03*
X014397Y018088D03*
X014397Y018072D03*
X014397Y018038D03*
X016764Y015272D03*
D975*
X006405Y017972D03*
X006405Y017988D03*
X006405Y018322D03*
X004055Y015288D03*
D976*
X006405Y018022D03*
X006405Y018038D03*
X006405Y018272D03*
X016755Y015288D03*
D977*
X004064Y015305D03*
D978*
X004064Y015322D03*
X006414Y018338D03*
D979*
X014389Y018338D03*
X014389Y018322D03*
X014389Y017988D03*
X014389Y017972D03*
X016739Y015338D03*
X016739Y015322D03*
D980*
X016722Y015372D03*
X014388Y017938D03*
X014388Y018372D03*
X004072Y015338D03*
D981*
X004080Y015355D03*
D982*
X016730Y015355D03*
D983*
X006422Y018388D03*
X004089Y015372D03*
D984*
X004097Y015388D03*
X016697Y015422D03*
X016697Y015438D03*
D985*
X016705Y015405D03*
D986*
X004114Y015422D03*
D987*
X004122Y015438D03*
X006422Y017872D03*
X014372Y017872D03*
X014372Y018438D03*
X016672Y015488D03*
D988*
X004130Y015455D03*
D989*
X016689Y015455D03*
D990*
X006430Y018438D03*
X004130Y015472D03*
D991*
X016680Y015472D03*
D992*
X006430Y018455D03*
X004147Y015505D03*
D993*
X014364Y017855D03*
X016664Y015505D03*
D994*
X014555Y017622D03*
X014355Y017838D03*
X014355Y018472D03*
X004155Y015522D03*
D995*
X016655Y015522D03*
D996*
X014414Y017738D03*
X014347Y017822D03*
X004164Y015538D03*
D997*
X016647Y015538D03*
D998*
X016622Y015605D03*
X004172Y015555D03*
D999*
X016639Y015555D03*
D1000*
X014630Y017572D03*
X004180Y015572D03*
D1001*
X006439Y017838D03*
X006439Y018472D03*
X014472Y017688D03*
X014489Y017672D03*
X014522Y017638D03*
X016639Y015572D03*
D1002*
X006339Y017672D03*
X006272Y017622D03*
X004189Y015588D03*
D1003*
X014430Y017722D03*
X016630Y015588D03*
D1004*
X016597Y015655D03*
X014330Y018505D03*
X006463Y018505D03*
X006463Y017805D03*
X006430Y017755D03*
X006380Y017705D03*
X006247Y017605D03*
X004197Y015605D03*
D1005*
X004197Y015622D03*
X006397Y017722D03*
X006413Y017738D03*
D1006*
X006447Y018488D03*
X014347Y018488D03*
X016614Y015622D03*
D1007*
X014705Y017538D03*
X006455Y017772D03*
X004205Y015638D03*
D1008*
X006305Y017638D03*
X006355Y017688D03*
X016605Y015638D03*
D1009*
X004214Y015655D03*
D1010*
X004222Y015672D03*
X016572Y015722D03*
D1011*
X016589Y015672D03*
X006472Y017788D03*
X006222Y017588D03*
D1012*
X004230Y015688D03*
D1013*
X016580Y015688D03*
D1014*
X004239Y015705D03*
D1015*
X016580Y015705D03*
D1016*
X016547Y015772D03*
X004247Y015722D03*
D1017*
X004255Y015738D03*
D1018*
X016564Y015738D03*
D1019*
X004264Y015755D03*
D1020*
X016555Y015755D03*
D1021*
X016522Y015822D03*
X004272Y015788D03*
X004272Y015772D03*
D1022*
X016539Y015788D03*
D1023*
X004280Y015805D03*
D1024*
X016530Y015805D03*
D1025*
X004289Y015822D03*
D1026*
X004297Y015838D03*
X016497Y015888D03*
D1027*
X016514Y015838D03*
D1028*
X004305Y015855D03*
D1029*
X016514Y015855D03*
D1030*
X004314Y015872D03*
D1031*
X016505Y015872D03*
D1032*
X016472Y015938D03*
X004322Y015888D03*
D1033*
X004330Y015905D03*
D1034*
X016489Y015905D03*
D1035*
X004339Y015922D03*
D1036*
X016480Y015922D03*
D1037*
X016447Y015988D03*
X004347Y015938D03*
D1038*
X004355Y015955D03*
D1039*
X016464Y015955D03*
D1040*
X004364Y015972D03*
D1041*
X016455Y015972D03*
D1042*
X016422Y016038D03*
X004372Y015988D03*
D1043*
X004380Y016005D03*
D1044*
X016439Y016005D03*
D1045*
X004389Y016022D03*
D1046*
X016430Y016022D03*
D1047*
X004397Y016038D03*
D1048*
X004405Y016055D03*
D1049*
X016414Y016055D03*
D1050*
X004405Y016072D03*
D1051*
X016405Y016088D03*
X016405Y016072D03*
D1052*
X004414Y016088D03*
D1053*
X004422Y016105D03*
X016372Y016155D03*
D1054*
X016397Y016105D03*
D1055*
X004430Y016122D03*
D1056*
X016389Y016122D03*
D1057*
X004439Y016138D03*
D1058*
X016380Y016138D03*
D1059*
X016347Y016205D03*
X004447Y016155D03*
D1060*
X004455Y016172D03*
D1061*
X016364Y016172D03*
D1062*
X004464Y016188D03*
D1063*
X016355Y016188D03*
D1064*
X016322Y016255D03*
X004472Y016205D03*
D1065*
X004480Y016222D03*
D1066*
X016339Y016222D03*
D1067*
X004489Y016238D03*
D1068*
X016330Y016238D03*
D1069*
X016297Y016305D03*
X004497Y016255D03*
D1070*
X004505Y016272D03*
D1071*
X016314Y016272D03*
D1072*
X004514Y016288D03*
D1073*
X016305Y016288D03*
D1074*
X016272Y016355D03*
X004522Y016305D03*
D1075*
X004530Y016322D03*
D1076*
X016289Y016322D03*
D1077*
X004539Y016338D03*
D1078*
X016280Y016338D03*
D1079*
X004547Y016355D03*
D1080*
X004555Y016372D03*
D1081*
X016264Y016372D03*
D1082*
X016255Y016388D03*
D1083*
X016255Y016405D03*
D1084*
X016247Y016422D03*
D1085*
X016239Y016438D03*
D1086*
X016230Y016455D03*
D1087*
X016214Y016488D03*
D1088*
X016205Y016505D03*
D1089*
X016189Y016538D03*
D1090*
X004672Y016605D03*
D1091*
X004680Y016622D03*
D1092*
X016130Y016655D03*
D1093*
X004714Y016688D03*
D1094*
X016114Y016688D03*
D1095*
X004722Y016705D03*
D1096*
X016105Y016705D03*
D1097*
X004730Y016722D03*
D1098*
X004739Y016738D03*
D1099*
X016089Y016738D03*
D1100*
X016047Y016805D03*
X004747Y016755D03*
D1101*
X016080Y016755D03*
D1102*
X004755Y016772D03*
D1103*
X004764Y016788D03*
D1104*
X016064Y016788D03*
D1105*
X016022Y016855D03*
X004772Y016805D03*
D1106*
X004780Y016822D03*
D1107*
X016039Y016822D03*
D1108*
X004789Y016838D03*
D1109*
X016030Y016838D03*
D1110*
X015997Y016905D03*
X004797Y016855D03*
D1111*
X004814Y016872D03*
D1112*
X016014Y016872D03*
D1113*
X004822Y016888D03*
D1114*
X016005Y016888D03*
D1115*
X004830Y016905D03*
D1116*
X004839Y016922D03*
D1117*
X015989Y016922D03*
D1118*
X004847Y016938D03*
D1119*
X015980Y016938D03*
D1120*
X004855Y016955D03*
D1121*
X015972Y016955D03*
D1122*
X004864Y016972D03*
D1123*
X015964Y016972D03*
D1124*
X004872Y016988D03*
D1125*
X015955Y016988D03*
D1126*
X004880Y017005D03*
D1127*
X015947Y017005D03*
D1128*
X004889Y017022D03*
D1129*
X015939Y017022D03*
D1130*
X004897Y017038D03*
D1131*
X015930Y017038D03*
D1132*
X004905Y017055D03*
D1133*
X015922Y017055D03*
D1134*
X004914Y017072D03*
D1135*
X015914Y017072D03*
D1136*
X015872Y017138D03*
X004922Y017088D03*
D1137*
X015905Y017088D03*
D1138*
X004930Y017105D03*
D1139*
X015897Y017105D03*
D1140*
X015847Y017188D03*
X004947Y017122D03*
D1141*
X015880Y017122D03*
D1142*
X004955Y017138D03*
D1143*
X004964Y017155D03*
D1144*
X015864Y017155D03*
D1145*
X015822Y017238D03*
X004972Y017172D03*
D1146*
X015855Y017172D03*
D1147*
X004980Y017188D03*
D1148*
X004989Y017205D03*
D1149*
X015839Y017205D03*
D1150*
X015797Y017272D03*
X004997Y017222D03*
D1151*
X015830Y017222D03*
D1152*
X005005Y017238D03*
D1153*
X005022Y017255D03*
D1154*
X015805Y017255D03*
D1155*
X005030Y017272D03*
D1156*
X005039Y017288D03*
D1157*
X015789Y017288D03*
D1158*
X005047Y017305D03*
D1159*
X015780Y017305D03*
D1160*
X005055Y017322D03*
D1161*
X015772Y017322D03*
D1162*
X005064Y017338D03*
D1163*
X015764Y017338D03*
D1164*
X015722Y017405D03*
X005072Y017355D03*
D1165*
X015755Y017355D03*
D1166*
X005089Y017372D03*
D1167*
X015747Y017372D03*
D1168*
X005097Y017388D03*
D1169*
X015730Y017388D03*
D1170*
X005105Y017405D03*
D1171*
X005114Y017422D03*
D1172*
X015714Y017422D03*
D1173*
X005122Y017438D03*
D1174*
X015705Y017438D03*
D1175*
X005130Y017455D03*
D1176*
X015697Y017455D03*
D1177*
X005139Y017472D03*
D1178*
X015689Y017472D03*
D1179*
X005155Y017488D03*
D1180*
X015680Y017488D03*
D1181*
X005164Y017505D03*
D1182*
X015664Y017505D03*
D1183*
X005172Y017522D03*
D1184*
X015655Y017522D03*
D1185*
X006489Y018522D03*
X006122Y017538D03*
D1186*
X019089Y017538D03*
D1187*
X001680Y017555D03*
D1188*
X006164Y017555D03*
D1189*
X006322Y017655D03*
X014672Y017555D03*
D1190*
X006197Y017572D03*
D1191*
X001639Y017588D03*
D1192*
X006455Y017822D03*
X014355Y017788D03*
X014372Y017772D03*
X014605Y017588D03*
D1193*
X014580Y017605D03*
D1194*
X001589Y017638D03*
D1195*
X001580Y017655D03*
D1196*
X014505Y017655D03*
D1197*
X019230Y017688D03*
D1198*
X014447Y017705D03*
X014397Y017755D03*
D1199*
X019239Y017705D03*
D1200*
X001539Y017738D03*
D1201*
X001530Y017755D03*
D1202*
X001514Y017788D03*
X001514Y018488D03*
D1203*
X019280Y018488D03*
X019280Y017788D03*
D1204*
X001514Y017805D03*
X001514Y018505D03*
D1205*
X014347Y017805D03*
D1206*
X019297Y017855D03*
X001497Y017855D03*
D1207*
X006439Y017855D03*
X014372Y018455D03*
D1208*
X014372Y018422D03*
X014372Y017888D03*
X006422Y017888D03*
X006422Y018422D03*
D1209*
X001480Y018355D03*
X001480Y017955D03*
X001480Y017905D03*
D1210*
X006422Y017905D03*
X014372Y017905D03*
D1211*
X014380Y017922D03*
X014380Y018388D03*
D1212*
X019314Y018388D03*
X019314Y018372D03*
X019314Y017938D03*
X019314Y017922D03*
D1213*
X014388Y017955D03*
X014388Y018355D03*
X006405Y018355D03*
X006405Y017955D03*
D1214*
X001472Y018005D03*
X001472Y018305D03*
X019322Y018305D03*
X019322Y018005D03*
D1215*
X014389Y018022D03*
D1216*
X001464Y018055D03*
X001464Y018105D03*
X001464Y018155D03*
X001464Y018205D03*
X001464Y018255D03*
D1217*
X006397Y018255D03*
X006397Y018205D03*
X006397Y018155D03*
X006397Y018105D03*
X006397Y018055D03*
X014397Y018055D03*
X014397Y018205D03*
X014397Y018255D03*
D1218*
X019330Y018255D03*
X019330Y018205D03*
X019330Y018155D03*
X019330Y018105D03*
X019330Y018055D03*
D1219*
X010272Y018105D03*
D1220*
X010297Y018122D03*
D1221*
X010489Y018138D03*
D1222*
X010405Y018255D03*
D1223*
X010405Y018305D03*
D1224*
X001489Y018405D03*
D1225*
X006413Y018405D03*
X014380Y018405D03*
D1226*
X019305Y018405D03*
D1227*
X010405Y018422D03*
D1228*
X001505Y018455D03*
D1229*
X010397Y018488D03*
D1230*
X010405Y018505D03*
D1231*
X014305Y018522D03*
D1232*
X001530Y018538D03*
D1233*
X010397Y018538D03*
D1234*
X010397Y018555D03*
D1235*
X010397Y018572D03*
X010397Y018588D03*
D1236*
X001564Y018605D03*
D1237*
X010397Y018605D03*
D1238*
X019230Y018605D03*
D1239*
X001580Y018638D03*
D1240*
X010397Y018638D03*
D1241*
X001589Y018655D03*
D1242*
X010397Y018655D03*
D1243*
X019205Y018655D03*
D1244*
X010397Y018672D03*
D1245*
X010397Y018688D03*
D1246*
X019180Y018688D03*
D1247*
X001630Y018705D03*
D1248*
X010397Y018705D03*
D1249*
X010397Y018722D03*
D1250*
X010397Y018738D03*
D1251*
X010397Y018755D03*
D1252*
X010397Y018772D03*
D1253*
X019030Y018772D03*
D1254*
X016814Y018788D03*
D1255*
X016847Y018805D03*
D1256*
X016889Y018855D03*
D1257*
X010405Y018938D03*
X010405Y019372D03*
D1258*
X004064Y019505D03*
X003864Y018955D03*
D1259*
X003855Y019005D03*
D1260*
X010405Y019038D03*
X010405Y019272D03*
D1261*
X003997Y019455D03*
X003847Y019105D03*
X016947Y019055D03*
D1262*
X012655Y019505D03*
X010405Y019155D03*
X010405Y019105D03*
X008155Y019505D03*
D1263*
X010405Y019188D03*
X010405Y019172D03*
X010405Y019138D03*
X010405Y019122D03*
D1264*
X003880Y019255D03*
X016930Y019205D03*
D1265*
X016780Y019472D03*
D1266*
X016739Y019505D03*
D1267*
X016697Y019522D03*
X004097Y019522D03*
D1268*
X010397Y019538D03*
D1269*
X010397Y019555D03*
D1270*
X010397Y019572D03*
D1271*
X010397Y019588D03*
D1272*
X010397Y019605D03*
D1273*
X010397Y019622D03*
D1274*
X010397Y019638D03*
D1275*
X010397Y019655D03*
D1276*
X010397Y019688D03*
D1277*
X010397Y019705D03*
D1278*
X010397Y019738D03*
D1279*
X010397Y019755D03*
D1280*
X010397Y019788D03*
D1281*
X010397Y019805D03*
D1282*
X010397Y019838D03*
D1283*
X010397Y019855D03*
D1284*
X010397Y019872D03*
D1285*
X010397Y019888D03*
M02*
