%
M48
M72
T01C0.0197
T02C0.0320
T03C0.0394
T04C0.0400
T05C0.0630
T06C0.0945
%
T01
X11905Y8905
T02
X1655Y4155
X3905Y5155
X4905Y5155
X5905Y5655
X6905Y5655
X7905Y6155
X8905Y6155
X9905Y6655
X10905Y6655
X11905Y7155
X12905Y7155
X13905Y7655
X14905Y7655
X16155Y5655
X16155Y4655
X16155Y3655
X16155Y2655
X16655Y1655
X18655Y1655
X19155Y2655
X19155Y3655
X19155Y4655
X19155Y5655
X13905Y11655
X12905Y11655
X11905Y11155
X10905Y11155
X10155Y10655
X9155Y10655
X8155Y10155
X7155Y10155
X6155Y9655
X5155Y9655
X1655Y8155
X6655Y13655
X7655Y13655
X8405Y14155
X9405Y14155
X10405Y14655
X11405Y14655
X12155Y15155
X13155Y15155
X10905Y18155
X9905Y18155
T03
X7155Y19155
X13655Y19155
T04
X4435Y3295
X4435Y1515
X1875Y1515
X1875Y3295
T05
X9155Y19155
X11655Y19155
T06
X2655Y18155
X18155Y18155
M30
