G75*
G70*
%OFA0B0*%
%FSLAX24Y24*%
%IPPOS*%
%LPD*%
%AMOC8*
5,1,8,0,0,1.08239X$1,22.5*
%
%ADD10C,0.0000*%
%ADD11OC8,0.0520*%
%ADD12C,0.0520*%
%ADD13C,0.0600*%
%ADD14C,0.0660*%
%ADD15C,0.0120*%
%ADD16C,0.0160*%
%ADD17C,0.0357*%
%ADD18C,0.0100*%
D10*
X000655Y001655D02*
X000655Y019155D01*
X000657Y019215D01*
X000662Y019276D01*
X000671Y019335D01*
X000684Y019394D01*
X000700Y019453D01*
X000720Y019510D01*
X000743Y019565D01*
X000770Y019620D01*
X000799Y019672D01*
X000832Y019723D01*
X000868Y019772D01*
X000906Y019818D01*
X000948Y019862D01*
X000992Y019904D01*
X001038Y019942D01*
X001087Y019978D01*
X001138Y020011D01*
X001190Y020040D01*
X001245Y020067D01*
X001300Y020090D01*
X001357Y020110D01*
X001416Y020126D01*
X001475Y020139D01*
X001534Y020148D01*
X001595Y020153D01*
X001655Y020155D01*
X019155Y020155D01*
X019215Y020153D01*
X019276Y020148D01*
X019335Y020139D01*
X019394Y020126D01*
X019453Y020110D01*
X019510Y020090D01*
X019565Y020067D01*
X019620Y020040D01*
X019672Y020011D01*
X019723Y019978D01*
X019772Y019942D01*
X019818Y019904D01*
X019862Y019862D01*
X019904Y019818D01*
X019942Y019772D01*
X019978Y019723D01*
X020011Y019672D01*
X020040Y019620D01*
X020067Y019565D01*
X020090Y019510D01*
X020110Y019453D01*
X020126Y019394D01*
X020139Y019335D01*
X020148Y019276D01*
X020153Y019215D01*
X020155Y019155D01*
X020155Y001655D01*
X020153Y001595D01*
X020148Y001534D01*
X020139Y001475D01*
X020126Y001416D01*
X020110Y001357D01*
X020090Y001300D01*
X020067Y001245D01*
X020040Y001190D01*
X020011Y001138D01*
X019978Y001087D01*
X019942Y001038D01*
X019904Y000992D01*
X019862Y000948D01*
X019818Y000906D01*
X019772Y000868D01*
X019723Y000832D01*
X019672Y000799D01*
X019620Y000770D01*
X019565Y000743D01*
X019510Y000720D01*
X019453Y000700D01*
X019394Y000684D01*
X019335Y000671D01*
X019276Y000662D01*
X019215Y000657D01*
X019155Y000655D01*
X001655Y000655D01*
X001595Y000657D01*
X001534Y000662D01*
X001475Y000671D01*
X001416Y000684D01*
X001357Y000700D01*
X001300Y000720D01*
X001245Y000743D01*
X001190Y000770D01*
X001138Y000799D01*
X001087Y000832D01*
X001038Y000868D01*
X000992Y000906D01*
X000948Y000948D01*
X000906Y000992D01*
X000868Y001038D01*
X000832Y001087D01*
X000799Y001138D01*
X000770Y001190D01*
X000743Y001245D01*
X000720Y001300D01*
X000700Y001357D01*
X000684Y001416D01*
X000671Y001475D01*
X000662Y001534D01*
X000657Y001595D01*
X000655Y001655D01*
X002183Y018155D02*
X002185Y018198D01*
X002191Y018240D01*
X002201Y018282D01*
X002214Y018323D01*
X002231Y018363D01*
X002252Y018400D01*
X002276Y018436D01*
X002303Y018469D01*
X002333Y018500D01*
X002366Y018528D01*
X002401Y018553D01*
X002438Y018574D01*
X002477Y018592D01*
X002517Y018606D01*
X002559Y018617D01*
X002601Y018624D01*
X002644Y018627D01*
X002687Y018626D01*
X002730Y018621D01*
X002772Y018612D01*
X002813Y018600D01*
X002853Y018584D01*
X002891Y018564D01*
X002927Y018541D01*
X002961Y018514D01*
X002993Y018485D01*
X003021Y018453D01*
X003047Y018418D01*
X003069Y018382D01*
X003088Y018343D01*
X003103Y018303D01*
X003115Y018262D01*
X003123Y018219D01*
X003127Y018176D01*
X003127Y018134D01*
X003123Y018091D01*
X003115Y018048D01*
X003103Y018007D01*
X003088Y017967D01*
X003069Y017928D01*
X003047Y017892D01*
X003021Y017857D01*
X002993Y017825D01*
X002961Y017796D01*
X002927Y017769D01*
X002891Y017746D01*
X002853Y017726D01*
X002813Y017710D01*
X002772Y017698D01*
X002730Y017689D01*
X002687Y017684D01*
X002644Y017683D01*
X002601Y017686D01*
X002559Y017693D01*
X002517Y017704D01*
X002477Y017718D01*
X002438Y017736D01*
X002401Y017757D01*
X002366Y017782D01*
X002333Y017810D01*
X002303Y017841D01*
X002276Y017874D01*
X002252Y017910D01*
X002231Y017947D01*
X002214Y017987D01*
X002201Y018028D01*
X002191Y018070D01*
X002185Y018112D01*
X002183Y018155D01*
X008840Y019155D02*
X008842Y019190D01*
X008848Y019225D01*
X008858Y019259D01*
X008871Y019292D01*
X008888Y019323D01*
X008909Y019351D01*
X008932Y019378D01*
X008959Y019401D01*
X008987Y019422D01*
X009018Y019439D01*
X009051Y019452D01*
X009085Y019462D01*
X009120Y019468D01*
X009155Y019470D01*
X009190Y019468D01*
X009225Y019462D01*
X009259Y019452D01*
X009292Y019439D01*
X009323Y019422D01*
X009351Y019401D01*
X009378Y019378D01*
X009401Y019351D01*
X009422Y019323D01*
X009439Y019292D01*
X009452Y019259D01*
X009462Y019225D01*
X009468Y019190D01*
X009470Y019155D01*
X009468Y019120D01*
X009462Y019085D01*
X009452Y019051D01*
X009439Y019018D01*
X009422Y018987D01*
X009401Y018959D01*
X009378Y018932D01*
X009351Y018909D01*
X009323Y018888D01*
X009292Y018871D01*
X009259Y018858D01*
X009225Y018848D01*
X009190Y018842D01*
X009155Y018840D01*
X009120Y018842D01*
X009085Y018848D01*
X009051Y018858D01*
X009018Y018871D01*
X008987Y018888D01*
X008959Y018909D01*
X008932Y018932D01*
X008909Y018959D01*
X008888Y018987D01*
X008871Y019018D01*
X008858Y019051D01*
X008848Y019085D01*
X008842Y019120D01*
X008840Y019155D01*
X011340Y019155D02*
X011342Y019190D01*
X011348Y019225D01*
X011358Y019259D01*
X011371Y019292D01*
X011388Y019323D01*
X011409Y019351D01*
X011432Y019378D01*
X011459Y019401D01*
X011487Y019422D01*
X011518Y019439D01*
X011551Y019452D01*
X011585Y019462D01*
X011620Y019468D01*
X011655Y019470D01*
X011690Y019468D01*
X011725Y019462D01*
X011759Y019452D01*
X011792Y019439D01*
X011823Y019422D01*
X011851Y019401D01*
X011878Y019378D01*
X011901Y019351D01*
X011922Y019323D01*
X011939Y019292D01*
X011952Y019259D01*
X011962Y019225D01*
X011968Y019190D01*
X011970Y019155D01*
X011968Y019120D01*
X011962Y019085D01*
X011952Y019051D01*
X011939Y019018D01*
X011922Y018987D01*
X011901Y018959D01*
X011878Y018932D01*
X011851Y018909D01*
X011823Y018888D01*
X011792Y018871D01*
X011759Y018858D01*
X011725Y018848D01*
X011690Y018842D01*
X011655Y018840D01*
X011620Y018842D01*
X011585Y018848D01*
X011551Y018858D01*
X011518Y018871D01*
X011487Y018888D01*
X011459Y018909D01*
X011432Y018932D01*
X011409Y018959D01*
X011388Y018987D01*
X011371Y019018D01*
X011358Y019051D01*
X011348Y019085D01*
X011342Y019120D01*
X011340Y019155D01*
X017683Y018155D02*
X017685Y018198D01*
X017691Y018240D01*
X017701Y018282D01*
X017714Y018323D01*
X017731Y018363D01*
X017752Y018400D01*
X017776Y018436D01*
X017803Y018469D01*
X017833Y018500D01*
X017866Y018528D01*
X017901Y018553D01*
X017938Y018574D01*
X017977Y018592D01*
X018017Y018606D01*
X018059Y018617D01*
X018101Y018624D01*
X018144Y018627D01*
X018187Y018626D01*
X018230Y018621D01*
X018272Y018612D01*
X018313Y018600D01*
X018353Y018584D01*
X018391Y018564D01*
X018427Y018541D01*
X018461Y018514D01*
X018493Y018485D01*
X018521Y018453D01*
X018547Y018418D01*
X018569Y018382D01*
X018588Y018343D01*
X018603Y018303D01*
X018615Y018262D01*
X018623Y018219D01*
X018627Y018176D01*
X018627Y018134D01*
X018623Y018091D01*
X018615Y018048D01*
X018603Y018007D01*
X018588Y017967D01*
X018569Y017928D01*
X018547Y017892D01*
X018521Y017857D01*
X018493Y017825D01*
X018461Y017796D01*
X018427Y017769D01*
X018391Y017746D01*
X018353Y017726D01*
X018313Y017710D01*
X018272Y017698D01*
X018230Y017689D01*
X018187Y017684D01*
X018144Y017683D01*
X018101Y017686D01*
X018059Y017693D01*
X018017Y017704D01*
X017977Y017718D01*
X017938Y017736D01*
X017901Y017757D01*
X017866Y017782D01*
X017833Y017810D01*
X017803Y017841D01*
X017776Y017874D01*
X017752Y017910D01*
X017731Y017947D01*
X017714Y017987D01*
X017701Y018028D01*
X017691Y018070D01*
X017685Y018112D01*
X017683Y018155D01*
D11*
X013155Y015155D03*
X012155Y015155D03*
X011405Y014655D03*
X010405Y014655D03*
X009405Y014155D03*
X008405Y014155D03*
X007655Y013655D03*
X006655Y013655D03*
X009155Y010655D03*
X008155Y010155D03*
X007155Y010155D03*
X006155Y009655D03*
X005155Y009655D03*
X001655Y008155D03*
X003905Y005155D03*
X004905Y005155D03*
X005905Y005655D03*
X006905Y005655D03*
X007905Y006155D03*
X008905Y006155D03*
X009905Y006655D03*
X010905Y006655D03*
X011905Y007155D03*
X012905Y007155D03*
X013905Y007655D03*
X014905Y007655D03*
X011905Y011155D03*
X010905Y011155D03*
X010155Y010655D03*
X012905Y011655D03*
X013905Y011655D03*
X010905Y018155D03*
X009905Y018155D03*
X001655Y004155D03*
X016655Y001655D03*
X018655Y001655D03*
D12*
X018895Y002655D02*
X019415Y002655D01*
X019415Y003655D02*
X018895Y003655D01*
X018895Y004655D02*
X019415Y004655D01*
X019415Y005655D02*
X018895Y005655D01*
X016415Y005655D02*
X015895Y005655D01*
X015895Y004655D02*
X016415Y004655D01*
X016415Y003655D02*
X015895Y003655D01*
X015895Y002655D02*
X016415Y002655D01*
D13*
X004735Y003295D02*
X004135Y003295D01*
X004135Y001515D02*
X004735Y001515D01*
X002175Y001515D02*
X001575Y001515D01*
X001575Y003295D02*
X002175Y003295D01*
D14*
X007155Y019155D03*
X013655Y019155D03*
D15*
X013725Y001945D02*
X013485Y001945D01*
X013365Y001825D01*
X013365Y001815D02*
X013365Y001695D01*
X013855Y001215D01*
X013365Y001215D01*
X013055Y001335D02*
X012935Y001215D01*
X012695Y001215D01*
X012575Y001335D01*
X012575Y001815D01*
X012695Y001935D01*
X012935Y001935D01*
X013055Y001815D01*
X013055Y001335D01*
X012585Y001815D01*
X012265Y001693D02*
X012023Y001935D01*
X012023Y001928D02*
X012023Y001223D01*
X011783Y001215D02*
X012268Y001215D01*
X011485Y001345D02*
X011355Y001215D01*
X011115Y001215D01*
X010995Y001335D01*
X010995Y001345D02*
X010995Y001465D01*
X010995Y001475D02*
X011105Y001585D01*
X010995Y001695D01*
X010995Y001815D01*
X010995Y001825D02*
X011115Y001945D01*
X011355Y001945D01*
X011485Y001815D01*
X011223Y001585D02*
X011108Y001585D01*
X013725Y001945D02*
X013855Y001815D01*
X014235Y001835D02*
X014355Y001955D01*
X014595Y001955D01*
X014715Y001835D01*
X014715Y001955D01*
X015085Y001955D01*
X015205Y001835D01*
X015205Y001585D01*
X015085Y001465D01*
X014965Y001465D01*
X015205Y001215D01*
X014965Y001465D02*
X014715Y001465D01*
X014715Y001835D01*
X014475Y001585D02*
X014225Y001585D01*
X014225Y001345D01*
X014345Y001215D01*
X014595Y001215D01*
X014715Y001335D01*
X014715Y001215D01*
X014715Y001335D02*
X014715Y001465D01*
D16*
X015655Y002155D02*
X015155Y002655D01*
X007155Y002655D01*
X005655Y004155D01*
X002655Y004155D01*
X001655Y005155D01*
X001655Y008155D01*
X001655Y014155D01*
X006655Y019155D01*
X007155Y019155D01*
X008405Y014155D02*
X008405Y011405D01*
X005155Y011405D01*
X003905Y010155D01*
X003905Y005155D01*
X005905Y005655D02*
X005905Y007905D01*
X006155Y008155D01*
X006155Y009655D01*
X006155Y008155D02*
X008155Y008155D01*
X008155Y010155D01*
X009155Y009655D02*
X009905Y008905D01*
X011905Y008905D01*
X012905Y008155D02*
X012905Y011655D01*
X012905Y012905D01*
X012155Y013655D01*
X012155Y015155D01*
X008405Y011405D02*
X009155Y010655D01*
X009155Y009655D01*
X010155Y010655D02*
X011655Y010655D01*
X011905Y010905D01*
X011905Y011155D01*
X012905Y008155D02*
X012905Y007155D01*
X012905Y008155D02*
X014405Y008155D01*
X014905Y007655D01*
X014905Y005155D01*
X015405Y004655D01*
X016155Y004655D01*
X016155Y003655D02*
X008905Y003655D01*
X007905Y004655D01*
X007905Y006155D01*
X008155Y008155D02*
X012905Y008155D01*
X009905Y006655D02*
X009905Y004655D01*
X010405Y004155D01*
X017655Y004155D01*
X018155Y003655D01*
X019155Y003655D01*
X019155Y002655D02*
X019155Y002155D01*
X018655Y001655D01*
X017655Y001655D01*
X017155Y002155D01*
X015655Y002155D01*
X004435Y001515D02*
X001875Y001515D01*
D17*
X011905Y008905D03*
D18*
X001096Y001096D02*
X000951Y001296D01*
X000875Y001532D01*
X000865Y001655D01*
X000865Y001725D01*
X000865Y001742D01*
X000865Y019155D01*
X000875Y019279D01*
X000951Y019514D01*
X001096Y019714D01*
X001296Y019859D01*
X001532Y019935D01*
X001655Y019945D01*
X001717Y019945D01*
X001742Y019945D01*
X019155Y019945D01*
X019279Y019935D01*
X019514Y019859D01*
X019714Y019714D01*
X019859Y019514D01*
X019935Y019279D01*
X019945Y019155D01*
X019945Y019119D01*
X019945Y019068D01*
X019945Y001655D01*
X019935Y001531D01*
X019859Y001296D01*
X019714Y001096D01*
X019514Y000951D01*
X019279Y000875D01*
X019155Y000865D01*
X001655Y000865D01*
X001532Y000875D01*
X001296Y000951D01*
X001096Y001096D01*
X001059Y001148D02*
X001221Y001148D01*
X001286Y001083D02*
X001143Y001226D01*
X001065Y001414D01*
X001065Y001617D01*
X001143Y001804D01*
X001286Y001947D01*
X001474Y002025D01*
X002277Y002025D01*
X002464Y001947D01*
X002606Y001805D01*
X003704Y001805D01*
X003846Y001947D01*
X004034Y002025D01*
X004837Y002025D01*
X005024Y001947D01*
X005167Y001804D01*
X005245Y001617D01*
X005245Y001414D01*
X005167Y001226D01*
X005024Y001083D01*
X004837Y001005D01*
X004034Y001005D01*
X003846Y001083D01*
X003704Y001225D01*
X002606Y001225D01*
X002464Y001083D01*
X002277Y001005D01*
X001474Y001005D01*
X001286Y001083D01*
X001367Y001049D02*
X001161Y001049D01*
X001298Y000951D02*
X011048Y000951D01*
X011061Y000945D02*
X011169Y000945D01*
X011409Y000945D01*
X011508Y000986D01*
X011569Y001047D01*
X011630Y000986D01*
X011729Y000945D01*
X012321Y000945D01*
X012421Y000986D01*
X012481Y001047D01*
X012542Y000986D01*
X012641Y000945D01*
X012749Y000945D01*
X012881Y000945D01*
X012989Y000945D01*
X013088Y000986D01*
X013150Y001048D01*
X013212Y000986D01*
X013311Y000945D01*
X013803Y000945D01*
X013804Y000945D01*
X013858Y000945D01*
X013909Y000945D01*
X013910Y000946D01*
X013912Y000946D01*
X013961Y000967D01*
X014008Y000986D01*
X014009Y000987D01*
X014010Y000988D01*
X014048Y001026D01*
X014084Y001062D01*
X014084Y001064D01*
X014086Y001065D01*
X014095Y001088D01*
X014114Y001067D01*
X014116Y001062D01*
X014150Y001028D01*
X014183Y000993D01*
X014188Y000990D01*
X014192Y000986D01*
X014237Y000968D01*
X014281Y000947D01*
X014286Y000947D01*
X014291Y000945D01*
X014340Y000945D01*
X014388Y000943D01*
X014393Y000945D01*
X014541Y000945D01*
X014649Y000945D01*
X014655Y000948D01*
X014661Y000945D01*
X014769Y000945D01*
X014868Y000986D01*
X014944Y001062D01*
X014954Y001087D01*
X015048Y000989D01*
X015146Y000946D01*
X015253Y000944D01*
X015353Y000983D01*
X015431Y001058D01*
X015474Y001156D01*
X015476Y001263D01*
X015437Y001363D01*
X015402Y001400D01*
X015434Y001432D01*
X015475Y001531D01*
X015475Y001639D01*
X015475Y001889D01*
X015449Y001951D01*
X015491Y001909D01*
X015597Y001865D01*
X015713Y001865D01*
X016285Y001865D01*
X016245Y001825D01*
X016245Y001685D01*
X016625Y001685D01*
X016625Y001625D01*
X016685Y001625D01*
X016685Y001245D01*
X016825Y001245D01*
X017065Y001485D01*
X017065Y001625D01*
X016685Y001625D01*
X016685Y001685D01*
X017065Y001685D01*
X017065Y001825D01*
X017025Y001865D01*
X017035Y001865D01*
X017409Y001491D01*
X017491Y001409D01*
X017597Y001365D01*
X018280Y001365D01*
X018460Y001185D01*
X018850Y001185D01*
X019125Y001460D01*
X019125Y001715D01*
X019401Y001991D01*
X019445Y002097D01*
X019445Y002185D01*
X019509Y002185D01*
X019681Y002257D01*
X019814Y002389D01*
X019885Y002562D01*
X019885Y002749D01*
X019814Y002921D01*
X019681Y003054D01*
X019509Y003125D01*
X018802Y003125D01*
X018629Y003054D01*
X018497Y002921D01*
X018425Y002749D01*
X018425Y002562D01*
X018497Y002389D01*
X018629Y002257D01*
X018783Y002193D01*
X018715Y002125D01*
X018460Y002125D01*
X018280Y001945D01*
X017775Y001945D01*
X017401Y002319D01*
X017319Y002401D01*
X017213Y002445D01*
X016837Y002445D01*
X016885Y002562D01*
X016885Y002749D01*
X016814Y002921D01*
X016681Y003054D01*
X016509Y003125D01*
X015802Y003125D01*
X015629Y003054D01*
X015497Y002921D01*
X015439Y002782D01*
X015319Y002901D01*
X015213Y002945D01*
X015097Y002945D01*
X007275Y002945D01*
X005819Y004401D01*
X005713Y004445D01*
X005597Y004445D01*
X002775Y004445D01*
X001945Y005275D01*
X001945Y007780D01*
X002125Y007960D01*
X002125Y008350D01*
X001945Y008530D01*
X001945Y014035D01*
X006728Y018818D01*
X006849Y018697D01*
X007048Y018615D01*
X007263Y018615D01*
X007461Y018697D01*
X007613Y018849D01*
X007695Y019048D01*
X007695Y019263D01*
X007613Y019461D01*
X007461Y019613D01*
X007263Y019695D01*
X007048Y019695D01*
X006849Y019613D01*
X006697Y019461D01*
X006691Y019445D01*
X006597Y019445D01*
X006491Y019401D01*
X001491Y014401D01*
X001409Y014319D01*
X001365Y014213D01*
X001365Y008530D01*
X001185Y008350D01*
X001185Y007960D01*
X001365Y007780D01*
X001365Y005097D01*
X001409Y004991D01*
X000865Y004991D01*
X000865Y004892D02*
X001508Y004892D01*
X001491Y004909D02*
X001775Y004625D01*
X001460Y004625D01*
X001185Y004350D01*
X001185Y003960D01*
X001426Y003720D01*
X001402Y003712D01*
X001339Y003680D01*
X001282Y003638D01*
X001232Y003588D01*
X001190Y003531D01*
X001158Y003468D01*
X001136Y003400D01*
X001127Y003345D01*
X001825Y003345D01*
X001825Y003245D01*
X001925Y003245D01*
X001925Y002845D01*
X002211Y002845D01*
X002280Y002856D01*
X002348Y002878D01*
X002411Y002910D01*
X002468Y002952D01*
X002518Y003002D01*
X002560Y003059D01*
X002592Y003122D01*
X002614Y003190D01*
X002623Y003245D01*
X001925Y003245D01*
X001925Y003345D01*
X001825Y003345D01*
X001825Y003685D01*
X001850Y003685D01*
X002125Y003960D01*
X002125Y004275D01*
X002409Y003991D01*
X002491Y003909D01*
X002597Y003865D01*
X005535Y003865D01*
X006909Y002491D01*
X006991Y002409D01*
X007097Y002365D01*
X015035Y002365D01*
X015201Y002199D01*
X015139Y002225D01*
X015031Y002225D01*
X014661Y002225D01*
X014655Y002222D01*
X014649Y002225D01*
X014409Y002225D01*
X014301Y002225D01*
X014202Y002184D01*
X014035Y002017D01*
X013954Y002098D01*
X013878Y002174D01*
X013779Y002215D01*
X013539Y002215D01*
X013431Y002215D01*
X013332Y002174D01*
X013205Y002047D01*
X013088Y002164D01*
X012989Y002205D01*
X012881Y002205D01*
X012641Y002205D01*
X012542Y002164D01*
X012466Y002088D01*
X012359Y001981D01*
X012176Y002164D01*
X012076Y002205D01*
X011969Y002205D01*
X011870Y002164D01*
X011794Y002088D01*
X011753Y001989D01*
X011753Y001981D01*
X011753Y001875D01*
X011714Y001968D01*
X011584Y002098D01*
X011508Y002174D01*
X011409Y002215D01*
X011169Y002215D01*
X011061Y002215D01*
X010962Y002174D01*
X010766Y001978D01*
X010725Y001879D01*
X010725Y001771D01*
X010725Y001641D01*
X010748Y001585D01*
X010725Y001529D01*
X010725Y001421D01*
X010725Y001389D01*
X010725Y001281D01*
X010766Y001182D01*
X010962Y000986D01*
X011061Y000945D01*
X010899Y001049D02*
X004943Y001049D01*
X005089Y001148D02*
X010801Y001148D01*
X010740Y001246D02*
X005176Y001246D01*
X005217Y001345D02*
X010725Y001345D01*
X010725Y001443D02*
X005245Y001443D01*
X005245Y001542D02*
X010731Y001542D01*
X010725Y001641D02*
X005235Y001641D01*
X005194Y001739D02*
X010725Y001739D01*
X010725Y001838D02*
X005134Y001838D01*
X005035Y001936D02*
X010749Y001936D01*
X010823Y002035D02*
X000865Y002035D01*
X000865Y002133D02*
X010921Y002133D01*
X011549Y002133D02*
X011839Y002133D01*
X011772Y002035D02*
X011647Y002035D01*
X011753Y001981D02*
X011753Y001981D01*
X011753Y001936D02*
X011727Y001936D01*
X012206Y002133D02*
X012511Y002133D01*
X012413Y002035D02*
X012305Y002035D01*
X013119Y002133D02*
X013291Y002133D01*
X013919Y002133D02*
X014151Y002133D01*
X014053Y002035D02*
X014017Y002035D01*
X014071Y001049D02*
X014129Y001049D01*
X014274Y000951D02*
X013924Y000951D01*
X013298Y000951D02*
X013002Y000951D01*
X012628Y000951D02*
X012335Y000951D01*
X011715Y000951D02*
X011422Y000951D01*
X008963Y003365D02*
X008847Y003365D01*
X008741Y003409D01*
X007741Y004409D01*
X007659Y004491D01*
X007615Y004597D01*
X002623Y004597D01*
X002525Y004695D02*
X003700Y004695D01*
X003710Y004685D02*
X004100Y004685D01*
X004375Y004960D01*
X004375Y005350D01*
X004195Y005530D01*
X004195Y010035D01*
X005275Y011115D01*
X008285Y011115D01*
X008685Y010715D01*
X008685Y010460D01*
X008865Y010280D01*
X008865Y009713D01*
X008865Y009597D01*
X008909Y009491D01*
X009659Y008741D01*
X009741Y008659D01*
X009847Y008615D01*
X011646Y008615D01*
X011685Y008576D01*
X011828Y008517D01*
X011982Y008517D01*
X012125Y008576D01*
X012234Y008685D01*
X012294Y008828D01*
X012294Y008982D01*
X012234Y009125D01*
X012125Y009234D01*
X011982Y009294D01*
X011828Y009294D01*
X011685Y009234D01*
X011646Y009195D01*
X010025Y009195D01*
X009445Y009775D01*
X009445Y010280D01*
X009625Y010460D01*
X009625Y010850D01*
X009350Y011125D01*
X009095Y011125D01*
X008695Y011525D01*
X008695Y013780D01*
X008875Y013960D01*
X008875Y014350D01*
X008600Y014625D01*
X008210Y014625D01*
X007935Y014350D01*
X007935Y014040D01*
X007850Y014125D01*
X007460Y014125D01*
X007185Y013850D01*
X007185Y013460D01*
X007460Y013185D01*
X007850Y013185D01*
X008115Y013451D01*
X008115Y011695D01*
X005097Y011695D01*
X004991Y011651D01*
X004909Y011569D01*
X003659Y010319D01*
X003615Y010213D01*
X003615Y010097D01*
X003615Y005530D01*
X003435Y005350D01*
X003435Y004960D01*
X003710Y004685D01*
X003602Y004794D02*
X002426Y004794D01*
X002328Y004892D02*
X003503Y004892D01*
X003435Y004991D02*
X002229Y004991D01*
X002131Y005090D02*
X003435Y005090D01*
X003435Y005188D02*
X002032Y005188D01*
X001945Y005287D02*
X003435Y005287D01*
X003471Y005385D02*
X001945Y005385D01*
X001945Y005484D02*
X003569Y005484D01*
X003615Y005582D02*
X001945Y005582D01*
X001945Y005681D02*
X003615Y005681D01*
X003615Y005779D02*
X001945Y005779D01*
X001945Y005878D02*
X003615Y005878D01*
X003615Y005976D02*
X001945Y005976D01*
X001945Y006075D02*
X003615Y006075D01*
X003615Y006174D02*
X001945Y006174D01*
X001945Y006272D02*
X003615Y006272D01*
X003615Y006371D02*
X001945Y006371D01*
X001945Y006469D02*
X003615Y006469D01*
X003615Y006568D02*
X001945Y006568D01*
X001945Y006666D02*
X003615Y006666D01*
X003615Y006765D02*
X001945Y006765D01*
X001945Y006863D02*
X003615Y006863D01*
X003615Y006962D02*
X001945Y006962D01*
X001945Y007060D02*
X003615Y007060D01*
X003615Y007159D02*
X001945Y007159D01*
X001945Y007258D02*
X003615Y007258D01*
X003615Y007356D02*
X001945Y007356D01*
X001945Y007455D02*
X003615Y007455D01*
X003615Y007553D02*
X001945Y007553D01*
X001945Y007652D02*
X003615Y007652D01*
X003615Y007750D02*
X001945Y007750D01*
X002013Y007849D02*
X003615Y007849D01*
X003615Y007947D02*
X002112Y007947D01*
X002125Y008046D02*
X003615Y008046D01*
X003615Y008144D02*
X002125Y008144D01*
X002125Y008243D02*
X003615Y008243D01*
X003615Y008341D02*
X002125Y008341D01*
X002035Y008440D02*
X003615Y008440D01*
X003615Y008539D02*
X001945Y008539D01*
X001945Y008637D02*
X003615Y008637D01*
X003615Y008736D02*
X001945Y008736D01*
X001945Y008834D02*
X003615Y008834D01*
X003615Y008933D02*
X001945Y008933D01*
X001945Y009031D02*
X003615Y009031D01*
X003615Y009130D02*
X001945Y009130D01*
X001945Y009228D02*
X003615Y009228D01*
X003615Y009327D02*
X001945Y009327D01*
X001945Y009425D02*
X003615Y009425D01*
X003615Y009524D02*
X001945Y009524D01*
X001945Y009623D02*
X003615Y009623D01*
X003615Y009721D02*
X001945Y009721D01*
X001945Y009820D02*
X003615Y009820D01*
X003615Y009918D02*
X001945Y009918D01*
X001945Y010017D02*
X003615Y010017D01*
X003615Y010115D02*
X001945Y010115D01*
X001945Y010214D02*
X003616Y010214D01*
X003656Y010312D02*
X001945Y010312D01*
X001945Y010411D02*
X003751Y010411D01*
X003849Y010509D02*
X001945Y010509D01*
X001945Y010608D02*
X003948Y010608D01*
X004046Y010707D02*
X001945Y010707D01*
X001945Y010805D02*
X004145Y010805D01*
X004244Y010904D02*
X001945Y010904D01*
X001945Y011002D02*
X004342Y011002D01*
X004441Y011101D02*
X001945Y011101D01*
X001945Y011199D02*
X004539Y011199D01*
X004638Y011298D02*
X001945Y011298D01*
X001945Y011396D02*
X004736Y011396D01*
X004835Y011495D02*
X001945Y011495D01*
X001945Y011593D02*
X004933Y011593D01*
X005090Y011692D02*
X001945Y011692D01*
X001945Y011791D02*
X008115Y011791D01*
X008115Y011889D02*
X001945Y011889D01*
X001945Y011988D02*
X008115Y011988D01*
X008115Y012086D02*
X001945Y012086D01*
X001945Y012185D02*
X008115Y012185D01*
X008115Y012283D02*
X001945Y012283D01*
X001945Y012382D02*
X008115Y012382D01*
X008115Y012480D02*
X001945Y012480D01*
X001945Y012579D02*
X008115Y012579D01*
X008115Y012677D02*
X001945Y012677D01*
X001945Y012776D02*
X008115Y012776D01*
X008115Y012874D02*
X001945Y012874D01*
X001945Y012973D02*
X008115Y012973D01*
X008115Y013072D02*
X001945Y013072D01*
X001945Y013170D02*
X008115Y013170D01*
X008115Y013269D02*
X007933Y013269D01*
X008032Y013367D02*
X008115Y013367D01*
X008695Y013367D02*
X012033Y013367D01*
X012131Y013269D02*
X008695Y013269D01*
X008695Y013170D02*
X012230Y013170D01*
X012329Y013072D02*
X008695Y013072D01*
X008695Y012973D02*
X012427Y012973D01*
X012526Y012874D02*
X008695Y012874D01*
X008695Y012776D02*
X012615Y012776D01*
X012615Y012785D02*
X012615Y012030D01*
X012435Y011850D01*
X012435Y011460D01*
X012615Y011280D01*
X012615Y008445D01*
X008445Y008445D01*
X008445Y009780D01*
X008625Y009960D01*
X008625Y010350D01*
X008350Y010625D01*
X007960Y010625D01*
X007685Y010350D01*
X007685Y009960D01*
X007865Y009780D01*
X007865Y008445D01*
X006445Y008445D01*
X006445Y009280D01*
X006625Y009460D01*
X006625Y009850D01*
X006350Y010125D01*
X005960Y010125D01*
X005685Y009850D01*
X005685Y009460D01*
X005865Y009280D01*
X005865Y008275D01*
X005659Y008069D01*
X005615Y007963D01*
X005615Y007847D01*
X005615Y006030D01*
X005435Y005850D01*
X005435Y005460D01*
X005710Y005185D01*
X006100Y005185D01*
X006375Y005460D01*
X006375Y005850D01*
X006195Y006030D01*
X006195Y007785D01*
X006275Y007865D01*
X008213Y007865D01*
X012615Y007865D01*
X012615Y007530D01*
X012435Y007350D01*
X012435Y006960D01*
X012710Y006685D01*
X013100Y006685D01*
X013375Y006960D01*
X013375Y007350D01*
X013195Y007530D01*
X013195Y007865D01*
X013451Y007865D01*
X013435Y007850D01*
X013435Y007460D01*
X013710Y007185D01*
X014100Y007185D01*
X014375Y007460D01*
X014375Y007775D01*
X014435Y007715D01*
X014435Y007460D01*
X014615Y007280D01*
X014615Y005097D01*
X014659Y004991D01*
X010195Y004991D01*
X010195Y004892D02*
X014758Y004892D01*
X014741Y004909D02*
X015205Y004445D01*
X010525Y004445D01*
X010195Y004775D01*
X010195Y006280D01*
X010375Y006460D01*
X010375Y006850D01*
X010100Y007125D01*
X009710Y007125D01*
X009435Y006850D01*
X009435Y006460D01*
X009615Y006280D01*
X009615Y004597D01*
X008373Y004597D01*
X008275Y004695D02*
X009615Y004695D01*
X009615Y004597D02*
X009659Y004491D01*
X009741Y004409D01*
X010159Y003991D01*
X010205Y003945D01*
X009025Y003945D01*
X008195Y004775D01*
X008195Y005780D01*
X008375Y005960D01*
X008375Y006350D01*
X008100Y006625D01*
X007710Y006625D01*
X007435Y006350D01*
X007435Y005960D01*
X007615Y005780D01*
X007615Y004597D01*
X007615Y004695D02*
X005110Y004695D01*
X005100Y004685D02*
X005375Y004960D01*
X005375Y005350D01*
X005100Y005625D01*
X004710Y005625D01*
X004435Y005350D01*
X004435Y004960D01*
X004710Y004685D01*
X005100Y004685D01*
X005209Y004794D02*
X007615Y004794D01*
X007615Y004892D02*
X005307Y004892D01*
X005375Y004991D02*
X007615Y004991D01*
X007615Y005090D02*
X005375Y005090D01*
X005375Y005188D02*
X005707Y005188D01*
X005609Y005287D02*
X005375Y005287D01*
X005340Y005385D02*
X005510Y005385D01*
X005435Y005484D02*
X005241Y005484D01*
X005143Y005582D02*
X005435Y005582D01*
X005435Y005681D02*
X004195Y005681D01*
X004195Y005779D02*
X005435Y005779D01*
X005463Y005878D02*
X004195Y005878D01*
X004195Y005976D02*
X005562Y005976D01*
X005615Y006075D02*
X004195Y006075D01*
X004195Y006174D02*
X005615Y006174D01*
X005615Y006272D02*
X004195Y006272D01*
X004195Y006371D02*
X005615Y006371D01*
X005615Y006469D02*
X004195Y006469D01*
X004195Y006568D02*
X005615Y006568D01*
X005615Y006666D02*
X004195Y006666D01*
X004195Y006765D02*
X005615Y006765D01*
X005615Y006863D02*
X004195Y006863D01*
X004195Y006962D02*
X005615Y006962D01*
X005615Y007060D02*
X004195Y007060D01*
X004195Y007159D02*
X005615Y007159D01*
X005615Y007258D02*
X004195Y007258D01*
X004195Y007356D02*
X005615Y007356D01*
X005615Y007455D02*
X004195Y007455D01*
X004195Y007553D02*
X005615Y007553D01*
X005615Y007652D02*
X004195Y007652D01*
X004195Y007750D02*
X005615Y007750D01*
X005615Y007849D02*
X004195Y007849D01*
X004195Y007947D02*
X005615Y007947D01*
X005650Y008046D02*
X004195Y008046D01*
X004195Y008144D02*
X005734Y008144D01*
X005833Y008243D02*
X004195Y008243D01*
X004195Y008341D02*
X005865Y008341D01*
X005865Y008440D02*
X004195Y008440D01*
X004195Y008539D02*
X005865Y008539D01*
X005865Y008637D02*
X004195Y008637D01*
X004195Y008736D02*
X005865Y008736D01*
X005865Y008834D02*
X004195Y008834D01*
X004195Y008933D02*
X005865Y008933D01*
X005865Y009031D02*
X004195Y009031D01*
X004195Y009130D02*
X005865Y009130D01*
X005865Y009228D02*
X005393Y009228D01*
X005350Y009185D02*
X005625Y009460D01*
X005625Y009850D01*
X005350Y010125D01*
X004960Y010125D01*
X004685Y009850D01*
X004685Y009460D01*
X004960Y009185D01*
X005350Y009185D01*
X005492Y009327D02*
X005819Y009327D01*
X005720Y009425D02*
X005590Y009425D01*
X005625Y009524D02*
X005685Y009524D01*
X005685Y009623D02*
X005625Y009623D01*
X005625Y009721D02*
X005685Y009721D01*
X005685Y009820D02*
X005625Y009820D01*
X005557Y009918D02*
X005754Y009918D01*
X005852Y010017D02*
X005458Y010017D01*
X005360Y010115D02*
X005951Y010115D01*
X006360Y010115D02*
X006685Y010115D01*
X006685Y010017D02*
X006458Y010017D01*
X006557Y009918D02*
X006727Y009918D01*
X006685Y009960D02*
X006960Y009685D01*
X007350Y009685D01*
X007625Y009960D01*
X007625Y010350D01*
X007350Y010625D01*
X006960Y010625D01*
X006685Y010350D01*
X006685Y009960D01*
X006625Y009820D02*
X006826Y009820D01*
X006924Y009721D02*
X006625Y009721D01*
X006625Y009623D02*
X007865Y009623D01*
X007865Y009721D02*
X007386Y009721D01*
X007484Y009820D02*
X007826Y009820D01*
X007727Y009918D02*
X007583Y009918D01*
X007625Y010017D02*
X007685Y010017D01*
X007685Y010115D02*
X007625Y010115D01*
X007625Y010214D02*
X007685Y010214D01*
X007685Y010312D02*
X007625Y010312D01*
X007564Y010411D02*
X007746Y010411D01*
X007845Y010509D02*
X007465Y010509D01*
X007367Y010608D02*
X007943Y010608D01*
X008367Y010608D02*
X008685Y010608D01*
X008685Y010509D02*
X008465Y010509D01*
X008564Y010411D02*
X008735Y010411D01*
X008833Y010312D02*
X008625Y010312D01*
X008625Y010214D02*
X008865Y010214D01*
X008865Y010115D02*
X008625Y010115D01*
X008625Y010017D02*
X008865Y010017D01*
X008865Y009918D02*
X008583Y009918D01*
X008484Y009820D02*
X008865Y009820D01*
X008865Y009721D02*
X008445Y009721D01*
X008445Y009623D02*
X008865Y009623D01*
X008895Y009524D02*
X008445Y009524D01*
X008445Y009425D02*
X008975Y009425D01*
X009073Y009327D02*
X008445Y009327D01*
X008445Y009228D02*
X009172Y009228D01*
X009270Y009130D02*
X008445Y009130D01*
X008445Y009031D02*
X009369Y009031D01*
X009467Y008933D02*
X008445Y008933D01*
X008445Y008834D02*
X009566Y008834D01*
X009664Y008736D02*
X008445Y008736D01*
X008445Y008637D02*
X009794Y008637D01*
X009992Y009228D02*
X011679Y009228D01*
X012131Y009228D02*
X012615Y009228D01*
X012615Y009130D02*
X012230Y009130D01*
X012273Y009031D02*
X012615Y009031D01*
X012615Y008933D02*
X012294Y008933D01*
X012294Y008834D02*
X012615Y008834D01*
X012615Y008736D02*
X012255Y008736D01*
X012186Y008637D02*
X012615Y008637D01*
X012615Y008539D02*
X012035Y008539D01*
X011775Y008539D02*
X008445Y008539D01*
X007865Y008539D02*
X006445Y008539D01*
X006445Y008637D02*
X007865Y008637D01*
X007865Y008736D02*
X006445Y008736D01*
X006445Y008834D02*
X007865Y008834D01*
X007865Y008933D02*
X006445Y008933D01*
X006445Y009031D02*
X007865Y009031D01*
X007865Y009130D02*
X006445Y009130D01*
X006445Y009228D02*
X007865Y009228D01*
X007865Y009327D02*
X006492Y009327D01*
X006590Y009425D02*
X007865Y009425D01*
X007865Y009524D02*
X006625Y009524D01*
X006685Y010214D02*
X004374Y010214D01*
X004472Y010312D02*
X006685Y010312D01*
X006746Y010411D02*
X004571Y010411D01*
X004670Y010509D02*
X006845Y010509D01*
X006943Y010608D02*
X004768Y010608D01*
X004867Y010707D02*
X008685Y010707D01*
X008595Y010805D02*
X004965Y010805D01*
X005064Y010904D02*
X008496Y010904D01*
X008398Y011002D02*
X005162Y011002D01*
X005261Y011101D02*
X008299Y011101D01*
X008725Y011495D02*
X010580Y011495D01*
X010482Y011396D02*
X008824Y011396D01*
X008923Y011298D02*
X010435Y011298D01*
X010435Y011350D02*
X010435Y011040D01*
X010350Y011125D01*
X009960Y011125D01*
X009685Y010850D01*
X009685Y010460D01*
X009960Y010185D01*
X010350Y010185D01*
X010530Y010365D01*
X011713Y010365D01*
X011819Y010409D01*
X011901Y010491D01*
X012095Y010685D01*
X012100Y010685D01*
X012375Y010960D01*
X012375Y011350D01*
X012100Y011625D01*
X011710Y011625D01*
X011435Y011350D01*
X011435Y010960D01*
X011451Y010945D01*
X011360Y010945D01*
X011375Y010960D01*
X011375Y011350D01*
X011100Y011625D01*
X010710Y011625D01*
X010435Y011350D01*
X010435Y011199D02*
X009021Y011199D01*
X009374Y011101D02*
X009936Y011101D01*
X009838Y011002D02*
X009473Y011002D01*
X009571Y010904D02*
X009739Y010904D01*
X009685Y010805D02*
X009625Y010805D01*
X009625Y010707D02*
X009685Y010707D01*
X009685Y010608D02*
X009625Y010608D01*
X009625Y010509D02*
X009685Y010509D01*
X009735Y010411D02*
X009576Y010411D01*
X009477Y010312D02*
X009833Y010312D01*
X009932Y010214D02*
X009445Y010214D01*
X009445Y010115D02*
X012615Y010115D01*
X012615Y010017D02*
X009445Y010017D01*
X009445Y009918D02*
X012615Y009918D01*
X012615Y009820D02*
X009445Y009820D01*
X009499Y009721D02*
X012615Y009721D01*
X012615Y009623D02*
X009598Y009623D01*
X009696Y009524D02*
X012615Y009524D01*
X012615Y009425D02*
X009795Y009425D01*
X009893Y009327D02*
X012615Y009327D01*
X013195Y009327D02*
X019945Y009327D01*
X019945Y009425D02*
X013195Y009425D01*
X013195Y009524D02*
X019945Y009524D01*
X019945Y009623D02*
X013195Y009623D01*
X013195Y009721D02*
X019945Y009721D01*
X019945Y009820D02*
X013195Y009820D01*
X013195Y009918D02*
X019945Y009918D01*
X019945Y010017D02*
X013195Y010017D01*
X013195Y010115D02*
X019945Y010115D01*
X019945Y010214D02*
X013195Y010214D01*
X013195Y010312D02*
X019945Y010312D01*
X019945Y010411D02*
X013195Y010411D01*
X013195Y010509D02*
X019945Y010509D01*
X019945Y010608D02*
X013195Y010608D01*
X013195Y010707D02*
X019945Y010707D01*
X019945Y010805D02*
X013195Y010805D01*
X013195Y010904D02*
X019945Y010904D01*
X019945Y011002D02*
X013195Y011002D01*
X013195Y011101D02*
X019945Y011101D01*
X019945Y011199D02*
X014114Y011199D01*
X014100Y011185D02*
X014375Y011460D01*
X014375Y011850D01*
X014100Y012125D01*
X013710Y012125D01*
X013435Y011850D01*
X013435Y011460D01*
X013710Y011185D01*
X014100Y011185D01*
X014212Y011298D02*
X019945Y011298D01*
X019945Y011396D02*
X014311Y011396D01*
X014375Y011495D02*
X019945Y011495D01*
X019945Y011593D02*
X014375Y011593D01*
X014375Y011692D02*
X019945Y011692D01*
X019945Y011791D02*
X014375Y011791D01*
X014336Y011889D02*
X019945Y011889D01*
X019945Y011988D02*
X014237Y011988D01*
X014139Y012086D02*
X019945Y012086D01*
X019945Y012185D02*
X013195Y012185D01*
X013195Y012283D02*
X019945Y012283D01*
X019945Y012382D02*
X013195Y012382D01*
X013195Y012480D02*
X019945Y012480D01*
X019945Y012579D02*
X013195Y012579D01*
X013195Y012677D02*
X019945Y012677D01*
X019945Y012776D02*
X013195Y012776D01*
X013195Y012874D02*
X019945Y012874D01*
X019945Y012973D02*
X013191Y012973D01*
X013195Y012963D02*
X013151Y013069D01*
X013069Y013151D01*
X012445Y013775D01*
X012445Y014780D01*
X012625Y014960D01*
X012625Y015350D01*
X012350Y015625D01*
X011960Y015625D01*
X011685Y015350D01*
X011685Y015040D01*
X011600Y015125D01*
X011210Y015125D01*
X010935Y014850D01*
X010935Y014460D01*
X011210Y014185D01*
X011600Y014185D01*
X011865Y014451D01*
X011865Y013713D01*
X011865Y013597D01*
X011909Y013491D01*
X012615Y012785D01*
X012615Y012677D02*
X008695Y012677D01*
X008695Y012579D02*
X012615Y012579D01*
X012615Y012480D02*
X008695Y012480D01*
X008695Y012382D02*
X012615Y012382D01*
X012615Y012283D02*
X008695Y012283D01*
X008695Y012185D02*
X012615Y012185D01*
X012615Y012086D02*
X008695Y012086D01*
X008695Y011988D02*
X012573Y011988D01*
X012474Y011889D02*
X008695Y011889D01*
X008695Y011791D02*
X012435Y011791D01*
X012435Y011692D02*
X008695Y011692D01*
X008695Y011593D02*
X010679Y011593D01*
X011131Y011593D02*
X011679Y011593D01*
X011580Y011495D02*
X011230Y011495D01*
X011329Y011396D02*
X011482Y011396D01*
X011435Y011298D02*
X011375Y011298D01*
X011375Y011199D02*
X011435Y011199D01*
X011435Y011101D02*
X011375Y011101D01*
X011375Y011002D02*
X011435Y011002D01*
X011821Y010411D02*
X012615Y010411D01*
X012615Y010509D02*
X011920Y010509D01*
X012018Y010608D02*
X012615Y010608D01*
X012615Y010707D02*
X012121Y010707D01*
X012220Y010805D02*
X012615Y010805D01*
X012615Y010904D02*
X012318Y010904D01*
X012375Y011002D02*
X012615Y011002D01*
X012615Y011101D02*
X012375Y011101D01*
X012375Y011199D02*
X012615Y011199D01*
X012598Y011298D02*
X012375Y011298D01*
X012329Y011396D02*
X012499Y011396D01*
X012435Y011495D02*
X012230Y011495D01*
X012131Y011593D02*
X012435Y011593D01*
X013195Y011280D02*
X013375Y011460D01*
X013375Y011850D01*
X013195Y012030D01*
X013195Y012963D01*
X013149Y013072D02*
X019945Y013072D01*
X019945Y013170D02*
X013050Y013170D01*
X012952Y013269D02*
X019945Y013269D01*
X019945Y013367D02*
X012853Y013367D01*
X012755Y013466D02*
X019945Y013466D01*
X019945Y013564D02*
X012656Y013564D01*
X012557Y013663D02*
X019945Y013663D01*
X019945Y013761D02*
X012459Y013761D01*
X012445Y013860D02*
X019945Y013860D01*
X019945Y013958D02*
X012445Y013958D01*
X012445Y014057D02*
X019945Y014057D01*
X019945Y014156D02*
X012445Y014156D01*
X012445Y014254D02*
X019945Y014254D01*
X019945Y014353D02*
X012445Y014353D01*
X012445Y014451D02*
X019945Y014451D01*
X019945Y014550D02*
X012445Y014550D01*
X012445Y014648D02*
X019945Y014648D01*
X019945Y014747D02*
X013411Y014747D01*
X013350Y014685D02*
X013625Y014960D01*
X013625Y015350D01*
X013350Y015625D01*
X012960Y015625D01*
X012685Y015350D01*
X012685Y014960D01*
X012960Y014685D01*
X013350Y014685D01*
X013510Y014845D02*
X019945Y014845D01*
X019945Y014944D02*
X013609Y014944D01*
X013625Y015042D02*
X019945Y015042D01*
X019945Y015141D02*
X013625Y015141D01*
X013625Y015240D02*
X019945Y015240D01*
X019945Y015338D02*
X013625Y015338D01*
X013538Y015437D02*
X019945Y015437D01*
X019945Y015535D02*
X013440Y015535D01*
X012871Y015535D02*
X012440Y015535D01*
X012538Y015437D02*
X012772Y015437D01*
X012685Y015338D02*
X012625Y015338D01*
X012625Y015240D02*
X012685Y015240D01*
X012685Y015141D02*
X012625Y015141D01*
X012625Y015042D02*
X012685Y015042D01*
X012702Y014944D02*
X012609Y014944D01*
X012510Y014845D02*
X012800Y014845D01*
X012899Y014747D02*
X012445Y014747D01*
X011865Y014353D02*
X011767Y014353D01*
X011669Y014254D02*
X011865Y014254D01*
X011865Y014156D02*
X009875Y014156D01*
X009875Y014254D02*
X010141Y014254D01*
X010210Y014185D02*
X009935Y014460D01*
X009935Y014850D01*
X010210Y015125D01*
X010600Y015125D01*
X010875Y014850D01*
X010875Y014460D01*
X010600Y014185D01*
X010210Y014185D01*
X010043Y014353D02*
X009872Y014353D01*
X009875Y014350D02*
X009600Y014625D01*
X009210Y014625D01*
X008935Y014350D01*
X008935Y013960D01*
X009210Y013685D01*
X009600Y013685D01*
X009875Y013960D01*
X009875Y014350D01*
X009944Y014451D02*
X009774Y014451D01*
X009675Y014550D02*
X009935Y014550D01*
X009935Y014648D02*
X002558Y014648D01*
X002460Y014550D02*
X008135Y014550D01*
X008037Y014451D02*
X002361Y014451D01*
X002263Y014353D02*
X007938Y014353D01*
X007935Y014254D02*
X002164Y014254D01*
X002066Y014156D02*
X007935Y014156D01*
X007935Y014057D02*
X007918Y014057D01*
X007392Y014057D02*
X006918Y014057D01*
X006850Y014125D02*
X007125Y013850D01*
X007125Y013460D01*
X006850Y013185D01*
X006460Y013185D01*
X006185Y013460D01*
X006185Y013850D01*
X006460Y014125D01*
X006850Y014125D01*
X007016Y013958D02*
X007294Y013958D01*
X007195Y013860D02*
X007115Y013860D01*
X007125Y013761D02*
X007185Y013761D01*
X007185Y013663D02*
X007125Y013663D01*
X007125Y013564D02*
X007185Y013564D01*
X007185Y013466D02*
X007125Y013466D01*
X007032Y013367D02*
X007278Y013367D01*
X007377Y013269D02*
X006933Y013269D01*
X006377Y013269D02*
X001945Y013269D01*
X001945Y013367D02*
X006278Y013367D01*
X006185Y013466D02*
X001945Y013466D01*
X001945Y013564D02*
X006185Y013564D01*
X006185Y013663D02*
X001945Y013663D01*
X001945Y013761D02*
X006185Y013761D01*
X006195Y013860D02*
X001945Y013860D01*
X001945Y013958D02*
X006294Y013958D01*
X006392Y014057D02*
X001967Y014057D01*
X001541Y014451D02*
X000865Y014451D01*
X000865Y014353D02*
X001443Y014353D01*
X001382Y014254D02*
X000865Y014254D01*
X000865Y014156D02*
X001365Y014156D01*
X001365Y014057D02*
X000865Y014057D01*
X000865Y013958D02*
X001365Y013958D01*
X001365Y013860D02*
X000865Y013860D01*
X000865Y013761D02*
X001365Y013761D01*
X001365Y013663D02*
X000865Y013663D01*
X000865Y013564D02*
X001365Y013564D01*
X001365Y013466D02*
X000865Y013466D01*
X000865Y013367D02*
X001365Y013367D01*
X001365Y013269D02*
X000865Y013269D01*
X000865Y013170D02*
X001365Y013170D01*
X001365Y013072D02*
X000865Y013072D01*
X000865Y012973D02*
X001365Y012973D01*
X001365Y012874D02*
X000865Y012874D01*
X000865Y012776D02*
X001365Y012776D01*
X001365Y012677D02*
X000865Y012677D01*
X000865Y012579D02*
X001365Y012579D01*
X001365Y012480D02*
X000865Y012480D01*
X000865Y012382D02*
X001365Y012382D01*
X001365Y012283D02*
X000865Y012283D01*
X000865Y012185D02*
X001365Y012185D01*
X001365Y012086D02*
X000865Y012086D01*
X000865Y011988D02*
X001365Y011988D01*
X001365Y011889D02*
X000865Y011889D01*
X000865Y011791D02*
X001365Y011791D01*
X001365Y011692D02*
X000865Y011692D01*
X000865Y011593D02*
X001365Y011593D01*
X001365Y011495D02*
X000865Y011495D01*
X000865Y011396D02*
X001365Y011396D01*
X001365Y011298D02*
X000865Y011298D01*
X000865Y011199D02*
X001365Y011199D01*
X001365Y011101D02*
X000865Y011101D01*
X000865Y011002D02*
X001365Y011002D01*
X001365Y010904D02*
X000865Y010904D01*
X000865Y010805D02*
X001365Y010805D01*
X001365Y010707D02*
X000865Y010707D01*
X000865Y010608D02*
X001365Y010608D01*
X001365Y010509D02*
X000865Y010509D01*
X000865Y010411D02*
X001365Y010411D01*
X001365Y010312D02*
X000865Y010312D01*
X000865Y010214D02*
X001365Y010214D01*
X001365Y010115D02*
X000865Y010115D01*
X000865Y010017D02*
X001365Y010017D01*
X001365Y009918D02*
X000865Y009918D01*
X000865Y009820D02*
X001365Y009820D01*
X001365Y009721D02*
X000865Y009721D01*
X000865Y009623D02*
X001365Y009623D01*
X001365Y009524D02*
X000865Y009524D01*
X000865Y009425D02*
X001365Y009425D01*
X001365Y009327D02*
X000865Y009327D01*
X000865Y009228D02*
X001365Y009228D01*
X001365Y009130D02*
X000865Y009130D01*
X000865Y009031D02*
X001365Y009031D01*
X001365Y008933D02*
X000865Y008933D01*
X000865Y008834D02*
X001365Y008834D01*
X001365Y008736D02*
X000865Y008736D01*
X000865Y008637D02*
X001365Y008637D01*
X001365Y008539D02*
X000865Y008539D01*
X000865Y008440D02*
X001275Y008440D01*
X001185Y008341D02*
X000865Y008341D01*
X000865Y008243D02*
X001185Y008243D01*
X001185Y008144D02*
X000865Y008144D01*
X000865Y008046D02*
X001185Y008046D01*
X001198Y007947D02*
X000865Y007947D01*
X000865Y007849D02*
X001297Y007849D01*
X001365Y007750D02*
X000865Y007750D01*
X000865Y007652D02*
X001365Y007652D01*
X001365Y007553D02*
X000865Y007553D01*
X000865Y007455D02*
X001365Y007455D01*
X001365Y007356D02*
X000865Y007356D01*
X000865Y007258D02*
X001365Y007258D01*
X001365Y007159D02*
X000865Y007159D01*
X000865Y007060D02*
X001365Y007060D01*
X001365Y006962D02*
X000865Y006962D01*
X000865Y006863D02*
X001365Y006863D01*
X001365Y006765D02*
X000865Y006765D01*
X000865Y006666D02*
X001365Y006666D01*
X001365Y006568D02*
X000865Y006568D01*
X000865Y006469D02*
X001365Y006469D01*
X001365Y006371D02*
X000865Y006371D01*
X000865Y006272D02*
X001365Y006272D01*
X001365Y006174D02*
X000865Y006174D01*
X000865Y006075D02*
X001365Y006075D01*
X001365Y005976D02*
X000865Y005976D01*
X000865Y005878D02*
X001365Y005878D01*
X001365Y005779D02*
X000865Y005779D01*
X000865Y005681D02*
X001365Y005681D01*
X001365Y005582D02*
X000865Y005582D01*
X000865Y005484D02*
X001365Y005484D01*
X001365Y005385D02*
X000865Y005385D01*
X000865Y005287D02*
X001365Y005287D01*
X001365Y005188D02*
X000865Y005188D01*
X000865Y005090D02*
X001368Y005090D01*
X001409Y004991D02*
X001491Y004909D01*
X001606Y004794D02*
X000865Y004794D01*
X000865Y004695D02*
X001705Y004695D01*
X001432Y004597D02*
X000865Y004597D01*
X000865Y004498D02*
X001334Y004498D01*
X001235Y004400D02*
X000865Y004400D01*
X000865Y004301D02*
X001185Y004301D01*
X001185Y004203D02*
X000865Y004203D01*
X000865Y004104D02*
X001185Y004104D01*
X001185Y004006D02*
X000865Y004006D01*
X000865Y003907D02*
X001239Y003907D01*
X001337Y003809D02*
X000865Y003809D01*
X000865Y003710D02*
X001398Y003710D01*
X001255Y003611D02*
X000865Y003611D01*
X000865Y003513D02*
X001181Y003513D01*
X001141Y003414D02*
X000865Y003414D01*
X000865Y003316D02*
X001825Y003316D01*
X001825Y003245D02*
X001127Y003245D01*
X001136Y003190D01*
X001158Y003122D01*
X001190Y003059D01*
X001232Y003002D01*
X001282Y002952D01*
X001339Y002910D01*
X001402Y002878D01*
X001470Y002856D01*
X001540Y002845D01*
X001825Y002845D01*
X001825Y003245D01*
X001825Y003217D02*
X001925Y003217D01*
X001925Y003119D02*
X001825Y003119D01*
X001825Y003020D02*
X001925Y003020D01*
X001925Y002922D02*
X001825Y002922D01*
X001925Y003316D02*
X004385Y003316D01*
X004385Y003345D02*
X004385Y003245D01*
X004485Y003245D01*
X004485Y002845D01*
X004771Y002845D01*
X004840Y002856D01*
X004908Y002878D01*
X004971Y002910D01*
X005028Y002952D01*
X005078Y003002D01*
X005120Y003059D01*
X005152Y003122D01*
X005174Y003190D01*
X005183Y003245D01*
X004485Y003245D01*
X004485Y003345D01*
X004385Y003345D01*
X003687Y003345D01*
X003696Y003400D01*
X003718Y003468D01*
X003750Y003531D01*
X003792Y003588D01*
X003842Y003638D01*
X003899Y003680D01*
X003962Y003712D01*
X004030Y003734D01*
X004100Y003745D01*
X004385Y003745D01*
X004385Y003345D01*
X004385Y003414D02*
X004485Y003414D01*
X004485Y003345D02*
X004485Y003745D01*
X004771Y003745D01*
X004840Y003734D01*
X004908Y003712D01*
X004971Y003680D01*
X005028Y003638D01*
X005078Y003588D01*
X005120Y003531D01*
X005152Y003468D01*
X005174Y003400D01*
X005183Y003345D01*
X004485Y003345D01*
X004485Y003316D02*
X006084Y003316D01*
X005986Y003414D02*
X005170Y003414D01*
X005129Y003513D02*
X005887Y003513D01*
X005789Y003611D02*
X005055Y003611D01*
X004912Y003710D02*
X005690Y003710D01*
X005592Y003809D02*
X001973Y003809D01*
X001925Y003745D02*
X001925Y003345D01*
X002623Y003345D01*
X002614Y003400D01*
X002592Y003468D01*
X002560Y003531D01*
X002518Y003588D01*
X002468Y003638D01*
X002411Y003680D01*
X002348Y003712D01*
X002280Y003734D01*
X002211Y003745D01*
X001925Y003745D01*
X001925Y003710D02*
X001875Y003710D01*
X001825Y003611D02*
X001925Y003611D01*
X001925Y003513D02*
X001825Y003513D01*
X001825Y003414D02*
X001925Y003414D01*
X002072Y003907D02*
X002496Y003907D01*
X002394Y004006D02*
X002125Y004006D01*
X002125Y004104D02*
X002296Y004104D01*
X002197Y004203D02*
X002125Y004203D01*
X002352Y003710D02*
X003958Y003710D01*
X003815Y003611D02*
X002495Y003611D01*
X002569Y003513D02*
X003741Y003513D01*
X003701Y003414D02*
X002610Y003414D01*
X002618Y003217D02*
X003692Y003217D01*
X003696Y003190D02*
X003718Y003122D01*
X003750Y003059D01*
X003792Y003002D01*
X003842Y002952D01*
X003899Y002910D01*
X003962Y002878D01*
X004030Y002856D01*
X004100Y002845D01*
X004385Y002845D01*
X004385Y003245D01*
X003687Y003245D01*
X003696Y003190D01*
X003720Y003119D02*
X002590Y003119D01*
X002532Y003020D02*
X003779Y003020D01*
X003884Y002922D02*
X002427Y002922D01*
X002475Y001936D02*
X003835Y001936D01*
X003736Y001838D02*
X002574Y001838D01*
X002529Y001148D02*
X003781Y001148D01*
X003927Y001049D02*
X002383Y001049D01*
X001275Y001936D02*
X000865Y001936D01*
X000865Y001838D02*
X001176Y001838D01*
X001116Y001739D02*
X000865Y001739D01*
X000866Y001641D02*
X001075Y001641D01*
X001065Y001542D02*
X000874Y001542D01*
X000903Y001443D02*
X001065Y001443D01*
X001094Y001345D02*
X000935Y001345D01*
X000988Y001246D02*
X001134Y001246D01*
X000865Y002232D02*
X015168Y002232D01*
X015070Y002330D02*
X000865Y002330D01*
X000865Y002429D02*
X006971Y002429D01*
X006873Y002527D02*
X000865Y002527D01*
X000865Y002626D02*
X006774Y002626D01*
X006676Y002725D02*
X000865Y002725D01*
X000865Y002823D02*
X006577Y002823D01*
X006478Y002922D02*
X004987Y002922D01*
X005092Y003020D02*
X006380Y003020D01*
X006281Y003119D02*
X005150Y003119D01*
X005178Y003217D02*
X006183Y003217D01*
X006609Y003611D02*
X008539Y003611D01*
X008637Y003513D02*
X006707Y003513D01*
X006806Y003414D02*
X008736Y003414D01*
X008440Y003710D02*
X006510Y003710D01*
X006412Y003809D02*
X008342Y003809D01*
X008243Y003907D02*
X006313Y003907D01*
X006215Y004006D02*
X008144Y004006D01*
X008046Y004104D02*
X006116Y004104D01*
X006018Y004203D02*
X007947Y004203D01*
X007849Y004301D02*
X005919Y004301D01*
X005821Y004400D02*
X007750Y004400D01*
X007656Y004498D02*
X002722Y004498D01*
X004110Y004695D02*
X004700Y004695D01*
X004602Y004794D02*
X004209Y004794D01*
X004307Y004892D02*
X004503Y004892D01*
X004435Y004991D02*
X004375Y004991D01*
X004375Y005090D02*
X004435Y005090D01*
X004435Y005188D02*
X004375Y005188D01*
X004375Y005287D02*
X004435Y005287D01*
X004471Y005385D02*
X004340Y005385D01*
X004241Y005484D02*
X004569Y005484D01*
X004668Y005582D02*
X004195Y005582D01*
X004385Y003710D02*
X004485Y003710D01*
X004485Y003611D02*
X004385Y003611D01*
X004385Y003513D02*
X004485Y003513D01*
X004485Y003217D02*
X004385Y003217D01*
X004385Y003119D02*
X004485Y003119D01*
X004485Y003020D02*
X004385Y003020D01*
X004385Y002922D02*
X004485Y002922D01*
X006103Y005188D02*
X006707Y005188D01*
X006710Y005185D02*
X007100Y005185D01*
X007375Y005460D01*
X007375Y005850D01*
X007100Y006125D01*
X006710Y006125D01*
X006435Y005850D01*
X006435Y005460D01*
X006710Y005185D01*
X006609Y005287D02*
X006201Y005287D01*
X006300Y005385D02*
X006510Y005385D01*
X006435Y005484D02*
X006375Y005484D01*
X006375Y005582D02*
X006435Y005582D01*
X006435Y005681D02*
X006375Y005681D01*
X006375Y005779D02*
X006435Y005779D01*
X006463Y005878D02*
X006347Y005878D01*
X006248Y005976D02*
X006562Y005976D01*
X006660Y006075D02*
X006195Y006075D01*
X006195Y006174D02*
X007435Y006174D01*
X007435Y006272D02*
X006195Y006272D01*
X006195Y006371D02*
X007456Y006371D01*
X007555Y006469D02*
X006195Y006469D01*
X006195Y006568D02*
X007653Y006568D01*
X007435Y006075D02*
X007150Y006075D01*
X007248Y005976D02*
X007435Y005976D01*
X007518Y005878D02*
X007347Y005878D01*
X007375Y005779D02*
X007615Y005779D01*
X007615Y005681D02*
X007375Y005681D01*
X007375Y005582D02*
X007615Y005582D01*
X007615Y005484D02*
X007375Y005484D01*
X007300Y005385D02*
X007615Y005385D01*
X007615Y005287D02*
X007201Y005287D01*
X007103Y005188D02*
X007615Y005188D01*
X008195Y005188D02*
X009615Y005188D01*
X009615Y005090D02*
X008195Y005090D01*
X008195Y004991D02*
X009615Y004991D01*
X009615Y004892D02*
X008195Y004892D01*
X008195Y004794D02*
X009615Y004794D01*
X009656Y004498D02*
X008472Y004498D01*
X008571Y004400D02*
X009750Y004400D01*
X009849Y004301D02*
X008669Y004301D01*
X008768Y004203D02*
X009947Y004203D01*
X010046Y004104D02*
X008866Y004104D01*
X008965Y004006D02*
X010144Y004006D01*
X010472Y004498D02*
X015152Y004498D01*
X015053Y004597D02*
X010373Y004597D01*
X010275Y004695D02*
X014955Y004695D01*
X014856Y004794D02*
X010195Y004794D01*
X010195Y005090D02*
X014618Y005090D01*
X014615Y005188D02*
X010195Y005188D01*
X010195Y005287D02*
X014615Y005287D01*
X014615Y005385D02*
X010195Y005385D01*
X010195Y005484D02*
X014615Y005484D01*
X014615Y005582D02*
X010195Y005582D01*
X010195Y005681D02*
X014615Y005681D01*
X014615Y005779D02*
X010195Y005779D01*
X010195Y005878D02*
X014615Y005878D01*
X014615Y005976D02*
X010195Y005976D01*
X010195Y006075D02*
X014615Y006075D01*
X014615Y006174D02*
X010195Y006174D01*
X010195Y006272D02*
X010623Y006272D01*
X010710Y006185D02*
X010435Y006460D01*
X010435Y006850D01*
X010710Y007125D01*
X011100Y007125D01*
X011375Y006850D01*
X011375Y006460D01*
X011100Y006185D01*
X010710Y006185D01*
X010525Y006371D02*
X010285Y006371D01*
X010375Y006469D02*
X010435Y006469D01*
X010435Y006568D02*
X010375Y006568D01*
X010375Y006666D02*
X010435Y006666D01*
X010435Y006765D02*
X010375Y006765D01*
X010361Y006863D02*
X010449Y006863D01*
X010547Y006962D02*
X010263Y006962D01*
X010164Y007060D02*
X010646Y007060D01*
X011164Y007060D02*
X011435Y007060D01*
X011435Y006962D02*
X011263Y006962D01*
X011361Y006863D02*
X011532Y006863D01*
X011435Y006960D02*
X011710Y006685D01*
X012100Y006685D01*
X012375Y006960D01*
X012375Y007350D01*
X012100Y007625D01*
X011710Y007625D01*
X011435Y007350D01*
X011435Y006960D01*
X011435Y007159D02*
X006195Y007159D01*
X006195Y007258D02*
X011435Y007258D01*
X011441Y007356D02*
X006195Y007356D01*
X006195Y007455D02*
X011540Y007455D01*
X011639Y007553D02*
X006195Y007553D01*
X006195Y007652D02*
X012615Y007652D01*
X012615Y007750D02*
X006195Y007750D01*
X006259Y007849D02*
X012615Y007849D01*
X012615Y007553D02*
X012172Y007553D01*
X012270Y007455D02*
X012540Y007455D01*
X012441Y007356D02*
X012369Y007356D01*
X012375Y007258D02*
X012435Y007258D01*
X012435Y007159D02*
X012375Y007159D01*
X012375Y007060D02*
X012435Y007060D01*
X012435Y006962D02*
X012375Y006962D01*
X012278Y006863D02*
X012532Y006863D01*
X012631Y006765D02*
X012179Y006765D01*
X011631Y006765D02*
X011375Y006765D01*
X011375Y006666D02*
X014615Y006666D01*
X014615Y006568D02*
X011375Y006568D01*
X011375Y006469D02*
X014615Y006469D01*
X014615Y006371D02*
X011285Y006371D01*
X011187Y006272D02*
X014615Y006272D01*
X014615Y006765D02*
X013179Y006765D01*
X013278Y006863D02*
X014615Y006863D01*
X014615Y006962D02*
X013375Y006962D01*
X013375Y007060D02*
X014615Y007060D01*
X014615Y007159D02*
X013375Y007159D01*
X013375Y007258D02*
X013638Y007258D01*
X013539Y007356D02*
X013369Y007356D01*
X013441Y007455D02*
X013270Y007455D01*
X013195Y007553D02*
X013435Y007553D01*
X013435Y007652D02*
X013195Y007652D01*
X013195Y007750D02*
X013435Y007750D01*
X013435Y007849D02*
X013195Y007849D01*
X013195Y008445D02*
X013195Y011280D01*
X013212Y011298D02*
X013598Y011298D01*
X013696Y011199D02*
X013195Y011199D01*
X013311Y011396D02*
X013499Y011396D01*
X013435Y011495D02*
X013375Y011495D01*
X013375Y011593D02*
X013435Y011593D01*
X013435Y011692D02*
X013375Y011692D01*
X013375Y011791D02*
X013435Y011791D01*
X013474Y011889D02*
X013336Y011889D01*
X013237Y011988D02*
X013573Y011988D01*
X013671Y012086D02*
X013195Y012086D01*
X011934Y013466D02*
X008695Y013466D01*
X008695Y013564D02*
X011879Y013564D01*
X011865Y013663D02*
X008695Y013663D01*
X008695Y013761D02*
X009134Y013761D01*
X009036Y013860D02*
X008775Y013860D01*
X008873Y013958D02*
X008937Y013958D01*
X008935Y014057D02*
X008875Y014057D01*
X008875Y014156D02*
X008935Y014156D01*
X008935Y014254D02*
X008875Y014254D01*
X008872Y014353D02*
X008938Y014353D01*
X009037Y014451D02*
X008774Y014451D01*
X008675Y014550D02*
X009135Y014550D01*
X009775Y013860D02*
X011865Y013860D01*
X011865Y013958D02*
X009873Y013958D01*
X009875Y014057D02*
X011865Y014057D01*
X011865Y013761D02*
X009676Y013761D01*
X009935Y014747D02*
X002657Y014747D01*
X002755Y014845D02*
X009935Y014845D01*
X010029Y014944D02*
X002854Y014944D01*
X002953Y015042D02*
X010128Y015042D01*
X010682Y015042D02*
X011128Y015042D01*
X011029Y014944D02*
X010781Y014944D01*
X010875Y014845D02*
X010935Y014845D01*
X010935Y014747D02*
X010875Y014747D01*
X010875Y014648D02*
X010935Y014648D01*
X010935Y014550D02*
X010875Y014550D01*
X010866Y014451D02*
X010944Y014451D01*
X011043Y014353D02*
X010767Y014353D01*
X010669Y014254D02*
X011141Y014254D01*
X011682Y015042D02*
X011685Y015042D01*
X011685Y015141D02*
X003051Y015141D01*
X003150Y015240D02*
X011685Y015240D01*
X011685Y015338D02*
X003248Y015338D01*
X003347Y015437D02*
X011772Y015437D01*
X011871Y015535D02*
X003445Y015535D01*
X003544Y015634D02*
X019945Y015634D01*
X019945Y015732D02*
X003642Y015732D01*
X003741Y015831D02*
X019945Y015831D01*
X019945Y015929D02*
X003839Y015929D01*
X003938Y016028D02*
X019945Y016028D01*
X019945Y016126D02*
X004036Y016126D01*
X004135Y016225D02*
X019945Y016225D01*
X019945Y016324D02*
X004234Y016324D01*
X004332Y016422D02*
X019945Y016422D01*
X019945Y016521D02*
X004431Y016521D01*
X004529Y016619D02*
X019945Y016619D01*
X019945Y016718D02*
X004628Y016718D01*
X004726Y016816D02*
X019945Y016816D01*
X019945Y016915D02*
X004825Y016915D01*
X004923Y017013D02*
X019945Y017013D01*
X019945Y017112D02*
X005022Y017112D01*
X005120Y017210D02*
X019945Y017210D01*
X019945Y017309D02*
X005219Y017309D01*
X005318Y017407D02*
X019945Y017407D01*
X019945Y017506D02*
X018371Y017506D01*
X018291Y017473D02*
X018542Y017577D01*
X018734Y017769D01*
X018838Y018019D01*
X018838Y018291D01*
X018734Y018542D01*
X018542Y018734D01*
X018291Y018838D01*
X018019Y018838D01*
X017769Y018734D01*
X017577Y018542D01*
X017473Y018291D01*
X017473Y018019D01*
X017577Y017769D01*
X017769Y017577D01*
X018019Y017473D01*
X018291Y017473D01*
X017939Y017506D02*
X005416Y017506D01*
X005515Y017605D02*
X017741Y017605D01*
X017642Y017703D02*
X011118Y017703D01*
X011100Y017685D02*
X011375Y017960D01*
X011375Y018350D01*
X011100Y018625D01*
X010710Y018625D01*
X010435Y018350D01*
X010435Y017960D01*
X010710Y017685D01*
X011100Y017685D01*
X011216Y017802D02*
X017563Y017802D01*
X017522Y017900D02*
X011315Y017900D01*
X011375Y017999D02*
X017481Y017999D01*
X017473Y018097D02*
X011375Y018097D01*
X011375Y018196D02*
X017473Y018196D01*
X017474Y018294D02*
X011375Y018294D01*
X011332Y018393D02*
X017515Y018393D01*
X017556Y018491D02*
X011233Y018491D01*
X011135Y018590D02*
X017625Y018590D01*
X017723Y018689D02*
X013772Y018689D01*
X013768Y018687D02*
X013839Y018710D01*
X013907Y018745D01*
X013968Y018789D01*
X014021Y018842D01*
X014066Y018904D01*
X014100Y018971D01*
X014123Y019043D01*
X014133Y019107D01*
X013704Y019107D01*
X013704Y019204D01*
X013607Y019204D01*
X013607Y019633D01*
X013543Y019623D01*
X013471Y019600D01*
X013404Y019566D01*
X013342Y019521D01*
X013289Y019468D01*
X013245Y019407D01*
X013210Y019339D01*
X013187Y019268D01*
X013177Y019204D01*
X013606Y019204D01*
X013606Y019107D01*
X013177Y019107D01*
X013187Y019043D01*
X013210Y018971D01*
X013245Y018904D01*
X013289Y018842D01*
X013342Y018789D01*
X013404Y018745D01*
X013471Y018710D01*
X013543Y018687D01*
X013607Y018677D01*
X013607Y019106D01*
X013704Y019106D01*
X013704Y018677D01*
X013768Y018687D01*
X013704Y018689D02*
X013607Y018689D01*
X013538Y018689D02*
X011900Y018689D01*
X011952Y018710D02*
X012100Y018858D01*
X012180Y019051D01*
X012180Y019260D01*
X012100Y019452D01*
X011952Y019600D01*
X011760Y019680D01*
X011551Y019680D01*
X011358Y019600D01*
X011210Y019452D01*
X011130Y019260D01*
X011130Y019051D01*
X011210Y018858D01*
X011358Y018710D01*
X011551Y018630D01*
X011760Y018630D01*
X011952Y018710D01*
X012029Y018787D02*
X013345Y018787D01*
X013258Y018886D02*
X012112Y018886D01*
X012152Y018984D02*
X013206Y018984D01*
X013181Y019083D02*
X012180Y019083D01*
X012180Y019181D02*
X013606Y019181D01*
X013704Y019181D02*
X019943Y019181D01*
X019945Y019083D02*
X014130Y019083D01*
X014104Y018984D02*
X019945Y018984D01*
X019945Y018886D02*
X014053Y018886D01*
X013965Y018787D02*
X017898Y018787D01*
X018413Y018787D02*
X019945Y018787D01*
X019945Y018689D02*
X018587Y018689D01*
X018685Y018590D02*
X019945Y018590D01*
X019945Y018491D02*
X018754Y018491D01*
X018795Y018393D02*
X019945Y018393D01*
X019945Y018294D02*
X018836Y018294D01*
X018838Y018196D02*
X019945Y018196D01*
X019945Y018097D02*
X018838Y018097D01*
X018829Y017999D02*
X019945Y017999D01*
X019945Y017900D02*
X018788Y017900D01*
X018747Y017802D02*
X019945Y017802D01*
X019945Y017703D02*
X018668Y017703D01*
X018570Y017605D02*
X019945Y017605D01*
X019935Y019280D02*
X014119Y019280D01*
X014123Y019268D02*
X014100Y019339D01*
X014066Y019407D01*
X014021Y019468D01*
X013968Y019521D01*
X013907Y019566D01*
X013839Y019600D01*
X013768Y019623D01*
X013704Y019633D01*
X013704Y019204D01*
X014133Y019204D01*
X014123Y019268D01*
X014080Y019378D02*
X019903Y019378D01*
X019871Y019477D02*
X014012Y019477D01*
X013887Y019575D02*
X019814Y019575D01*
X019743Y019674D02*
X011774Y019674D01*
X011977Y019575D02*
X013423Y019575D01*
X013298Y019477D02*
X012076Y019477D01*
X012131Y019378D02*
X013230Y019378D01*
X013191Y019280D02*
X012172Y019280D01*
X011536Y019674D02*
X009274Y019674D01*
X009260Y019680D02*
X009051Y019680D01*
X008858Y019600D01*
X008710Y019452D01*
X008630Y019260D01*
X008630Y019051D01*
X008710Y018858D01*
X008858Y018710D01*
X009051Y018630D01*
X009260Y018630D01*
X009452Y018710D01*
X009600Y018858D01*
X009680Y019051D01*
X009680Y019260D01*
X009600Y019452D01*
X009452Y019600D01*
X009260Y019680D01*
X009036Y019674D02*
X007314Y019674D01*
X007498Y019575D02*
X008833Y019575D01*
X008734Y019477D02*
X007597Y019477D01*
X007647Y019378D02*
X008679Y019378D01*
X008639Y019280D02*
X007688Y019280D01*
X007695Y019181D02*
X008630Y019181D01*
X008630Y019083D02*
X007695Y019083D01*
X007669Y018984D02*
X008658Y018984D01*
X008699Y018886D02*
X007628Y018886D01*
X007551Y018787D02*
X008781Y018787D01*
X008910Y018689D02*
X007440Y018689D01*
X006870Y018689D02*
X006599Y018689D01*
X006697Y018787D02*
X006759Y018787D01*
X006500Y018590D02*
X009675Y018590D01*
X009710Y018625D02*
X009435Y018350D01*
X009435Y017960D01*
X009710Y017685D01*
X010100Y017685D01*
X010375Y017960D01*
X010375Y018350D01*
X010100Y018625D01*
X009710Y018625D01*
X009577Y018491D02*
X006402Y018491D01*
X006303Y018393D02*
X009478Y018393D01*
X009435Y018294D02*
X006204Y018294D01*
X006106Y018196D02*
X009435Y018196D01*
X009435Y018097D02*
X006007Y018097D01*
X005909Y017999D02*
X009435Y017999D01*
X009495Y017900D02*
X005810Y017900D01*
X005712Y017802D02*
X009594Y017802D01*
X009692Y017703D02*
X005613Y017703D01*
X005187Y018097D02*
X003338Y018097D01*
X003338Y018019D02*
X003234Y017769D01*
X003042Y017577D01*
X002791Y017473D01*
X002519Y017473D01*
X002269Y017577D01*
X002077Y017769D01*
X001973Y018019D01*
X001973Y018291D01*
X002077Y018542D01*
X002269Y018734D01*
X002519Y018838D01*
X002791Y018838D01*
X003042Y018734D01*
X003234Y018542D01*
X003338Y018291D01*
X003338Y018019D01*
X003329Y017999D02*
X005089Y017999D01*
X004990Y017900D02*
X003288Y017900D01*
X003247Y017802D02*
X004892Y017802D01*
X004793Y017703D02*
X003168Y017703D01*
X003070Y017605D02*
X004694Y017605D01*
X004596Y017506D02*
X002871Y017506D01*
X002439Y017506D02*
X000865Y017506D01*
X000865Y017407D02*
X004497Y017407D01*
X004399Y017309D02*
X000865Y017309D01*
X000865Y017210D02*
X004300Y017210D01*
X004202Y017112D02*
X000865Y017112D01*
X000865Y017013D02*
X004103Y017013D01*
X004005Y016915D02*
X000865Y016915D01*
X000865Y016816D02*
X003906Y016816D01*
X003808Y016718D02*
X000865Y016718D01*
X000865Y016619D02*
X003709Y016619D01*
X003610Y016521D02*
X000865Y016521D01*
X000865Y016422D02*
X003512Y016422D01*
X003413Y016324D02*
X000865Y016324D01*
X000865Y016225D02*
X003315Y016225D01*
X003216Y016126D02*
X000865Y016126D01*
X000865Y016028D02*
X003118Y016028D01*
X003019Y015929D02*
X000865Y015929D01*
X000865Y015831D02*
X002921Y015831D01*
X002822Y015732D02*
X000865Y015732D01*
X000865Y015634D02*
X002724Y015634D01*
X002625Y015535D02*
X000865Y015535D01*
X000865Y015437D02*
X002526Y015437D01*
X002428Y015338D02*
X000865Y015338D01*
X000865Y015240D02*
X002329Y015240D01*
X002231Y015141D02*
X000865Y015141D01*
X000865Y015042D02*
X002132Y015042D01*
X002034Y014944D02*
X000865Y014944D01*
X000865Y014845D02*
X001935Y014845D01*
X001837Y014747D02*
X000865Y014747D01*
X000865Y014648D02*
X001738Y014648D01*
X001640Y014550D02*
X000865Y014550D01*
X000865Y017605D02*
X002241Y017605D01*
X002142Y017703D02*
X000865Y017703D01*
X000865Y017802D02*
X002063Y017802D01*
X002022Y017900D02*
X000865Y017900D01*
X000865Y017999D02*
X001981Y017999D01*
X001973Y018097D02*
X000865Y018097D01*
X000865Y018196D02*
X001973Y018196D01*
X001974Y018294D02*
X000865Y018294D01*
X000865Y018393D02*
X002015Y018393D01*
X002056Y018491D02*
X000865Y018491D01*
X000865Y018590D02*
X002125Y018590D01*
X002223Y018689D02*
X000865Y018689D01*
X000865Y018787D02*
X002398Y018787D01*
X002913Y018787D02*
X005877Y018787D01*
X005778Y018689D02*
X003087Y018689D01*
X003185Y018590D02*
X005680Y018590D01*
X005581Y018491D02*
X003254Y018491D01*
X003295Y018393D02*
X005483Y018393D01*
X005384Y018294D02*
X003336Y018294D01*
X003338Y018196D02*
X005286Y018196D01*
X005976Y018886D02*
X000865Y018886D01*
X000865Y018984D02*
X006074Y018984D01*
X006173Y019083D02*
X000865Y019083D01*
X000867Y019181D02*
X006271Y019181D01*
X006370Y019280D02*
X000875Y019280D01*
X000907Y019378D02*
X006468Y019378D01*
X006713Y019477D02*
X000939Y019477D01*
X000996Y019575D02*
X006812Y019575D01*
X006997Y019674D02*
X001068Y019674D01*
X001177Y019773D02*
X019633Y019773D01*
X019477Y019871D02*
X001334Y019871D01*
X009477Y019575D02*
X011333Y019575D01*
X011234Y019477D02*
X009576Y019477D01*
X009631Y019378D02*
X011179Y019378D01*
X011139Y019280D02*
X009672Y019280D01*
X009680Y019181D02*
X011130Y019181D01*
X011130Y019083D02*
X009680Y019083D01*
X009652Y018984D02*
X011158Y018984D01*
X011199Y018886D02*
X009612Y018886D01*
X009529Y018787D02*
X011281Y018787D01*
X011410Y018689D02*
X009400Y018689D01*
X010135Y018590D02*
X010675Y018590D01*
X010577Y018491D02*
X010233Y018491D01*
X010332Y018393D02*
X010478Y018393D01*
X010435Y018294D02*
X010375Y018294D01*
X010375Y018196D02*
X010435Y018196D01*
X010435Y018097D02*
X010375Y018097D01*
X010375Y017999D02*
X010435Y017999D01*
X010495Y017900D02*
X010315Y017900D01*
X010216Y017802D02*
X010594Y017802D01*
X010692Y017703D02*
X010118Y017703D01*
X013607Y018787D02*
X013704Y018787D01*
X013704Y018886D02*
X013607Y018886D01*
X013607Y018984D02*
X013704Y018984D01*
X013704Y019083D02*
X013607Y019083D01*
X013607Y019280D02*
X013704Y019280D01*
X013704Y019378D02*
X013607Y019378D01*
X013607Y019477D02*
X013704Y019477D01*
X013704Y019575D02*
X013607Y019575D01*
X010435Y011101D02*
X010374Y011101D01*
X010477Y010312D02*
X012615Y010312D01*
X012615Y010214D02*
X010378Y010214D01*
X013195Y009228D02*
X019945Y009228D01*
X019945Y009130D02*
X013195Y009130D01*
X013195Y009031D02*
X019945Y009031D01*
X019945Y008933D02*
X013195Y008933D01*
X013195Y008834D02*
X019945Y008834D01*
X019945Y008736D02*
X013195Y008736D01*
X013195Y008637D02*
X019945Y008637D01*
X019945Y008539D02*
X013195Y008539D01*
X013195Y008445D02*
X014347Y008445D01*
X014463Y008445D01*
X014569Y008401D01*
X014845Y008125D01*
X015100Y008125D01*
X015375Y007850D01*
X015375Y007460D01*
X015195Y007280D01*
X015195Y005275D01*
X015523Y004947D01*
X015629Y005054D01*
X015802Y005125D01*
X016509Y005125D01*
X016681Y005054D01*
X016814Y004921D01*
X016885Y004749D01*
X016885Y004562D01*
X016837Y004445D01*
X017597Y004445D01*
X017713Y004445D01*
X017819Y004401D01*
X018275Y003945D01*
X018520Y003945D01*
X018629Y004054D01*
X018802Y004125D01*
X019509Y004125D01*
X019681Y004054D01*
X019814Y003921D01*
X019885Y003749D01*
X019885Y003562D01*
X019814Y003389D01*
X019681Y003257D01*
X019509Y003185D01*
X018802Y003185D01*
X018629Y003257D01*
X018520Y003365D01*
X018097Y003365D01*
X017991Y003409D01*
X017909Y003491D01*
X017535Y003865D01*
X016837Y003865D01*
X016885Y003749D01*
X016885Y003562D01*
X016814Y003389D01*
X016681Y003257D01*
X016509Y003185D01*
X015802Y003185D01*
X015629Y003257D01*
X015520Y003365D01*
X008963Y003365D01*
X007200Y003020D02*
X015595Y003020D01*
X015497Y002922D02*
X015269Y002922D01*
X015397Y002823D02*
X015456Y002823D01*
X015786Y003119D02*
X007102Y003119D01*
X007003Y003217D02*
X015724Y003217D01*
X015570Y003316D02*
X006905Y003316D01*
X008195Y005287D02*
X009615Y005287D01*
X009615Y005385D02*
X008195Y005385D01*
X008195Y005484D02*
X009615Y005484D01*
X009615Y005582D02*
X008195Y005582D01*
X008195Y005681D02*
X009615Y005681D01*
X009615Y005779D02*
X009194Y005779D01*
X009100Y005685D02*
X009375Y005960D01*
X009375Y006350D01*
X009100Y006625D01*
X008710Y006625D01*
X008435Y006350D01*
X008435Y005960D01*
X008710Y005685D01*
X009100Y005685D01*
X009293Y005878D02*
X009615Y005878D01*
X009615Y005976D02*
X009375Y005976D01*
X009375Y006075D02*
X009615Y006075D01*
X009615Y006174D02*
X009375Y006174D01*
X009375Y006272D02*
X009615Y006272D01*
X009525Y006371D02*
X009354Y006371D01*
X009435Y006469D02*
X009256Y006469D01*
X009157Y006568D02*
X009435Y006568D01*
X009435Y006666D02*
X006195Y006666D01*
X006195Y006765D02*
X009435Y006765D01*
X009449Y006863D02*
X006195Y006863D01*
X006195Y006962D02*
X009547Y006962D01*
X009646Y007060D02*
X006195Y007060D01*
X008157Y006568D02*
X008653Y006568D01*
X008555Y006469D02*
X008256Y006469D01*
X008354Y006371D02*
X008456Y006371D01*
X008435Y006272D02*
X008375Y006272D01*
X008375Y006174D02*
X008435Y006174D01*
X008435Y006075D02*
X008375Y006075D01*
X008375Y005976D02*
X008435Y005976D01*
X008518Y005878D02*
X008293Y005878D01*
X008195Y005779D02*
X008616Y005779D01*
X004917Y009228D02*
X004195Y009228D01*
X004195Y009327D02*
X004819Y009327D01*
X004720Y009425D02*
X004195Y009425D01*
X004195Y009524D02*
X004685Y009524D01*
X004685Y009623D02*
X004195Y009623D01*
X004195Y009721D02*
X004685Y009721D01*
X004685Y009820D02*
X004195Y009820D01*
X004195Y009918D02*
X004754Y009918D01*
X004852Y010017D02*
X004195Y010017D01*
X004275Y010115D02*
X004951Y010115D01*
X001132Y003217D02*
X000865Y003217D01*
X000865Y003119D02*
X001160Y003119D01*
X001219Y003020D02*
X000865Y003020D01*
X000865Y002922D02*
X001324Y002922D01*
X014172Y007258D02*
X014615Y007258D01*
X014539Y007356D02*
X014271Y007356D01*
X014369Y007455D02*
X014441Y007455D01*
X014435Y007553D02*
X014375Y007553D01*
X014375Y007652D02*
X014435Y007652D01*
X014400Y007750D02*
X014375Y007750D01*
X014826Y008144D02*
X019945Y008144D01*
X019945Y008046D02*
X015179Y008046D01*
X015278Y007947D02*
X019945Y007947D01*
X019945Y007849D02*
X015375Y007849D01*
X015375Y007750D02*
X019945Y007750D01*
X019945Y007652D02*
X015375Y007652D01*
X015375Y007553D02*
X019945Y007553D01*
X019945Y007455D02*
X015369Y007455D01*
X015271Y007356D02*
X019945Y007356D01*
X019945Y007258D02*
X015195Y007258D01*
X015195Y007159D02*
X019945Y007159D01*
X019945Y007060D02*
X015195Y007060D01*
X015195Y006962D02*
X019945Y006962D01*
X019945Y006863D02*
X015195Y006863D01*
X015195Y006765D02*
X019945Y006765D01*
X019945Y006666D02*
X015195Y006666D01*
X015195Y006568D02*
X019945Y006568D01*
X019945Y006469D02*
X015195Y006469D01*
X015195Y006371D02*
X019945Y006371D01*
X019945Y006272D02*
X015195Y006272D01*
X015195Y006174D02*
X019945Y006174D01*
X019945Y006075D02*
X019630Y006075D01*
X019681Y006054D02*
X019509Y006125D01*
X018802Y006125D01*
X018629Y006054D01*
X018497Y005921D01*
X018425Y005749D01*
X018425Y005562D01*
X018497Y005389D01*
X018629Y005257D01*
X018802Y005185D01*
X019509Y005185D01*
X019681Y005257D01*
X019814Y005389D01*
X019885Y005562D01*
X019885Y005749D01*
X019814Y005921D01*
X019681Y006054D01*
X019758Y005976D02*
X019945Y005976D01*
X019945Y005878D02*
X019832Y005878D01*
X019872Y005779D02*
X019945Y005779D01*
X019945Y005681D02*
X019885Y005681D01*
X019885Y005582D02*
X019945Y005582D01*
X019945Y005484D02*
X019853Y005484D01*
X019810Y005385D02*
X019945Y005385D01*
X019945Y005287D02*
X019711Y005287D01*
X019516Y005188D02*
X019945Y005188D01*
X019945Y005090D02*
X019594Y005090D01*
X019509Y005125D02*
X019681Y005054D01*
X019814Y004921D01*
X019885Y004749D01*
X019885Y004562D01*
X019814Y004389D01*
X019681Y004257D01*
X019509Y004185D01*
X018802Y004185D01*
X018629Y004257D01*
X018497Y004389D01*
X018425Y004562D01*
X018425Y004749D01*
X018497Y004921D01*
X018629Y005054D01*
X018802Y005125D01*
X019509Y005125D01*
X019744Y004991D02*
X019945Y004991D01*
X019945Y004892D02*
X019826Y004892D01*
X019866Y004794D02*
X019945Y004794D01*
X019945Y004695D02*
X019885Y004695D01*
X019885Y004597D02*
X019945Y004597D01*
X019945Y004498D02*
X019859Y004498D01*
X019818Y004400D02*
X019945Y004400D01*
X019945Y004301D02*
X019726Y004301D01*
X019551Y004203D02*
X019945Y004203D01*
X019945Y004104D02*
X019559Y004104D01*
X019729Y004006D02*
X019945Y004006D01*
X019945Y003907D02*
X019819Y003907D01*
X019860Y003809D02*
X019945Y003809D01*
X019945Y003710D02*
X019885Y003710D01*
X019885Y003611D02*
X019945Y003611D01*
X019945Y003513D02*
X019865Y003513D01*
X019824Y003414D02*
X019945Y003414D01*
X019945Y003316D02*
X019740Y003316D01*
X019586Y003217D02*
X019945Y003217D01*
X019945Y003119D02*
X019524Y003119D01*
X019715Y003020D02*
X019945Y003020D01*
X019945Y002922D02*
X019813Y002922D01*
X019854Y002823D02*
X019945Y002823D01*
X019945Y002725D02*
X019885Y002725D01*
X019885Y002626D02*
X019945Y002626D01*
X019945Y002527D02*
X019871Y002527D01*
X019830Y002429D02*
X019945Y002429D01*
X019945Y002330D02*
X019755Y002330D01*
X019621Y002232D02*
X019945Y002232D01*
X019945Y002133D02*
X019445Y002133D01*
X019419Y002035D02*
X019945Y002035D01*
X019945Y001936D02*
X019346Y001936D01*
X019248Y001838D02*
X019945Y001838D01*
X019945Y001739D02*
X019149Y001739D01*
X019125Y001641D02*
X019944Y001641D01*
X019936Y001542D02*
X019125Y001542D01*
X019108Y001443D02*
X019907Y001443D01*
X019875Y001345D02*
X019010Y001345D01*
X018911Y001246D02*
X019823Y001246D01*
X019751Y001148D02*
X015470Y001148D01*
X015476Y001246D02*
X016484Y001246D01*
X016485Y001245D02*
X016625Y001245D01*
X016625Y001625D01*
X016245Y001625D01*
X016245Y001485D01*
X016485Y001245D01*
X016625Y001246D02*
X016685Y001246D01*
X016685Y001345D02*
X016625Y001345D01*
X016625Y001443D02*
X016685Y001443D01*
X016685Y001542D02*
X016625Y001542D01*
X016625Y001641D02*
X015475Y001641D01*
X015475Y001739D02*
X016245Y001739D01*
X016258Y001838D02*
X015475Y001838D01*
X015464Y001936D02*
X015455Y001936D01*
X015475Y001542D02*
X016245Y001542D01*
X016287Y001443D02*
X015439Y001443D01*
X015444Y001345D02*
X016385Y001345D01*
X016685Y001641D02*
X017260Y001641D01*
X017358Y001542D02*
X017065Y001542D01*
X017023Y001443D02*
X017457Y001443D01*
X017161Y001739D02*
X017065Y001739D01*
X017052Y001838D02*
X017062Y001838D01*
X016925Y001345D02*
X018301Y001345D01*
X018399Y001246D02*
X016826Y001246D01*
X017686Y002035D02*
X018370Y002035D01*
X018723Y002133D02*
X017587Y002133D01*
X017489Y002232D02*
X018689Y002232D01*
X018555Y002330D02*
X017390Y002330D01*
X017252Y002429D02*
X018480Y002429D01*
X018439Y002527D02*
X016871Y002527D01*
X016885Y002626D02*
X018425Y002626D01*
X018425Y002725D02*
X016885Y002725D01*
X016854Y002823D02*
X018456Y002823D01*
X018497Y002922D02*
X016813Y002922D01*
X016715Y003020D02*
X018595Y003020D01*
X018786Y003119D02*
X016524Y003119D01*
X016586Y003217D02*
X018724Y003217D01*
X018570Y003316D02*
X016740Y003316D01*
X016824Y003414D02*
X017986Y003414D01*
X017887Y003513D02*
X016865Y003513D01*
X016885Y003611D02*
X017789Y003611D01*
X017690Y003710D02*
X016885Y003710D01*
X016860Y003809D02*
X017592Y003809D01*
X018018Y004203D02*
X018759Y004203D01*
X018751Y004104D02*
X018116Y004104D01*
X018215Y004006D02*
X018581Y004006D01*
X018584Y004301D02*
X017919Y004301D01*
X017821Y004400D02*
X018492Y004400D01*
X018451Y004498D02*
X016859Y004498D01*
X016885Y004597D02*
X018425Y004597D01*
X018425Y004695D02*
X016885Y004695D01*
X016866Y004794D02*
X018444Y004794D01*
X018485Y004892D02*
X016826Y004892D01*
X016744Y004991D02*
X018566Y004991D01*
X018716Y005090D02*
X016594Y005090D01*
X016511Y005255D02*
X016572Y005275D01*
X016630Y005304D01*
X016682Y005342D01*
X016728Y005388D01*
X016766Y005440D01*
X016795Y005498D01*
X016815Y005559D01*
X016825Y005623D01*
X016825Y005625D01*
X016185Y005625D01*
X016185Y005245D01*
X016447Y005245D01*
X016511Y005255D01*
X016595Y005287D02*
X018599Y005287D01*
X018500Y005385D02*
X016725Y005385D01*
X016788Y005484D02*
X018457Y005484D01*
X018425Y005582D02*
X016819Y005582D01*
X016825Y005685D02*
X016825Y005687D01*
X016815Y005751D01*
X016795Y005812D01*
X016766Y005870D01*
X016728Y005922D01*
X016682Y005968D01*
X016630Y006006D01*
X016572Y006035D01*
X016511Y006055D01*
X016447Y006065D01*
X016185Y006065D01*
X016185Y005685D01*
X016125Y005685D01*
X016125Y005625D01*
X016185Y005625D01*
X016185Y005685D01*
X016825Y005685D01*
X016806Y005779D02*
X018438Y005779D01*
X018425Y005681D02*
X016185Y005681D01*
X016125Y005685D02*
X016125Y006065D01*
X015863Y006065D01*
X015799Y006055D01*
X015738Y006035D01*
X015680Y006006D01*
X015628Y005968D01*
X015582Y005922D01*
X015544Y005870D01*
X015515Y005812D01*
X015495Y005751D01*
X015485Y005687D01*
X015485Y005685D01*
X016125Y005685D01*
X016125Y005681D02*
X015195Y005681D01*
X015195Y005779D02*
X015504Y005779D01*
X015550Y005878D02*
X015195Y005878D01*
X015195Y005976D02*
X015640Y005976D01*
X015485Y005625D02*
X015485Y005623D01*
X015495Y005559D01*
X015515Y005498D01*
X015544Y005440D01*
X015582Y005388D01*
X015628Y005342D01*
X015680Y005304D01*
X015738Y005275D01*
X015799Y005255D01*
X015863Y005245D01*
X016125Y005245D01*
X016125Y005625D01*
X015485Y005625D01*
X015491Y005582D02*
X015195Y005582D01*
X015195Y005484D02*
X015522Y005484D01*
X015585Y005385D02*
X015195Y005385D01*
X015195Y005287D02*
X015715Y005287D01*
X015716Y005090D02*
X015381Y005090D01*
X015282Y005188D02*
X018794Y005188D01*
X018479Y005878D02*
X016760Y005878D01*
X016670Y005976D02*
X018552Y005976D01*
X018681Y006075D02*
X015195Y006075D01*
X016125Y005976D02*
X016185Y005976D01*
X016185Y005878D02*
X016125Y005878D01*
X016125Y005779D02*
X016185Y005779D01*
X016185Y005582D02*
X016125Y005582D01*
X016125Y005484D02*
X016185Y005484D01*
X016185Y005385D02*
X016125Y005385D01*
X016125Y005287D02*
X016185Y005287D01*
X015566Y004991D02*
X015479Y004991D01*
X014741Y004909D02*
X014659Y004991D01*
X014727Y008243D02*
X019945Y008243D01*
X019945Y008341D02*
X014629Y008341D01*
X014475Y008440D02*
X019945Y008440D01*
X019649Y001049D02*
X015422Y001049D01*
X015270Y000951D02*
X019512Y000951D01*
X015136Y000951D02*
X014782Y000951D01*
X014931Y001049D02*
X014990Y001049D01*
M02*
