G75*
G70*
%OFA0B0*%
%FSLAX24Y24*%
%IPPOS*%
%LPD*%
%AMOC8*
5,1,8,0,0,1.08239X$1,22.5*
%
%ADD10C,0.0000*%
%ADD11OC8,0.0520*%
%ADD12C,0.0520*%
%ADD13C,0.0600*%
%ADD14C,0.0660*%
%ADD15C,0.0160*%
%ADD16C,0.0357*%
%ADD17C,0.0100*%
D10*
X000655Y001655D02*
X000655Y019155D01*
X000657Y019215D01*
X000662Y019276D01*
X000671Y019335D01*
X000684Y019394D01*
X000700Y019453D01*
X000720Y019510D01*
X000743Y019565D01*
X000770Y019620D01*
X000799Y019672D01*
X000832Y019723D01*
X000868Y019772D01*
X000906Y019818D01*
X000948Y019862D01*
X000992Y019904D01*
X001038Y019942D01*
X001087Y019978D01*
X001138Y020011D01*
X001190Y020040D01*
X001245Y020067D01*
X001300Y020090D01*
X001357Y020110D01*
X001416Y020126D01*
X001475Y020139D01*
X001534Y020148D01*
X001595Y020153D01*
X001655Y020155D01*
X019155Y020155D01*
X019215Y020153D01*
X019276Y020148D01*
X019335Y020139D01*
X019394Y020126D01*
X019453Y020110D01*
X019510Y020090D01*
X019565Y020067D01*
X019620Y020040D01*
X019672Y020011D01*
X019723Y019978D01*
X019772Y019942D01*
X019818Y019904D01*
X019862Y019862D01*
X019904Y019818D01*
X019942Y019772D01*
X019978Y019723D01*
X020011Y019672D01*
X020040Y019620D01*
X020067Y019565D01*
X020090Y019510D01*
X020110Y019453D01*
X020126Y019394D01*
X020139Y019335D01*
X020148Y019276D01*
X020153Y019215D01*
X020155Y019155D01*
X020155Y001655D01*
X020153Y001595D01*
X020148Y001534D01*
X020139Y001475D01*
X020126Y001416D01*
X020110Y001357D01*
X020090Y001300D01*
X020067Y001245D01*
X020040Y001190D01*
X020011Y001138D01*
X019978Y001087D01*
X019942Y001038D01*
X019904Y000992D01*
X019862Y000948D01*
X019818Y000906D01*
X019772Y000868D01*
X019723Y000832D01*
X019672Y000799D01*
X019620Y000770D01*
X019565Y000743D01*
X019510Y000720D01*
X019453Y000700D01*
X019394Y000684D01*
X019335Y000671D01*
X019276Y000662D01*
X019215Y000657D01*
X019155Y000655D01*
X001655Y000655D01*
X001595Y000657D01*
X001534Y000662D01*
X001475Y000671D01*
X001416Y000684D01*
X001357Y000700D01*
X001300Y000720D01*
X001245Y000743D01*
X001190Y000770D01*
X001138Y000799D01*
X001087Y000832D01*
X001038Y000868D01*
X000992Y000906D01*
X000948Y000948D01*
X000906Y000992D01*
X000868Y001038D01*
X000832Y001087D01*
X000799Y001138D01*
X000770Y001190D01*
X000743Y001245D01*
X000720Y001300D01*
X000700Y001357D01*
X000684Y001416D01*
X000671Y001475D01*
X000662Y001534D01*
X000657Y001595D01*
X000655Y001655D01*
X002183Y018155D02*
X002185Y018198D01*
X002191Y018240D01*
X002201Y018282D01*
X002214Y018323D01*
X002231Y018363D01*
X002252Y018400D01*
X002276Y018436D01*
X002303Y018469D01*
X002333Y018500D01*
X002366Y018528D01*
X002401Y018553D01*
X002438Y018574D01*
X002477Y018592D01*
X002517Y018606D01*
X002559Y018617D01*
X002601Y018624D01*
X002644Y018627D01*
X002687Y018626D01*
X002730Y018621D01*
X002772Y018612D01*
X002813Y018600D01*
X002853Y018584D01*
X002891Y018564D01*
X002927Y018541D01*
X002961Y018514D01*
X002993Y018485D01*
X003021Y018453D01*
X003047Y018418D01*
X003069Y018382D01*
X003088Y018343D01*
X003103Y018303D01*
X003115Y018262D01*
X003123Y018219D01*
X003127Y018176D01*
X003127Y018134D01*
X003123Y018091D01*
X003115Y018048D01*
X003103Y018007D01*
X003088Y017967D01*
X003069Y017928D01*
X003047Y017892D01*
X003021Y017857D01*
X002993Y017825D01*
X002961Y017796D01*
X002927Y017769D01*
X002891Y017746D01*
X002853Y017726D01*
X002813Y017710D01*
X002772Y017698D01*
X002730Y017689D01*
X002687Y017684D01*
X002644Y017683D01*
X002601Y017686D01*
X002559Y017693D01*
X002517Y017704D01*
X002477Y017718D01*
X002438Y017736D01*
X002401Y017757D01*
X002366Y017782D01*
X002333Y017810D01*
X002303Y017841D01*
X002276Y017874D01*
X002252Y017910D01*
X002231Y017947D01*
X002214Y017987D01*
X002201Y018028D01*
X002191Y018070D01*
X002185Y018112D01*
X002183Y018155D01*
X008840Y019155D02*
X008842Y019190D01*
X008848Y019225D01*
X008858Y019259D01*
X008871Y019292D01*
X008888Y019323D01*
X008909Y019351D01*
X008932Y019378D01*
X008959Y019401D01*
X008987Y019422D01*
X009018Y019439D01*
X009051Y019452D01*
X009085Y019462D01*
X009120Y019468D01*
X009155Y019470D01*
X009190Y019468D01*
X009225Y019462D01*
X009259Y019452D01*
X009292Y019439D01*
X009323Y019422D01*
X009351Y019401D01*
X009378Y019378D01*
X009401Y019351D01*
X009422Y019323D01*
X009439Y019292D01*
X009452Y019259D01*
X009462Y019225D01*
X009468Y019190D01*
X009470Y019155D01*
X009468Y019120D01*
X009462Y019085D01*
X009452Y019051D01*
X009439Y019018D01*
X009422Y018987D01*
X009401Y018959D01*
X009378Y018932D01*
X009351Y018909D01*
X009323Y018888D01*
X009292Y018871D01*
X009259Y018858D01*
X009225Y018848D01*
X009190Y018842D01*
X009155Y018840D01*
X009120Y018842D01*
X009085Y018848D01*
X009051Y018858D01*
X009018Y018871D01*
X008987Y018888D01*
X008959Y018909D01*
X008932Y018932D01*
X008909Y018959D01*
X008888Y018987D01*
X008871Y019018D01*
X008858Y019051D01*
X008848Y019085D01*
X008842Y019120D01*
X008840Y019155D01*
X011340Y019155D02*
X011342Y019190D01*
X011348Y019225D01*
X011358Y019259D01*
X011371Y019292D01*
X011388Y019323D01*
X011409Y019351D01*
X011432Y019378D01*
X011459Y019401D01*
X011487Y019422D01*
X011518Y019439D01*
X011551Y019452D01*
X011585Y019462D01*
X011620Y019468D01*
X011655Y019470D01*
X011690Y019468D01*
X011725Y019462D01*
X011759Y019452D01*
X011792Y019439D01*
X011823Y019422D01*
X011851Y019401D01*
X011878Y019378D01*
X011901Y019351D01*
X011922Y019323D01*
X011939Y019292D01*
X011952Y019259D01*
X011962Y019225D01*
X011968Y019190D01*
X011970Y019155D01*
X011968Y019120D01*
X011962Y019085D01*
X011952Y019051D01*
X011939Y019018D01*
X011922Y018987D01*
X011901Y018959D01*
X011878Y018932D01*
X011851Y018909D01*
X011823Y018888D01*
X011792Y018871D01*
X011759Y018858D01*
X011725Y018848D01*
X011690Y018842D01*
X011655Y018840D01*
X011620Y018842D01*
X011585Y018848D01*
X011551Y018858D01*
X011518Y018871D01*
X011487Y018888D01*
X011459Y018909D01*
X011432Y018932D01*
X011409Y018959D01*
X011388Y018987D01*
X011371Y019018D01*
X011358Y019051D01*
X011348Y019085D01*
X011342Y019120D01*
X011340Y019155D01*
X017683Y018155D02*
X017685Y018198D01*
X017691Y018240D01*
X017701Y018282D01*
X017714Y018323D01*
X017731Y018363D01*
X017752Y018400D01*
X017776Y018436D01*
X017803Y018469D01*
X017833Y018500D01*
X017866Y018528D01*
X017901Y018553D01*
X017938Y018574D01*
X017977Y018592D01*
X018017Y018606D01*
X018059Y018617D01*
X018101Y018624D01*
X018144Y018627D01*
X018187Y018626D01*
X018230Y018621D01*
X018272Y018612D01*
X018313Y018600D01*
X018353Y018584D01*
X018391Y018564D01*
X018427Y018541D01*
X018461Y018514D01*
X018493Y018485D01*
X018521Y018453D01*
X018547Y018418D01*
X018569Y018382D01*
X018588Y018343D01*
X018603Y018303D01*
X018615Y018262D01*
X018623Y018219D01*
X018627Y018176D01*
X018627Y018134D01*
X018623Y018091D01*
X018615Y018048D01*
X018603Y018007D01*
X018588Y017967D01*
X018569Y017928D01*
X018547Y017892D01*
X018521Y017857D01*
X018493Y017825D01*
X018461Y017796D01*
X018427Y017769D01*
X018391Y017746D01*
X018353Y017726D01*
X018313Y017710D01*
X018272Y017698D01*
X018230Y017689D01*
X018187Y017684D01*
X018144Y017683D01*
X018101Y017686D01*
X018059Y017693D01*
X018017Y017704D01*
X017977Y017718D01*
X017938Y017736D01*
X017901Y017757D01*
X017866Y017782D01*
X017833Y017810D01*
X017803Y017841D01*
X017776Y017874D01*
X017752Y017910D01*
X017731Y017947D01*
X017714Y017987D01*
X017701Y018028D01*
X017691Y018070D01*
X017685Y018112D01*
X017683Y018155D01*
D11*
X013155Y015155D03*
X012155Y015155D03*
X011405Y014655D03*
X010405Y014655D03*
X009405Y014155D03*
X008405Y014155D03*
X007655Y013655D03*
X006655Y013655D03*
X009155Y010655D03*
X008155Y010155D03*
X007155Y010155D03*
X006155Y009655D03*
X005155Y009655D03*
X001655Y008155D03*
X003905Y005155D03*
X004905Y005155D03*
X005905Y005655D03*
X006905Y005655D03*
X007905Y006155D03*
X008905Y006155D03*
X009905Y006655D03*
X010905Y006655D03*
X011905Y007155D03*
X012905Y007155D03*
X013905Y007655D03*
X014905Y007655D03*
X011905Y011155D03*
X010905Y011155D03*
X010155Y010655D03*
X012905Y011655D03*
X013905Y011655D03*
X010905Y018155D03*
X009905Y018155D03*
X001655Y004155D03*
X016655Y001655D03*
X018655Y001655D03*
D12*
X018895Y002655D02*
X019415Y002655D01*
X019415Y003655D02*
X018895Y003655D01*
X018895Y004655D02*
X019415Y004655D01*
X019415Y005655D02*
X018895Y005655D01*
X016415Y005655D02*
X015895Y005655D01*
X015895Y004655D02*
X016415Y004655D01*
X016415Y003655D02*
X015895Y003655D01*
X015895Y002655D02*
X016415Y002655D01*
D13*
X004735Y003295D02*
X004135Y003295D01*
X004135Y001515D02*
X004735Y001515D01*
X002175Y001515D02*
X001575Y001515D01*
X001575Y003295D02*
X002175Y003295D01*
D14*
X007155Y019155D03*
X013655Y019155D03*
D15*
X010905Y018155D02*
X010905Y016155D01*
X011405Y016155D01*
X011405Y014655D01*
X010405Y014655D02*
X010405Y013155D01*
X010905Y012655D01*
X010905Y011155D01*
X010905Y006655D01*
X010905Y005155D01*
X013905Y005155D01*
X017655Y005155D01*
X018155Y004655D01*
X019155Y004655D01*
X019155Y005655D02*
X018155Y005655D01*
X017655Y006155D01*
X017655Y008155D01*
X016905Y008905D01*
X011905Y008905D01*
X011905Y007155D01*
X010405Y007655D02*
X010405Y005905D01*
X010155Y005655D01*
X009655Y005655D01*
X009405Y005905D01*
X009405Y006655D01*
X009155Y006905D01*
X008655Y006905D01*
X007905Y006155D01*
X005155Y008905D01*
X005155Y009655D01*
X005155Y017155D01*
X006155Y018155D01*
X009905Y018155D01*
X009405Y016155D02*
X009405Y014155D01*
X007655Y013655D02*
X010155Y011155D01*
X010155Y010655D01*
X010155Y007905D01*
X010405Y007655D01*
X009905Y006905D02*
X009905Y006655D01*
X009905Y006905D02*
X007155Y009655D01*
X007155Y010155D01*
X006655Y010655D01*
X006655Y013655D01*
X006655Y015655D01*
X007155Y016155D01*
X009405Y016155D01*
X010905Y016155D01*
X011405Y016155D02*
X012655Y016155D01*
X013155Y015655D01*
X013155Y015155D01*
X013905Y011655D02*
X013405Y011155D01*
X011905Y011155D01*
X013905Y007655D02*
X013905Y005155D01*
X016155Y002655D02*
X009655Y002655D01*
X008515Y001515D01*
X004435Y001515D01*
X003655Y001515D01*
X003155Y002015D01*
X003155Y003655D01*
X002655Y004155D01*
X001655Y004155D01*
X004905Y005155D02*
X006905Y005155D01*
X006905Y005655D01*
X006905Y005155D02*
X008905Y005155D01*
X008905Y006155D01*
X008905Y005155D02*
X010905Y005155D01*
D16*
X011905Y008905D03*
D17*
X001096Y001096D02*
X000951Y001296D01*
X000875Y001532D01*
X000865Y001655D01*
X000865Y001725D01*
X000865Y001742D01*
X000865Y019155D01*
X000875Y019279D01*
X000951Y019514D01*
X001096Y019714D01*
X001296Y019859D01*
X001532Y019935D01*
X001655Y019945D01*
X001717Y019945D01*
X001742Y019945D01*
X019155Y019945D01*
X019279Y019935D01*
X019514Y019859D01*
X019714Y019714D01*
X019859Y019514D01*
X019935Y019279D01*
X019945Y019155D01*
X019945Y019119D01*
X019945Y019068D01*
X019945Y001655D01*
X019935Y001531D01*
X019859Y001296D01*
X019714Y001096D01*
X019514Y000951D01*
X019279Y000875D01*
X019155Y000865D01*
X001655Y000865D01*
X001532Y000875D01*
X001296Y000951D01*
X001096Y001096D01*
X001059Y001148D02*
X001221Y001148D01*
X001286Y001083D02*
X001143Y001226D01*
X001065Y001414D01*
X001065Y001617D01*
X001143Y001804D01*
X001286Y001947D01*
X001474Y002025D01*
X002277Y002025D01*
X002464Y001947D01*
X002607Y001804D01*
X002685Y001617D01*
X002685Y001414D01*
X002607Y001226D01*
X002464Y001083D01*
X002277Y001005D01*
X001474Y001005D01*
X001286Y001083D01*
X001367Y001049D02*
X001161Y001049D01*
X001298Y000951D02*
X019512Y000951D01*
X019649Y001049D02*
X004943Y001049D01*
X005024Y001083D02*
X004837Y001005D01*
X004034Y001005D01*
X003846Y001083D01*
X003704Y001225D01*
X003597Y001225D01*
X003491Y001269D01*
X003409Y001351D01*
X002909Y001851D01*
X002865Y001957D01*
X002865Y002073D01*
X002865Y003535D01*
X002535Y003865D01*
X002030Y003865D01*
X001850Y003685D01*
X001825Y003685D01*
X001825Y003345D01*
X001825Y003245D01*
X001925Y003245D01*
X001925Y002845D01*
X002211Y002845D01*
X002280Y002856D01*
X002348Y002878D01*
X002411Y002910D01*
X002468Y002952D01*
X002518Y003002D01*
X002560Y003059D01*
X002592Y003122D01*
X002614Y003190D01*
X002623Y003245D01*
X001925Y003245D01*
X001925Y003345D01*
X001825Y003345D01*
X001127Y003345D01*
X001136Y003400D01*
X001158Y003468D01*
X001190Y003531D01*
X001232Y003588D01*
X001282Y003638D01*
X001339Y003680D01*
X001402Y003712D01*
X001426Y003720D01*
X001185Y003960D01*
X001185Y004350D01*
X001460Y004625D01*
X001850Y004625D01*
X002030Y004445D01*
X002597Y004445D01*
X002713Y004445D01*
X002819Y004401D01*
X003319Y003901D01*
X003401Y003819D01*
X003445Y003713D01*
X003445Y002135D01*
X003740Y001841D01*
X003846Y001947D01*
X004034Y002025D01*
X004837Y002025D01*
X005024Y001947D01*
X005166Y001805D01*
X008395Y001805D01*
X009409Y002819D01*
X009491Y002901D01*
X009597Y002945D01*
X015520Y002945D01*
X015629Y003054D01*
X015802Y003125D01*
X016509Y003125D01*
X016681Y003054D01*
X016814Y002921D01*
X016885Y002749D01*
X016885Y002562D01*
X016814Y002389D01*
X016681Y002257D01*
X016509Y002185D01*
X015802Y002185D01*
X015629Y002257D01*
X015520Y002365D01*
X009775Y002365D01*
X008679Y001269D01*
X008573Y001225D01*
X008457Y001225D01*
X005166Y001225D01*
X005024Y001083D01*
X005089Y001148D02*
X019751Y001148D01*
X019823Y001246D02*
X018911Y001246D01*
X018850Y001185D02*
X019125Y001460D01*
X019125Y001850D01*
X018850Y002125D01*
X018460Y002125D01*
X018185Y001850D01*
X018185Y001460D01*
X018460Y001185D01*
X018850Y001185D01*
X019010Y001345D02*
X019875Y001345D01*
X019907Y001443D02*
X019108Y001443D01*
X019125Y001542D02*
X019936Y001542D01*
X019944Y001641D02*
X019125Y001641D01*
X019125Y001739D02*
X019945Y001739D01*
X019945Y001838D02*
X019125Y001838D01*
X019039Y001936D02*
X019945Y001936D01*
X019945Y002035D02*
X018940Y002035D01*
X018802Y002185D02*
X019509Y002185D01*
X019681Y002257D01*
X019814Y002389D01*
X019885Y002562D01*
X019885Y002749D01*
X019814Y002921D01*
X019681Y003054D01*
X019509Y003125D01*
X018802Y003125D01*
X018629Y003054D01*
X018497Y002921D01*
X018425Y002749D01*
X018425Y002562D01*
X018497Y002389D01*
X018629Y002257D01*
X018802Y002185D01*
X018689Y002232D02*
X016621Y002232D01*
X016755Y002330D02*
X018555Y002330D01*
X018480Y002429D02*
X016830Y002429D01*
X016871Y002527D02*
X018439Y002527D01*
X018425Y002626D02*
X016885Y002626D01*
X016885Y002725D02*
X018425Y002725D01*
X018456Y002823D02*
X016854Y002823D01*
X016813Y002922D02*
X018497Y002922D01*
X018595Y003020D02*
X016715Y003020D01*
X016524Y003119D02*
X018786Y003119D01*
X018802Y003185D02*
X018629Y003257D01*
X018497Y003389D01*
X018425Y003562D01*
X018425Y003749D01*
X018497Y003921D01*
X018629Y004054D01*
X018802Y004125D01*
X019509Y004125D01*
X019681Y004054D01*
X019814Y003921D01*
X019885Y003749D01*
X019885Y003562D01*
X019814Y003389D01*
X019681Y003257D01*
X019509Y003185D01*
X018802Y003185D01*
X018724Y003217D02*
X016586Y003217D01*
X016509Y003185D02*
X016681Y003257D01*
X016814Y003389D01*
X016885Y003562D01*
X016885Y003749D01*
X016814Y003921D01*
X016681Y004054D01*
X016509Y004125D01*
X015802Y004125D01*
X015629Y004054D01*
X015497Y003921D01*
X015425Y003749D01*
X015425Y003562D01*
X015497Y003389D01*
X015629Y003257D01*
X015802Y003185D01*
X016509Y003185D01*
X016740Y003316D02*
X018570Y003316D01*
X018486Y003414D02*
X016824Y003414D01*
X016865Y003513D02*
X018445Y003513D01*
X018425Y003611D02*
X016885Y003611D01*
X016885Y003710D02*
X018425Y003710D01*
X018450Y003809D02*
X016860Y003809D01*
X016819Y003907D02*
X018491Y003907D01*
X018581Y004006D02*
X016729Y004006D01*
X016559Y004104D02*
X018751Y004104D01*
X018802Y004185D02*
X018629Y004257D01*
X018520Y004365D01*
X018213Y004365D01*
X018097Y004365D01*
X017991Y004409D01*
X017535Y004865D01*
X016837Y004865D01*
X016885Y004749D01*
X016885Y004562D01*
X016814Y004389D01*
X016681Y004257D01*
X016509Y004185D01*
X015802Y004185D01*
X015629Y004257D01*
X015497Y004389D01*
X015425Y004562D01*
X015425Y004749D01*
X015473Y004865D01*
X013847Y004865D01*
X010963Y004865D01*
X010847Y004865D01*
X008963Y004865D01*
X008847Y004865D01*
X006963Y004865D01*
X006847Y004865D01*
X005280Y004865D01*
X005100Y004685D01*
X004710Y004685D01*
X004435Y004960D01*
X004435Y005350D01*
X004710Y005625D01*
X005100Y005625D01*
X005280Y005445D01*
X005451Y005445D01*
X005435Y005460D01*
X005435Y005850D01*
X005710Y006125D01*
X006100Y006125D01*
X006375Y005850D01*
X006375Y005460D01*
X006360Y005445D01*
X006451Y005445D01*
X006435Y005460D01*
X006435Y005850D01*
X006710Y006125D01*
X007100Y006125D01*
X007375Y005850D01*
X007375Y005460D01*
X007360Y005445D01*
X008615Y005445D01*
X008615Y005780D01*
X008435Y005960D01*
X008435Y006275D01*
X008375Y006215D01*
X008375Y005960D01*
X008100Y005685D01*
X007710Y005685D01*
X007435Y005960D01*
X007435Y006215D01*
X004909Y008741D01*
X004865Y008847D01*
X004865Y008963D01*
X004865Y009280D01*
X004685Y009460D01*
X004685Y009850D01*
X004865Y010030D01*
X004865Y017213D01*
X004909Y017319D01*
X004991Y017401D01*
X005991Y018401D01*
X006097Y018445D01*
X006213Y018445D01*
X009530Y018445D01*
X009710Y018625D01*
X010100Y018625D01*
X010375Y018350D01*
X010375Y017960D01*
X010100Y017685D01*
X009710Y017685D01*
X009530Y017865D01*
X006275Y017865D01*
X005445Y017035D01*
X005445Y010030D01*
X005625Y009850D01*
X005625Y009460D01*
X005445Y009280D01*
X005445Y009025D01*
X007845Y006625D01*
X007965Y006625D01*
X008491Y007151D01*
X008597Y007195D01*
X008713Y007195D01*
X009205Y007195D01*
X006909Y009491D01*
X006865Y009597D01*
X006865Y009713D01*
X006865Y009780D01*
X006685Y009960D01*
X006685Y010215D01*
X006409Y010491D01*
X006365Y010597D01*
X006365Y010713D01*
X006365Y013280D01*
X006185Y013460D01*
X006185Y013850D01*
X006365Y014030D01*
X006365Y015713D01*
X006409Y015819D01*
X006491Y015901D01*
X006991Y016401D01*
X007097Y016445D01*
X007213Y016445D01*
X009347Y016445D01*
X009463Y016445D01*
X010615Y016445D01*
X010615Y017780D01*
X010435Y017960D01*
X010435Y018350D01*
X010710Y018625D01*
X011100Y018625D01*
X011375Y018350D01*
X011375Y017960D01*
X011195Y017780D01*
X011195Y016445D01*
X011347Y016445D01*
X011463Y016445D01*
X012713Y016445D01*
X012819Y016401D01*
X012901Y016319D01*
X012901Y016319D01*
X013401Y015819D01*
X013445Y015713D01*
X013445Y015597D01*
X013445Y015530D01*
X013625Y015350D01*
X013625Y014960D01*
X013350Y014685D01*
X012960Y014685D01*
X012685Y014960D01*
X012685Y015350D01*
X012865Y015530D01*
X012865Y015535D01*
X012535Y015865D01*
X011695Y015865D01*
X011695Y015360D01*
X011960Y015625D01*
X012350Y015625D01*
X012625Y015350D01*
X012625Y014960D01*
X012350Y014685D01*
X011960Y014685D01*
X011875Y014771D01*
X011875Y014460D01*
X011600Y014185D01*
X011210Y014185D01*
X010935Y014460D01*
X010935Y014850D01*
X011115Y015030D01*
X011115Y015865D01*
X010963Y015865D01*
X010847Y015865D01*
X009695Y015865D01*
X009695Y014530D01*
X009875Y014350D01*
X009875Y013960D01*
X009600Y013685D01*
X009210Y013685D01*
X008935Y013960D01*
X008935Y014350D01*
X009115Y014530D01*
X009115Y015865D01*
X007275Y015865D01*
X006945Y015535D01*
X006945Y014030D01*
X007125Y013850D01*
X007125Y013460D01*
X006945Y013280D01*
X006945Y010775D01*
X007095Y010625D01*
X007350Y010625D01*
X007625Y010350D01*
X007625Y009960D01*
X007445Y009780D01*
X007445Y009775D01*
X010069Y007151D01*
X010095Y007125D01*
X010100Y007125D01*
X010115Y007110D01*
X010115Y007535D01*
X009909Y007741D01*
X009865Y007847D01*
X009865Y007963D01*
X009865Y010280D01*
X009685Y010460D01*
X009685Y010850D01*
X009865Y011030D01*
X009865Y011035D01*
X007715Y013185D01*
X007460Y013185D01*
X007185Y013460D01*
X007185Y013850D01*
X007460Y014125D01*
X007850Y014125D01*
X007935Y014040D01*
X007935Y014350D01*
X008210Y014625D01*
X008600Y014625D01*
X008875Y014350D01*
X008875Y013960D01*
X008600Y013685D01*
X008210Y013685D01*
X008125Y013771D01*
X008125Y013595D01*
X010319Y011401D01*
X010401Y011319D01*
X010435Y011237D01*
X010435Y011350D01*
X010615Y011530D01*
X010615Y012535D01*
X010159Y012991D01*
X010115Y013097D01*
X010115Y013213D01*
X010115Y014280D01*
X009935Y014460D01*
X009935Y014850D01*
X010210Y015125D01*
X010600Y015125D01*
X010875Y014850D01*
X010875Y014460D01*
X010695Y014280D01*
X010695Y013275D01*
X011069Y012901D01*
X011151Y012819D01*
X011195Y012713D01*
X011195Y011530D01*
X011375Y011350D01*
X011375Y010960D01*
X011195Y010780D01*
X011195Y007030D01*
X011375Y006850D01*
X011375Y006460D01*
X011195Y006280D01*
X011195Y005445D01*
X013615Y005445D01*
X013615Y007280D01*
X013435Y007460D01*
X013435Y007850D01*
X013710Y008125D01*
X014100Y008125D01*
X014375Y007850D01*
X014375Y007460D01*
X014195Y007280D01*
X014195Y005445D01*
X015542Y005445D01*
X015515Y005498D01*
X015495Y005559D01*
X015485Y005623D01*
X015485Y005625D01*
X016125Y005625D01*
X016125Y005685D01*
X015485Y005685D01*
X015485Y005687D01*
X015495Y005751D01*
X015515Y005812D01*
X015544Y005870D01*
X015582Y005922D01*
X015628Y005968D01*
X015680Y006006D01*
X015738Y006035D01*
X015799Y006055D01*
X015863Y006065D01*
X016125Y006065D01*
X016125Y005685D01*
X016185Y005685D01*
X016185Y006065D01*
X016447Y006065D01*
X016511Y006055D01*
X016572Y006035D01*
X016630Y006006D01*
X016682Y005968D01*
X016728Y005922D01*
X016766Y005870D01*
X016795Y005812D01*
X016815Y005751D01*
X016825Y005687D01*
X016825Y005685D01*
X016185Y005685D01*
X016185Y005625D01*
X016825Y005625D01*
X016825Y005623D01*
X016815Y005559D01*
X016795Y005498D01*
X016768Y005445D01*
X017713Y005445D01*
X017819Y005401D01*
X017901Y005319D01*
X018275Y004945D01*
X018520Y004945D01*
X018629Y005054D01*
X018802Y005125D01*
X019509Y005125D01*
X019681Y005054D01*
X019814Y004921D01*
X019885Y004749D01*
X019885Y004562D01*
X019814Y004389D01*
X019681Y004257D01*
X019509Y004185D01*
X018802Y004185D01*
X018759Y004203D02*
X016551Y004203D01*
X016726Y004301D02*
X018584Y004301D01*
X018014Y004400D02*
X016818Y004400D01*
X016859Y004498D02*
X017902Y004498D01*
X017803Y004597D02*
X016885Y004597D01*
X016885Y004695D02*
X017705Y004695D01*
X017606Y004794D02*
X016866Y004794D01*
X016788Y005484D02*
X017916Y005484D01*
X017991Y005409D02*
X018097Y005365D01*
X018213Y005365D01*
X018520Y005365D01*
X018629Y005257D01*
X018802Y005185D01*
X019509Y005185D01*
X019681Y005257D01*
X019814Y005389D01*
X019885Y005562D01*
X019885Y005749D01*
X019814Y005921D01*
X019681Y006054D01*
X019509Y006125D01*
X018802Y006125D01*
X018629Y006054D01*
X018520Y005945D01*
X018275Y005945D01*
X017945Y006275D01*
X017945Y008097D01*
X017945Y008213D01*
X017901Y008319D01*
X017151Y009069D01*
X017069Y009151D01*
X016963Y009195D01*
X012164Y009195D01*
X012125Y009234D01*
X011982Y009294D01*
X011828Y009294D01*
X011685Y009234D01*
X011576Y009125D01*
X011517Y008982D01*
X011517Y008828D01*
X011576Y008685D01*
X011615Y008646D01*
X011615Y007530D01*
X011435Y007350D01*
X011435Y006960D01*
X011710Y006685D01*
X012100Y006685D01*
X012375Y006960D01*
X012375Y007350D01*
X012195Y007530D01*
X012195Y008615D01*
X016785Y008615D01*
X017365Y008035D01*
X017365Y006097D01*
X017409Y005991D01*
X017491Y005909D01*
X017991Y005409D01*
X018049Y005385D02*
X017835Y005385D01*
X017934Y005287D02*
X018599Y005287D01*
X018794Y005188D02*
X018032Y005188D01*
X018131Y005090D02*
X018716Y005090D01*
X018566Y004991D02*
X018229Y004991D01*
X017818Y005582D02*
X016819Y005582D01*
X016806Y005779D02*
X017621Y005779D01*
X017719Y005681D02*
X016185Y005681D01*
X016125Y005681D02*
X014195Y005681D01*
X014195Y005779D02*
X015504Y005779D01*
X015550Y005878D02*
X014195Y005878D01*
X014195Y005976D02*
X015640Y005976D01*
X015491Y005582D02*
X014195Y005582D01*
X014195Y005484D02*
X015522Y005484D01*
X016125Y005779D02*
X016185Y005779D01*
X016185Y005878D02*
X016125Y005878D01*
X016125Y005976D02*
X016185Y005976D01*
X016670Y005976D02*
X017424Y005976D01*
X017374Y006075D02*
X014195Y006075D01*
X014195Y006174D02*
X017365Y006174D01*
X017365Y006272D02*
X014195Y006272D01*
X014195Y006371D02*
X017365Y006371D01*
X017365Y006469D02*
X014195Y006469D01*
X014195Y006568D02*
X017365Y006568D01*
X017365Y006666D02*
X014195Y006666D01*
X014195Y006765D02*
X017365Y006765D01*
X017365Y006863D02*
X014195Y006863D01*
X014195Y006962D02*
X017365Y006962D01*
X017365Y007060D02*
X014195Y007060D01*
X014195Y007159D02*
X017365Y007159D01*
X017365Y007258D02*
X015172Y007258D01*
X015100Y007185D02*
X015375Y007460D01*
X015375Y007850D01*
X015100Y008125D01*
X014710Y008125D01*
X014435Y007850D01*
X014435Y007460D01*
X014710Y007185D01*
X015100Y007185D01*
X015271Y007356D02*
X017365Y007356D01*
X017365Y007455D02*
X015369Y007455D01*
X015375Y007553D02*
X017365Y007553D01*
X017365Y007652D02*
X015375Y007652D01*
X015375Y007750D02*
X017365Y007750D01*
X017365Y007849D02*
X015375Y007849D01*
X015278Y007947D02*
X017365Y007947D01*
X017354Y008046D02*
X015179Y008046D01*
X014631Y008046D02*
X014179Y008046D01*
X014278Y007947D02*
X014533Y007947D01*
X014435Y007849D02*
X014375Y007849D01*
X014375Y007750D02*
X014435Y007750D01*
X014435Y007652D02*
X014375Y007652D01*
X014375Y007553D02*
X014435Y007553D01*
X014441Y007455D02*
X014369Y007455D01*
X014271Y007356D02*
X014539Y007356D01*
X014638Y007258D02*
X014195Y007258D01*
X013615Y007258D02*
X013375Y007258D01*
X013375Y007350D02*
X013375Y006960D01*
X013100Y006685D01*
X012710Y006685D01*
X012435Y006960D01*
X012435Y007350D01*
X012710Y007625D01*
X013100Y007625D01*
X013375Y007350D01*
X013369Y007356D02*
X013539Y007356D01*
X013441Y007455D02*
X013270Y007455D01*
X013172Y007553D02*
X013435Y007553D01*
X013435Y007652D02*
X012195Y007652D01*
X012195Y007750D02*
X013435Y007750D01*
X013435Y007849D02*
X012195Y007849D01*
X012195Y007947D02*
X013533Y007947D01*
X013631Y008046D02*
X012195Y008046D01*
X012195Y008144D02*
X017256Y008144D01*
X017157Y008243D02*
X012195Y008243D01*
X012195Y008341D02*
X017059Y008341D01*
X016960Y008440D02*
X012195Y008440D01*
X012195Y008539D02*
X016861Y008539D01*
X017288Y008933D02*
X019945Y008933D01*
X019945Y009031D02*
X017189Y009031D01*
X017090Y009130D02*
X019945Y009130D01*
X019945Y009228D02*
X012131Y009228D01*
X011679Y009228D02*
X011195Y009228D01*
X011195Y009130D02*
X011581Y009130D01*
X011537Y009031D02*
X011195Y009031D01*
X011195Y008933D02*
X011517Y008933D01*
X011517Y008834D02*
X011195Y008834D01*
X011195Y008736D02*
X011555Y008736D01*
X011615Y008637D02*
X011195Y008637D01*
X011195Y008539D02*
X011615Y008539D01*
X011615Y008440D02*
X011195Y008440D01*
X011195Y008341D02*
X011615Y008341D01*
X011615Y008243D02*
X011195Y008243D01*
X011195Y008144D02*
X011615Y008144D01*
X011615Y008046D02*
X011195Y008046D01*
X011195Y007947D02*
X011615Y007947D01*
X011615Y007849D02*
X011195Y007849D01*
X011195Y007750D02*
X011615Y007750D01*
X011615Y007652D02*
X011195Y007652D01*
X011195Y007553D02*
X011615Y007553D01*
X011540Y007455D02*
X011195Y007455D01*
X011195Y007356D02*
X011441Y007356D01*
X011435Y007258D02*
X011195Y007258D01*
X011195Y007159D02*
X011435Y007159D01*
X011435Y007060D02*
X011195Y007060D01*
X011263Y006962D02*
X011435Y006962D01*
X011361Y006863D02*
X011532Y006863D01*
X011631Y006765D02*
X011375Y006765D01*
X011375Y006666D02*
X013615Y006666D01*
X013615Y006568D02*
X011375Y006568D01*
X011375Y006469D02*
X013615Y006469D01*
X013615Y006371D02*
X011285Y006371D01*
X011195Y006272D02*
X013615Y006272D01*
X013615Y006174D02*
X011195Y006174D01*
X011195Y006075D02*
X013615Y006075D01*
X013615Y005976D02*
X011195Y005976D01*
X011195Y005878D02*
X013615Y005878D01*
X013615Y005779D02*
X011195Y005779D01*
X011195Y005681D02*
X013615Y005681D01*
X013615Y005582D02*
X011195Y005582D01*
X011195Y005484D02*
X013615Y005484D01*
X013615Y006765D02*
X013179Y006765D01*
X013278Y006863D02*
X013615Y006863D01*
X013615Y006962D02*
X013375Y006962D01*
X013375Y007060D02*
X013615Y007060D01*
X013615Y007159D02*
X013375Y007159D01*
X012639Y007553D02*
X012195Y007553D01*
X012270Y007455D02*
X012540Y007455D01*
X012441Y007356D02*
X012369Y007356D01*
X012375Y007258D02*
X012435Y007258D01*
X012435Y007159D02*
X012375Y007159D01*
X012375Y007060D02*
X012435Y007060D01*
X012435Y006962D02*
X012375Y006962D01*
X012278Y006863D02*
X012532Y006863D01*
X012631Y006765D02*
X012179Y006765D01*
X010115Y007159D02*
X010061Y007159D01*
X010115Y007258D02*
X009963Y007258D01*
X009864Y007356D02*
X010115Y007356D01*
X010115Y007455D02*
X009766Y007455D01*
X009667Y007553D02*
X010097Y007553D01*
X009998Y007652D02*
X009569Y007652D01*
X009470Y007750D02*
X009905Y007750D01*
X009865Y007849D02*
X009372Y007849D01*
X009273Y007947D02*
X009865Y007947D01*
X009865Y008046D02*
X009174Y008046D01*
X009076Y008144D02*
X009865Y008144D01*
X009865Y008243D02*
X008977Y008243D01*
X008879Y008341D02*
X009865Y008341D01*
X009865Y008440D02*
X008780Y008440D01*
X008682Y008539D02*
X009865Y008539D01*
X009865Y008637D02*
X008583Y008637D01*
X008485Y008736D02*
X009865Y008736D01*
X009865Y008834D02*
X008386Y008834D01*
X008288Y008933D02*
X009865Y008933D01*
X009865Y009031D02*
X008189Y009031D01*
X008090Y009130D02*
X009865Y009130D01*
X009865Y009228D02*
X007992Y009228D01*
X007893Y009327D02*
X009865Y009327D01*
X009865Y009425D02*
X007795Y009425D01*
X007696Y009524D02*
X009865Y009524D01*
X009865Y009623D02*
X007598Y009623D01*
X007499Y009721D02*
X007924Y009721D01*
X007960Y009685D02*
X008350Y009685D01*
X008625Y009960D01*
X008625Y010350D01*
X008350Y010625D01*
X007960Y010625D01*
X007685Y010350D01*
X007685Y009960D01*
X007960Y009685D01*
X007826Y009820D02*
X007484Y009820D01*
X007583Y009918D02*
X007727Y009918D01*
X007685Y010017D02*
X007625Y010017D01*
X007625Y010115D02*
X007685Y010115D01*
X007685Y010214D02*
X007625Y010214D01*
X007625Y010312D02*
X007685Y010312D01*
X007746Y010411D02*
X007564Y010411D01*
X007465Y010509D02*
X007845Y010509D01*
X007943Y010608D02*
X007367Y010608D01*
X007014Y010707D02*
X008685Y010707D01*
X008685Y010805D02*
X006945Y010805D01*
X006945Y010904D02*
X008739Y010904D01*
X008685Y010850D02*
X008685Y010460D01*
X008960Y010185D01*
X009350Y010185D01*
X009625Y010460D01*
X009625Y010850D01*
X009350Y011125D01*
X008960Y011125D01*
X008685Y010850D01*
X008838Y011002D02*
X006945Y011002D01*
X006945Y011101D02*
X008936Y011101D01*
X009307Y011593D02*
X006945Y011593D01*
X006945Y011495D02*
X009405Y011495D01*
X009504Y011396D02*
X006945Y011396D01*
X006945Y011298D02*
X009602Y011298D01*
X009701Y011199D02*
X006945Y011199D01*
X006945Y011692D02*
X009208Y011692D01*
X009110Y011791D02*
X006945Y011791D01*
X006945Y011889D02*
X009011Y011889D01*
X008912Y011988D02*
X006945Y011988D01*
X006945Y012086D02*
X008814Y012086D01*
X008715Y012185D02*
X006945Y012185D01*
X006945Y012283D02*
X008617Y012283D01*
X008518Y012382D02*
X006945Y012382D01*
X006945Y012480D02*
X008420Y012480D01*
X008321Y012579D02*
X006945Y012579D01*
X006945Y012677D02*
X008223Y012677D01*
X008124Y012776D02*
X006945Y012776D01*
X006945Y012874D02*
X008026Y012874D01*
X007927Y012973D02*
X006945Y012973D01*
X006945Y013072D02*
X007829Y013072D01*
X007730Y013170D02*
X006945Y013170D01*
X006945Y013269D02*
X007377Y013269D01*
X007278Y013367D02*
X007032Y013367D01*
X007125Y013466D02*
X007185Y013466D01*
X007185Y013564D02*
X007125Y013564D01*
X007125Y013663D02*
X007185Y013663D01*
X007185Y013761D02*
X007125Y013761D01*
X007115Y013860D02*
X007195Y013860D01*
X007294Y013958D02*
X007016Y013958D01*
X006945Y014057D02*
X007392Y014057D01*
X006945Y014156D02*
X007935Y014156D01*
X007935Y014254D02*
X006945Y014254D01*
X006945Y014353D02*
X007938Y014353D01*
X008037Y014451D02*
X006945Y014451D01*
X006945Y014550D02*
X008135Y014550D01*
X007935Y014057D02*
X007918Y014057D01*
X008125Y013761D02*
X008134Y013761D01*
X008125Y013663D02*
X010115Y013663D01*
X010115Y013761D02*
X009676Y013761D01*
X009775Y013860D02*
X010115Y013860D01*
X010115Y013958D02*
X009873Y013958D01*
X009875Y014057D02*
X010115Y014057D01*
X010115Y014156D02*
X009875Y014156D01*
X009875Y014254D02*
X010115Y014254D01*
X010043Y014353D02*
X009872Y014353D01*
X009944Y014451D02*
X009774Y014451D01*
X009695Y014550D02*
X009935Y014550D01*
X009935Y014648D02*
X009695Y014648D01*
X009695Y014747D02*
X009935Y014747D01*
X009935Y014845D02*
X009695Y014845D01*
X009695Y014944D02*
X010029Y014944D01*
X010128Y015042D02*
X009695Y015042D01*
X009695Y015141D02*
X011115Y015141D01*
X011115Y015042D02*
X010682Y015042D01*
X010781Y014944D02*
X011029Y014944D01*
X010935Y014845D02*
X010875Y014845D01*
X010875Y014747D02*
X010935Y014747D01*
X010935Y014648D02*
X010875Y014648D01*
X010875Y014550D02*
X010935Y014550D01*
X010944Y014451D02*
X010866Y014451D01*
X010767Y014353D02*
X011043Y014353D01*
X011141Y014254D02*
X010695Y014254D01*
X010695Y014156D02*
X019945Y014156D01*
X019945Y014254D02*
X011669Y014254D01*
X011767Y014353D02*
X019945Y014353D01*
X019945Y014451D02*
X011866Y014451D01*
X011875Y014550D02*
X019945Y014550D01*
X019945Y014648D02*
X011875Y014648D01*
X011875Y014747D02*
X011899Y014747D01*
X012411Y014747D02*
X012899Y014747D01*
X012800Y014845D02*
X012510Y014845D01*
X012609Y014944D02*
X012702Y014944D01*
X012685Y015042D02*
X012625Y015042D01*
X012625Y015141D02*
X012685Y015141D01*
X012685Y015240D02*
X012625Y015240D01*
X012625Y015338D02*
X012685Y015338D01*
X012772Y015437D02*
X012538Y015437D01*
X012440Y015535D02*
X012865Y015535D01*
X012766Y015634D02*
X011695Y015634D01*
X011695Y015732D02*
X012668Y015732D01*
X012569Y015831D02*
X011695Y015831D01*
X011695Y015535D02*
X011871Y015535D01*
X011772Y015437D02*
X011695Y015437D01*
X011115Y015437D02*
X009695Y015437D01*
X009695Y015535D02*
X011115Y015535D01*
X011115Y015634D02*
X009695Y015634D01*
X009695Y015732D02*
X011115Y015732D01*
X011115Y015831D02*
X009695Y015831D01*
X009695Y015338D02*
X011115Y015338D01*
X011115Y015240D02*
X009695Y015240D01*
X009115Y015240D02*
X006945Y015240D01*
X006945Y015338D02*
X009115Y015338D01*
X009115Y015437D02*
X006945Y015437D01*
X006945Y015535D02*
X009115Y015535D01*
X009115Y015634D02*
X007044Y015634D01*
X007142Y015732D02*
X009115Y015732D01*
X009115Y015831D02*
X007241Y015831D01*
X006815Y016225D02*
X005445Y016225D01*
X005445Y016324D02*
X006913Y016324D01*
X007042Y016422D02*
X005445Y016422D01*
X005445Y016521D02*
X010615Y016521D01*
X010615Y016619D02*
X005445Y016619D01*
X005445Y016718D02*
X010615Y016718D01*
X010615Y016816D02*
X005445Y016816D01*
X005445Y016915D02*
X010615Y016915D01*
X010615Y017013D02*
X005445Y017013D01*
X005522Y017112D02*
X010615Y017112D01*
X010615Y017210D02*
X005621Y017210D01*
X005719Y017309D02*
X010615Y017309D01*
X010615Y017407D02*
X005818Y017407D01*
X005916Y017506D02*
X010615Y017506D01*
X010615Y017605D02*
X006015Y017605D01*
X006113Y017703D02*
X009692Y017703D01*
X009594Y017802D02*
X006212Y017802D01*
X005786Y018196D02*
X003338Y018196D01*
X003338Y018291D02*
X003234Y018542D01*
X003042Y018734D01*
X002791Y018838D01*
X002519Y018838D01*
X002269Y018734D01*
X002077Y018542D01*
X001973Y018291D01*
X001973Y018019D01*
X002077Y017769D01*
X002269Y017577D01*
X002519Y017473D01*
X002791Y017473D01*
X003042Y017577D01*
X003234Y017769D01*
X003338Y018019D01*
X003338Y018291D01*
X003336Y018294D02*
X005884Y018294D01*
X005983Y018393D02*
X003295Y018393D01*
X003254Y018491D02*
X009577Y018491D01*
X009675Y018590D02*
X003185Y018590D01*
X003087Y018689D02*
X006870Y018689D01*
X006849Y018697D02*
X007048Y018615D01*
X007263Y018615D01*
X007461Y018697D01*
X007613Y018849D01*
X007695Y019048D01*
X007695Y019263D01*
X007613Y019461D01*
X007461Y019613D01*
X007263Y019695D01*
X007048Y019695D01*
X006849Y019613D01*
X006697Y019461D01*
X006615Y019263D01*
X006615Y019048D01*
X006697Y018849D01*
X006849Y018697D01*
X006759Y018787D02*
X002913Y018787D01*
X002398Y018787D02*
X000865Y018787D01*
X000865Y018689D02*
X002223Y018689D01*
X002125Y018590D02*
X000865Y018590D01*
X000865Y018491D02*
X002056Y018491D01*
X002015Y018393D02*
X000865Y018393D01*
X000865Y018294D02*
X001974Y018294D01*
X001973Y018196D02*
X000865Y018196D01*
X000865Y018097D02*
X001973Y018097D01*
X001981Y017999D02*
X000865Y017999D01*
X000865Y017900D02*
X002022Y017900D01*
X002063Y017802D02*
X000865Y017802D01*
X000865Y017703D02*
X002142Y017703D01*
X002241Y017605D02*
X000865Y017605D01*
X000865Y017506D02*
X002439Y017506D01*
X002871Y017506D02*
X005096Y017506D01*
X005194Y017605D02*
X003070Y017605D01*
X003168Y017703D02*
X005293Y017703D01*
X005392Y017802D02*
X003247Y017802D01*
X003288Y017900D02*
X005490Y017900D01*
X005589Y017999D02*
X003329Y017999D01*
X003338Y018097D02*
X005687Y018097D01*
X004997Y017407D02*
X000865Y017407D01*
X000865Y017309D02*
X004905Y017309D01*
X004865Y017210D02*
X000865Y017210D01*
X000865Y017112D02*
X004865Y017112D01*
X004865Y017013D02*
X000865Y017013D01*
X000865Y016915D02*
X004865Y016915D01*
X004865Y016816D02*
X000865Y016816D01*
X000865Y016718D02*
X004865Y016718D01*
X004865Y016619D02*
X000865Y016619D01*
X000865Y016521D02*
X004865Y016521D01*
X004865Y016422D02*
X000865Y016422D01*
X000865Y016324D02*
X004865Y016324D01*
X004865Y016225D02*
X000865Y016225D01*
X000865Y016126D02*
X004865Y016126D01*
X004865Y016028D02*
X000865Y016028D01*
X000865Y015929D02*
X004865Y015929D01*
X004865Y015831D02*
X000865Y015831D01*
X000865Y015732D02*
X004865Y015732D01*
X004865Y015634D02*
X000865Y015634D01*
X000865Y015535D02*
X004865Y015535D01*
X004865Y015437D02*
X000865Y015437D01*
X000865Y015338D02*
X004865Y015338D01*
X004865Y015240D02*
X000865Y015240D01*
X000865Y015141D02*
X004865Y015141D01*
X004865Y015042D02*
X000865Y015042D01*
X000865Y014944D02*
X004865Y014944D01*
X004865Y014845D02*
X000865Y014845D01*
X000865Y014747D02*
X004865Y014747D01*
X004865Y014648D02*
X000865Y014648D01*
X000865Y014550D02*
X004865Y014550D01*
X004865Y014451D02*
X000865Y014451D01*
X000865Y014353D02*
X004865Y014353D01*
X004865Y014254D02*
X000865Y014254D01*
X000865Y014156D02*
X004865Y014156D01*
X004865Y014057D02*
X000865Y014057D01*
X000865Y013958D02*
X004865Y013958D01*
X004865Y013860D02*
X000865Y013860D01*
X000865Y013761D02*
X004865Y013761D01*
X004865Y013663D02*
X000865Y013663D01*
X000865Y013564D02*
X004865Y013564D01*
X004865Y013466D02*
X000865Y013466D01*
X000865Y013367D02*
X004865Y013367D01*
X004865Y013269D02*
X000865Y013269D01*
X000865Y013170D02*
X004865Y013170D01*
X004865Y013072D02*
X000865Y013072D01*
X000865Y012973D02*
X004865Y012973D01*
X004865Y012874D02*
X000865Y012874D01*
X000865Y012776D02*
X004865Y012776D01*
X004865Y012677D02*
X000865Y012677D01*
X000865Y012579D02*
X004865Y012579D01*
X004865Y012480D02*
X000865Y012480D01*
X000865Y012382D02*
X004865Y012382D01*
X004865Y012283D02*
X000865Y012283D01*
X000865Y012185D02*
X004865Y012185D01*
X004865Y012086D02*
X000865Y012086D01*
X000865Y011988D02*
X004865Y011988D01*
X004865Y011889D02*
X000865Y011889D01*
X000865Y011791D02*
X004865Y011791D01*
X004865Y011692D02*
X000865Y011692D01*
X000865Y011593D02*
X004865Y011593D01*
X004865Y011495D02*
X000865Y011495D01*
X000865Y011396D02*
X004865Y011396D01*
X004865Y011298D02*
X000865Y011298D01*
X000865Y011199D02*
X004865Y011199D01*
X004865Y011101D02*
X000865Y011101D01*
X000865Y011002D02*
X004865Y011002D01*
X004865Y010904D02*
X000865Y010904D01*
X000865Y010805D02*
X004865Y010805D01*
X004865Y010707D02*
X000865Y010707D01*
X000865Y010608D02*
X004865Y010608D01*
X004865Y010509D02*
X000865Y010509D01*
X000865Y010411D02*
X004865Y010411D01*
X004865Y010312D02*
X000865Y010312D01*
X000865Y010214D02*
X004865Y010214D01*
X004865Y010115D02*
X000865Y010115D01*
X000865Y010017D02*
X004852Y010017D01*
X004754Y009918D02*
X000865Y009918D01*
X000865Y009820D02*
X004685Y009820D01*
X004685Y009721D02*
X000865Y009721D01*
X000865Y009623D02*
X004685Y009623D01*
X004685Y009524D02*
X000865Y009524D01*
X000865Y009425D02*
X004720Y009425D01*
X004819Y009327D02*
X000865Y009327D01*
X000865Y009228D02*
X004865Y009228D01*
X004865Y009130D02*
X000865Y009130D01*
X000865Y009031D02*
X004865Y009031D01*
X004865Y008933D02*
X000865Y008933D01*
X000865Y008834D02*
X004871Y008834D01*
X004914Y008736D02*
X000865Y008736D01*
X000865Y008637D02*
X005013Y008637D01*
X005111Y008539D02*
X001936Y008539D01*
X001850Y008625D02*
X002125Y008350D01*
X002125Y007960D01*
X001850Y007685D01*
X001460Y007685D01*
X001185Y007960D01*
X001185Y008350D01*
X001460Y008625D01*
X001850Y008625D01*
X002035Y008440D02*
X005210Y008440D01*
X005309Y008341D02*
X002125Y008341D01*
X002125Y008243D02*
X005407Y008243D01*
X005506Y008144D02*
X002125Y008144D01*
X002125Y008046D02*
X005604Y008046D01*
X005703Y007947D02*
X002112Y007947D01*
X002013Y007849D02*
X005801Y007849D01*
X005900Y007750D02*
X001915Y007750D01*
X001395Y007750D02*
X000865Y007750D01*
X000865Y007652D02*
X005998Y007652D01*
X006097Y007553D02*
X000865Y007553D01*
X000865Y007455D02*
X006195Y007455D01*
X006294Y007356D02*
X000865Y007356D01*
X000865Y007258D02*
X006393Y007258D01*
X006491Y007159D02*
X000865Y007159D01*
X000865Y007060D02*
X006590Y007060D01*
X006688Y006962D02*
X000865Y006962D01*
X000865Y006863D02*
X006787Y006863D01*
X006885Y006765D02*
X000865Y006765D01*
X000865Y006666D02*
X006984Y006666D01*
X007082Y006568D02*
X000865Y006568D01*
X000865Y006469D02*
X007181Y006469D01*
X007279Y006371D02*
X000865Y006371D01*
X000865Y006272D02*
X007378Y006272D01*
X007435Y006174D02*
X000865Y006174D01*
X000865Y006075D02*
X005660Y006075D01*
X005562Y005976D02*
X000865Y005976D01*
X000865Y005878D02*
X005463Y005878D01*
X005435Y005779D02*
X000865Y005779D01*
X000865Y005681D02*
X005435Y005681D01*
X005435Y005582D02*
X005143Y005582D01*
X005241Y005484D02*
X005435Y005484D01*
X005209Y004794D02*
X015444Y004794D01*
X015425Y004695D02*
X005110Y004695D01*
X004700Y004695D02*
X004110Y004695D01*
X004100Y004685D02*
X004375Y004960D01*
X004375Y005350D01*
X004100Y005625D01*
X003710Y005625D01*
X003435Y005350D01*
X003435Y004960D01*
X003710Y004685D01*
X004100Y004685D01*
X004209Y004794D02*
X004602Y004794D01*
X004503Y004892D02*
X004307Y004892D01*
X004375Y004991D02*
X004435Y004991D01*
X004435Y005090D02*
X004375Y005090D01*
X004375Y005188D02*
X004435Y005188D01*
X004435Y005287D02*
X004375Y005287D01*
X004340Y005385D02*
X004471Y005385D01*
X004569Y005484D02*
X004241Y005484D01*
X004143Y005582D02*
X004668Y005582D01*
X003668Y005582D02*
X000865Y005582D01*
X000865Y005484D02*
X003569Y005484D01*
X003471Y005385D02*
X000865Y005385D01*
X000865Y005287D02*
X003435Y005287D01*
X003435Y005188D02*
X000865Y005188D01*
X000865Y005090D02*
X003435Y005090D01*
X003435Y004991D02*
X000865Y004991D01*
X000865Y004892D02*
X003503Y004892D01*
X003602Y004794D02*
X000865Y004794D01*
X000865Y004695D02*
X003700Y004695D01*
X003116Y004104D02*
X015751Y004104D01*
X015759Y004203D02*
X003018Y004203D01*
X002919Y004301D02*
X015584Y004301D01*
X015492Y004400D02*
X002821Y004400D01*
X003215Y004006D02*
X015581Y004006D01*
X015491Y003907D02*
X003313Y003907D01*
X003405Y003809D02*
X015450Y003809D01*
X015425Y003710D02*
X004912Y003710D01*
X004908Y003712D02*
X004840Y003734D01*
X004771Y003745D01*
X004485Y003745D01*
X004485Y003345D01*
X004385Y003345D01*
X004385Y003245D01*
X004485Y003245D01*
X004485Y002845D01*
X004771Y002845D01*
X004840Y002856D01*
X004908Y002878D01*
X004971Y002910D01*
X005028Y002952D01*
X005078Y003002D01*
X005120Y003059D01*
X005152Y003122D01*
X005174Y003190D01*
X005183Y003245D01*
X004485Y003245D01*
X004485Y003345D01*
X005183Y003345D01*
X005174Y003400D01*
X005152Y003468D01*
X005120Y003531D01*
X005078Y003588D01*
X005028Y003638D01*
X004971Y003680D01*
X004908Y003712D01*
X005055Y003611D02*
X015425Y003611D01*
X015445Y003513D02*
X005129Y003513D01*
X005170Y003414D02*
X015486Y003414D01*
X015570Y003316D02*
X004485Y003316D01*
X004485Y003414D02*
X004385Y003414D01*
X004385Y003345D02*
X004385Y003745D01*
X004100Y003745D01*
X004030Y003734D01*
X003962Y003712D01*
X003899Y003680D01*
X003842Y003638D01*
X003792Y003588D01*
X003750Y003531D01*
X003718Y003468D01*
X003696Y003400D01*
X003687Y003345D01*
X004385Y003345D01*
X004385Y003316D02*
X003445Y003316D01*
X003445Y003414D02*
X003701Y003414D01*
X003741Y003513D02*
X003445Y003513D01*
X003445Y003611D02*
X003815Y003611D01*
X003958Y003710D02*
X003445Y003710D01*
X003445Y003217D02*
X003692Y003217D01*
X003696Y003190D02*
X003718Y003122D01*
X003750Y003059D01*
X003792Y003002D01*
X003842Y002952D01*
X003899Y002910D01*
X003962Y002878D01*
X004030Y002856D01*
X004100Y002845D01*
X004385Y002845D01*
X004385Y003245D01*
X003687Y003245D01*
X003696Y003190D01*
X003720Y003119D02*
X003445Y003119D01*
X003445Y003020D02*
X003779Y003020D01*
X003884Y002922D02*
X003445Y002922D01*
X003445Y002823D02*
X009413Y002823D01*
X009314Y002725D02*
X003445Y002725D01*
X003445Y002626D02*
X009216Y002626D01*
X009117Y002527D02*
X003445Y002527D01*
X003445Y002429D02*
X009019Y002429D01*
X008920Y002330D02*
X003445Y002330D01*
X003445Y002232D02*
X008822Y002232D01*
X008723Y002133D02*
X003447Y002133D01*
X003546Y002035D02*
X008625Y002035D01*
X008526Y001936D02*
X005035Y001936D01*
X005134Y001838D02*
X008428Y001838D01*
X008854Y001443D02*
X016287Y001443D01*
X016245Y001485D02*
X016485Y001245D01*
X016625Y001245D01*
X016625Y001625D01*
X016685Y001625D01*
X016685Y001245D01*
X016825Y001245D01*
X017065Y001485D01*
X017065Y001625D01*
X016685Y001625D01*
X016685Y001685D01*
X017065Y001685D01*
X017065Y001825D01*
X016825Y002065D01*
X016685Y002065D01*
X016685Y001685D01*
X016625Y001685D01*
X016625Y001625D01*
X016245Y001625D01*
X016245Y001485D01*
X016245Y001542D02*
X008952Y001542D01*
X009051Y001641D02*
X016625Y001641D01*
X016625Y001685D02*
X016245Y001685D01*
X016245Y001825D01*
X016485Y002065D01*
X016625Y002065D01*
X016625Y001685D01*
X016625Y001739D02*
X016685Y001739D01*
X016685Y001641D02*
X018185Y001641D01*
X018185Y001739D02*
X017065Y001739D01*
X017052Y001838D02*
X018185Y001838D01*
X018272Y001936D02*
X016954Y001936D01*
X016855Y002035D02*
X018370Y002035D01*
X018185Y001542D02*
X017065Y001542D01*
X017023Y001443D02*
X018202Y001443D01*
X018301Y001345D02*
X016925Y001345D01*
X016826Y001246D02*
X018399Y001246D01*
X019621Y002232D02*
X019945Y002232D01*
X019945Y002330D02*
X019755Y002330D01*
X019830Y002429D02*
X019945Y002429D01*
X019945Y002527D02*
X019871Y002527D01*
X019885Y002626D02*
X019945Y002626D01*
X019945Y002725D02*
X019885Y002725D01*
X019854Y002823D02*
X019945Y002823D01*
X019945Y002922D02*
X019813Y002922D01*
X019715Y003020D02*
X019945Y003020D01*
X019945Y003119D02*
X019524Y003119D01*
X019586Y003217D02*
X019945Y003217D01*
X019945Y003316D02*
X019740Y003316D01*
X019824Y003414D02*
X019945Y003414D01*
X019945Y003513D02*
X019865Y003513D01*
X019885Y003611D02*
X019945Y003611D01*
X019945Y003710D02*
X019885Y003710D01*
X019860Y003809D02*
X019945Y003809D01*
X019945Y003907D02*
X019819Y003907D01*
X019729Y004006D02*
X019945Y004006D01*
X019945Y004104D02*
X019559Y004104D01*
X019551Y004203D02*
X019945Y004203D01*
X019945Y004301D02*
X019726Y004301D01*
X019818Y004400D02*
X019945Y004400D01*
X019945Y004498D02*
X019859Y004498D01*
X019885Y004597D02*
X019945Y004597D01*
X019945Y004695D02*
X019885Y004695D01*
X019866Y004794D02*
X019945Y004794D01*
X019945Y004892D02*
X019826Y004892D01*
X019744Y004991D02*
X019945Y004991D01*
X019945Y005090D02*
X019594Y005090D01*
X019516Y005188D02*
X019945Y005188D01*
X019945Y005287D02*
X019711Y005287D01*
X019810Y005385D02*
X019945Y005385D01*
X019945Y005484D02*
X019853Y005484D01*
X019885Y005582D02*
X019945Y005582D01*
X019945Y005681D02*
X019885Y005681D01*
X019872Y005779D02*
X019945Y005779D01*
X019945Y005878D02*
X019832Y005878D01*
X019758Y005976D02*
X019945Y005976D01*
X019945Y006075D02*
X019630Y006075D01*
X019945Y006174D02*
X018047Y006174D01*
X017948Y006272D02*
X019945Y006272D01*
X019945Y006371D02*
X017945Y006371D01*
X017945Y006469D02*
X019945Y006469D01*
X019945Y006568D02*
X017945Y006568D01*
X017945Y006666D02*
X019945Y006666D01*
X019945Y006765D02*
X017945Y006765D01*
X017945Y006863D02*
X019945Y006863D01*
X019945Y006962D02*
X017945Y006962D01*
X017945Y007060D02*
X019945Y007060D01*
X019945Y007159D02*
X017945Y007159D01*
X017945Y007258D02*
X019945Y007258D01*
X019945Y007356D02*
X017945Y007356D01*
X017945Y007455D02*
X019945Y007455D01*
X019945Y007553D02*
X017945Y007553D01*
X017945Y007652D02*
X019945Y007652D01*
X019945Y007750D02*
X017945Y007750D01*
X017945Y007849D02*
X019945Y007849D01*
X019945Y007947D02*
X017945Y007947D01*
X017945Y008046D02*
X019945Y008046D01*
X019945Y008144D02*
X017945Y008144D01*
X017933Y008243D02*
X019945Y008243D01*
X019945Y008341D02*
X017879Y008341D01*
X017780Y008440D02*
X019945Y008440D01*
X019945Y008539D02*
X017682Y008539D01*
X017583Y008637D02*
X019945Y008637D01*
X019945Y008736D02*
X017485Y008736D01*
X017386Y008834D02*
X019945Y008834D01*
X019945Y009327D02*
X011195Y009327D01*
X011195Y009425D02*
X019945Y009425D01*
X019945Y009524D02*
X011195Y009524D01*
X011195Y009623D02*
X019945Y009623D01*
X019945Y009721D02*
X011195Y009721D01*
X011195Y009820D02*
X019945Y009820D01*
X019945Y009918D02*
X011195Y009918D01*
X011195Y010017D02*
X019945Y010017D01*
X019945Y010115D02*
X011195Y010115D01*
X011195Y010214D02*
X019945Y010214D01*
X019945Y010312D02*
X011195Y010312D01*
X011195Y010411D02*
X019945Y010411D01*
X019945Y010509D02*
X011195Y010509D01*
X011195Y010608D02*
X019945Y010608D01*
X019945Y010707D02*
X012121Y010707D01*
X012100Y010685D02*
X012280Y010865D01*
X013347Y010865D01*
X013463Y010865D01*
X013569Y010909D01*
X013845Y011185D01*
X014100Y011185D01*
X014375Y011460D01*
X014375Y011850D01*
X014100Y012125D01*
X013710Y012125D01*
X013435Y011850D01*
X013435Y011595D01*
X013375Y011535D01*
X013375Y011850D01*
X013100Y012125D01*
X012710Y012125D01*
X012435Y011850D01*
X012435Y011460D01*
X012451Y011445D01*
X012280Y011445D01*
X012100Y011625D01*
X011710Y011625D01*
X011435Y011350D01*
X011435Y010960D01*
X011710Y010685D01*
X012100Y010685D01*
X012220Y010805D02*
X019945Y010805D01*
X019945Y010904D02*
X013556Y010904D01*
X013662Y011002D02*
X019945Y011002D01*
X019945Y011101D02*
X013761Y011101D01*
X014114Y011199D02*
X019945Y011199D01*
X019945Y011298D02*
X014212Y011298D01*
X014311Y011396D02*
X019945Y011396D01*
X019945Y011495D02*
X014375Y011495D01*
X014375Y011593D02*
X019945Y011593D01*
X019945Y011692D02*
X014375Y011692D01*
X014375Y011791D02*
X019945Y011791D01*
X019945Y011889D02*
X014336Y011889D01*
X014237Y011988D02*
X019945Y011988D01*
X019945Y012086D02*
X014139Y012086D01*
X013671Y012086D02*
X013139Y012086D01*
X013237Y011988D02*
X013573Y011988D01*
X013474Y011889D02*
X013336Y011889D01*
X013375Y011791D02*
X013435Y011791D01*
X013435Y011692D02*
X013375Y011692D01*
X013375Y011593D02*
X013433Y011593D01*
X012671Y012086D02*
X011195Y012086D01*
X011195Y011988D02*
X012573Y011988D01*
X012474Y011889D02*
X011195Y011889D01*
X011195Y011791D02*
X012435Y011791D01*
X012435Y011692D02*
X011195Y011692D01*
X011195Y011593D02*
X011679Y011593D01*
X011580Y011495D02*
X011230Y011495D01*
X011329Y011396D02*
X011482Y011396D01*
X011435Y011298D02*
X011375Y011298D01*
X011375Y011199D02*
X011435Y011199D01*
X011435Y011101D02*
X011375Y011101D01*
X011375Y011002D02*
X011435Y011002D01*
X011492Y010904D02*
X011318Y010904D01*
X011220Y010805D02*
X011590Y010805D01*
X011689Y010707D02*
X011195Y010707D01*
X010435Y011298D02*
X010410Y011298D01*
X010482Y011396D02*
X010324Y011396D01*
X010225Y011495D02*
X010580Y011495D01*
X010615Y011593D02*
X010127Y011593D01*
X010028Y011692D02*
X010615Y011692D01*
X010615Y011791D02*
X009930Y011791D01*
X009831Y011889D02*
X010615Y011889D01*
X010615Y011988D02*
X009733Y011988D01*
X009634Y012086D02*
X010615Y012086D01*
X010615Y012185D02*
X009536Y012185D01*
X009437Y012283D02*
X010615Y012283D01*
X010615Y012382D02*
X009339Y012382D01*
X009240Y012480D02*
X010615Y012480D01*
X010571Y012579D02*
X009141Y012579D01*
X009043Y012677D02*
X010473Y012677D01*
X010374Y012776D02*
X008944Y012776D01*
X008846Y012874D02*
X010276Y012874D01*
X010177Y012973D02*
X008747Y012973D01*
X008649Y013072D02*
X010126Y013072D01*
X010115Y013170D02*
X008550Y013170D01*
X008452Y013269D02*
X010115Y013269D01*
X010115Y013367D02*
X008353Y013367D01*
X008255Y013466D02*
X010115Y013466D01*
X010115Y013564D02*
X008156Y013564D01*
X008676Y013761D02*
X009134Y013761D01*
X009036Y013860D02*
X008775Y013860D01*
X008873Y013958D02*
X008937Y013958D01*
X008935Y014057D02*
X008875Y014057D01*
X008875Y014156D02*
X008935Y014156D01*
X008935Y014254D02*
X008875Y014254D01*
X008872Y014353D02*
X008938Y014353D01*
X009037Y014451D02*
X008774Y014451D01*
X008675Y014550D02*
X009115Y014550D01*
X009115Y014648D02*
X006945Y014648D01*
X006945Y014747D02*
X009115Y014747D01*
X009115Y014845D02*
X006945Y014845D01*
X006945Y014944D02*
X009115Y014944D01*
X009115Y015042D02*
X006945Y015042D01*
X006945Y015141D02*
X009115Y015141D01*
X010695Y014057D02*
X019945Y014057D01*
X019945Y013958D02*
X010695Y013958D01*
X010695Y013860D02*
X019945Y013860D01*
X019945Y013761D02*
X010695Y013761D01*
X010695Y013663D02*
X019945Y013663D01*
X019945Y013564D02*
X010695Y013564D01*
X010695Y013466D02*
X019945Y013466D01*
X019945Y013367D02*
X010695Y013367D01*
X010702Y013269D02*
X019945Y013269D01*
X019945Y013170D02*
X010800Y013170D01*
X010899Y013072D02*
X019945Y013072D01*
X019945Y012973D02*
X010997Y012973D01*
X011096Y012874D02*
X019945Y012874D01*
X019945Y012776D02*
X011169Y012776D01*
X011195Y012677D02*
X019945Y012677D01*
X019945Y012579D02*
X011195Y012579D01*
X011195Y012480D02*
X019945Y012480D01*
X019945Y012382D02*
X011195Y012382D01*
X011195Y012283D02*
X019945Y012283D01*
X019945Y012185D02*
X011195Y012185D01*
X012131Y011593D02*
X012435Y011593D01*
X012435Y011495D02*
X012230Y011495D01*
X009838Y011002D02*
X009473Y011002D01*
X009571Y010904D02*
X009739Y010904D01*
X009685Y010805D02*
X009625Y010805D01*
X009625Y010707D02*
X009685Y010707D01*
X009685Y010608D02*
X009625Y010608D01*
X009625Y010509D02*
X009685Y010509D01*
X009735Y010411D02*
X009576Y010411D01*
X009477Y010312D02*
X009833Y010312D01*
X009865Y010214D02*
X009378Y010214D01*
X009865Y010115D02*
X008625Y010115D01*
X008625Y010017D02*
X009865Y010017D01*
X009865Y009918D02*
X008583Y009918D01*
X008484Y009820D02*
X009865Y009820D01*
X009865Y009721D02*
X008386Y009721D01*
X008625Y010214D02*
X008932Y010214D01*
X008833Y010312D02*
X008625Y010312D01*
X008564Y010411D02*
X008735Y010411D01*
X008685Y010509D02*
X008465Y010509D01*
X008367Y010608D02*
X008685Y010608D01*
X009374Y011101D02*
X009799Y011101D01*
X007566Y008834D02*
X005636Y008834D01*
X005735Y008736D02*
X007664Y008736D01*
X007763Y008637D02*
X005833Y008637D01*
X005932Y008539D02*
X007861Y008539D01*
X007960Y008440D02*
X006030Y008440D01*
X006129Y008341D02*
X008059Y008341D01*
X008157Y008243D02*
X006227Y008243D01*
X006326Y008144D02*
X008256Y008144D01*
X008354Y008046D02*
X006424Y008046D01*
X006523Y007947D02*
X008453Y007947D01*
X008551Y007849D02*
X006622Y007849D01*
X006720Y007750D02*
X008650Y007750D01*
X008748Y007652D02*
X006819Y007652D01*
X006917Y007553D02*
X008847Y007553D01*
X008945Y007455D02*
X007016Y007455D01*
X007114Y007356D02*
X009044Y007356D01*
X009143Y007258D02*
X007213Y007258D01*
X007311Y007159D02*
X008510Y007159D01*
X008400Y007060D02*
X007410Y007060D01*
X007508Y006962D02*
X008302Y006962D01*
X008203Y006863D02*
X007607Y006863D01*
X007706Y006765D02*
X008105Y006765D01*
X008006Y006666D02*
X007804Y006666D01*
X007435Y006075D02*
X007150Y006075D01*
X007248Y005976D02*
X007435Y005976D01*
X007518Y005878D02*
X007347Y005878D01*
X007375Y005779D02*
X007616Y005779D01*
X007375Y005681D02*
X008615Y005681D01*
X008615Y005779D02*
X008194Y005779D01*
X008293Y005878D02*
X008518Y005878D01*
X008435Y005976D02*
X008375Y005976D01*
X008375Y006075D02*
X008435Y006075D01*
X008435Y006174D02*
X008375Y006174D01*
X008432Y006272D02*
X008435Y006272D01*
X008615Y005582D02*
X007375Y005582D01*
X007375Y005484D02*
X008615Y005484D01*
X006660Y006075D02*
X006150Y006075D01*
X006248Y005976D02*
X006562Y005976D01*
X006463Y005878D02*
X006347Y005878D01*
X006375Y005779D02*
X006435Y005779D01*
X006435Y005681D02*
X006375Y005681D01*
X006375Y005582D02*
X006435Y005582D01*
X006435Y005484D02*
X006375Y005484D01*
X004485Y003710D02*
X004385Y003710D01*
X004385Y003611D02*
X004485Y003611D01*
X004485Y003513D02*
X004385Y003513D01*
X004385Y003217D02*
X004485Y003217D01*
X004485Y003119D02*
X004385Y003119D01*
X004385Y003020D02*
X004485Y003020D01*
X004485Y002922D02*
X004385Y002922D01*
X004987Y002922D02*
X009541Y002922D01*
X009740Y002330D02*
X015555Y002330D01*
X015689Y002232D02*
X009642Y002232D01*
X009543Y002133D02*
X019945Y002133D01*
X016685Y002035D02*
X016625Y002035D01*
X016625Y001936D02*
X016685Y001936D01*
X016685Y001838D02*
X016625Y001838D01*
X016455Y002035D02*
X009445Y002035D01*
X009346Y001936D02*
X016356Y001936D01*
X016258Y001838D02*
X009248Y001838D01*
X009149Y001739D02*
X016245Y001739D01*
X016625Y001542D02*
X016685Y001542D01*
X016685Y001443D02*
X016625Y001443D01*
X016625Y001345D02*
X016685Y001345D01*
X016685Y001246D02*
X016625Y001246D01*
X016484Y001246D02*
X008624Y001246D01*
X008755Y001345D02*
X016385Y001345D01*
X015595Y003020D02*
X005092Y003020D01*
X005150Y003119D02*
X015786Y003119D01*
X015724Y003217D02*
X005178Y003217D01*
X003835Y001936D02*
X003644Y001936D01*
X003218Y001542D02*
X002685Y001542D01*
X002685Y001443D02*
X003317Y001443D01*
X003415Y001345D02*
X002657Y001345D01*
X002616Y001246D02*
X003546Y001246D01*
X003781Y001148D02*
X002529Y001148D01*
X002383Y001049D02*
X003927Y001049D01*
X003120Y001641D02*
X002675Y001641D01*
X002634Y001739D02*
X003021Y001739D01*
X002922Y001838D02*
X002574Y001838D01*
X002475Y001936D02*
X002874Y001936D01*
X002865Y002035D02*
X000865Y002035D01*
X000865Y002133D02*
X002865Y002133D01*
X002865Y002232D02*
X000865Y002232D01*
X000865Y002330D02*
X002865Y002330D01*
X002865Y002429D02*
X000865Y002429D01*
X000865Y002527D02*
X002865Y002527D01*
X002865Y002626D02*
X000865Y002626D01*
X000865Y002725D02*
X002865Y002725D01*
X002865Y002823D02*
X000865Y002823D01*
X000865Y002922D02*
X001324Y002922D01*
X001339Y002910D02*
X001282Y002952D01*
X001232Y003002D01*
X001190Y003059D01*
X001158Y003122D01*
X001136Y003190D01*
X001127Y003245D01*
X001825Y003245D01*
X001825Y002845D01*
X001540Y002845D01*
X001470Y002856D01*
X001402Y002878D01*
X001339Y002910D01*
X001219Y003020D02*
X000865Y003020D01*
X000865Y003119D02*
X001160Y003119D01*
X001132Y003217D02*
X000865Y003217D01*
X000865Y003316D02*
X001825Y003316D01*
X001825Y003414D02*
X001925Y003414D01*
X001925Y003345D02*
X001925Y003745D01*
X002211Y003745D01*
X002280Y003734D01*
X002348Y003712D01*
X002411Y003680D01*
X002468Y003638D01*
X002518Y003588D01*
X002560Y003531D01*
X002592Y003468D01*
X002614Y003400D01*
X002623Y003345D01*
X001925Y003345D01*
X001925Y003316D02*
X002865Y003316D01*
X002865Y003414D02*
X002610Y003414D01*
X002569Y003513D02*
X002865Y003513D01*
X002789Y003611D02*
X002495Y003611D01*
X002352Y003710D02*
X002690Y003710D01*
X002592Y003809D02*
X001973Y003809D01*
X001925Y003710D02*
X001875Y003710D01*
X001825Y003611D02*
X001925Y003611D01*
X001925Y003513D02*
X001825Y003513D01*
X001825Y003217D02*
X001925Y003217D01*
X001925Y003119D02*
X001825Y003119D01*
X001825Y003020D02*
X001925Y003020D01*
X001925Y002922D02*
X001825Y002922D01*
X002427Y002922D02*
X002865Y002922D01*
X002865Y003020D02*
X002532Y003020D01*
X002590Y003119D02*
X002865Y003119D01*
X002865Y003217D02*
X002618Y003217D01*
X001398Y003710D02*
X000865Y003710D01*
X000865Y003809D02*
X001337Y003809D01*
X001239Y003907D02*
X000865Y003907D01*
X000865Y004006D02*
X001185Y004006D01*
X001185Y004104D02*
X000865Y004104D01*
X000865Y004203D02*
X001185Y004203D01*
X001185Y004301D02*
X000865Y004301D01*
X000865Y004400D02*
X001235Y004400D01*
X001334Y004498D02*
X000865Y004498D01*
X000865Y004597D02*
X001432Y004597D01*
X001878Y004597D02*
X015425Y004597D01*
X015451Y004498D02*
X001977Y004498D01*
X001255Y003611D02*
X000865Y003611D01*
X000865Y003513D02*
X001181Y003513D01*
X001141Y003414D02*
X000865Y003414D01*
X000865Y001936D02*
X001275Y001936D01*
X001176Y001838D02*
X000865Y001838D01*
X000865Y001739D02*
X001116Y001739D01*
X001075Y001641D02*
X000866Y001641D01*
X000874Y001542D02*
X001065Y001542D01*
X001065Y001443D02*
X000903Y001443D01*
X000935Y001345D02*
X001094Y001345D01*
X001134Y001246D02*
X000988Y001246D01*
X000865Y007849D02*
X001297Y007849D01*
X001198Y007947D02*
X000865Y007947D01*
X000865Y008046D02*
X001185Y008046D01*
X001185Y008144D02*
X000865Y008144D01*
X000865Y008243D02*
X001185Y008243D01*
X001185Y008341D02*
X000865Y008341D01*
X000865Y008440D02*
X001275Y008440D01*
X001374Y008539D02*
X000865Y008539D01*
X005445Y009031D02*
X007369Y009031D01*
X007467Y008933D02*
X005538Y008933D01*
X005445Y009130D02*
X007270Y009130D01*
X007172Y009228D02*
X006393Y009228D01*
X006350Y009185D02*
X006625Y009460D01*
X006625Y009850D01*
X006350Y010125D01*
X005960Y010125D01*
X005685Y009850D01*
X005685Y009460D01*
X005960Y009185D01*
X006350Y009185D01*
X006492Y009327D02*
X007073Y009327D01*
X006975Y009425D02*
X006590Y009425D01*
X006625Y009524D02*
X006895Y009524D01*
X006865Y009623D02*
X006625Y009623D01*
X006625Y009721D02*
X006865Y009721D01*
X006826Y009820D02*
X006625Y009820D01*
X006557Y009918D02*
X006727Y009918D01*
X006685Y010017D02*
X006458Y010017D01*
X006360Y010115D02*
X006685Y010115D01*
X006685Y010214D02*
X005445Y010214D01*
X005445Y010312D02*
X006588Y010312D01*
X006489Y010411D02*
X005445Y010411D01*
X005445Y010509D02*
X006402Y010509D01*
X006365Y010608D02*
X005445Y010608D01*
X005445Y010707D02*
X006365Y010707D01*
X006365Y010805D02*
X005445Y010805D01*
X005445Y010904D02*
X006365Y010904D01*
X006365Y011002D02*
X005445Y011002D01*
X005445Y011101D02*
X006365Y011101D01*
X006365Y011199D02*
X005445Y011199D01*
X005445Y011298D02*
X006365Y011298D01*
X006365Y011396D02*
X005445Y011396D01*
X005445Y011495D02*
X006365Y011495D01*
X006365Y011593D02*
X005445Y011593D01*
X005445Y011692D02*
X006365Y011692D01*
X006365Y011791D02*
X005445Y011791D01*
X005445Y011889D02*
X006365Y011889D01*
X006365Y011988D02*
X005445Y011988D01*
X005445Y012086D02*
X006365Y012086D01*
X006365Y012185D02*
X005445Y012185D01*
X005445Y012283D02*
X006365Y012283D01*
X006365Y012382D02*
X005445Y012382D01*
X005445Y012480D02*
X006365Y012480D01*
X006365Y012579D02*
X005445Y012579D01*
X005445Y012677D02*
X006365Y012677D01*
X006365Y012776D02*
X005445Y012776D01*
X005445Y012874D02*
X006365Y012874D01*
X006365Y012973D02*
X005445Y012973D01*
X005445Y013072D02*
X006365Y013072D01*
X006365Y013170D02*
X005445Y013170D01*
X005445Y013269D02*
X006365Y013269D01*
X006278Y013367D02*
X005445Y013367D01*
X005445Y013466D02*
X006185Y013466D01*
X006185Y013564D02*
X005445Y013564D01*
X005445Y013663D02*
X006185Y013663D01*
X006185Y013761D02*
X005445Y013761D01*
X005445Y013860D02*
X006195Y013860D01*
X006294Y013958D02*
X005445Y013958D01*
X005445Y014057D02*
X006365Y014057D01*
X006365Y014156D02*
X005445Y014156D01*
X005445Y014254D02*
X006365Y014254D01*
X006365Y014353D02*
X005445Y014353D01*
X005445Y014451D02*
X006365Y014451D01*
X006365Y014550D02*
X005445Y014550D01*
X005445Y014648D02*
X006365Y014648D01*
X006365Y014747D02*
X005445Y014747D01*
X005445Y014845D02*
X006365Y014845D01*
X006365Y014944D02*
X005445Y014944D01*
X005445Y015042D02*
X006365Y015042D01*
X006365Y015141D02*
X005445Y015141D01*
X005445Y015240D02*
X006365Y015240D01*
X006365Y015338D02*
X005445Y015338D01*
X005445Y015437D02*
X006365Y015437D01*
X006365Y015535D02*
X005445Y015535D01*
X005445Y015634D02*
X006365Y015634D01*
X006373Y015732D02*
X005445Y015732D01*
X005445Y015831D02*
X006421Y015831D01*
X006519Y015929D02*
X005445Y015929D01*
X005445Y016028D02*
X006618Y016028D01*
X006716Y016126D02*
X005445Y016126D01*
X007440Y018689D02*
X008910Y018689D01*
X008858Y018710D02*
X009051Y018630D01*
X009260Y018630D01*
X009452Y018710D01*
X009600Y018858D01*
X009680Y019051D01*
X009680Y019260D01*
X009600Y019452D01*
X009452Y019600D01*
X009260Y019680D01*
X009051Y019680D01*
X008858Y019600D01*
X008710Y019452D01*
X008630Y019260D01*
X008630Y019051D01*
X008710Y018858D01*
X008858Y018710D01*
X008781Y018787D02*
X007551Y018787D01*
X007628Y018886D02*
X008699Y018886D01*
X008658Y018984D02*
X007669Y018984D01*
X007695Y019083D02*
X008630Y019083D01*
X008630Y019181D02*
X007695Y019181D01*
X007688Y019280D02*
X008639Y019280D01*
X008679Y019378D02*
X007647Y019378D01*
X007597Y019477D02*
X008734Y019477D01*
X008833Y019575D02*
X007498Y019575D01*
X007314Y019674D02*
X009036Y019674D01*
X009274Y019674D02*
X011536Y019674D01*
X011551Y019680D02*
X011358Y019600D01*
X011210Y019452D01*
X011130Y019260D01*
X011130Y019051D01*
X011210Y018858D01*
X011358Y018710D01*
X011551Y018630D01*
X011760Y018630D01*
X011952Y018710D01*
X012100Y018858D01*
X012180Y019051D01*
X012180Y019260D01*
X012100Y019452D01*
X011952Y019600D01*
X011760Y019680D01*
X011551Y019680D01*
X011774Y019674D02*
X019743Y019674D01*
X019814Y019575D02*
X013887Y019575D01*
X013907Y019566D02*
X013839Y019600D01*
X013768Y019623D01*
X013704Y019633D01*
X013704Y019204D01*
X013607Y019204D01*
X013607Y019633D01*
X013543Y019623D01*
X013471Y019600D01*
X013404Y019566D01*
X013342Y019521D01*
X013289Y019468D01*
X013245Y019407D01*
X013210Y019339D01*
X013187Y019268D01*
X013177Y019204D01*
X013606Y019204D01*
X013606Y019107D01*
X013177Y019107D01*
X013187Y019043D01*
X013210Y018971D01*
X013245Y018904D01*
X013289Y018842D01*
X013342Y018789D01*
X013404Y018745D01*
X013471Y018710D01*
X013543Y018687D01*
X013607Y018677D01*
X013607Y019106D01*
X013704Y019106D01*
X013704Y018677D01*
X013768Y018687D01*
X013839Y018710D01*
X013907Y018745D01*
X013968Y018789D01*
X014021Y018842D01*
X014066Y018904D01*
X014100Y018971D01*
X014123Y019043D01*
X014133Y019107D01*
X013704Y019107D01*
X013704Y019204D01*
X014133Y019204D01*
X014123Y019268D01*
X014100Y019339D01*
X014066Y019407D01*
X014021Y019468D01*
X013968Y019521D01*
X013907Y019566D01*
X014012Y019477D02*
X019871Y019477D01*
X019903Y019378D02*
X014080Y019378D01*
X014119Y019280D02*
X019935Y019280D01*
X019943Y019181D02*
X013704Y019181D01*
X013606Y019181D02*
X012180Y019181D01*
X012180Y019083D02*
X013181Y019083D01*
X013206Y018984D02*
X012152Y018984D01*
X012112Y018886D02*
X013258Y018886D01*
X013345Y018787D02*
X012029Y018787D01*
X011900Y018689D02*
X013538Y018689D01*
X013607Y018689D02*
X013704Y018689D01*
X013772Y018689D02*
X017723Y018689D01*
X017769Y018734D02*
X017577Y018542D01*
X017473Y018291D01*
X017473Y018019D01*
X017577Y017769D01*
X017769Y017577D01*
X018019Y017473D01*
X018291Y017473D01*
X018542Y017577D01*
X018734Y017769D01*
X018838Y018019D01*
X018838Y018291D01*
X018734Y018542D01*
X018542Y018734D01*
X018291Y018838D01*
X018019Y018838D01*
X017769Y018734D01*
X017898Y018787D02*
X013965Y018787D01*
X014053Y018886D02*
X019945Y018886D01*
X019945Y018984D02*
X014104Y018984D01*
X014130Y019083D02*
X019945Y019083D01*
X019945Y018787D02*
X018413Y018787D01*
X018587Y018689D02*
X019945Y018689D01*
X019945Y018590D02*
X018685Y018590D01*
X018754Y018491D02*
X019945Y018491D01*
X019945Y018393D02*
X018795Y018393D01*
X018836Y018294D02*
X019945Y018294D01*
X019945Y018196D02*
X018838Y018196D01*
X018838Y018097D02*
X019945Y018097D01*
X019945Y017999D02*
X018829Y017999D01*
X018788Y017900D02*
X019945Y017900D01*
X019945Y017802D02*
X018747Y017802D01*
X018668Y017703D02*
X019945Y017703D01*
X019945Y017605D02*
X018570Y017605D01*
X018371Y017506D02*
X019945Y017506D01*
X019945Y017407D02*
X011195Y017407D01*
X011195Y017309D02*
X019945Y017309D01*
X019945Y017210D02*
X011195Y017210D01*
X011195Y017112D02*
X019945Y017112D01*
X019945Y017013D02*
X011195Y017013D01*
X011195Y016915D02*
X019945Y016915D01*
X019945Y016816D02*
X011195Y016816D01*
X011195Y016718D02*
X019945Y016718D01*
X019945Y016619D02*
X011195Y016619D01*
X011195Y016521D02*
X019945Y016521D01*
X019945Y016422D02*
X012768Y016422D01*
X012897Y016324D02*
X019945Y016324D01*
X019945Y016225D02*
X012995Y016225D01*
X013094Y016126D02*
X019945Y016126D01*
X019945Y016028D02*
X013192Y016028D01*
X013291Y015929D02*
X019945Y015929D01*
X019945Y015831D02*
X013390Y015831D01*
X013437Y015732D02*
X019945Y015732D01*
X019945Y015634D02*
X013445Y015634D01*
X013445Y015535D02*
X019945Y015535D01*
X019945Y015437D02*
X013538Y015437D01*
X013625Y015338D02*
X019945Y015338D01*
X019945Y015240D02*
X013625Y015240D01*
X013625Y015141D02*
X019945Y015141D01*
X019945Y015042D02*
X013625Y015042D01*
X013609Y014944D02*
X019945Y014944D01*
X019945Y014845D02*
X013510Y014845D01*
X013411Y014747D02*
X019945Y014747D01*
X017939Y017506D02*
X011195Y017506D01*
X011195Y017605D02*
X017741Y017605D01*
X017642Y017703D02*
X011195Y017703D01*
X011216Y017802D02*
X017563Y017802D01*
X017522Y017900D02*
X011315Y017900D01*
X011375Y017999D02*
X017481Y017999D01*
X017473Y018097D02*
X011375Y018097D01*
X011375Y018196D02*
X017473Y018196D01*
X017474Y018294D02*
X011375Y018294D01*
X011332Y018393D02*
X017515Y018393D01*
X017556Y018491D02*
X011233Y018491D01*
X011135Y018590D02*
X017625Y018590D01*
X019477Y019871D02*
X001334Y019871D01*
X001177Y019773D02*
X019633Y019773D01*
X013704Y019575D02*
X013607Y019575D01*
X013607Y019477D02*
X013704Y019477D01*
X013704Y019378D02*
X013607Y019378D01*
X013607Y019280D02*
X013704Y019280D01*
X013704Y019083D02*
X013607Y019083D01*
X013607Y018984D02*
X013704Y018984D01*
X013704Y018886D02*
X013607Y018886D01*
X013607Y018787D02*
X013704Y018787D01*
X013191Y019280D02*
X012172Y019280D01*
X012131Y019378D02*
X013230Y019378D01*
X013298Y019477D02*
X012076Y019477D01*
X011977Y019575D02*
X013423Y019575D01*
X011333Y019575D02*
X009477Y019575D01*
X009576Y019477D02*
X011234Y019477D01*
X011179Y019378D02*
X009631Y019378D01*
X009672Y019280D02*
X011139Y019280D01*
X011130Y019181D02*
X009680Y019181D01*
X009680Y019083D02*
X011130Y019083D01*
X011158Y018984D02*
X009652Y018984D01*
X009612Y018886D02*
X011199Y018886D01*
X011281Y018787D02*
X009529Y018787D01*
X009400Y018689D02*
X011410Y018689D01*
X010675Y018590D02*
X010135Y018590D01*
X010233Y018491D02*
X010577Y018491D01*
X010478Y018393D02*
X010332Y018393D01*
X010375Y018294D02*
X010435Y018294D01*
X010435Y018196D02*
X010375Y018196D01*
X010375Y018097D02*
X010435Y018097D01*
X010435Y017999D02*
X010375Y017999D01*
X010315Y017900D02*
X010495Y017900D01*
X010594Y017802D02*
X010216Y017802D01*
X010118Y017703D02*
X010615Y017703D01*
X006997Y019674D02*
X001068Y019674D01*
X000996Y019575D02*
X006812Y019575D01*
X006713Y019477D02*
X000939Y019477D01*
X000907Y019378D02*
X006663Y019378D01*
X006622Y019280D02*
X000875Y019280D01*
X000867Y019181D02*
X006615Y019181D01*
X006615Y019083D02*
X000865Y019083D01*
X000865Y018984D02*
X006641Y018984D01*
X006682Y018886D02*
X000865Y018886D01*
X005445Y010115D02*
X005951Y010115D01*
X005852Y010017D02*
X005458Y010017D01*
X005557Y009918D02*
X005754Y009918D01*
X005685Y009820D02*
X005625Y009820D01*
X005625Y009721D02*
X005685Y009721D01*
X005685Y009623D02*
X005625Y009623D01*
X005625Y009524D02*
X005685Y009524D01*
X005720Y009425D02*
X005590Y009425D01*
X005492Y009327D02*
X005819Y009327D01*
X005917Y009228D02*
X005445Y009228D01*
X016760Y005878D02*
X017522Y005878D01*
X018145Y006075D02*
X018681Y006075D01*
X018552Y005976D02*
X018244Y005976D01*
M02*
